<?xml version="1.0" encoding="UTF-8" standalone="no"?>
<svg width="180px" height="68px" viewBox="0 0 180 68" version="1.1" xmlns="http://www.w3.org/2000/svg" xmlns:xlink="http://www.w3.org/1999/xlink" xmlns:sketch="http://www.bohemiancoding.com/sketch/ns">
    <!-- Generator: Sketch 3.5.2 (25235) - http://www.bohemiancoding.com/sketch -->
    <title>Logo</title>
    <desc>Created with Sketch.</desc>
    <defs></defs>
    <g id="Page-1" stroke="none" stroke-width="1" fill="none" fill-rule="evenodd" sketch:type="MSPage">
        <g id="Planes" sketch:type="MSArtboardGroup" transform="translate(-165.000000, -53.000000)">
            <g id="Header" sketch:type="MSLayerGroup">
                <g id="Header-bar" transform="translate(0.000000, 30.000000)">
                    <g id="Logo" transform="translate(165.000000, 23.000000)">
                        <text id="gr" sketch:type="MSTextLayer" font-family="Aquawax" font-size="29.688411" font-weight="260" letter-spacing="-3.07368445" fill="#C5D257">
                            <tspan x="75.7619105" y="61.4155317">gr</tspan>
                        </text>
                        <text id="Se" sketch:type="MSTextLayer" font-family="Aquawax" font-size="29.688411" font-weight="420" letter-spacing="-1.39999998" fill="#D9D9D9">
                            <tspan x="113.235544" y="61.4155317">S</tspan>
                            <tspan x="127.644623" y="61.4155317">e</tspan>
                        </text>
                        <text id="o" sketch:type="MSTextLayer" font-family="Aquawax" font-size="29.688411" font-weight="260" letter-spacing="-3.0999999" fill="#C5D257">
                            <tspan x="97.3499818" y="61.4155317">o</tspan>
                        </text>
                        <text id="er" sketch:type="MSTextLayer" font-family="Aquawax" font-size="29.688411" font-weight="420" letter-spacing="-2" fill="#D9D9D9">
                            <tspan x="152.320281" y="61.4155317">e</tspan>
                            <tspan x="168.296614" y="61.4155317">r</tspan>
                        </text>
                        <text id="ll" sketch:type="MSTextLayer" font-family="Aquawax" font-size="29.688411" font-weight="420" letter-spacing="-4" fill="#D9D9D9">
                            <tspan x="142.970057" y="61.4155317">l</tspan>
                            <tspan x="146.867174" y="61.4155317">l</tspan>
                        </text>
                        <g id="A-Hoja" fill="#C5D257" sketch:type="MSShapeGroup">
                            <path d="M70.1815978,37.0901792 C70.1001333,36.3988053 70.0186689,35.7481004 69.9372045,35.0567264 C69.9372045,34.3653524 69.8557401,33.6739785 69.8964723,32.9826045 C69.9372045,32.2912306 69.9372045,31.5998566 69.9779367,30.9084827 C70.0594011,30.2171087 70.1001333,29.5257348 70.1815978,28.8750299 C70.3037944,28.1836559 70.3852588,27.532951 70.5074554,26.8415771 C70.6703843,26.1908722 70.7925809,25.4994982 70.9555098,24.8487933 L71.5257607,22.8560096 L72.1774761,20.9038949 L72.951388,18.9924492 C73.2365135,18.3824134 73.5623712,17.7317085 73.8474967,17.1216726 C74.1733543,16.5116368 74.499212,15.901601 74.8250697,15.2915651 C75.1916596,14.6815293 75.5582495,14.1121625 75.9248394,13.5427957 C76.3321615,12.9734289 76.7394836,12.4447312 77.1875379,11.8753644 C77.6355922,11.3466667 78.1243787,10.858638 78.572433,10.3299403 L79.346345,9.63856631 L79.7536671,9.2725448 C79.8758637,9.15053763 79.9980604,9.02853047 80.1609892,8.94719235 L81.0163656,8.33715651 L81.4236877,8.01180406 L81.871742,7.76778973 L82.7678506,7.239092 L83.215905,6.99507766 L83.7046915,6.79173238 L84.6415323,6.34437276 L85.1303188,6.14102748 L85.6191053,5.97835125 C86.9225361,5.49032258 88.2259668,5.08363202 89.5701297,4.75827957 C90.9142926,4.43292712 92.2584556,4.14824373 93.6026185,3.94489845 C94.9467814,3.70088411 96.2909444,3.53820789 97.6758395,3.3348626 L101.74906,2.80616487 L103.785671,2.52148148 L105.822281,2.19612903 L107.81816,1.83010753 L109.814038,1.38274791 L111.769184,0.813381123 L113.683598,0.162676225 L113.887259,0.0813381123 L113.927991,0.284683393 C114.213117,1.74876941 114.335313,3.25352449 114.376046,4.75827957 C114.416778,6.26303465 114.376046,7.76778973 114.253849,9.2725448 C114.009456,12.282055 113.602134,15.2508961 113.113347,18.1790681 C112.868954,19.6431541 112.665293,21.1072401 112.298703,22.6119952 C111.932113,24.0760812 111.484059,25.5401673 110.832343,26.9229152 C110.180628,28.3056631 109.325252,29.6070729 108.347679,30.7458065 C107.329373,31.88454 106.188871,32.9012664 104.926173,33.7959857 C103.704207,34.6907049 102.360044,35.4227479 101.015881,36.1141219 C99.6717178,36.8054958 98.2868226,37.4155317 96.8611953,37.9442294 C94.0506728,39.0016249 91.0772215,39.7336679 88.0630379,40.0590203 C86.5559462,40.2216965 85.0488544,40.2623656 83.5417626,40.1810275 C82.7678506,40.1403584 82.0346709,40.0590203 81.3014911,39.9776822 C80.5683113,39.855675 79.7943993,39.6929988 79.1019518,39.5303226 C77.6355922,39.2049701 76.2099648,38.7576105 74.7843375,38.35092 C73.3587101,37.9442294 71.8923506,37.6188769 70.425991,37.4562007 L70.425991,37.3748626 C73.4401746,37.5782079 76.3321615,38.5135962 79.2241484,39.123632 C79.9573282,39.2863082 80.6497757,39.4083154 81.4236877,39.4896535 C82.1568675,39.5709916 82.8900473,39.6523297 83.6232271,39.6523297 C85.0895866,39.6929988 86.5966784,39.6116607 88.0630379,39.4489845 C90.9957571,39.082963 93.887744,38.3102509 96.616802,37.2121864 C98.0016972,36.6834886 99.3458601,36.0734528 100.649291,35.3820789 C101.993454,34.6907049 103.256152,33.9586619 104.437386,33.1046117 C105.61862,32.2505615 106.71839,31.2745042 107.695963,30.1764397 C108.632804,29.0783751 109.447448,27.8583035 110.099164,26.5568937 C110.750879,25.2554839 111.198933,23.8320669 111.565523,22.449319 C111.932113,21.025902 112.135774,19.561816 112.380167,18.0570609 C112.909686,15.1288889 113.35774,12.2007168 113.642866,9.23187575 C113.765062,7.76778973 113.887259,6.26303465 113.887259,4.79894863 C113.887259,3.3348626 113.805795,1.83010753 113.520669,0.366021505 L113.765062,0.488028674 L111.809916,1.13873357 L109.814038,1.6674313 L107.81816,2.11479092 L105.781549,2.48081243 C104.437386,2.68415771 103.093223,2.88750299 101.708328,3.09084827 L97.6351073,3.66021505 C96.2909444,3.86356033 94.9467814,4.06690562 93.6026185,4.35158901 C92.2584556,4.6362724 90.9550249,4.92095579 89.6108619,5.2869773 C88.3074312,5.65299881 87.0040005,6.10035842 85.7820342,6.5883871 C84.5600679,7.11708483 83.3381016,7.68645161 82.1568675,8.41849462 L81.7088132,8.66250896 L81.3014911,8.94719235 L80.4868469,9.5572282 C80.3646503,9.63856631 80.2424536,9.76057348 80.120257,9.88258065 L79.7536671,10.2079331 L79.0204873,10.899307 C78.572433,11.3873357 78.1243787,11.8753644 77.6763244,12.4040621 C77.2690023,12.9327599 76.820948,13.4614576 76.4543581,13.9901553 C76.0877682,14.5595221 75.6804461,15.0882198 75.3545884,15.6982557 C75.0287308,16.2676225 74.6621409,16.8776583 74.3770154,17.4470251 C74.0918899,18.0570609 73.7660322,18.6670968 73.4809068,19.2771326 L72.7069948,21.1479092 L72.0145472,23.0593548 L71.4035641,25.0114695 C71.2406352,25.6621744 71.0777064,26.3128793 70.9147775,27.0042533 C70.7518487,27.6549582 70.6703843,28.3463321 70.5074554,28.997037 C70.3852588,29.6477419 70.3445266,30.3391159 70.22233,31.0304898 C70.1408656,31.7218638 70.1001333,32.3725687 70.0594011,33.0639427 C70.0186689,33.7553166 70.0594011,34.4060215 70.0186689,35.0973955 C70.0594011,35.7887694 70.1001333,36.4394743 70.1408656,37.1308483 L70.1815978,37.0901792 L70.1815978,37.0901792 Z" id="Shape"></path>
                            <path d="M113.765062,0.854050179 C113.765062,0.854050179 113.561401,1.13873357 113.154079,1.6674313 C112.950418,1.9521147 112.706025,2.23679809 112.380167,2.60281959 C112.05431,2.9688411 111.68772,3.37553166 111.239665,3.82289128 C110.384289,4.75827957 109.284519,5.77500597 107.940356,6.91373955 C106.636926,8.05247312 105.089102,9.2725448 103.378349,10.5739546 C101.667596,11.8753644 99.8346466,13.2581123 97.9202328,14.7221983 C96.9833919,15.4542413 95.9650867,16.2269534 94.9875136,17.0403345 C94.0099406,17.8537157 93.0323676,18.7077658 92.0140623,19.6024851 C90.018184,21.3512545 88.0223057,23.2627001 85.9856952,25.1741458 C84.96739,26.1502031 83.9490847,27.0855914 82.8900473,28.0616487 C81.8310098,29.0377061 80.7719724,29.9730944 79.7129349,30.9084827 C78.6538974,31.843871 77.5133956,32.7385902 76.4136259,33.6333094 C75.3138562,34.5280287 74.1733543,35.3820789 73.0328525,36.19546 L72.1774761,36.8054958 L71.7294217,37.1308483 L71.3220996,37.4155317 C70.7111165,37.8222222 70.1001333,38.1882437 69.4891502,38.5542652 C68.8781671,38.9202867 68.2671839,39.2049701 67.6154685,39.4896535 C66.9637532,39.7743369 66.35277,40.0183513 65.7010547,40.2623656 C65.0493393,40.5063799 64.397624,40.6690562 63.7459086,40.8724014 C63.0941932,41.0350777 62.4424779,41.1570848 61.7907625,41.279092 C61.1390472,41.3604301 60.4873318,41.4417682 59.7948842,41.4417682 C59.1024367,41.4417682 58.4507213,41.279092 57.8397382,41.1570848 C56.6177719,40.8724014 55.47727,40.547049 54.3775003,40.2623656 C53.2777306,39.9776822 52.2186932,39.7743369 51.1596557,39.6116607 C49.082313,39.2863082 47.1678991,39.2049701 45.4571463,39.2456392 C43.7463935,39.3269773 42.2800339,39.5303226 41.0580676,39.7743369 C40.4470845,39.8963441 39.9175658,40.0183513 39.4287792,40.1403584 C38.9807249,40.2623656 38.5734028,40.3843728 38.2475452,40.4657109 C37.5958298,40.6690562 37.2699721,40.7503943 37.2699721,40.7503943 L37.2699721,40.7503943 C37.2292399,40.7503943 37.1885077,40.7503943 37.1885077,40.7097252 C37.1885077,40.6690562 37.1885077,40.6283871 37.2292399,40.6283871 C37.2292399,40.6283871 37.5550976,40.5063799 38.1660807,40.2623656 C38.7770639,40.0183513 39.7139047,39.6929988 40.935871,39.3676464 C42.1578373,39.0422939 43.6649291,38.7169415 45.3756819,38.5542652 C47.1271669,38.391589 49.1230452,38.35092 51.2818523,38.6356033 C52.3408898,38.7576105 53.4813917,38.9609558 54.6218936,39.2049701 C55.7623954,39.4489845 56.9028973,39.7336679 58.0841314,39.9776822 C58.6543823,40.0996894 59.2653655,40.1810275 59.7948842,40.1810275 C60.3651352,40.1810275 60.9761183,40.0996894 61.5871015,40.0183513 C62.8090678,39.815006 64.0310341,39.4896535 65.2530004,39.0422939 C66.4749667,38.5949343 67.696933,38.0662366 68.8781671,37.4562007 C69.4891502,37.1308483 70.0594011,36.8054958 70.5889199,36.4394743 L71.0369742,36.1547909 L71.4442963,35.8701075 L72.2996727,35.2600717 C73.4401746,34.4466906 74.5806764,33.6333094 75.7211783,32.8199283 C76.8616802,32.0065472 78.0021821,31.152497 79.142684,30.2984468 C81.3829555,28.5496774 83.5824948,26.7602389 85.6598376,24.8894624 C87.7371803,23.0186858 89.6923263,21.1072401 91.6067402,19.1957945 C93.4804219,17.3250179 95.3541035,15.4949104 97.2277852,13.9088172 C99.1014668,12.322724 100.975149,10.9806452 102.685901,9.71990442 C103.541278,9.06919952 104.355922,8.49983274 105.129834,7.88979689 C105.903746,7.32043011 106.636926,6.75106332 107.329373,6.22236559 C108.673536,5.16497013 109.85477,4.22958184 110.750879,3.37553166 C111.239665,2.9688411 111.606255,2.60281959 111.972845,2.27746714 C112.135774,2.11479092 112.298703,1.9521147 112.461632,1.83010753 C112.624561,1.6674313 112.746757,1.54542413 112.868954,1.42341697 C113.35774,0.935388292 113.602134,0.691373955 113.602134,0.691373955 C113.642866,0.650704898 113.683598,0.650704898 113.683598,0.691373955 C113.805795,0.813381123 113.805795,0.854050179 113.765062,0.854050179 L113.765062,0.854050179 Z" id="Shape"></path>
                            <path d="M114.376046,7.6051135 C114.376046,7.6051135 114.253849,7.64578256 114.050188,7.64578256 C113.846527,7.64578256 113.561401,7.68645161 113.235544,7.64578256 C113.072615,7.64578256 112.909686,7.6051135 112.706025,7.56444444 C112.502364,7.52377539 112.339435,7.44243728 112.135774,7.32043011 C111.932113,7.239092 111.728452,7.15775388 111.524791,7.15775388 C111.32113,7.11708483 111.076737,7.15775388 110.873076,7.19842294 C110.628682,7.239092 110.425021,7.27976105 110.22136,7.32043011 C110.017699,7.36109916 109.814038,7.36109916 109.610377,7.40176822 C109.406716,7.44243728 109.203055,7.44243728 109.040126,7.44243728 L108.510607,7.44243728 L108.062553,7.44243728 L107.695963,7.44243728 L107.370105,7.44243728 L107.329373,7.36109916 C107.329373,7.36109916 107.410838,7.27976105 107.573767,7.11708483 C107.655231,7.03574671 107.777428,6.99507766 107.899624,6.91373955 C108.021821,6.83240143 108.18475,6.79173238 108.347679,6.71039427 C108.673536,6.5883871 109.080858,6.50704898 109.528913,6.50704898 C109.732574,6.50704898 109.976967,6.54771804 110.22136,6.54771804 C110.465753,6.54771804 110.669414,6.62905615 110.913808,6.71039427 C111.158201,6.79173238 111.361862,6.83240143 111.565523,6.87307049 C111.769184,6.91373955 112.013577,6.87307049 112.217238,6.87307049 C112.4209,6.83240143 112.665293,6.79173238 112.828222,6.83240143 C113.031883,6.83240143 113.194811,6.87307049 113.35774,6.9544086 C113.683598,7.03574671 113.968723,7.19842294 114.131652,7.27976105 C114.294581,7.40176822 114.416778,7.48310633 114.416778,7.48310633 L114.376046,7.6051135 L114.376046,7.6051135 Z" id="Shape"></path>
                            <path d="M112.950418,13.9494863 C112.950418,13.9494863 112.746757,13.9494863 112.380167,13.8681481 C112.176506,13.8274791 111.972845,13.8274791 111.728452,13.78681 C111.484059,13.746141 111.198933,13.7054719 110.913808,13.6648029 C110.628682,13.5834648 110.262092,13.5834648 109.936235,13.4614576 C109.610377,13.3801195 109.243787,13.2581123 108.877197,13.1361051 C108.510607,13.014098 108.103285,12.9327599 107.695963,12.8920908 C107.288641,12.8514217 106.881319,12.8514217 106.473997,12.8920908 C106.066675,12.9327599 105.659353,12.9734289 105.252031,12.9734289 C104.844708,12.9734289 104.437386,13.014098 104.070796,13.014098 C103.296884,13.054767 102.563705,13.014098 101.952722,12.9734289 C101.341738,12.9327599 100.81222,12.8920908 100.44563,12.8514217 C100.07904,12.8107527 99.8753788,12.7700836 99.8753788,12.7700836 L99.8753788,12.6887455 C99.8753788,12.6887455 100.07904,12.6074074 100.44563,12.5260693 C100.81222,12.4447312 101.341738,12.322724 101.952722,12.282055 C102.563705,12.2007168 103.296884,12.1600478 104.111529,12.2007168 C104.518851,12.2413859 104.926173,12.2413859 105.333495,12.282055 C105.740817,12.322724 106.148139,12.4040621 106.596193,12.4854002 C107.003516,12.5667384 107.410838,12.6480765 107.81816,12.6887455 C108.225482,12.7294146 108.632804,12.7294146 109.040126,12.7294146 C109.447448,12.7294146 109.814038,12.7294146 110.180628,12.7700836 C110.547218,12.8107527 110.873076,12.8920908 111.198933,13.014098 C111.484059,13.0954361 111.769184,13.1767742 112.013577,13.2987814 C112.257971,13.3801195 112.461632,13.5021266 112.624561,13.5834648 C112.950418,13.746141 113.113347,13.9088172 113.113347,13.9088172 L112.950418,13.9494863 L112.950418,13.9494863 Z" id="Shape"></path>
                            <path d="M112.217238,18.7891039 C112.217238,18.7891039 112.176506,18.7484349 112.05431,18.6670968 C112.013577,18.6264277 111.932113,18.5857587 111.850649,18.5450896 C111.769184,18.5044205 111.68772,18.4637515 111.565523,18.3824134 C111.361862,18.2604062 111.076737,18.1790681 110.750879,18.09773 C110.425021,18.0163919 110.058431,17.8943847 109.651109,17.8130466 C109.243787,17.7317085 108.795733,17.6503704 108.306946,17.5283632 C107.81816,17.4470251 107.329373,17.2843489 106.799855,17.1623417 C106.270336,17.0403345 105.700085,16.9589964 105.129834,16.9183274 C104.559583,16.8776583 103.989332,16.9183274 103.378349,16.9183274 C102.808098,16.9589964 102.237847,16.9996655 101.667596,17.0403345 C101.097345,17.0810036 100.527094,17.0810036 99.9975755,17.1216726 C99.4680567,17.1623417 98.938538,17.1623417 98.4497515,17.2030108 C97.960965,17.2030108 97.4721784,17.2436798 97.0648563,17.2436798 C96.2094799,17.2843489 95.4763002,17.2843489 94.9875136,17.3250179 C94.7431204,17.3250179 94.5394593,17.365687 94.4172627,17.365687 L94.2136016,17.365687 L94.1728694,17.2843489 C94.1728694,17.2843489 94.4579949,17.1623417 94.9467814,16.9996655 C95.4355679,16.8369892 96.1687477,16.674313 97.0241241,16.5116368 C97.4721784,16.4302987 97.9202328,16.3896296 98.4497515,16.3489606 C98.938538,16.3082915 99.4680567,16.2676225 100.038308,16.2676225 C100.567826,16.2676225 101.138077,16.2676225 101.74906,16.3082915 C102.319311,16.3082915 102.889562,16.3896296 103.500546,16.4709677 C104.070796,16.5523059 104.68178,16.633644 105.252031,16.633644 C105.822281,16.674313 106.392532,16.674313 106.922051,16.674313 C107.492302,16.674313 108.021821,16.674313 108.510607,16.7556511 C108.999394,16.8369892 109.48818,16.9183274 109.895502,17.0403345 C110.302825,17.1623417 110.710147,17.3250179 111.036004,17.4876941 C111.198933,17.5690323 111.361862,17.6503704 111.484059,17.7317085 C111.606255,17.8130466 111.728452,17.8943847 111.850649,17.9757228 C111.972845,18.0570609 112.05431,18.138399 112.135774,18.2197372 C112.217238,18.3010753 112.257971,18.3824134 112.298703,18.4230824 C112.380167,18.5450896 112.4209,18.6264277 112.4209,18.6264277 L112.217238,18.7891039 L112.217238,18.7891039 Z" id="Shape"></path>
                            <path d="M112.135774,22.2459737 C112.135774,22.2459737 111.769184,22.2459737 111.198933,22.2053047 C110.913808,22.1646356 110.547218,22.1239665 110.139896,22.0832975 C109.732574,22.0426284 109.243787,21.9612903 108.755001,21.9206213 C108.266214,21.8392832 107.695963,21.757945 107.125712,21.6766069 C106.555461,21.5545998 105.944478,21.4325926 105.333495,21.2699164 C104.722512,21.1479092 104.070796,21.025902 103.378349,20.9445639 C102.726634,20.8632258 102.034186,20.8632258 101.341738,20.8632258 L99.3051279,20.8632258 C98.6534125,20.8632258 97.960965,20.8225568 97.3499818,20.8225568 C96.6982665,20.8225568 96.0872833,20.7818877 95.5170324,20.7412186 C94.9467814,20.7005496 94.3765305,20.6598805 93.887744,20.6192115 C92.8694387,20.5378734 92.0140623,20.4158662 91.4030792,20.3345281 C90.792096,20.25319 90.4662383,20.2125209 90.4662383,20.2125209 L90.4662383,20.1311828 C90.4662383,20.1311828 90.792096,20.0905137 91.4030792,20.0498447 C92.0140623,20.0091756 92.8694387,19.9278375 93.887744,19.9278375 L95.5577646,19.9278375 C96.1280155,19.9278375 96.7797309,19.9685066 97.390714,20.0091756 C98.0424294,20.0498447 98.6941447,20.1311828 99.3458601,20.1718519 C99.9975755,20.25319 100.690023,20.3345281 101.382471,20.4565352 C102.074918,20.5785424 102.726634,20.7005496 103.419081,20.7412186 C104.070796,20.8225568 104.763244,20.8632258 105.414959,20.8632258 C106.066675,20.9038949 106.677658,20.9038949 107.288641,20.985233 C107.858892,21.0665711 108.429143,21.1479092 108.917929,21.2699164 C109.936235,21.4732616 110.750879,21.717276 111.32113,21.8799522 C111.891381,22.0832975 112.217238,22.2053047 112.217238,22.2053047 L112.135774,22.2459737 L112.135774,22.2459737 Z" id="Shape"></path>
                            <path d="M110.017699,27.6549582 C110.017699,27.6549582 109.936235,27.6142891 109.773306,27.532951 C109.610377,27.4516129 109.406716,27.3296057 109.12159,27.2075986 C108.999394,27.1669295 108.836465,27.0855914 108.673536,27.0042533 C108.510607,26.9229152 108.306946,26.8822461 108.103285,26.800908 C107.695963,26.6789008 107.247909,26.5162246 106.759122,26.3535484 C106.270336,26.1908722 105.700085,26.068865 105.129834,25.9061888 C104.559583,25.7435125 103.9486,25.5401673 103.296884,25.336822 C102.645169,25.1334767 101.993454,25.0114695 101.301006,24.8894624 C100.608559,24.7674552 99.8753788,24.7674552 99.1829313,24.7267861 C98.4904837,24.7267861 97.7573039,24.6861171 97.0648563,24.6861171 C96.3724088,24.645448 95.6799612,24.645448 95.0282458,24.645448 L94.0506728,24.645448 L93.113832,24.645448 L91.4030792,24.645448 C90.8735604,24.645448 90.3847739,24.6861171 89.9774518,24.6861171 C89.7737908,24.6861171 89.5701297,24.7267861 89.3664687,24.7267861 C89.1628076,24.7267861 88.9998788,24.7674552 88.8369499,24.7674552 C88.5110923,24.8081243 88.266699,24.8487933 88.1037702,24.8487933 C87.9408413,24.8894624 87.8593769,24.8894624 87.8593769,24.8894624 L87.8186447,24.8081243 C87.8186447,24.8081243 87.9001091,24.7674552 88.0630379,24.6861171 C88.2259668,24.604779 88.47036,24.5234409 88.7554855,24.4014337 C89.3664687,24.1980884 90.2625773,23.9947431 91.3216147,23.872736 C91.8511335,23.7913978 92.4621166,23.7507288 93.0730998,23.7507288 C93.6840829,23.7100597 94.3357983,23.7100597 95.0282458,23.7507288 C95.7206934,23.7913978 96.413141,23.8320669 97.1055886,23.913405 C97.7980361,23.9540741 98.5312159,24.1167503 99.2236635,24.2387575 C99.916111,24.3607646 100.649291,24.4827718 101.341738,24.604779 C102.034186,24.6861171 102.726634,24.8081243 103.419081,24.8487933 C104.070796,24.9301314 104.722512,25.0114695 105.333495,25.1334767 C105.944478,25.2554839 106.514729,25.4588292 107.003516,25.6215054 C107.247909,25.7028435 107.492302,25.8248507 107.736695,25.9061888 C107.981089,26.0281959 108.18475,26.1095341 108.388411,26.2315412 C108.795733,26.4348865 109.12159,26.6382318 109.365984,26.8415771 C109.610377,27.0449223 109.814038,27.2075986 109.936235,27.3296057 C110.058431,27.4516129 110.099164,27.532951 110.099164,27.532951 L110.017699,27.6549582 L110.017699,27.6549582 Z" id="Shape"></path>
                            <path d="M100.690023,32.1692234 C100.690023,32.1692234 100.44563,32.0878853 99.9975755,31.88454 C99.7939144,31.7625329 99.5087889,31.6811947 99.2236635,31.5591876 C98.938538,31.4371804 98.5719481,31.3151732 98.2053582,31.1931661 C97.8387683,31.0304898 97.4314462,30.9084827 97.0241241,30.7458065 C96.5760698,30.5831302 96.1687477,30.3797849 95.6799612,30.2171087 C95.4355679,30.1357706 95.1911747,30.0137634 94.9467814,29.9324253 C94.7023882,29.8510872 94.4579949,29.8104182 94.1728694,29.72908 C93.6433507,29.6070729 93.113832,29.5664038 92.5843133,29.5257348 C92.0547945,29.4850657 91.5252758,29.4443967 90.9957571,29.4037276 C90.4662383,29.3630585 89.9367196,29.3223895 89.4479331,29.2817204 C88.9591466,29.2410514 88.47036,29.2003823 88.0223057,29.1597133 C87.5742514,29.1190442 87.1261971,29.0783751 86.718875,29.0377061 C85.9042308,28.956368 85.2525155,28.8750299 84.8044611,28.8343608 C84.3156746,28.7936918 84.0712814,28.7530227 84.0712814,28.7530227 L84.0712814,28.6716846 C84.0712814,28.6716846 84.3564068,28.5903465 84.8044611,28.5090084 C85.0488544,28.4683393 85.3339799,28.4276703 85.6598376,28.3870012 C85.9856952,28.3463321 86.3522851,28.3463321 86.7596072,28.3056631 L88.0630379,28.3056631 C88.5110923,28.3463321 89.040611,28.3463321 89.5293975,28.4276703 C90.018184,28.5090084 90.5477028,28.5903465 91.0772215,28.6716846 C91.6067402,28.7530227 92.1362589,28.9156989 92.6657777,29.0377061 C93.1952964,29.2003823 93.7248151,29.3223895 94.2136016,29.4443967 C94.7431204,29.5664038 95.2319069,29.6477419 95.7614256,29.72908 C96.2909444,29.8104182 96.7389987,29.8917563 97.2277852,30.0137634 C97.6758395,30.1764397 98.0831616,30.3391159 98.4497515,30.5017921 C98.8163414,30.7051374 99.1421991,30.8271446 99.4273245,31.0304898 C99.71245,31.2338351 99.9568433,31.3965114 100.119772,31.5591876 C100.486362,31.88454 100.649291,32.0878853 100.649291,32.0878853 L100.690023,32.1692234 L100.690023,32.1692234 Z" id="Shape"></path>
                            <path d="M98.3682871,37.2935245 C98.3682871,37.2935245 98.2868226,37.2528554 98.164626,37.1715173 C98.0424294,37.0901792 97.8387683,36.968172 97.5943751,36.8461649 C97.3499818,36.7241577 97.0241241,36.5614815 96.6982665,36.4394743 C96.3316766,36.2767981 95.9243545,36.1141219 95.4763002,35.9514456 C95.0282458,35.7887694 94.5394593,35.6260932 94.0099406,35.463417 C93.4804219,35.2600717 92.9509031,35.0567264 92.3806522,34.8533811 C91.8104013,34.6500358 91.1994181,34.4873596 90.588435,34.3653524 C89.9774518,34.2433453 89.3257365,34.2026762 88.6740211,34.1213381 C88.0223057,34.0806691 87.3705904,34.04 86.7596072,33.9993309 C86.1078919,33.9586619 85.4969087,33.9179928 84.8859256,33.9179928 C84.2749424,33.9179928 83.7046915,33.8773238 83.1344405,33.8773238 C82.5641896,33.8773238 82.0754031,33.8366547 81.5866166,33.8366547 L80.2831858,33.8366547 L79.7536671,33.8366547 C79.5907383,33.8366547 79.4278094,33.8366547 79.3056128,33.8773238 C79.0204873,33.9179928 78.8168263,33.9179928 78.6538974,33.9586619 C78.4909686,33.9586619 78.4095042,33.9993309 78.4095042,33.9993309 L78.368772,33.9179928 C78.368772,33.9179928 78.4502364,33.8773238 78.572433,33.8366547 C78.6946297,33.7553166 78.9390229,33.7146476 79.2241484,33.5926404 C79.5092739,33.5113023 79.8351315,33.4299642 80.2424536,33.348626 C80.6497757,33.2672879 81.09783,33.2266189 81.5866166,33.1452808 C82.0754031,33.1046117 82.6049218,33.0639427 83.1751727,33.0639427 C83.7454237,33.0639427 84.3564068,33.0639427 84.96739,33.1452808 C85.5783731,33.1859498 86.2300885,33.2672879 86.8410716,33.348626 C87.492787,33.4299642 88.1037702,33.5926404 88.7554855,33.7146476 C89.4072009,33.8773238 90.018184,33.9993309 90.6698994,34.1213381 C91.2808825,34.2433453 91.9325979,34.3653524 92.543581,34.4466906 C93.1545642,34.5280287 93.7248151,34.6500358 94.2950661,34.8127121 C94.8245848,34.9753883 95.3541035,35.1787336 95.8021578,35.3414098 C96.2502121,35.5447551 96.6575342,35.7481004 97.0241241,35.9921147 C97.390714,36.19546 97.6351073,36.4394743 97.8795005,36.6021505 C98.0831616,36.8054958 98.2460904,36.968172 98.3682871,37.0901792 C98.4497515,37.2121864 98.5312159,37.2935245 98.5312159,37.2935245 L98.3682871,37.2935245 L98.3682871,37.2935245 Z" id="Shape"></path>
                            <path d="M86.515214,38.4322581 C86.515214,38.4322581 86.2708207,38.391589 85.9042308,38.2695818 C85.7005698,38.1882437 85.4969087,38.1475747 85.2117832,38.1069056 C84.96739,38.0255675 84.6415323,37.9442294 84.3564068,37.9035603 C84.0305492,37.8222222 83.7046915,37.7408841 83.3381016,37.6188769 C82.9715117,37.5375388 82.6049218,37.3748626 82.1975997,37.2528554 C81.7902776,37.1308483 81.3829555,37.0088411 80.9349012,36.968172 C80.4868469,36.8868339 80.0387926,36.927503 79.5907383,36.927503 C79.142684,36.968172 78.6946297,36.968172 78.2465753,36.968172 L76.9431446,36.968172 C76.5358225,36.968172 76.1285004,36.968172 75.7211783,36.927503 C75.3545884,36.927503 74.9879985,36.8868339 74.6214087,36.8461649 C73.9289611,36.7648268 73.3994424,36.6834886 72.9921203,36.6428196 C72.5847982,36.5614815 72.3811371,36.5208124 72.3811371,36.5208124 L72.3811371,36.4394743 C72.3811371,36.4394743 73.2772457,36.236129 74.6214087,36.1547909 C74.9472663,36.1141219 75.3138562,36.1141219 75.7211783,36.1141219 C76.1285004,36.1141219 76.5358225,36.1141219 76.9431446,36.1547909 C77.3504667,36.19546 77.798521,36.236129 78.2465753,36.2767981 C78.6946297,36.3174671 79.142684,36.4394743 79.5907383,36.5208124 C80.4868469,36.7241577 81.3829555,36.8461649 82.2383319,36.8868339 C82.6863862,36.8868339 83.0937083,36.927503 83.4602982,37.0088411 C83.8268881,37.0901792 84.193478,37.1715173 84.5193357,37.3341935 C84.8451934,37.4562007 85.1303188,37.5782079 85.3747121,37.7002151 C85.6191053,37.8222222 85.8634986,37.9442294 85.9856952,38.0662366 C86.3115529,38.3102509 86.4744818,38.4322581 86.4744818,38.4322581 L86.515214,38.4322581 L86.515214,38.4322581 Z" id="Shape"></path>
                            <path d="M104.478119,9.63856631 C104.478119,9.63856631 104.396654,9.51655914 104.355922,9.35388292 C104.274458,9.15053763 104.233725,8.9065233 104.192993,8.6218399 C104.192993,8.45916368 104.152261,8.29648746 104.152261,8.13381123 C104.152261,7.97113501 104.233725,7.76778973 104.274458,7.56444444 C104.31519,7.36109916 104.355922,7.15775388 104.31519,6.9544086 C104.31519,6.75106332 104.233725,6.54771804 104.152261,6.34437276 C104.070796,6.14102748 103.989332,5.9376822 103.9486,5.77500597 C103.907868,5.57166069 103.826403,5.40898447 103.785671,5.20563919 C103.663474,4.83961768 103.622742,4.51426523 103.58201,4.18891278 C103.541278,3.86356033 103.541278,3.619546 103.541278,3.41620072 L103.541278,3.09084827 L103.622742,3.05017921 C103.622742,3.05017921 103.704207,3.13151732 103.826403,3.29419355 C103.9486,3.45686977 104.111529,3.66021505 104.233725,3.94489845 C104.396654,4.22958184 104.518851,4.59560335 104.559583,5.00229391 C104.600315,5.20563919 104.600315,5.40898447 104.600315,5.61232975 C104.600315,5.81567503 104.600315,6.05968937 104.559583,6.26303465 C104.518851,6.46637993 104.518851,6.66972521 104.518851,6.91373955 C104.518851,7.11708483 104.600315,7.32043011 104.641047,7.52377539 C104.722512,7.72712067 104.803976,7.88979689 104.803976,8.09314217 C104.844708,8.2558184 104.803976,8.45916368 104.803976,8.6218399 C104.763244,8.94719235 104.68178,9.19120669 104.641047,9.39455197 C104.559583,9.5572282 104.518851,9.67923536 104.518851,9.67923536 L104.478119,9.63856631 L104.478119,9.63856631 Z" id="Shape"></path>
                            <path d="M99.4273245,3.3348626 C99.4273245,3.3348626 99.5495212,3.45686977 99.6717178,3.70088411 C99.7531822,3.82289128 99.7939144,3.94489845 99.8753788,4.14824373 C99.9568433,4.31091995 99.9975755,4.55493429 100.038308,4.75827957 C100.07904,5.00229391 100.119772,5.24630824 100.119772,5.49032258 C100.119772,5.77500597 100.038308,6.01902031 99.9975755,6.3037037 C99.8346466,6.87307049 99.8346466,7.44243728 99.916111,8.05247312 C99.9568433,8.33715651 99.9568433,8.66250896 99.9568433,8.94719235 C99.9568433,9.23187575 99.916111,9.51655914 99.8753788,9.80124253 C99.8346466,10.3706093 99.71245,10.858638 99.5495212,11.3059976 C99.4273245,11.7533572 99.3051279,12.0787097 99.1829313,12.322724 C99.1014668,12.5667384 99.0200024,12.7294146 99.0200024,12.7294146 L98.938538,12.7294146 C98.938538,12.7294146 98.8978058,12.5667384 98.8570736,12.322724 C98.8163414,12.0380406 98.8163414,11.6720191 98.8163414,11.2246595 C98.8570736,10.7772999 98.8978058,10.2486022 99.0200024,9.71990442 C99.0607346,9.43522103 99.1421991,9.15053763 99.2236635,8.86585424 C99.2643957,8.58117085 99.3865923,8.29648746 99.4680567,8.01180406 C99.5495212,7.72712067 99.6309856,7.44243728 99.6309856,7.15775388 C99.6717178,6.87307049 99.6309856,6.5883871 99.5495212,6.3037037 C99.4680567,6.01902031 99.4273245,5.77500597 99.3865923,5.53099164 C99.3458601,5.2869773 99.3458601,5.04296296 99.3458601,4.83961768 L99.3458601,4.2702509 L99.3458601,3.78222222 L99.3458601,3.3348626 L99.4273245,3.3348626 L99.4273245,3.3348626 Z" id="Shape"></path>
                            <path d="M94.6209237,4.51426523 C94.6209237,4.51426523 94.7431204,4.67694146 94.865317,5.00229391 C94.9875136,5.32764636 95.1911747,5.77500597 95.3133713,6.34437276 C95.3948357,6.62905615 95.4763002,6.9544086 95.4763002,7.27976105 C95.5170324,7.6051135 95.5170324,7.97113501 95.5170324,8.33715651 C95.4763002,9.06919952 95.5984968,9.84191159 95.7614256,10.6146237 C95.84289,11.0213142 95.9243545,11.3873357 95.9243545,11.7940263 C95.9243545,11.9973716 95.9243545,12.2007168 95.9650867,12.3633931 L95.9650867,12.9327599 C95.9650867,13.2987814 95.8836223,13.6648029 95.84289,13.9901553 C95.7614256,14.3155078 95.6799612,14.6408602 95.5577646,14.9255436 C95.4355679,15.210227 95.3541035,15.4542413 95.1911747,15.6575866 C95.0689781,15.8609319 94.9467814,16.0642772 94.8245848,16.1862843 C94.6209237,16.4709677 94.4579949,16.5929749 94.4579949,16.5929749 L94.3765305,16.5523059 C94.3765305,16.5523059 94.4172627,16.3489606 94.4987271,16.0236081 C94.5394593,15.8609319 94.5801915,15.6575866 94.661656,15.4542413 C94.7023882,15.2508961 94.7838526,14.9662127 94.8245848,14.7221983 C94.9060492,14.4375149 94.9060492,14.1528315 94.9467814,13.8274791 C94.9875136,13.5021266 95.0282458,13.1767742 95.0689781,12.8107527 C95.1097103,12.6480765 95.1097103,12.4447312 95.1504425,12.282055 C95.1504425,12.1193787 95.1911747,11.9160335 95.1911747,11.7126882 C95.2319069,11.3466667 95.2726391,10.9399761 95.3133713,10.5739546 C95.3541035,10.2079331 95.3541035,9.80124253 95.3133713,9.43522103 C95.2726391,9.06919952 95.1911747,8.70317802 95.0689781,8.33715651 C94.9467814,7.97113501 94.8245848,7.64578256 94.7838526,7.32043011 C94.7023882,6.99507766 94.661656,6.66972521 94.6209237,6.38504182 C94.5394593,5.81567503 94.4987271,5.32764636 94.4987271,4.96162485 L94.4987271,4.43292712 L94.6209237,4.51426523 L94.6209237,4.51426523 Z" id="Shape"></path>
                            <path d="M88.8369499,5.00229391 C88.8369499,5.00229391 88.9184144,5.24630824 89.040611,5.69366786 C89.1628076,6.10035842 89.3664687,6.71039427 89.5293975,7.44243728 C89.6108619,7.80845878 89.7330586,8.21514934 89.814523,8.6218399 C89.8959874,9.06919952 89.9367196,9.51655914 89.9774518,10.0045878 C90.0589162,10.9806452 90.2625773,11.9567025 90.5069705,12.9734289 C90.6291672,13.4614576 90.7513638,13.9901553 90.792096,14.478184 C90.8328282,15.0068817 90.8328282,15.4949104 90.8328282,15.9829391 C90.8328282,16.2269534 90.792096,16.4709677 90.7513638,16.7149821 C90.7106316,16.9589964 90.6698994,17.2030108 90.588435,17.406356 C90.4662383,17.8537157 90.3033095,18.2197372 90.1811129,18.5857587 C89.8959874,19.2771326 89.6515941,19.8871685 89.5293975,20.293859 C89.4479331,20.4972043 89.4072009,20.6598805 89.3664687,20.7818877 C89.3257365,20.9038949 89.3257365,20.9445639 89.3257365,20.9445639 L89.244272,20.9445639 C89.244272,20.9445639 89.2035398,20.7005496 89.2035398,20.2125209 C89.2035398,19.7651613 89.3257365,19.1144564 89.4886653,18.3417443 C89.5701297,17.9757228 89.6515941,17.5690323 89.7737908,17.1623417 C89.814523,16.9589964 89.8552552,16.7556511 89.8959874,16.5523059 C89.9367196,16.3082915 89.9367196,16.1049462 89.9774518,15.901601 C90.018184,15.4542413 90.0589162,14.9662127 90.0589162,14.478184 L90.0589162,12.9734289 C90.0589162,12.4854002 90.018184,11.9567025 89.9367196,11.4686738 C89.8552552,10.9806452 89.6923263,10.4926165 89.5293975,10.0452569 C89.3664687,9.59789725 89.2035398,9.15053763 89.0813432,8.74384707 C88.9591466,8.33715651 88.8776821,7.93046595 88.8369499,7.52377539 C88.7962177,7.15775388 88.7147533,6.79173238 88.7147533,6.46637993 C88.6740211,6.14102748 88.6740211,5.85634409 88.6740211,5.65299881 C88.6740211,5.20563919 88.7147533,4.96162485 88.7147533,4.96162485 L88.8369499,5.00229391 L88.8369499,5.00229391 Z" id="Shape"></path>
                            <path d="M84.5600679,8.66250896 C84.5600679,8.66250896 84.6415323,8.9065233 84.7229967,9.35388292 C84.7637289,9.5572282 84.8451934,9.84191159 84.8859256,10.126595 C84.9266578,10.4112784 85.0081222,10.7772999 85.0488544,11.1433214 C85.0895866,11.5093429 85.171051,11.9160335 85.171051,12.322724 C85.2117832,12.7294146 85.171051,13.2174432 85.171051,13.6648029 C85.1303188,14.6001912 85.2932477,15.5762485 85.4969087,16.5523059 C85.6191053,17.0403345 85.741302,17.5283632 85.7820342,18.0163919 C85.8634986,18.5044205 85.944963,18.9924492 85.9856952,19.4398088 C86.0264274,19.8871685 86.0671597,20.3751971 86.1078919,20.7818877 L86.1078919,22.0019594 C86.1078919,22.7746714 86.0264274,23.3847073 85.944963,23.8320669 C85.8634986,24.2794265 85.8227664,24.5234409 85.8227664,24.5234409 L85.741302,24.5234409 C85.741302,24.5234409 85.7005698,24.2794265 85.6191053,23.8320669 C85.5376409,23.3847073 85.4561765,22.7746714 85.3747121,22.0426284 C85.3339799,21.6766069 85.2932477,21.2699164 85.2525155,20.8632258 C85.2117832,20.4565352 85.171051,20.0091756 85.1303188,19.521147 C85.0895866,19.0737873 85.0895866,18.5857587 85.0488544,18.09773 C85.0081222,17.6097013 85.0081222,17.1216726 85.0081222,16.5929749 C85.0081222,15.5762485 84.9266578,14.6001912 84.6822645,13.7054719 C84.5600679,13.2581123 84.4378713,12.8107527 84.397139,12.3633931 C84.3156746,11.9567025 84.3156746,11.5500119 84.2749424,11.1433214 C84.2342102,10.4112784 84.2749424,9.76057348 84.3156746,9.31321386 C84.3564068,8.86585424 84.397139,8.6218399 84.397139,8.6218399 L84.5600679,8.66250896 L84.5600679,8.66250896 Z" id="Shape"></path>
                            <path d="M80.2017214,10.4519474 C80.2017214,10.4519474 80.2831858,10.6552927 80.4053825,11.0619833 C80.5275791,11.4686738 80.6905079,12.0380406 80.8127046,12.6887455 C80.894169,13.014098 80.9349012,13.4207885 80.9756334,13.78681 C81.0163656,14.1935006 81.0163656,14.6001912 81.0163656,15.0475508 C81.0163656,15.94227 81.1385622,16.8369892 81.3829555,17.7723775 C81.5051521,18.2197372 81.6273488,18.6670968 81.668081,19.1551254 C81.7495454,19.6024851 81.7902776,20.0498447 81.871742,20.4972043 C81.9124742,20.7005496 81.9124742,20.9445639 81.9124742,21.1479092 C81.9124742,21.3512545 81.9532064,21.5545998 81.9532064,21.757945 L81.9532064,22.8966786 C81.9124742,23.2627001 81.9124742,23.5880526 81.871742,23.872736 C81.8310098,24.1574194 81.7902776,24.4014337 81.7495454,24.604779 C81.668081,25.0114695 81.5866166,25.2554839 81.5866166,25.2554839 L81.5051521,25.2554839 C81.5051521,25.2554839 81.4644199,25.0114695 81.4236877,24.604779 C81.3829555,24.1980884 81.3014911,23.6287216 81.2200267,22.9373477 C81.1792945,22.6119952 81.1385622,22.2053047 81.1385622,21.8392832 C81.09783,21.4325926 81.09783,21.025902 81.0570978,20.5785424 C81.0570978,20.1311828 81.0163656,19.6838232 81.0163656,19.2364636 C80.9756334,18.7891039 81.0163656,18.3010753 81.0163656,17.8537157 C81.0163656,17.365687 81.0163656,16.9183274 80.9349012,16.4709677 C80.894169,16.0236081 80.7719724,15.5762485 80.6497757,15.1695579 C80.5275791,14.7628674 80.4053825,14.3561768 80.3239181,13.9494863 C80.2424536,13.5427957 80.2017214,13.1767742 80.1609892,12.8514217 C80.0795248,12.1600478 80.0795248,11.5500119 80.0795248,11.1433214 C80.0795248,10.7366308 80.120257,10.4926165 80.120257,10.4926165 L80.2017214,10.4519474 L80.2017214,10.4519474 Z" id="Shape"></path>
                            <path d="M72.9106558,33.1452808 C72.9106558,33.1452808 72.8291914,32.9419355 72.747727,32.616583 C72.6662626,32.2912306 72.5440659,31.8032019 72.4626015,31.2338351 C72.4218693,30.9491517 72.3811371,30.6237993 72.3811371,30.2984468 C72.3811371,29.9730944 72.4218693,29.6070729 72.4626015,29.2410514 C72.5440659,28.5090084 72.5033337,27.7769654 72.3404049,27.0042533 C72.2996727,26.6382318 72.2182083,26.2315412 72.1774761,25.8655197 C72.1367438,25.4994982 72.1367438,25.0928076 72.1367438,24.7674552 C72.1367438,24.4014337 72.1367438,24.0354122 72.2182083,23.7100597 C72.2589405,23.3847073 72.2996727,23.0593548 72.3811371,22.7746714 C72.6255304,21.6359379 73.0328525,20.9445639 73.0328525,20.9445639 L73.1143169,20.9445639 C73.1143169,20.9445639 73.1143169,21.1479092 73.1550491,21.4732616 L73.1550491,22.0832975 L73.1550491,22.8560096 C73.1143169,23.4253763 73.1143169,24.0760812 73.0328525,24.7674552 C72.9921203,25.1334767 72.9921203,25.4994982 72.951388,25.8655197 C72.9106558,26.2315412 72.8699236,26.5975627 72.8291914,27.0042533 C72.7884592,27.3702748 72.747727,27.7769654 72.7884592,28.1429869 C72.7884592,28.5090084 72.8699236,28.8750299 72.951388,29.2410514 C73.0328525,29.6070729 73.1143169,29.9324253 73.1550491,30.2577778 C73.1957813,30.5831302 73.1957813,30.9084827 73.1957813,31.1931661 C73.1957813,31.7625329 73.1550491,32.2505615 73.1143169,32.575914 C73.0735847,32.9012664 73.0328525,33.1046117 73.0328525,33.1046117 L72.9106558,33.1452808 L72.9106558,33.1452808 Z" id="Shape"></path>
                            <path d="M78.8168263,13.9088172 C78.8168263,13.9088172 78.7760941,14.1528315 78.6538974,14.5595221 C78.572433,14.7628674 78.5317008,15.0068817 78.4502364,15.2915651 C78.368772,15.5762485 78.2873076,15.901601 78.2058431,16.2676225 C78.0836465,16.633644 78.0429143,16.9996655 77.9207177,17.406356 C77.798521,17.8130466 77.6763244,18.2197372 77.5541278,18.6670968 C77.4319311,19.1144564 77.3097345,19.561816 77.2690023,20.0498447 C77.2282701,20.5378734 77.2282701,21.025902 77.2690023,21.5139307 C77.3097345,22.0019594 77.3504667,22.4899881 77.3911989,22.9780167 C77.4319311,23.4660454 77.4319311,23.9540741 77.4726634,24.4014337 C77.5133956,24.8487933 77.5133956,25.2961529 77.5133956,25.7435125 L77.5133956,26.9229152 C77.5133956,27.6549582 77.4726634,28.3056631 77.4319311,28.7123536 C77.3911989,29.1597133 77.3504667,29.4037276 77.3504667,29.4037276 L77.2690023,29.4037276 C77.2690023,29.4037276 77.1875379,29.1597133 77.1060735,28.7123536 C77.024609,28.264994 76.9024124,27.6549582 76.7802158,26.9229152 C76.7394836,26.5568937 76.6987514,26.1502031 76.6580192,25.7435125 C76.6172869,25.336822 76.6172869,24.8487933 76.6172869,24.4014337 C76.6172869,23.913405 76.6172869,23.4660454 76.6580192,22.9780167 C76.6580192,22.4899881 76.7394836,22.0019594 76.820948,21.5139307 C76.9024124,21.025902 76.9838768,20.5378734 77.024609,20.0498447 C77.0653413,19.561816 77.1060735,19.0737873 77.1060735,18.6264277 C77.1060735,18.138399 77.1468057,17.6910394 77.2282701,17.2843489 C77.3097345,16.8776583 77.4319311,16.4709677 77.5541278,16.1049462 C77.6355922,15.94227 77.6763244,15.7389247 77.7577888,15.5762485 C77.8392532,15.4135723 77.9207177,15.2508961 77.9614499,15.1288889 C78.0836465,14.8442055 78.2465753,14.6001912 78.368772,14.4375149 C78.6131652,14.0714934 78.7760941,13.8681481 78.7760941,13.8681481 L78.8168263,13.9088172 L78.8168263,13.9088172 Z" id="Shape"></path>
                            <path d="M107.125712,30.2171087 C106.71839,29.8917563 106.229604,29.8104182 105.740817,29.688411 C105.252031,29.6070729 104.722512,29.5257348 104.192993,29.4037276 C103.663474,29.2817204 103.174688,29.1190442 102.685901,28.956368 C102.197115,28.7936918 101.708328,28.6310155 101.219542,28.4683393 C100.730755,28.3056631 100.241969,28.1429869 99.7531822,27.9803106 C99.2643957,27.8176344 98.734877,27.6956272 98.2460904,27.5736201 C97.7573039,27.4516129 97.2277852,27.4109438 96.6982665,27.3296057 C96.1687477,27.2889367 95.6799612,27.2482676 95.1504425,27.2482676 C94.6209237,27.2482676 94.1321372,27.2889367 93.6026185,27.3296057 L92.0547945,27.4516129 C90.9957571,27.532951 89.9367196,27.5736201 88.9184144,27.532951 C87.8593769,27.532951 86.8410716,27.492282 85.8227664,27.492282 C85.2932477,27.492282 84.8044611,27.492282 84.2749424,27.532951 C83.7454237,27.532951 83.2566372,27.6142891 82.7271184,27.6549582 L82.7678506,27.532951 C82.8085829,27.6549582 82.8900473,27.7362963 83.0122439,27.7769654 L82.9715117,27.8583035 C82.8085829,27.8176344 82.6863862,27.7362963 82.5641896,27.6142891 L82.4827252,27.532951 L82.6049218,27.492282 C83.0937083,27.3296057 83.6232271,27.1669295 84.1527458,27.0855914 C84.6822645,26.9635842 85.2117832,26.9229152 85.741302,26.8415771 C86.8003394,26.7195699 87.8593769,26.7195699 88.8776821,26.6789008 C89.9367196,26.6789008 90.9550249,26.7195699 91.9733301,26.7195699 C92.5028488,26.7195699 93.0323676,26.6789008 93.5618863,26.7195699 C94.091405,26.7602389 94.6209237,26.800908 95.1504425,26.8415771 C95.6799612,26.9229152 96.2094799,27.0042533 96.6982665,27.0449223 L98.2460904,27.2482676 L99.7939144,27.4516129 C100.323433,27.532951 100.852952,27.6142891 101.341738,27.7362963 C101.871257,27.8583035 102.360044,28.0209797 102.84883,28.1836559 L104.31519,28.7123536 C104.803976,28.8750299 105.292763,28.997037 105.781549,29.2003823 C106.270336,29.4037276 106.799855,29.6477419 107.125712,30.0951016 L107.125712,30.2171087 L107.125712,30.2171087 Z" id="Shape"></path>
                            <path d="M102.074918,34.9753883 C102.074918,34.9753883 102.034186,34.9753883 102.034186,34.9347192 C101.993454,34.8940502 101.952722,34.8533811 101.871257,34.8127121 C101.708328,34.731374 101.463935,34.6093668 101.138077,34.5280287 C100.81222,34.4466906 100.404898,34.3653524 99.9568433,34.3246834 C99.5087889,34.2840143 98.938538,34.2026762 98.3682871,34.0806691 C97.7980361,33.9586619 97.187053,33.7959857 96.5353376,33.6333094 C95.8836223,33.4299642 95.1911747,33.1859498 94.4987271,32.9826045 C93.8062795,32.7385902 93.0730998,32.4945759 92.2991878,32.3318996 C91.5252758,32.1285544 90.7513638,32.0065472 89.9774518,31.88454 C89.2035398,31.7625329 88.4296278,31.6405257 87.6557158,31.5185185 C86.8818039,31.3965114 86.1486241,31.2745042 85.4561765,31.2338351 C85.0895866,31.2338351 84.7637289,31.1931661 84.397139,31.1931661 L83.3788338,31.1931661 C82.7271184,31.1931661 82.0754031,31.2338351 81.5051521,31.2745042 C80.9349012,31.3151732 80.4053825,31.3558423 79.916596,31.4371804 C79.4685416,31.4778495 79.0612195,31.5591876 78.7353619,31.6405257 C78.4095042,31.7218638 78.1651109,31.843871 78.0429143,31.9252091 C77.9614499,31.9658781 77.9207177,32.0065472 77.8799855,32.0472162 L77.8392532,32.0878853 L77.7577888,32.0472162 C77.7577888,32.0472162 77.7577888,32.0065472 77.798521,31.9658781 C77.8392532,31.9252091 77.8392532,31.843871 77.9207177,31.7625329 C78.0429143,31.5998566 78.2873076,31.4371804 78.6131652,31.2745042 C79.2648806,30.9491517 80.2424536,30.6644683 81.4236877,30.5017921 C82.0346709,30.420454 82.645654,30.3391159 83.3381016,30.2984468 C84.0305492,30.2577778 84.7637289,30.2577778 85.4969087,30.3391159 C86.2300885,30.420454 87.0040005,30.5831302 87.7779125,30.7458065 C88.5518245,30.9084827 89.2850042,31.152497 90.0589162,31.3965114 C90.792096,31.6405257 91.566008,31.88454 92.2991878,32.0472162 C93.0730998,32.2098925 93.8062795,32.3725687 94.5394593,32.4945759 C95.2726391,32.616583 95.9650867,32.7385902 96.616802,32.9012664 C97.2685174,33.0639427 97.8795005,33.2266189 98.4497515,33.3892951 C98.9792702,33.5519713 99.5087889,33.6333094 99.9975755,33.7553166 C100.486362,33.8773238 100.893684,33.9993309 101.219542,34.1620072 C101.545399,34.3246834 101.789793,34.4873596 101.911989,34.6093668 C101.993454,34.6907049 102.034186,34.731374 102.074918,34.772043 L102.11565,34.8127121 L102.074918,34.9753883 L102.074918,34.9753883 Z" id="Shape"></path>
                            <path d="M81.7495454,39.2049701 C81.7495454,39.2049701 81.7088132,39.2049701 81.668081,39.1643011 C81.6273488,39.1643011 81.5051521,39.123632 81.4236877,39.082963 C81.3014911,39.0422939 81.2200267,39.0016249 81.0570978,38.9609558 C80.9349012,38.9202867 80.7719724,38.8796177 80.5683113,38.7982796 C80.4053825,38.7169415 80.2017214,38.6762724 80.0387926,38.5949343 C79.8351315,38.5135962 79.6722027,38.391589 79.4685416,38.2289128 C79.2648806,38.1069056 79.0204873,37.9848984 78.8168263,37.9442294 C78.572433,37.8628913 78.3280398,37.8628913 78.0429143,37.8222222 C77.798521,37.8222222 77.5133956,37.7815532 77.2690023,37.7408841 C77.024609,37.7002151 76.7802158,37.659546 76.5765547,37.5782079 C76.1285004,37.4968698 75.7211783,37.3341935 75.3545884,37.2528554 C74.9879985,37.1308483 74.7028731,37.0088411 74.499212,36.927503 C74.295551,36.8461649 74.1733543,36.8054958 74.1733543,36.8054958 L74.1733543,36.7241577 C74.1733543,36.7241577 74.295551,36.6428196 74.5399442,36.6021505 C74.7843375,36.5614815 75.1101952,36.5208124 75.5175173,36.5208124 C75.9248394,36.5208124 76.3728937,36.6021505 76.820948,36.7648268 C77.0653413,36.8461649 77.3097345,36.927503 77.5133956,37.0495102 C77.7170566,37.1308483 77.9614499,37.2935245 78.1651109,37.4155317 C78.4095042,37.5375388 78.6131652,37.659546 78.8575585,37.7002151 C79.1019518,37.7815532 79.346345,37.8222222 79.5907383,37.8222222 C79.8351315,37.8222222 80.0795248,37.8628913 80.2831858,37.9035603 C80.4868469,37.9442294 80.6905079,38.0662366 80.8534368,38.1475747 C81.2200267,38.35092 81.4644199,38.5949343 81.6273488,38.7576105 C81.7088132,38.8389486 81.7495454,38.9202867 81.7902776,39.0016249 C81.8310098,39.0422939 81.8310098,39.082963 81.8310098,39.082963 L81.7495454,39.2049701 L81.7495454,39.2049701 Z" id="Shape"></path>
                            <path d="M76.047036,16.9589964 C76.047036,16.9589964 76.0063038,17.0403345 75.9655716,17.1216726 C75.9248394,17.2436798 75.843375,17.406356 75.8026427,17.6097013 C75.7619105,17.8130466 75.7211783,18.09773 75.7211783,18.4230824 C75.7211783,18.7484349 75.7211783,19.0737873 75.7619105,19.4804779 C75.7619105,19.8871685 75.843375,20.293859 75.843375,20.7818877 C75.843375,21.025902 75.843375,21.2699164 75.8026427,21.5139307 C75.7619105,21.757945 75.7211783,22.0019594 75.6804461,22.2459737 C75.4767851,23.2627001 75.3953206,24.3200956 75.4360529,25.377491 L75.4360529,26.9635842 C75.3953206,27.492282 75.3545884,28.0209797 75.3545884,28.5090084 C75.3138562,28.997037 75.273124,29.4850657 75.2323918,29.9324253 C75.1916596,30.3797849 75.1509274,30.8271446 75.1509274,31.1931661 C75.1101952,31.9658781 75.1101952,32.616583 75.273124,33.0232736 C75.3545884,33.2266189 75.4360529,33.348626 75.5175173,33.3892951 C75.5989817,33.4299642 75.6804461,33.4706332 75.6804461,33.4706332 L75.6804461,33.5519713 C75.6804461,33.5519713 75.5989817,33.5926404 75.4767851,33.5519713 C75.3138562,33.5519713 75.1101952,33.3892951 74.9879985,33.1859498 C74.6621409,32.7385902 74.499212,32.0472162 74.4177476,31.2338351 C74.3770154,30.8271446 74.3770154,30.3797849 74.3770154,29.8917563 C74.3770154,29.4037276 74.4177476,28.9156989 74.499212,28.4276703 C74.5806764,27.9396416 74.6621409,27.4109438 74.7028731,26.8822461 C74.7843375,26.3535484 74.8658019,25.8248507 74.9879985,25.2961529 C75.2323918,24.2387575 75.3138562,23.181362 75.2323918,22.1646356 C75.2323918,21.9206213 75.1916596,21.6766069 75.1916596,21.4325926 C75.1509274,21.1885783 75.1509274,20.985233 75.1101952,20.7412186 C75.069463,20.293859 75.069463,19.8464994 75.069463,19.4398088 C75.069463,19.0331183 75.1101952,18.6264277 75.1916596,18.3010753 C75.273124,17.9757228 75.3545884,17.6910394 75.4767851,17.4470251 C75.5989817,17.2436798 75.7211783,17.0403345 75.843375,16.9996655 C75.9248394,16.9183274 76.0063038,16.8776583 76.0063038,16.8776583 L76.047036,16.9589964 L76.047036,16.9589964 Z" id="Shape"></path>
                            <path d="M79.5907383,23.872736 C79.5907383,23.872736 79.6722027,23.9540741 79.7536671,24.1574194 C79.7943993,24.2387575 79.8351315,24.3607646 79.8758637,24.4827718 C79.916596,24.604779 79.9573282,24.7674552 79.9573282,24.9301314 L79.9573282,25.4588292 C79.916596,25.6215054 79.8351315,25.8248507 79.7943993,26.0281959 C79.7129349,26.2315412 79.6722027,26.4348865 79.6722027,26.6382318 C79.6722027,26.8415771 79.6722027,27.0449223 79.7129349,27.2482676 C79.7536671,27.4516129 79.7943993,27.6549582 79.7943993,27.8583035 C79.7943993,28.0616487 79.8351315,28.264994 79.8351315,28.4276703 C79.8351315,28.6310155 79.8758637,28.7936918 79.8758637,28.956368 L79.8758637,29.4443967 L79.8758637,29.8510872 L79.8758637,30.1764397 L79.8758637,30.4611231 L79.7943993,30.5017921 C79.7943993,30.5017921 79.7129349,30.420454 79.5500061,30.2984468 C79.4685416,30.2171087 79.4278094,30.1357706 79.346345,30.0137634 C79.2648806,29.8917563 79.2241484,29.72908 79.142684,29.6070729 C79.0204873,29.2817204 78.9390229,28.8750299 78.9797551,28.5090084 C78.9797551,28.3056631 79.0204873,28.1023178 79.0612195,27.8989725 C79.1019518,27.6956272 79.1834162,27.492282 79.2241484,27.2889367 C79.3056128,27.0855914 79.346345,26.8822461 79.3870772,26.6789008 C79.4278094,26.4755556 79.3870772,26.2722103 79.346345,26.068865 C79.3056128,25.8655197 79.2648806,25.6621744 79.2241484,25.4994982 C79.2241484,25.336822 79.2241484,25.1741458 79.2648806,25.0114695 C79.2648806,24.8487933 79.3056128,24.7267861 79.346345,24.604779 C79.3870772,24.4827718 79.3870772,24.3607646 79.4278094,24.2794265 C79.4685416,24.0760812 79.5092739,23.9947431 79.5092739,23.9947431 L79.5907383,23.872736 L79.5907383,23.872736 Z" id="Shape"></path>
                            <path d="M86.5559462,5.61232975 C86.5559462,5.61232975 86.6781428,5.85634409 86.8818039,6.3037037 C87.0854649,6.75106332 87.3298582,7.40176822 87.5742514,8.21514934 C87.6964481,8.6218399 87.8186447,9.06919952 87.9408413,9.51655914 C88.0630379,10.0045878 88.1037702,10.4926165 88.1852346,11.0213142 C88.3074312,12.0787097 88.5925567,13.1767742 88.8776821,14.2341697 C88.9591466,14.518853 89.040611,14.7628674 89.0813432,15.0475508 C89.1628076,15.3322342 89.2035398,15.6169176 89.244272,15.8609319 C89.3257365,16.4302987 89.4072009,16.9589964 89.4479331,17.4876941 C89.4886653,18.0163919 89.5293975,18.5044205 89.4886653,19.0331183 C89.4479331,19.521147 89.3664687,20.0091756 89.2850042,20.4158662 C89.0813432,21.2699164 88.8776821,21.9206213 88.7147533,22.3679809 C88.5518245,22.8153405 88.47036,23.1000239 88.47036,23.1000239 L88.3888956,23.1000239 L88.3888956,22.3273118 C88.3888956,21.8392832 88.5110923,21.1479092 88.5518245,20.293859 C88.5925567,19.8871685 88.6332889,19.4398088 88.6332889,18.9924492 L88.6332889,18.3010753 C88.6332889,18.0570609 88.5925567,17.8130466 88.5925567,17.5283632 C88.5518245,16.9996655 88.5518245,16.4709677 88.5110923,15.94227 C88.47036,15.4135723 88.4296278,14.8442055 88.3888956,14.2748387 C88.3481634,13.7054719 88.266699,13.1767742 88.1445024,12.6074074 C88.0223057,12.0787097 87.8593769,11.5500119 87.6964481,11.0619833 C87.492787,10.5739546 87.3298582,10.0859259 87.1669293,9.63856631 C87.0447327,9.19120669 86.9225361,8.74384707 86.8410716,8.33715651 C86.6374106,7.52377539 86.5559462,6.83240143 86.4744818,6.34437276 C86.3930173,5.85634409 86.3930173,5.57166069 86.3930173,5.57166069 L86.5559462,5.61232975 L86.5559462,5.61232975 Z" id="Shape"></path>
                            <path d="M111.361862,24.8081243 C111.361862,24.8081243 111.280398,24.8081243 111.117469,24.7674552 C110.95454,24.7267861 110.710147,24.6861171 110.384289,24.604779 C109.773306,24.4827718 108.877197,24.2794265 107.777428,24.1167503 C107.247909,24.0354122 106.636926,23.9540741 106.025943,23.8320669 C105.414959,23.7507288 104.763244,23.5880526 104.070796,23.4253763 C103.378349,23.2627001 102.685901,23.140693 101.952722,23.0593548 C101.219542,22.9373477 100.486362,22.8966786 99.7531822,22.8560096 C99.0200024,22.8153405 98.2868226,22.7746714 97.5536429,22.7340024 C96.8204631,22.6933333 96.1280155,22.6526643 95.4355679,22.6526643 C94.7431204,22.6526643 94.0506728,22.6526643 93.4396897,22.6119952 C92.8287065,22.6119952 92.2584556,22.5713262 91.7289368,22.6526643 C91.1994181,22.6933333 90.7106316,22.7746714 90.3033095,22.8966786 C89.8552552,23.0186858 89.4886653,23.140693 89.1628076,23.181362 C88.8369499,23.2220311 88.5518245,23.2220311 88.3888956,23.181362 C88.2259668,23.140693 88.1037702,23.140693 88.1037702,23.140693 L88.1037702,23.0593548 C88.1037702,23.0593548 88.1852346,23.0593548 88.3481634,23.0186858 C88.5110923,23.0186858 88.7554855,22.9373477 89.040611,22.8560096 C89.3257365,22.7340024 89.6923263,22.5713262 90.0996484,22.4086499 C90.5069705,22.2053047 91.0364893,22.0426284 91.6067402,21.9206213 C92.1769912,21.7986141 92.7879743,21.757945 93.4396897,21.757945 L94.4172627,21.757945 C94.7431204,21.757945 95.0689781,21.757945 95.4355679,21.7986141 C96.1280155,21.8392832 96.8611953,21.8799522 97.5943751,22.0019594 C98.3275549,22.0832975 99.0607346,22.2459737 99.7939144,22.4086499 C100.527094,22.5713262 101.260274,22.7340024 101.952722,22.8153405 C102.685901,22.9373477 103.378349,22.9780167 104.070796,23.0186858 C104.763244,23.0593548 105.455692,23.0593548 106.066675,23.140693 C106.71839,23.2220311 107.288641,23.3440382 107.858892,23.4253763 C108.388411,23.5473835 108.917929,23.6693907 109.325252,23.8320669 C109.773306,23.9540741 110.139896,24.1167503 110.425021,24.2387575 C110.710147,24.3607646 110.95454,24.4827718 111.117469,24.5641099 C111.280398,24.645448 111.361862,24.6861171 111.361862,24.6861171 L111.361862,24.8081243 L111.361862,24.8081243 Z" id="Shape"></path>
                            <path d="M92.6657777,5.69366786 C92.6657777,5.69366786 92.8287065,6.46637993 93.0323676,7.68645161 C93.0730998,7.97113501 93.1545642,8.29648746 93.1952964,8.66250896 C93.2360286,9.02853047 93.2360286,9.39455197 93.2360286,9.76057348 C93.2360286,10.167264 93.2360286,10.5332855 93.2767608,10.9399761 C93.317493,11.3466667 93.3582252,11.7533572 93.4396897,12.1600478 C93.5211541,12.5667384 93.6026185,12.9734289 93.6026185,13.3801195 C93.6433507,13.78681 93.6433507,14.1935006 93.6433507,14.5595221 C93.6433507,14.9255436 93.6433507,15.3322342 93.5618863,15.6982557 C93.4804219,16.0642772 93.3989574,16.3896296 93.317493,16.674313 C93.113832,17.2843489 92.8694387,17.7317085 92.7472421,18.0570609 C92.5843133,18.3824134 92.5028488,18.5857587 92.5028488,18.5857587 L92.4213844,18.5857587 L92.4213844,18.0163919 C92.4621166,17.6503704 92.5028488,17.1216726 92.6250455,16.5523059 C92.6657777,16.2676225 92.7065099,15.94227 92.7472421,15.6169176 C92.7879743,15.2915651 92.7879743,14.9662127 92.8287065,14.5595221 C92.8694387,14.1935006 92.8694387,13.78681 92.9101709,13.4207885 C92.9101709,13.014098 92.9916353,12.6074074 93.0323676,12.2007168 C93.0730998,11.7940263 93.0730998,11.3873357 93.0730998,10.9806452 C93.0730998,10.5739546 92.9509031,10.2079331 92.8694387,9.84191159 C92.7472421,9.47589008 92.6250455,9.10986858 92.5843133,8.78451613 C92.5028488,8.45916368 92.5028488,8.09314217 92.4621166,7.80845878 C92.4213844,7.19842294 92.4621166,6.66972521 92.543581,6.3037037 C92.5843133,6.10035842 92.6250455,5.97835125 92.6657777,5.89701314 C92.7065099,5.81567503 92.7065099,5.77500597 92.7065099,5.77500597 L92.6657777,5.69366786 L92.6657777,5.69366786 Z" id="Shape"></path>
                            <path d="M82.441993,8.54050179 C82.441993,8.54050179 82.4827252,8.82518519 82.5234574,9.35388292 C82.5641896,9.59789725 82.6049218,9.88258065 82.645654,10.2486022 C82.6863862,10.5739546 82.7271184,10.9806452 82.8085829,11.3873357 C82.8900473,11.7940263 82.9307795,12.2413859 83.0122439,12.7294146 C83.0937083,13.2174432 83.1344405,13.746141 83.1751727,14.2748387 C83.215905,14.8035364 83.3381016,15.3729032 83.4602982,15.901601 C83.5824948,16.4302987 83.7861559,16.9996655 83.9490847,17.5283632 C84.1527458,18.0570609 84.3156746,18.6264277 84.4378713,19.1957945 C84.5600679,19.7651613 84.6822645,20.293859 84.7637289,20.8632258 C84.8044611,21.1072401 84.8451934,21.3919235 84.8451934,21.6766069 L84.8451934,22.449319 C84.8451934,22.9373477 84.7637289,23.4253763 84.7229967,23.872736 C84.6008001,24.7267861 84.397139,25.4588292 84.2749424,25.9061888 C84.1527458,26.3942174 84.0305492,26.6789008 84.0305492,26.6789008 L83.9490847,26.6789008 L83.9490847,25.8655197 C83.9490847,25.377491 83.9898169,24.645448 83.9898169,23.7913978 L83.9898169,22.449319 C83.9898169,22.2053047 83.9898169,21.9612903 83.9490847,21.717276 C83.9490847,21.4732616 83.9083525,21.2292473 83.9083525,20.9445639 C83.8676203,20.4158662 83.7861559,19.8871685 83.7046915,19.3178017 C83.6232271,18.7484349 83.5417626,18.1790681 83.4602982,17.6503704 C83.3788338,17.0810036 83.2973694,16.5116368 83.1751727,15.9829391 C83.0529761,15.4135723 82.8900473,14.8848746 82.6863862,14.3968459 C82.5234574,13.8681481 82.3605285,13.3801195 82.2383319,12.8920908 C82.1161353,12.4040621 82.0754031,11.9160335 82.0346709,11.5093429 C82.0346709,11.3059976 81.9939387,11.0619833 81.9939387,10.899307 L81.9939387,10.3299403 C81.9939387,9.96391876 82.0754031,9.63856631 82.0754031,9.39455197 C82.1568675,8.9065233 82.2790641,8.6218399 82.2790641,8.6218399 L82.441993,8.54050179 L82.441993,8.54050179 Z" id="Shape"></path>
                            <path d="M113.072615,16.5929749 C113.072615,16.5929749 112.828222,16.5929749 112.380167,16.5523059 C111.972845,16.5116368 111.361862,16.4709677 110.628682,16.3489606 C110.262092,16.3082915 109.895502,16.2269534 109.48818,16.1456153 C109.080858,16.0642772 108.673536,15.94227 108.225482,15.8202628 C107.329373,15.5762485 106.392532,15.4542413 105.414959,15.4542413 C104.926173,15.4542413 104.437386,15.4542413 103.9486,15.4135723 L103.58201,15.3729032 L103.21542,15.3729032 L102.563705,15.3729032 C102.11565,15.3729032 101.708328,15.4135723 101.260274,15.3729032 C100.852952,15.3729032 100.44563,15.3729032 100.07904,15.3322342 C99.3458601,15.2915651 98.734877,15.1695579 98.2868226,15.0475508 C98.0831616,14.9662127 97.9202328,14.9255436 97.7980361,14.8848746 C97.6758395,14.8442055 97.6351073,14.8035364 97.6351073,14.8035364 L97.6351073,14.7221983 L97.7980361,14.7221983 L98.2868226,14.7221983 C98.6941447,14.7221983 99.3051279,14.6815293 99.9975755,14.6001912 C100.364165,14.5595221 100.730755,14.518853 101.17881,14.518853 C101.586132,14.478184 102.034186,14.478184 102.522972,14.518853 C102.767366,14.518853 103.011759,14.5595221 103.256152,14.6001912 C103.378349,14.6001912 103.500546,14.6408602 103.622742,14.6408602 C103.744939,14.6408602 103.867135,14.6815293 103.989332,14.7221983 C104.437386,14.8035364 104.926173,14.9255436 105.414959,15.0475508 C106.3518,15.2915651 107.329373,15.4135723 108.225482,15.4135723 C108.673536,15.4135723 109.12159,15.4135723 109.528913,15.4949104 C109.936235,15.5355795 110.343557,15.6169176 110.669414,15.6982557 C111.036004,15.7795938 111.361862,15.8609319 111.646988,15.9829391 C111.932113,16.0642772 112.176506,16.1862843 112.380167,16.2676225 C112.787489,16.4302987 112.99115,16.5523059 112.99115,16.5523059 L113.072615,16.5929749 L113.072615,16.5929749 Z" id="Shape"></path>
                            <path d="M96.7797309,3.94489845 C96.7797309,3.94489845 96.8611953,4.10757467 96.9426597,4.35158901 C96.9833919,4.47359618 97.0241241,4.6362724 97.1055886,4.83961768 C97.1463208,5.00229391 97.187053,5.24630824 97.2685174,5.44965352 C97.3092496,5.69366786 97.3499818,5.9376822 97.390714,6.18169654 L97.390714,7.03574671 C97.390714,7.32043011 97.390714,7.64578256 97.4314462,7.93046595 C97.4721784,8.21514934 97.5536429,8.54050179 97.6758395,8.82518519 C97.7573039,9.10986858 97.8795005,9.43522103 97.9202328,9.76057348 C97.960965,10.0859259 98.0424294,10.3706093 98.0424294,10.6552927 C98.1238938,11.2653286 98.0831616,11.8346953 98.0016972,12.282055 C97.960965,12.5260693 97.9202328,12.7294146 97.8387683,12.9327599 C97.7980361,13.1361051 97.7165717,13.2987814 97.6758395,13.4207885 C97.5536429,13.6648029 97.4721784,13.8274791 97.4721784,13.8274791 L97.390714,13.8274791 C97.390714,13.8274791 97.3499818,13.6648029 97.3499818,13.3801195 C97.3499818,13.0954361 97.3092496,12.7294146 97.2685174,12.282055 C97.2277852,11.8346953 97.187053,11.3059976 97.187053,10.7366308 L97.187053,9.84191159 C97.187053,9.5572282 97.187053,9.23187575 97.2277852,8.9065233 C97.2277852,8.58117085 97.2277852,8.29648746 97.187053,7.97113501 C97.1463208,7.64578256 97.0648563,7.36109916 96.9833919,7.07641577 C96.9019275,6.79173238 96.7797309,6.50704898 96.7389987,6.26303465 C96.6982665,6.01902031 96.6575342,5.73433692 96.6575342,5.49032258 C96.616802,5.00229391 96.6575342,4.59560335 96.6982665,4.35158901 C96.7389987,4.06690562 96.7797309,3.90422939 96.7797309,3.90422939 L96.7797309,3.94489845 L96.7797309,3.94489845 Z" id="Shape"></path>
                            <path d="M114.376046,10.3299403 C114.376046,10.3299403 114.335313,10.3299403 114.253849,10.2892712 C114.172385,10.2892712 114.050188,10.2486022 113.887259,10.2079331 C113.72433,10.167264 113.561401,10.167264 113.35774,10.126595 C113.154079,10.0859259 112.909686,10.0452569 112.624561,10.0452569 C112.380167,10.0045878 112.095042,10.0045878 111.769184,9.9232497 C111.484059,9.88258065 111.158201,9.80124253 110.791611,9.71990442 C110.465753,9.63856631 110.099164,9.59789725 109.732574,9.59789725 C109.365984,9.59789725 108.999394,9.63856631 108.632804,9.71990442 C108.266214,9.80124253 107.899624,9.88258065 107.573767,9.9232497 C107.207177,9.96391876 106.881319,10.0452569 106.514729,10.0859259 C105.822281,10.167264 105.211298,10.167264 104.68178,10.2079331 C104.152261,10.2486022 103.704207,10.2892712 103.419081,10.3299403 C103.093223,10.3706093 102.930295,10.4112784 102.930295,10.4112784 L102.889562,10.3299403 C102.889562,10.3299403 102.930295,10.2892712 102.971027,10.2486022 C103.052491,10.167264 103.133956,10.0859259 103.296884,10.0045878 C103.459813,9.9232497 103.622742,9.80124253 103.826403,9.71990442 C104.030064,9.63856631 104.274458,9.5572282 104.559583,9.47589008 C105.129834,9.31321386 105.781549,9.23187575 106.433265,9.23187575 L107.492302,9.23187575 C107.858892,9.23187575 108.225482,9.2725448 108.592072,9.31321386 C108.958662,9.35388292 109.325252,9.39455197 109.691841,9.39455197 C110.058431,9.39455197 110.425021,9.35388292 110.750879,9.31321386 C111.117469,9.2725448 111.443326,9.23187575 111.769184,9.23187575 C112.095042,9.23187575 112.380167,9.31321386 112.665293,9.35388292 C112.950418,9.43522103 113.194811,9.51655914 113.398473,9.59789725 C113.602134,9.67923536 113.805795,9.80124253 113.927991,9.88258065 C114.09092,9.96391876 114.172385,10.0859259 114.213117,10.126595 L114.294581,10.2079331 L114.376046,10.3299403 L114.376046,10.3299403 Z" id="Shape"></path>
                            <path d="M101.545399,2.68415771 C101.545399,2.68415771 101.626864,2.76549582 101.74906,2.9688411 C101.830525,3.05017921 101.871257,3.17218638 101.952722,3.3348626 C102.034186,3.49753883 102.074918,3.66021505 102.11565,3.82289128 C102.156383,3.9855675 102.197115,4.18891278 102.197115,4.39225806 C102.197115,4.59560335 102.156383,4.83961768 102.11565,5.04296296 C101.993454,5.49032258 102.034186,5.97835125 102.11565,6.46637993 C102.156383,6.71039427 102.197115,6.9544086 102.197115,7.19842294 C102.197115,7.44243728 102.197115,7.68645161 102.156383,7.88979689 C102.11565,8.33715651 101.993454,8.78451613 101.830525,9.10986858 C101.74906,9.2725448 101.667596,9.43522103 101.586132,9.5572282 C101.504667,9.67923536 101.423203,9.80124253 101.341738,9.88258065 C101.17881,10.0452569 101.097345,10.126595 101.097345,10.126595 L101.015881,10.0859259 C101.015881,10.0859259 101.015881,9.96391876 101.056613,9.76057348 C101.097345,9.5572282 101.097345,9.2725448 101.138077,8.9065233 C101.17881,8.58117085 101.219542,8.17448029 101.341738,7.76778973 C101.382471,7.56444444 101.423203,7.32043011 101.504667,7.11708483 C101.545399,6.87307049 101.626864,6.66972521 101.708328,6.42571087 C101.789793,6.18169654 101.830525,5.97835125 101.830525,5.73433692 C101.830525,5.49032258 101.789793,5.2869773 101.708328,5.04296296 C101.626864,4.83961768 101.545399,4.6362724 101.504667,4.43292712 C101.463935,4.22958184 101.463935,4.06690562 101.423203,3.86356033 L101.423203,3.37553166 L101.423203,3.00951016 C101.423203,2.80616487 101.463935,2.64348865 101.463935,2.64348865 L101.545399,2.68415771 L101.545399,2.68415771 Z" id="Shape"></path>
                            <path d="M107.45157,1.9521147 C107.45157,1.9521147 107.492302,2.03345281 107.573767,2.23679809 C107.614499,2.39947431 107.655231,2.64348865 107.695963,2.92817204 C107.695963,3.05017921 107.695963,3.21285544 107.655231,3.37553166 C107.614499,3.53820789 107.533034,3.70088411 107.492302,3.86356033 C107.410838,4.02623656 107.370105,4.18891278 107.370105,4.39225806 C107.370105,4.55493429 107.410838,4.75827957 107.45157,4.96162485 C107.492302,5.16497013 107.533034,5.32764636 107.573767,5.53099164 C107.573767,5.73433692 107.614499,5.89701314 107.614499,6.05968937 C107.614499,6.42571087 107.573767,6.75106332 107.492302,6.99507766 C107.410838,7.27976105 107.329373,7.48310633 107.247909,7.64578256 C107.166444,7.80845878 107.08498,7.88979689 107.08498,7.88979689 L107.003516,7.88979689 C107.003516,7.88979689 106.962783,7.80845878 106.922051,7.64578256 C106.881319,7.48310633 106.799855,7.239092 106.759122,6.9544086 C106.71839,6.66972521 106.71839,6.34437276 106.759122,6.01902031 C106.799855,5.85634409 106.799855,5.65299881 106.840587,5.49032258 C106.881319,5.32764636 106.922051,5.12430108 107.003516,4.96162485 C107.08498,4.79894863 107.125712,4.59560335 107.125712,4.43292712 C107.125712,4.2702509 107.125712,4.06690562 107.044248,3.90422939 C107.003516,3.74155317 106.922051,3.53820789 106.922051,3.37553166 C106.922051,3.21285544 106.922051,3.05017921 106.962783,2.92817204 C107.003516,2.64348865 107.125712,2.44014337 107.207177,2.27746714 C107.288641,2.11479092 107.370105,2.03345281 107.370105,2.03345281 L107.45157,1.9521147 L107.45157,1.9521147 Z" id="Shape"></path>
                            <path d="M110.058431,1.99278375 C110.058431,1.99278375 110.099164,2.03345281 110.139896,2.11479092 C110.180628,2.19612903 110.22136,2.3181362 110.22136,2.39947431 C110.22136,2.44014337 110.22136,2.52148148 110.180628,2.56215054 C110.139896,2.60281959 110.058431,2.64348865 110.017699,2.72482676 C109.936235,2.76549582 109.895502,2.84683393 109.895502,2.92817204 C109.895502,3.00951016 109.895502,3.09084827 109.976967,3.17218638 C110.017699,3.25352449 110.058431,3.3348626 110.099164,3.37553166 C110.099164,3.45686977 110.139896,3.49753883 110.139896,3.57887694 C110.180628,3.70088411 110.139896,3.82289128 110.099164,3.90422939 C110.058431,4.02623656 109.976967,4.10757467 109.936235,4.18891278 C109.895502,4.2702509 109.85477,4.31091995 109.85477,4.31091995 L109.773306,4.35158901 C109.773306,4.35158901 109.732574,4.31091995 109.651109,4.2702509 C109.569645,4.22958184 109.48818,4.14824373 109.406716,4.02623656 C109.325252,3.90422939 109.284519,3.74155317 109.325252,3.619546 C109.325252,3.53820789 109.365984,3.45686977 109.406716,3.37553166 C109.447448,3.29419355 109.48818,3.21285544 109.569645,3.17218638 C109.651109,3.09084827 109.691841,3.05017921 109.691841,2.9688411 C109.732574,2.88750299 109.691841,2.80616487 109.651109,2.72482676 C109.610377,2.64348865 109.569645,2.56215054 109.569645,2.48081243 C109.569645,2.39947431 109.610377,2.35880526 109.610377,2.3181362 C109.691841,2.23679809 109.773306,2.15545998 109.85477,2.11479092 C109.936235,2.07412186 110.017699,2.07412186 110.017699,2.07412186 L110.058431,1.99278375 L110.058431,1.99278375 Z" id="Shape"></path>
                            <path d="M112.095042,1.46408602 C112.095042,1.46408602 112.176506,1.50475508 112.217238,1.54542413 C112.257971,1.58609319 112.339435,1.62676225 112.380167,1.70810036 C112.380167,1.74876941 112.4209,1.78943847 112.380167,1.78943847 C112.339435,1.83010753 112.298703,1.83010753 112.217238,1.87077658 C112.135774,1.91144564 112.095042,1.91144564 112.095042,1.9521147 C112.095042,1.99278375 112.135774,2.03345281 112.176506,2.07412186 C112.217238,2.11479092 112.298703,2.15545998 112.298703,2.19612903 C112.298703,2.23679809 112.339435,2.27746714 112.339435,2.3181362 C112.380167,2.39947431 112.298703,2.44014337 112.257971,2.48081243 C112.176506,2.52148148 112.095042,2.56215054 112.05431,2.56215054 C111.972845,2.56215054 111.932113,2.60281959 111.932113,2.60281959 L111.850649,2.60281959 C111.850649,2.60281959 111.809916,2.56215054 111.728452,2.52148148 C111.646988,2.48081243 111.606255,2.44014337 111.565523,2.35880526 C111.524791,2.27746714 111.484059,2.23679809 111.524791,2.15545998 C111.565523,2.11479092 111.565523,2.11479092 111.606255,2.07412186 C111.646988,2.03345281 111.68772,2.03345281 111.769184,1.99278375 C111.850649,1.9521147 111.891381,1.9521147 111.891381,1.91144564 C111.891381,1.87077658 111.850649,1.83010753 111.809916,1.78943847 C111.769184,1.74876941 111.68772,1.70810036 111.68772,1.6674313 C111.68772,1.62676225 111.68772,1.62676225 111.728452,1.58609319 C111.769184,1.54542413 111.850649,1.50475508 111.932113,1.50475508 C112.013577,1.50475508 112.05431,1.46408602 112.05431,1.46408602 L112.095042,1.46408602 L112.095042,1.46408602 Z" id="Shape"></path>
                            <path d="M113.683598,3.09084827 C113.683598,3.09084827 113.683598,3.17218638 113.642866,3.25352449 C113.602134,3.3348626 113.520669,3.49753883 113.398473,3.57887694 C113.317008,3.619546 113.276276,3.66021505 113.154079,3.70088411 C113.072615,3.70088411 112.950418,3.66021505 112.868954,3.66021505 C112.746757,3.619546 112.665293,3.619546 112.583828,3.619546 C112.502364,3.66021505 112.4209,3.70088411 112.339435,3.78222222 C112.257971,3.86356033 112.176506,3.94489845 112.095042,3.94489845 C112.013577,3.9855675 111.932113,4.02623656 111.809916,4.02623656 C111.646988,4.06690562 111.484059,4.06690562 111.32113,3.9855675 C111.198933,3.94489845 111.076737,3.86356033 110.995272,3.82289128 C110.913808,3.78222222 110.873076,3.70088411 110.873076,3.70088411 L110.873076,3.619546 C110.873076,3.619546 110.913808,3.57887694 110.995272,3.49753883 C111.076737,3.41620072 111.198933,3.3348626 111.32113,3.25352449 C111.443326,3.17218638 111.606255,3.13151732 111.769184,3.17218638 C111.850649,3.17218638 111.932113,3.21285544 112.013577,3.21285544 C112.095042,3.21285544 112.217238,3.25352449 112.298703,3.3348626 C112.380167,3.37553166 112.502364,3.41620072 112.583828,3.37553166 C112.665293,3.37553166 112.746757,3.29419355 112.828222,3.21285544 C112.909686,3.13151732 112.950418,3.05017921 112.99115,3.00951016 C113.031883,2.9688411 113.113347,2.9688411 113.194811,2.9688411 L113.35774,2.9688411 L113.520669,2.9688411 C113.642866,2.9688411 113.683598,3.00951016 113.683598,3.00951016 L113.683598,3.09084827 L113.683598,3.09084827 Z" id="Shape"></path>
                            <path d="M113.887259,5.40898447 C113.887259,5.40898447 113.805795,5.49032258 113.683598,5.57166069 C113.561401,5.65299881 113.35774,5.73433692 113.154079,5.81567503 C113.031883,5.85634409 112.909686,5.85634409 112.787489,5.85634409 C112.665293,5.85634409 112.502364,5.81567503 112.339435,5.77500597 C112.176506,5.73433692 112.013577,5.69366786 111.891381,5.73433692 C111.728452,5.73433692 111.565523,5.81567503 111.443326,5.85634409 C111.280398,5.89701314 111.117469,5.97835125 110.95454,6.01902031 C110.791611,6.05968937 110.628682,6.05968937 110.465753,6.05968937 C110.139896,6.10035842 109.895502,6.01902031 109.651109,5.9376822 C109.406716,5.85634409 109.243787,5.73433692 109.12159,5.65299881 C108.999394,5.57166069 108.917929,5.49032258 108.917929,5.49032258 L108.917929,5.40898447 C108.917929,5.40898447 108.999394,5.36831541 109.162323,5.32764636 C109.243787,5.2869773 109.325252,5.2869773 109.406716,5.2869773 C109.48818,5.24630824 109.610377,5.24630824 109.732574,5.24630824 C109.976967,5.20563919 110.22136,5.20563919 110.506486,5.24630824 C110.628682,5.2869773 110.791611,5.2869773 110.913808,5.32764636 C111.076737,5.36831541 111.198933,5.40898447 111.361862,5.44965352 C111.524791,5.49032258 111.68772,5.53099164 111.809916,5.53099164 C111.972845,5.53099164 112.095042,5.44965352 112.257971,5.40898447 C112.380167,5.32764636 112.543096,5.24630824 112.665293,5.20563919 C112.787489,5.16497013 112.909686,5.16497013 113.031883,5.16497013 C113.276276,5.16497013 113.479937,5.20563919 113.602134,5.2869773 C113.765062,5.32764636 113.846527,5.40898447 113.846527,5.40898447 L113.887259,5.40898447 L113.887259,5.40898447 Z" id="Shape"></path>
                            <path d="M112.095042,20.5785424 C112.095042,20.5785424 112.013577,20.5378734 111.891381,20.4972043 C111.769184,20.4158662 111.565523,20.3751971 111.32113,20.293859 C111.198933,20.25319 111.036004,20.2125209 110.873076,20.2125209 C110.710147,20.1718519 110.547218,20.1311828 110.343557,20.1311828 C109.976967,20.0905137 109.569645,20.0091756 109.12159,19.9685066 C108.673536,19.9278375 108.144017,19.8871685 107.655231,19.8464994 C107.125712,19.8058303 106.555461,19.6838232 105.98521,19.6024851 C105.414959,19.521147 104.803976,19.4398088 104.192993,19.3991398 C103.58201,19.3584707 102.971027,19.3991398 102.319311,19.4398088 C101.708328,19.4804779 101.097345,19.561816 100.44563,19.6024851 C100.119772,19.6431541 99.8346466,19.6431541 99.5495212,19.6431541 C99.3865923,19.6431541 99.2236635,19.6431541 99.1014668,19.6838232 L98.6534125,19.6838232 C98.0016972,19.6838232 97.4721784,19.6024851 96.9426597,19.521147 C96.413141,19.4398088 95.9243545,19.3584707 95.4763002,19.2771326 C94.5801915,19.1144564 93.8062795,19.0331183 93.2767608,19.0737873 C93.1545642,19.0737873 93.0323676,19.0737873 92.9101709,19.1144564 C92.7879743,19.1144564 92.7065099,19.1551254 92.6657777,19.1551254 C92.543581,19.1957945 92.4621166,19.1957945 92.4621166,19.1957945 L92.4213844,19.1144564 C92.4213844,19.1144564 92.5028488,19.0737873 92.6250455,18.9924492 C92.7065099,18.9517802 92.7879743,18.9111111 92.8694387,18.8704421 C92.9916353,18.829773 93.0730998,18.7891039 93.2360286,18.7484349 C93.3582252,18.7077658 93.5211541,18.6670968 93.6840829,18.6264277 C93.8470118,18.5857587 94.0506728,18.5857587 94.2543339,18.5450896 C94.661656,18.5044205 95.1097103,18.5044205 95.5577646,18.5450896 C96.0465511,18.5857587 96.5353376,18.6264277 97.0648563,18.6670968 C97.5943751,18.7077658 98.164626,18.7891039 98.6941447,18.829773 C98.8163414,18.829773 98.9792702,18.829773 99.1421991,18.8704421 L99.5902534,18.8704421 L100.486362,18.8704421 C101.097345,18.8704421 101.74906,18.9111111 102.360044,18.9924492 C102.971027,19.0331183 103.622742,19.1144564 104.233725,19.1551254 C104.844708,19.1957945 105.455692,19.2364636 106.025943,19.1957945 C106.596193,19.1551254 107.166444,19.1144564 107.736695,19.1551254 C108.266214,19.1957945 108.795733,19.2364636 109.284519,19.3178017 C109.773306,19.3991398 110.180628,19.521147 110.547218,19.6431541 C110.913808,19.7651613 111.239665,19.9278375 111.484059,20.0498447 C111.728452,20.2125209 111.932113,20.3345281 112.013577,20.4158662 C112.135774,20.5378734 112.176506,20.5785424 112.176506,20.5785424 L112.095042,20.5785424 L112.095042,20.5785424 Z" id="Shape"></path>
                            <path d="M71.5257607,28.0616487 C71.5257607,28.0616487 71.5664929,28.224325 71.5257607,28.4683393 L71.5257607,28.8750299 C71.5257607,29.0377061 71.5257607,29.2003823 71.4850285,29.4037276 C71.4442963,29.6070729 71.4850285,29.8104182 71.4442963,30.0137634 C71.4035641,30.2171087 71.3220996,30.4611231 71.2813674,30.7051374 C71.199903,30.9491517 71.199903,31.1931661 71.199903,31.4778495 C71.199903,31.7218638 71.2813674,32.0065472 71.3628319,32.2505615 C71.4442963,32.4945759 71.5257607,32.7792593 71.6072251,33.0232736 C71.6479573,33.2672879 71.7294217,33.5113023 71.770154,33.7553166 C71.8923506,34.2433453 71.9330828,34.6907049 71.973815,35.0973955 C72.0145472,35.504086 72.0145472,35.8294385 71.973815,36.0734528 C71.973815,36.3174671 71.9330828,36.4394743 71.9330828,36.4394743 L71.8516184,36.4394743 C71.8516184,36.4394743 71.770154,36.3174671 71.6479573,36.1141219 C71.5257607,35.9107766 71.3628319,35.5854241 71.2406352,35.2194026 C71.1184386,34.8533811 70.9555098,34.3653524 70.9147775,33.8773238 C70.8740453,33.6333094 70.8740453,33.348626 70.8740453,33.1046117 C70.8740453,32.8199283 70.8740453,32.575914 70.9147775,32.2912306 C70.9555098,32.0065472 70.9555098,31.7625329 70.9555098,31.4778495 C70.9555098,31.1931661 70.9147775,30.9491517 70.8333131,30.7051374 C70.7518487,30.4611231 70.7111165,30.2171087 70.7111165,29.9730944 C70.7111165,29.72908 70.7518487,29.5257348 70.7925809,29.3223895 C70.8333131,29.1190442 70.9147775,28.9156989 70.9555098,28.7530227 C71.0369742,28.5903465 71.0777064,28.4683393 71.1591708,28.3463321 C71.2813674,28.1429869 71.4035641,28.0209797 71.4035641,28.0209797 L71.5257607,28.0616487 L71.5257607,28.0616487 Z" id="Shape"></path>
                            <path d="M0.12219663,58.2787575 C0.12219663,58.2787575 0.24439326,58.4007646 0.52951873,58.644779 C0.773911989,58.8887933 1.14050188,59.2548148 1.67002061,59.7021744 C2.64759365,60.5968937 4.19541763,61.8983035 6.27276033,63.1997133 C7.33179779,63.8504182 8.55376409,64.5011231 9.89792702,64.9891517 C10.2645169,65.1111589 10.5903746,65.2331661 10.9569645,65.3145042 C11.1198933,65.3551732 11.3235544,65.3958423 11.5272154,65.4771804 C11.7308765,65.5178495 11.8938053,65.5585185 12.0974664,65.5991876 C12.8713783,65.7618638 13.6452903,65.883871 14.4599345,65.92454 C15.2745787,65.9652091 16.1299551,65.883871 16.9853316,65.7618638 C17.840708,65.5991876 18.7368166,65.3958423 19.592193,65.1111589 C21.343678,64.5011231 23.0951631,63.5250657 24.7244514,62.304994 C26.3944721,61.0849223 27.9830282,59.5801673 29.5308522,57.912736 C30.3047642,57.0586858 31.037944,56.1639665 31.7711238,55.2692473 C32.5043036,54.333859 33.1967511,53.3578017 33.9299309,52.3817443 C36.7404534,48.3961768 39.4695115,43.9632497 41.8727118,39.123632 C43.0539459,36.7241577 44.1944478,34.2026762 45.1720209,31.5998566 C45.4164141,30.9491517 45.6608074,30.2984468 45.9459328,29.6477419 C46.1903261,28.997037 46.4754516,28.3463321 46.760577,27.6956272 C47.2900958,26.3942174 47.9010789,25.0928076 48.5120621,23.7913978 C49.1230452,22.4899881 49.7747606,21.2292473 50.4672081,19.9278375 C51.1596557,18.6670968 51.8521033,17.406356 52.6260153,16.1456153 C53.3999273,14.9255436 54.1738393,13.6648029 55.0292157,12.4854002 C55.8845921,11.3059976 56.7807007,10.126595 57.7175415,8.98786141 C58.6951146,7.84912784 59.7134198,6.79173238 60.8131895,5.77500597 C61.9129591,4.75827957 63.0941932,3.82289128 64.4790884,3.05017921 C65.1715359,2.68415771 65.9047157,2.35880526 66.7193599,2.15545998 C67.5340041,1.9521147 68.5115772,1.87077658 69.5298824,2.23679809 C70.0186689,2.44014337 70.5074554,2.76549582 70.8740453,3.13151732 C71.2406352,3.53820789 71.4850285,3.94489845 71.6886895,4.39225806 L71.770154,4.55493429 L71.8108862,4.6362724 C71.8108862,4.59560335 71.8516184,4.79894863 71.8516184,4.79894863 L71.9330828,5.04296296 L72.0960116,5.57166069 L72.2589405,6.10035842 L72.3811371,6.71039427 L72.4626015,7.32043011 C72.5033337,7.52377539 72.5440659,7.72712067 72.5440659,7.93046595 L72.6255304,9.06919952 L72.6255304,10.2079331 L72.6255304,10.7772999 C72.6255304,10.9806452 72.5847982,11.1433214 72.5847982,11.3466667 L72.4626015,12.4447312 L72.2996727,13.5427957 C72.2182083,14.2748387 72.0552794,14.9662127 71.8923506,15.6982557 C71.2813674,18.5044205 70.4667232,21.1885783 69.652079,23.7913978 C68.8374348,26.3942174 68.0227906,28.9156989 67.2896109,31.3965114 C66.5564311,33.8773238 65.8639835,36.3174671 65.1715359,38.7169415 C64.4790884,41.0757467 63.8681052,43.3938829 63.3793187,45.6713501 C62.8498,47.9081481 62.4424779,50.1042772 62.1980846,52.178399 C61.9536914,54.2525209 61.8314947,56.2859737 62.075888,58.0754122 C62.1980846,58.9701314 62.4017457,59.8241816 62.7276033,60.5968937 C62.8905322,60.9629152 63.053461,61.3289367 63.2978543,61.6542891 C63.3793187,61.8169654 63.5422475,61.9389725 63.623712,62.1016487 L63.6644442,62.1423178 L63.7051764,62.1829869 C63.7051764,62.1829869 63.7459086,62.2236559 63.7051764,62.1829869 L63.827373,62.304994 L64.0717663,62.5490084 C65.1715359,63.6877419 66.5156989,64.3791159 67.7783974,64.2164397 C68.4301127,64.1757706 69.0410959,63.9317563 69.6113468,63.6470729 C70.1815978,63.3623895 70.7111165,62.996368 71.1591708,62.5896774 C72.0960116,61.8169654 72.8699236,61.0035842 73.4809068,60.2715412 C74.1326221,59.5394982 74.6214087,58.8887933 75.0287308,58.3194265 C75.843375,57.2620311 76.2914293,56.6519952 76.2914293,56.6519952 C76.3321615,56.5706571 76.4136259,56.5706571 76.4950903,56.6113262 C76.5358225,56.6519952 76.5765547,56.7333333 76.5358225,56.8146714 L76.5358225,56.8146714 C76.5358225,56.8146714 76.2099648,57.4653763 75.4767851,58.644779 C75.1101952,59.2141458 74.6621409,59.9461888 74.0918899,60.7595699 C73.521639,61.572951 72.8291914,62.5083393 71.8923506,63.4437276 C71.4035641,63.8910872 70.8740453,64.3791159 70.2630622,64.7858065 C69.6113468,65.192497 68.8781671,65.5585185 67.9820584,65.7211947 C67.5340041,65.8025329 67.0859498,65.8025329 66.5971633,65.7618638 C66.149109,65.7211947 65.6603225,65.5991876 65.2122682,65.4365114 C64.3161595,65.1111589 63.5015153,64.5417921 62.7683356,63.8910872 L62.5239423,63.6877419 L62.4017457,63.5657348 L62.2388168,63.4030585 C62.075888,63.1997133 61.8722269,63.037037 61.7092981,62.7930227 C61.3834404,62.3863321 61.0983149,61.9389725 60.8539217,61.4509438 C60.3651352,60.5155556 60.0800097,59.4581601 59.8763486,58.4414337 C59.5097588,56.3266428 59.5097588,54.1711828 59.6726876,51.9343847 C60.0392775,47.4607885 61.0575827,42.7838471 62.3610135,37.9442294 C62.6868711,36.7241577 63.0127288,35.504086 63.3385865,34.2840143 C63.7051764,33.0639427 64.0310341,31.843871 64.4383562,30.5424612 C65.2122682,28.0209797 66.0269124,25.4588292 66.923021,22.8966786 C67.7783974,20.3345281 68.6337738,17.7317085 69.2854892,15.0882198 C69.4076858,14.4375149 69.6113468,13.78681 69.6928112,13.0954361 L69.8557401,12.1193787 L69.9779367,11.1433214 C69.9779367,10.9806452 70.0186689,10.8179689 70.0186689,10.6552927 L70.0594011,10.167264 C70.0594011,9.84191159 70.1001333,9.51655914 70.1001333,9.19120669 L70.0594011,8.21514934 C70.0594011,8.05247312 70.0594011,7.88979689 70.0186689,7.76778973 L69.9779367,7.32043011 L69.9372045,6.87307049 L69.8150079,6.34437276 L69.6928112,5.81567503 L69.6113468,5.57166069 C69.6113468,5.53099164 69.652079,5.65299881 69.6113468,5.57166069 L69.6113468,5.53099164 L69.5706146,5.44965352 C69.4076858,5.00229391 69.1632925,4.71761051 68.8374348,4.55493429 C68.5115772,4.39225806 67.9820584,4.35158901 67.4118075,4.47359618 C66.8415566,4.59560335 66.2305734,4.79894863 65.6195903,5.08363202 C64.4383562,5.65299881 63.2571221,6.42571087 62.1573524,7.32043011 C61.0575827,8.17448029 60.0392775,9.15053763 59.0209722,10.167264 C55.0292157,14.2748387 51.8521033,19.1551254 49.4081707,24.2387575 C48.7971875,25.4994982 48.2269366,26.800908 47.6974179,28.1023178 C47.4530246,28.7530227 47.1678991,29.4037276 46.9235059,30.0544325 C46.6791126,30.7051374 46.4754516,31.3558423 46.2310583,32.0472162 C45.3349497,34.731374 44.3981089,37.3341935 43.3390714,39.855675 C41.2617287,44.898638 38.8992605,49.6975866 36.0480058,53.9271685 C35.3555582,54.9845639 34.5816463,56.0012903 33.8484665,56.9773477 C33.0745545,57.953405 32.3006425,58.8887933 31.4859983,59.7835125 C29.8159777,61.532282 28.1052249,63.1183751 26.2315432,64.4197849 C24.3578616,65.7211947 22.3619833,66.7379211 20.366105,67.347957 C19.3477997,67.6733094 18.3294945,67.8766547 17.3519214,67.9579928 C16.3336162,68.0393309 15.3560432,68.0393309 14.4192023,67.9579928 C12.5455207,67.7953166 10.8347679,67.2259498 9.4091405,66.5752449 C7.94278094,65.92454 6.72081464,65.1111589 5.7025094,64.3384468 C3.62516669,62.7523536 2.24027155,61.2882676 1.34416293,60.2308722 C0.896108619,59.7021744 0.57025094,59.2954839 0.36658989,59.0108005 C0.16292884,58.7261171 0.04073221,58.6041099 0.04073221,58.6041099 C-4.60464999e-14,58.5227718 -4.60464999e-14,58.4414337 0.0814644199,58.4007646 C3.69669573e-15,58.2380884 0.0814644199,58.2380884 0.12219663,58.2787575 L0.12219663,58.2787575 Z" id="Shape"></path>
                        </g>
                    </g>
                </g>
            </g>
        </g>
    </g>
</svg>