<?xml version="1.0" encoding="UTF-8" standalone="no"?>
<svg width="12px" height="15px" viewBox="0 0 12 15" version="1.1" xmlns="http://www.w3.org/2000/svg" xmlns:xlink="http://www.w3.org/1999/xlink" xmlns:sketch="http://www.bohemiancoding.com/sketch/ns">
    <!-- Generator: Sketch 3.5.2 (25235) - http://www.bohemiancoding.com/sketch -->
    <title>bill</title>
    <desc>Created with Sketch.</desc>
    <defs></defs>
    <g id="Page-1" stroke="none" stroke-width="1" fill="none" fill-rule="evenodd" sketch:type="MSPage">
        <g id="Dashboard" sketch:type="MSArtboardGroup" transform="translate(-147.000000, -344.000000)" fill="#253A1B">
            <g id="bill" sketch:type="MSLayerGroup" transform="translate(146.997561, 344.000000)">
                <g id="Group" sketch:type="MSShapeGroup">
                    <path d="M3.77099218,10.0166121 L3.77099218,8.61269923 C4.18615258,8.69075864 4.45198824,8.93389924 4.46311893,8.94416261 C4.51154467,8.99056459 4.57529319,9.01629529 4.64251101,9.01629529 C4.71363181,9.01629529 4.7799823,8.98810717 4.82927537,8.93679033 C4.92872884,8.83386756 4.92583775,8.66907547 4.82277042,8.56976656 C4.805713,8.55328735 4.40500804,8.17339823 3.77099218,8.08796655 L3.77099218,7.73265169 C3.77099218,7.58954277 3.65448128,7.47303188 3.51137237,7.47303188 C3.36840801,7.47303188 3.25189711,7.58954277 3.25189711,7.73265169 L3.25189711,8.0881111 C2.49790106,8.18510714 1.99441787,8.67876062 1.99441787,9.32593094 C1.99441787,10.0737112 2.84989116,10.309624 3.25189711,10.4115349 L3.25189711,11.9679528 C2.93069711,11.8897488 2.50556244,11.7099231 2.34264957,11.5468656 C2.29350105,11.4978617 2.22830699,11.4709746 2.15892085,11.4709746 C2.08953471,11.4709746 2.02434065,11.4980062 1.97519213,11.5468656 C1.87414856,11.6480538 1.87414856,11.8128459 1.97519213,11.914034 C2.23885946,12.1775568 2.83297829,12.4178063 3.25160801,12.4978894 L3.25160801,12.8176439 C3.25160801,12.9607528 3.3681189,13.0772637 3.51122781,13.0772637 C3.65433673,13.0772637 3.77084762,12.9607528 3.77084762,12.8176439 L3.77084762,12.5095983 C4.35976249,12.428937 5.02847142,12.0809944 5.02847142,11.3507052 C5.02861597,10.75543 4.58237636,10.2824478 3.77099218,10.0166121 L3.77099218,10.0166121 Z M4.50952091,11.3507052 C4.50952091,11.7723706 4.06790704,11.9242973 3.77099218,11.9789389 L3.77099218,10.5685211 C4.12095852,10.7081607 4.50952091,10.9527468 4.50952091,11.3507052 L4.50952091,11.3507052 Z M2.51351294,9.32607549 C2.51351294,8.89833885 2.88602978,8.67991706 3.25175256,8.61342201 L3.25175256,9.87408145 C2.91956641,9.78069927 2.51351294,9.62342401 2.51351294,9.32607549 L2.51351294,9.32607549 Z" id="Shape"></path>
                    <path d="M5.93699619,4.27996843 C5.76121797,4.27996843 5.58775262,4.3422714 5.44392093,4.45632487 L4.08395258,3.01901988 C4.1527605,2.89036641 4.18615258,2.7666278 4.18615258,2.64129908 C4.18615258,2.20228719 3.82895852,1.84509312 3.38835652,1.84523767 C2.95180206,1.86200599 2.60993076,2.21876639 2.60993076,2.65720007 C2.60993076,2.77024166 2.63363769,2.88010305 2.68076245,2.9840377 L1.53386737,4.08380803 L1.5204238,4.09652882 L1.5204238,4.66535062 L2.94529711,3.29005949 C3.08349117,3.38532088 3.23989909,3.43736049 3.38980207,3.43736049 C3.54042782,3.43736049 3.68165752,3.39775256 3.80019218,3.32215058 L5.19875657,4.78287339 C5.16897835,4.87293082 5.14079023,4.96573478 5.14079023,5.06012885 C5.14079023,5.49899618 5.4979843,5.85619025 5.93685164,5.85619025 C6.37586353,5.85619025 6.73291305,5.49899618 6.73291305,5.06012885 C6.73291305,4.97195062 6.71990315,4.893313 6.69229324,4.81510904 L7.59185564,3.94604763 C7.70706555,4.0181803 7.8611606,4.06212486 8.00325763,4.06212486 C8.14390912,4.06212486 8.30147348,4.01413278 8.4496418,3.92653278 L10.577628,5.48164965 L10.577628,4.95792884 L8.71620023,3.60576643 C8.77301013,3.49590504 8.7994636,3.38705553 8.7994636,3.2659189 C8.7994636,2.82705156 8.44226953,2.46985749 8.00325763,2.46985749 C7.56453485,2.46985749 7.20734078,2.82705156 7.20734078,3.2659189 C7.20734078,3.3906694 7.24044375,3.5141189 7.30867346,3.64233871 L6.4492972,4.4717922 C6.31254868,4.35108922 6.12419422,4.27996843 5.93699619,4.27996843 L5.93699619,4.27996843 Z M5.93699619,4.67084369 C6.15165957,4.67084369 6.32628135,4.84546547 6.32628135,5.06012885 C6.32628135,5.27464766 6.15165957,5.449414 5.93699619,5.449414 C5.72247738,5.449414 5.54785559,5.27464766 5.54771104,5.06287538 C5.5627447,4.83563577 5.7265249,4.67084369 5.93699619,4.67084369 L5.93699619,4.67084369 Z M3.40888326,3.04662978 C3.19277434,3.03217434 3.01670701,2.857408 3.01670701,2.65720007 C3.01670701,2.44268125 3.19147335,2.26805947 3.40599217,2.26805947 C3.62065554,2.26805947 3.79527733,2.44268125 3.79527733,2.65720007 C3.79542188,2.87186344 3.62080009,3.04648523 3.40888326,3.04662978 L3.40888326,3.04662978 Z M8.00325763,2.87663374 C8.21806556,2.87663374 8.39254279,3.05125553 8.39254279,3.26577434 C8.39254279,3.48043771 8.21806556,3.6550595 8.00325763,3.6550595 C7.7929309,3.6550595 7.62915069,3.49012286 7.61426159,3.26577434 C7.61426159,3.05125553 7.78873882,2.87663374 8.00325763,2.87663374 L8.00325763,2.87663374 Z" id="Shape"></path>
                    <path d="M11.5832934,0.0722772296 L6.01910313,0.0722772296 L5.97906154,0.0722772296 L0.414582189,0.0722772296 C0.247621789,0.0722772296 0.112029706,0.207869312 0.112029706,0.374829713 L0.112029706,14.2251707 C0.112029706,14.3924202 0.247621789,14.5277232 0.414582189,14.5277232 L5.97891699,14.5277232 L6.01895857,14.5277232 L11.5831488,14.5277232 C11.7502538,14.5277232 11.8858459,14.3921311 11.8858459,14.2251707 L11.8858459,0.374829713 C11.8859904,0.207580203 11.7503983,0.0722772296 11.5832934,0.0722772296 L11.5832934,0.0722772296 Z M11.2808854,13.9227627 L5.97891699,13.9227627 L5.97891699,13.9227627 L0.717134672,13.9227627 L0.717134672,0.677382196 L6.01910313,0.677382196 L6.01910313,0.677237641 L11.2808854,0.677237641 L11.2808854,13.9227627 L11.2808854,13.9227627 Z" id="Shape"></path>
                    <path d="M9.95951313,7.51625366 L6.13142194,7.51625366 C5.96446154,7.51625366 5.82886946,7.65141208 5.82886946,7.81866159 C5.82886946,7.98605565 5.96446154,8.12121407 6.13142194,8.12121407 L9.95951313,8.12121407 C10.1266181,8.12121407 10.2619211,7.98605565 10.2619211,7.81866159 C10.2619211,7.65141208 10.1267626,7.51625366 9.95951313,7.51625366 L9.95951313,7.51625366 Z" id="Shape"></path>
                    <path d="M9.95951313,9.10837648 L6.13142194,9.10837648 C5.96446154,9.10837648 5.82886946,9.24367945 5.82886946,9.41092896 C5.82886946,9.57817847 5.96446154,9.71348144 6.13142194,9.71348144 L9.95951313,9.71348144 C10.1266181,9.71348144 10.2619211,9.57817847 10.2619211,9.41092896 C10.2619211,9.24367945 10.1267626,9.10837648 9.95951313,9.10837648 L9.95951313,9.10837648 Z" id="Shape"></path>
                    <path d="M9.95951313,10.7004993 L6.13142194,10.7004993 C5.96446154,10.7004993 5.82886946,10.8358023 5.82886946,11.0029072 C5.82886946,11.1703013 5.96446154,11.3054597 6.13142194,11.3054597 L9.95951313,11.3054597 C10.1266181,11.3054597 10.2619211,11.1703013 10.2619211,11.0029072 C10.2619211,10.8358023 10.1267626,10.7004993 9.95951313,10.7004993 L9.95951313,10.7004993 Z" id="Shape"></path>
                    <path d="M9.95951313,12.2927667 L6.13142194,12.2927667 C5.96446154,12.2927667 5.82886946,12.4279251 5.82886946,12.5951746 C5.82886946,12.7624241 5.96446154,12.8977271 6.13142194,12.8977271 L9.95951313,12.8977271 C10.1266181,12.8977271 10.2619211,12.7624241 10.2619211,12.5951746 C10.2619211,12.4279251 10.1267626,12.2927667 9.95951313,12.2927667 L9.95951313,12.2927667 Z" id="Shape"></path>
                </g>
            </g>
        </g>
    </g>
</svg>