<svg id="Capa_1" data-name="Capa 1" xmlns="http://www.w3.org/2000/svg" viewBox="0 0 94.91 92.69"><defs><style>.cls-1,.cls-5{fill:#c0d24c;}.cls-2{fill:#a9abae;}.cls-3{fill:#7b7f2a;}.cls-4{fill:#aab541;}.cls-5{stroke:#fff;stroke-miterlimit:10;stroke-width:0.25px;}</style></defs><title>iconos terminados</title><path class="cls-1" d="M25.05,78.62c4.88,0.43,9.15-.12,12.17-3.91a81.93,81.93,0,0,0,4.7-7.34c2-3.19,3.77-6.63,6.19-9.5,4.25-5,10.07-7.25,16.55-7.87A36.61,36.61,0,0,1,86,54.18,40.6,40.6,0,0,1,90,57a47.7,47.7,0,0,0-4.86,1.59c-3.93,1.77-6.47,5.08-9,8.37C73.47,70.41,70.89,74,68,77.2c-5.49,6.16-12.7,8-20.64,7.41a62.41,62.41,0,0,1-6.76-1.17,5.65,5.65,0,0,1-.94-0.38c2.36-.47,4.57-0.86,6.76-1.34A30.67,30.67,0,0,0,63.54,71.38c2-2.31,4-4.57,6-6.86a27.22,27.22,0,0,1,9.48-7.28l-0.14-.32c-1.07.35-2.16,0.63-3.19,1.07a25.2,25.2,0,0,0-7.9,5.7c-1.64,1.67-3.34,3.28-4.89,5-5.24,5.92-12,9-19.59,10.46a68.82,68.82,0,0,1-17.93.7c-0.77-.05-1.54-0.14-1.59-1.18"/><path class="cls-2" d="M47,0l3.19,0.15c0.52,0,1.1,0,1.74.11L54,0.57c0.75,0.12,1.56.2,2.4,0.39l2.68,0.68A45.4,45.4,0,0,1,71.86,7.32,47.16,47.16,0,0,1,84.92,20,46.87,46.87,0,0,1,92.64,40.1c0.17,1,.16,1.94.24,2.92L93,44.49l0,0.74c0,0.32,0,.51,0,0.77a47.51,47.51,0,0,1-3.67,18.07L88,67c-0.46,1-1.07,1.87-1.6,2.82l-0.83,1.41c-0.31.45-.63,0.89-1,1.33-0.65.88-1.26,1.8-2,2.64a49.57,49.57,0,0,1-9.85,9A48.2,48.2,0,0,1,60.54,90l-3.32.87-0.83.21-0.85.13-1.7.27a23.86,23.86,0,0,1-3.41.39l-3.51.18A51.42,51.42,0,0,1,33.43,90a48.25,48.25,0,0,1-12.25-5.86,49.84,49.84,0,0,1-9.86-9c-0.7-.85-1.31-1.77-2-2.65-0.32-.44-0.65-0.88-1-1.33L7.58,69.81C7,68.86,6.45,68,6,67L4.63,64.07A45.11,45.11,0,0,1,1.37,52,45.09,45.09,0,0,1,1,46c0-.27,0-0.46,0-0.78l0-.73L1.08,43c0.09-1,.08-1.92.24-2.89A46.83,46.83,0,0,1,9,19.95,47.19,47.19,0,0,1,22.11,7.32,45.42,45.42,0,0,1,34.9,1.64L37.58,1C38.43,0.78,39.24.7,40,.57l2.07-.31c0.63-.09,1.22-0.07,1.74-0.11Zm0,0-3.19.17c-0.52,0-1.1,0-1.74.12L40,0.62c-0.74.13-1.55,0.21-2.4,0.4l-2.67.7A42.72,42.72,0,0,0,22.25,7.52,44.8,44.8,0,0,0,9.6,20.32,45.9,45.9,0,0,0,2.67,40.22c-0.13.92-.09,1.91-0.15,2.87L2.47,44.54l0,0.73,0,0.68a43.45,43.45,0,0,0,.58,5.81A43.21,43.21,0,0,0,6.55,63.22L7.93,66C8.4,66.87,9,67.71,9.53,68.59l0.82,1.31c0.3,0.42.63,0.82,0.95,1.23,0.65,0.81,1.24,1.67,1.93,2.45a48,48,0,0,0,9.47,8.3,48.9,48.9,0,0,0,11.57,5.37A48.51,48.51,0,0,0,47.06,89.1l3.15-.16a21.63,21.63,0,0,0,3.2-.35L55,88.36l0.8-.12,0.78-.2,3.12-.79c1-.3,2-0.71,3-1.06,0.5-.19,1-0.35,1.5-0.56l1.44-.69,1.45-.68a10.15,10.15,0,0,0,1.41-.74l2.74-1.63a48.32,48.32,0,0,0,9.47-8.3c0.69-.78,1.29-1.64,1.93-2.45,0.31-.41.64-0.82,0.95-1.23l0.82-1.31c0.53-.88,1.14-1.72,1.61-2.63l1.37-2.74a43.29,43.29,0,0,0,3.48-11.44,43.35,43.35,0,0,0,.59-5.86c0-.23,0-0.53,0-0.69l0-.72,0-1.43c-0.06-1,0-1.91-.15-2.84a45.88,45.88,0,0,0-6.94-19.93A44.83,44.83,0,0,0,71.73,7.52,42.75,42.75,0,0,0,59,1.71L56.38,1C55.54,0.83,54.73.75,54,.62L51.92,0.3C51.28,0.2,50.7.21,50.18,0.17Z"/><path class="cls-3" d="M67.28,73.09H47V67.67a2.78,2.78,0,0,1,.43,0A0.49,0.49,0,0,0,48.07,67c0-.41,0-0.83,0-1.24a0.58,0.58,0,0,1,.67-0.73,5.48,5.48,0,0,0,1.93-.5A4.11,4.11,0,0,0,53.28,61a4.05,4.05,0,0,0-2.34-4.36,14,14,0,0,0-2.76-1,0.48,0.48,0,0,1-.44-0.56c0-.63,0-1.27,0-1.9s0.22-.59.63-0.46a10.18,10.18,0,0,1,2.53,1.08c0.19,0.12.37,0.24,0.53-.06,0.4-.79.82-1.57,1.23-2.35a0.34,0.34,0,0,0-.17-0.53,13,13,0,0,0-3.37-1.31c-1.06-.22-1.06-0.2-1.07-1.28s0-1.11-1.07-1.13V43.27l0.7,0c3.16,0,6.33,0,9.49,0a0.53,0.53,0,0,0,.66-0.68c0-.87,0-1.73,0-2.6s0-.77-0.76-0.77L47,39.2v-4c3.41,0,6.83,0,10.24,0,0.46,0,.64-0.11.62-0.6,0-.94,0-1.88,0-2.82,0-.71,0-0.71-0.71-0.71H47V17.51h20.3c0,0.11,0,.22,0,0.33q0,27.46,0,54.92C67.29,72.87,67.29,73,67.28,73.09Z"/><path class="cls-3" d="M47,17.51q0,6.77,0,13.55l-0.7,0c-3.16,0-6.33,0-9.49,0-0.51,0-.71.11-0.68,0.66,0,0.94,0,1.88,0,2.82,0,0.53.15,0.67,0.67,0.67,3.4,0,6.8,0,10.19,0q0,2,0,4l-0.7,0c-3.2,0-6.39,0-9.59,0a0.47,0.47,0,0,0-.58.59c0,1,0,1.95,0,2.92a0.43,0.43,0,0,0,.53.53c2,0,4,0,6,0l4.39,0v3.87c-0.43-.05-0.58.13-0.55,0.56s0,0.83,0,1.25a0.4,0.4,0,0,1-.4.5,5.39,5.39,0,0,0-1.71.5A4.57,4.57,0,0,0,41.55,54a3.79,3.79,0,0,0,2.61,4.13,15.77,15.77,0,0,0,2.1.72,0.57,0.57,0,0,1,.52.67,15.24,15.24,0,0,0,0,1.73c0,0.49-.17.61-0.62,0.49a10.88,10.88,0,0,1-3.42-1.45c-0.27-.18-0.38-0.09-0.5.14-0.4.81-.8,1.62-1.21,2.42a0.39,0.39,0,0,0,.2.61A11.78,11.78,0,0,0,46,65a0.46,0.46,0,0,1,.49.55c0,0.51,0,1,0,1.52a0.44,0.44,0,0,0,.55.56v5.41H26.69q0-22.77,0-45.55A1,1,0,0,1,26.77,27c2.94,0,5.89,0,8.83,0,0.45,0,.54-0.16.54-0.57,0-2.76,0-5.52,0-8.29A0.6,0.6,0,0,0,36,17.6V17.51H47Z"/><path class="cls-4" d="M47,67.67a0.44,0.44,0,0,1-.55-0.56c0-.5,0-1,0-1.52A0.46,0.46,0,0,0,46,65a11.78,11.78,0,0,1-4.74-1.57,0.39,0.39,0,0,1-.2-0.61c0.41-.8.81-1.61,1.21-2.42,0.12-.24.23-0.33,0.5-0.14a10.88,10.88,0,0,0,3.42,1.45c0.45,0.12.64,0,.62-0.49a15.24,15.24,0,0,1,0-1.73,0.57,0.57,0,0,0-.52-0.67,15.77,15.77,0,0,1-2.1-.72A3.79,3.79,0,0,1,41.55,54a4.57,4.57,0,0,1,2.79-4.05,5.39,5.39,0,0,1,1.71-.5,0.4,0.4,0,0,0,.4-0.5c0-.42,0-0.83,0-1.25s0.12-.61.55-0.56c1.07,0,1.07,0,1.07,1.13s0,1.06,1.07,1.28a13,13,0,0,1,3.37,1.31,0.34,0.34,0,0,1,.17.53c-0.41.78-.83,1.56-1.23,2.35-0.15.3-.33,0.18-0.53,0.06a10.18,10.18,0,0,0-2.53-1.08c-0.41-.13-0.66-0.06-0.63.46s0,1.26,0,1.9a0.48,0.48,0,0,0,.44.56,14,14,0,0,1,2.76,1A4.05,4.05,0,0,1,53.28,61a4.11,4.11,0,0,1-2.63,3.61,5.48,5.48,0,0,1-1.93.5,0.58,0.58,0,0,0-.67.73c0,0.41,0,.83,0,1.24a0.49,0.49,0,0,1-.64.63A2.78,2.78,0,0,0,47,67.67Zm0.76-7h0c0,0.32,0,.65,0,1a0.24,0.24,0,0,0,.24.29,1.55,1.55,0,0,0,1.35-.75,1.12,1.12,0,0,0-.66-1.42c-0.86-.48-0.94-0.43-0.94.53Q47.75,60.44,47.75,60.63Zm-1-6.7a3.55,3.55,0,0,0,0-.49c0-.25.15-0.6-0.17-0.73a1,1,0,0,0-1,.23,1.3,1.3,0,0,0,1,2.16c0.32-.14.09-0.59,0.14-0.9A1.64,1.64,0,0,0,46.76,53.94Z"/><path class="cls-4" d="M47,35.2c-3.4,0-6.8,0-10.19,0-0.52,0-.69-0.14-0.67-0.67,0-.94,0-1.88,0-2.82,0-.54.18-0.66,0.68-0.66,3.16,0,6.33,0,9.49,0l0.7,0H57.13c0.71,0,.71,0,0.71.71,0,0.94,0,1.88,0,2.82,0,0.5-.16.6-0.62,0.6C53.81,35.19,50.4,35.2,47,35.2Z"/><path class="cls-4" d="M47,43.27l-4.39,0c-2,0-4,0-6,0a0.43,0.43,0,0,1-.53-0.53c0-1,0-2,0-2.92a0.47,0.47,0,0,1,.58-0.59c3.2,0,6.39,0,9.59,0l0.7,0,10.09,0c0.76,0,.76,0,0.76.77s0,1.74,0,2.6a0.53,0.53,0,0,1-.66.68c-3.16,0-6.33,0-9.49,0Z"/><path class="cls-4" d="M26.77,27c0.94-1,1.86-2,2.83-2.88,0.62-.6,1.18-1.26,1.81-1.85,1.08-1,2.1-2.07,3.14-3.11,0.49-.5,1-1,1.46-1.51a0.6,0.6,0,0,1,.11.51c0,2.76,0,5.52,0,8.29,0,0.41-.09.57-0.54,0.57C32.66,27,29.71,27,26.77,27Z"/><path class="cls-3" d="M47.75,60.63q0-.19,0-0.38c0-1,.08-1,0.94-0.53a1.12,1.12,0,0,1,.66,1.42,1.55,1.55,0,0,1-1.35.75,0.24,0.24,0,0,1-.24-0.29c0-.32,0-0.65,0-1h0Z"/><path class="cls-3" d="M46.76,53.94a1.64,1.64,0,0,1,0,.27c-0.05.31,0.18,0.75-.14,0.9a1.3,1.3,0,0,1-1-2.16,1,1,0,0,1,1-.23c0.32,0.14.13,0.48,0.17,0.73A3.55,3.55,0,0,1,46.76,53.94Z"/><path class="cls-5" d="M34.58,75.09c-1.74.15-3.26,0-4.34-1.39a29.19,29.19,0,0,1-1.68-2.62,30.71,30.71,0,0,0-2.21-3.38,8.39,8.39,0,0,0-5.9-2.8,13,13,0,0,0-7.61,1.49,14.46,14.46,0,0,0-1.43,1,17,17,0,0,1,1.73.57,9,9,0,0,1,3.22,3c1,1.23,1.87,2.49,2.91,3.65a8.45,8.45,0,0,0,7.35,2.64A22.23,22.23,0,0,0,29,76.81a2,2,0,0,0,.34-0.14c-0.84-.17-1.63-0.31-2.41-0.48a10.93,10.93,0,0,1-6.11-3.68c-0.71-.82-1.43-1.63-2.15-2.45a9.7,9.7,0,0,0-3.38-2.59l0.05-.12c0.38,0.13.77,0.22,1.14,0.38a9,9,0,0,1,2.81,2c0.58,0.59,1.19,1.17,1.74,1.79a12,12,0,0,0,7,3.73,24.52,24.52,0,0,0,6.39.25c0.28,0,.55,0,0.57-0.42"/></svg>