<svg id="Capa_1" data-name="Capa 1" xmlns="http://www.w3.org/2000/svg" viewBox="0 0 93.68 92.86"><defs><style>.cls-1,.cls-6{fill:#c0d24c;}.cls-2{fill:#a9abae;}.cls-3{fill:#aab541;}.cls-4{fill:#7b7f2a;}.cls-5{fill:#fff;}.cls-6{stroke:#fff;stroke-miterlimit:10;stroke-width:0.25px;}</style></defs><title>iconos terminados</title><path class="cls-1" d="M25.1,78.62c4.88,0.43,9.15-.12,12.17-3.91A81.93,81.93,0,0,0,42,67.37c2-3.19,3.77-6.63,6.19-9.5,4.25-5,10.07-7.25,16.55-7.87a36.61,36.61,0,0,1,21.37,4.19,40.6,40.6,0,0,1,4,2.83,47.7,47.7,0,0,0-4.86,1.59c-3.93,1.77-6.47,5.08-9,8.37C73.52,70.41,70.94,74,68,77.2c-5.49,6.16-12.7,8-20.64,7.41a62.41,62.41,0,0,1-6.76-1.17,5.65,5.65,0,0,1-.94-0.38c2.36-.47,4.57-0.86,6.76-1.34A30.67,30.67,0,0,0,63.59,71.38c2-2.31,4-4.57,6-6.86a27.22,27.22,0,0,1,9.48-7.28L79,56.91c-1.07.35-2.16,0.63-3.19,1.07a25.2,25.2,0,0,0-7.9,5.7c-1.64,1.67-3.34,3.28-4.89,5-5.24,5.92-12,9-19.59,10.46a68.82,68.82,0,0,1-17.93.7c-0.77-.05-1.54-0.14-1.59-1.18"/><path class="cls-2" d="M47,0l3.19,0.15c0.52,0,1.1,0,1.74.11L54,0.57C54.78,0.7,55.6.78,56.44,1l2.68,0.68A45.4,45.4,0,0,1,71.91,7.32,47.16,47.16,0,0,1,85,20,46.87,46.87,0,0,1,92.69,40.1c0.17,1,.16,1.94.24,2.92L93,44.49l0,0.74c0,0.32,0,.51,0,0.77a47.51,47.51,0,0,1-3.67,18.07L88,67c-0.46,1-1.07,1.87-1.6,2.82l-0.83,1.41c-0.31.45-.63,0.89-1,1.33-0.65.88-1.26,1.8-2,2.64a49.57,49.57,0,0,1-9.85,9A48.2,48.2,0,0,1,60.59,90l-3.32.87-0.83.21-0.85.13-1.7.27a23.86,23.86,0,0,1-3.41.39L47,92.1A51.42,51.42,0,0,1,33.48,90a48.25,48.25,0,0,1-12.25-5.86,49.84,49.84,0,0,1-9.86-9c-0.7-.85-1.31-1.77-2-2.65-0.32-.44-0.65-0.88-1-1.33L7.63,69.81C7.1,68.86,6.49,68,6,67L4.68,64.07A45.11,45.11,0,0,1,1.42,52,45.09,45.09,0,0,1,1,46c0-.27,0-0.46,0-0.78l0-.73L1.13,43c0.09-1,.08-1.92.24-2.89A46.83,46.83,0,0,1,9.1,19.95,47.19,47.19,0,0,1,22.16,7.32,45.42,45.42,0,0,1,35,1.64L37.63,1C38.47,0.78,39.29.7,40,.57l2.07-.31c0.63-.09,1.22-0.07,1.74-0.11Zm0,0-3.19.17c-0.52,0-1.1,0-1.74.12L40,0.62C39.3,0.75,38.49.83,37.64,1L35,1.72A42.72,42.72,0,0,0,22.29,7.52,44.8,44.8,0,0,0,9.65,20.32,45.9,45.9,0,0,0,2.72,40.22c-0.13.92-.09,1.91-0.15,2.87L2.52,44.54l0,0.73,0,0.68a43.45,43.45,0,0,0,.58,5.81A43.21,43.21,0,0,0,6.6,63.22L8,66C8.44,66.87,9,67.71,9.58,68.59l0.82,1.31c0.3,0.42.63,0.82,0.95,1.23,0.65,0.81,1.24,1.67,1.93,2.45a48,48,0,0,0,9.47,8.3,48.9,48.9,0,0,0,11.57,5.37A48.51,48.51,0,0,0,47.11,89.1l3.15-.16a21.63,21.63,0,0,0,3.2-.35l1.59-.24,0.8-.12,0.78-.2,3.12-.79c1-.3,2-0.71,3-1.06,0.5-.19,1-0.35,1.5-0.56l1.44-.69,1.45-.68a10.15,10.15,0,0,0,1.41-.74l2.74-1.63a48.32,48.32,0,0,0,9.47-8.3c0.69-.78,1.29-1.64,1.93-2.45,0.31-.41.64-0.82,0.95-1.23L84.5,68.6c0.53-.88,1.14-1.72,1.61-2.63l1.37-2.74A43.29,43.29,0,0,0,91,51.79a43.35,43.35,0,0,0,.59-5.86c0-.23,0-0.53,0-0.69l0-.72,0-1.43c-0.06-1,0-1.91-.15-2.84a45.88,45.88,0,0,0-6.94-19.93A44.83,44.83,0,0,0,71.78,7.52,42.75,42.75,0,0,0,59.1,1.71L56.43,1C55.59,0.83,54.78.75,54,.62L52,0.3C51.33,0.2,50.75.21,50.23,0.17Z"/><path class="cls-3" d="M19.05,41.23V20a2.74,2.74,0,0,1,1.55-1.55H41.85a2.18,2.18,0,0,1,1.57,2.11c0,6.72,0,13.43,0,20.15A2.59,2.59,0,0,1,43,42a2,2,0,0,1-1.89.82c-6.48,0-13,0-19.43,0A2.42,2.42,0,0,1,19.05,41.23Z"/><path class="cls-3" d="M71.87,48.46V69.71a2.76,2.76,0,0,1-1.55,1.55H49.07a2.18,2.18,0,0,1-1.57-2.11c0-6.72,0-13.43,0-20.15a2.59,2.59,0,0,1,.41-1.29,2,2,0,0,1,1.89-.82c6.48,0,13,0,19.43,0A2.41,2.41,0,0,1,71.87,48.46Zm-4.05,5.64L54.71,67.2c1.13,0,2.36,0,3.59,0a1.13,1.13,0,0,0,.9-0.37c2.44-2.47,4.86-5,7.38-7.35a3.32,3.32,0,0,0,1.25-3A18.3,18.3,0,0,1,67.81,54.09Zm-16.26,10L64.72,50.94c-1.29,0-2.64,0-4,0a0.72,0.72,0,0,0-.43.22Q56,55.43,51.77,59.7a0.78,0.78,0,0,0-.21.49C51.54,61.51,51.55,62.83,51.55,64.1Zm0-13.14v2.92L54.51,51H51.58ZM64.73,67.2c0.95,0,1.88,0,2.82,0A0.35,0.35,0,0,0,67.8,67c0-.95,0-1.9,0-2.84Z"/><path class="cls-4" d="M19.05,69.71V48.46a2.18,2.18,0,0,1,2.11-1.57c6.72,0,13.43,0,20.15,0a2.59,2.59,0,0,1,1.29.41,2,2,0,0,1,.82,1.89c0,6.48,0,13,0,19.43a2.41,2.41,0,0,1-1.59,2.62H20.6A2.74,2.74,0,0,1,19.05,69.71ZM28.68,51a4.09,4.09,0,0,1-5.54,5.56v5.1a4.09,4.09,0,0,1,5.55,5.55h5.1a4.08,4.08,0,0,1,5.53-5.56V56.51A3.93,3.93,0,0,1,34.65,56a4,4,0,0,1-.86-5h-5.1Z"/><path class="cls-4" d="M71.87,41.23a2.41,2.41,0,0,1-2.62,1.59c-6.48,0-13,0-19.43,0A2,2,0,0,1,47.92,42a2.59,2.59,0,0,1-.41-1.29c0-6.72,0-13.43,0-20.15a2.18,2.18,0,0,1,1.57-2.11H70.32A2.74,2.74,0,0,1,71.87,20V41.23Zm-4.08-2.51c0-.21,0-0.38,0-0.54,0-5,0-10.07,0-15.11,0-.48-0.14-0.6-0.6-0.6-5,0-10.07,0-15.11,0l-0.53,0V38.73H67.79Z"/><path class="cls-5" d="M71.87,20a2.74,2.74,0,0,0-1.55-1.55h1.55V20Z"/><path class="cls-5" d="M20.6,18.44A2.74,2.74,0,0,0,19.05,20V18.44H20.6Z"/><path class="cls-5" d="M19.05,69.71a2.74,2.74,0,0,0,1.55,1.55H19.05V69.71Z"/><path class="cls-5" d="M70.32,71.25a2.76,2.76,0,0,0,1.55-1.55v1.55H70.32Z"/><path class="cls-4" d="M67.81,54.09a18.3,18.3,0,0,0,0,2.37,3.32,3.32,0,0,1-1.25,3c-2.51,2.39-4.93,4.88-7.38,7.35a1.13,1.13,0,0,1-.9.37c-1.23,0-2.47,0-3.59,0Z"/><path class="cls-4" d="M51.55,64.1c0-1.27,0-2.59,0-3.92a0.78,0.78,0,0,1,.21-0.49Q56,55.43,60.3,51.17a0.72,0.72,0,0,1,.43-0.22c1.35,0,2.7,0,4,0Z"/><path class="cls-4" d="M51.58,51h2.93l-2.93,2.92V51Z"/><path class="cls-4" d="M64.73,67.2l3.08-3.08c0,0.94,0,1.89,0,2.84a0.35,0.35,0,0,1-.25.23C66.61,67.2,65.67,67.2,64.73,67.2Z"/><path class="cls-3" d="M28.68,51h5.1a4,4,0,0,0,.86,5,3.93,3.93,0,0,0,4.68.54V61.6a4.08,4.08,0,0,0-5.53,5.56h-5.1a4.09,4.09,0,0,0-5.55-5.55v-5.1A4.09,4.09,0,0,0,28.68,51Zm2.57,12.16a4.05,4.05,0,1,0-4.06-4.06A4.06,4.06,0,0,0,31.25,63.11Z"/><path class="cls-3" d="M67.79,38.73H51.58V22.52l0.53,0c5,0,10.07,0,15.11,0,0.47,0,.61.12,0.6,0.6,0,5,0,10.07,0,15.11C67.81,38.35,67.8,38.52,67.79,38.73Z"/><path class="cls-4" d="M31.25,63.11a4.05,4.05,0,1,1,4-4A4,4,0,0,1,31.25,63.11Z"/><path class="cls-6" d="M34.62,75.09c-1.74.15-3.26,0-4.34-1.39a29.19,29.19,0,0,1-1.68-2.62,30.71,30.71,0,0,0-2.21-3.38,8.39,8.39,0,0,0-5.9-2.8,13,13,0,0,0-7.61,1.49,14.46,14.46,0,0,0-1.43,1A17,17,0,0,1,13.2,68a9,9,0,0,1,3.22,3c1,1.23,1.87,2.49,2.91,3.65a8.45,8.45,0,0,0,7.35,2.64,22.23,22.23,0,0,0,2.41-.42,2,2,0,0,0,.34-0.14c-0.84-.17-1.63-0.31-2.41-0.48a10.93,10.93,0,0,1-6.11-3.68c-0.71-.82-1.43-1.63-2.15-2.45a9.7,9.7,0,0,0-3.38-2.59l0.05-.12c0.38,0.13.77,0.22,1.14,0.38a9,9,0,0,1,2.81,2c0.58,0.59,1.19,1.17,1.74,1.79a12,12,0,0,0,7,3.73,24.52,24.52,0,0,0,6.39.25c0.28,0,.55,0,0.57-0.42"/></svg>