<svg id="Capa_1" data-name="Capa 1" xmlns="http://www.w3.org/2000/svg" viewBox="0 0 93.45 92.23"><defs><style>.cls-1,.cls-5{fill:#c0d24c;}.cls-2{fill:#a9abae;}.cls-3{fill:#aab541;}.cls-4{fill:#7b7f2a;}.cls-5{stroke:#fff;stroke-miterlimit:10;stroke-width:0.25px;}</style></defs><title>iconos terminados</title><path class="cls-1" d="M25.21,78.62c4.88,0.43,9.15-.12,12.17-3.91a81.93,81.93,0,0,0,4.7-7.34c2-3.19,3.77-6.63,6.19-9.5,4.25-5,10.07-7.25,16.55-7.87a36.61,36.61,0,0,1,21.37,4.19,40.6,40.6,0,0,1,4,2.83,47.7,47.7,0,0,0-4.86,1.59c-3.93,1.77-6.47,5.08-9,8.37-2.68,3.44-5.26,7-8.16,10.24-5.49,6.16-12.7,8-20.64,7.41a62.41,62.41,0,0,1-6.76-1.17,5.65,5.65,0,0,1-.94-0.38c2.36-.47,4.57-0.86,6.76-1.34A30.67,30.67,0,0,0,63.7,71.38c2-2.31,4-4.57,6-6.86a27.22,27.22,0,0,1,9.48-7.28l-0.14-.32C78,57.27,76.9,57.54,75.88,58a25.2,25.2,0,0,0-7.9,5.7c-1.64,1.67-3.34,3.28-4.89,5-5.24,5.92-12,9-19.59,10.46a68.82,68.82,0,0,1-17.93.7C24.79,79.82,24,79.73,24,78.69"/><path class="cls-2" d="M47.14,0l3.19,0.15c0.52,0,1.1,0,1.74.11l2.07,0.31C54.89,0.7,55.7.78,56.55,1l2.68,0.68A45.4,45.4,0,0,1,72,7.32,47.16,47.16,0,0,1,85.08,20,46.87,46.87,0,0,1,92.8,40.1C93,41.05,93,42,93,43l0.1,1.48,0,0.74c0,0.32,0,.51,0,0.77a47.51,47.51,0,0,1-3.67,18.07L88.14,67c-0.46,1-1.07,1.87-1.6,2.82l-0.83,1.41c-0.31.45-.63,0.89-1,1.33-0.65.88-1.26,1.8-2,2.64a49.57,49.57,0,0,1-9.85,9A48.2,48.2,0,0,1,60.7,90l-3.32.87-0.83.21-0.85.13-1.7.27a23.86,23.86,0,0,1-3.41.39l-3.51.18A51.42,51.42,0,0,1,33.59,90a48.25,48.25,0,0,1-12.25-5.86,49.84,49.84,0,0,1-9.86-9c-0.7-.85-1.31-1.77-2-2.65-0.32-.44-0.65-0.88-1-1.33L7.74,69.81C7.21,68.86,6.6,68,6.14,67L4.79,64.07A45.11,45.11,0,0,1,1.53,52a45.09,45.09,0,0,1-.41-6c0-.27,0-0.46,0-0.78l0-.73L1.24,43c0.09-1,.08-1.92.24-2.89A46.83,46.83,0,0,1,9.2,19.95,47.19,47.19,0,0,1,22.27,7.32,45.42,45.42,0,0,1,35.06,1.64L37.74,1c0.85-.18,1.66-0.26,2.4-0.39l2.07-.31C42.85,0.17,43.43.19,44,.15Zm0,0L44,0.17c-0.52,0-1.1,0-1.74.12l-2.07.32C39.4,0.75,38.59.83,37.75,1l-2.67.7A42.72,42.72,0,0,0,22.4,7.52,44.8,44.8,0,0,0,9.76,20.32,45.9,45.9,0,0,0,2.83,40.22c-0.13.92-.09,1.91-0.15,2.87L2.62,44.54l0,0.73,0,0.68a43.45,43.45,0,0,0,.58,5.81A43.21,43.21,0,0,0,6.71,63.22L8.08,66c0.47,0.91,1.08,1.75,1.61,2.63l0.82,1.31c0.3,0.42.63,0.82,0.95,1.23,0.65,0.81,1.24,1.67,1.93,2.45a48,48,0,0,0,9.47,8.3,48.9,48.9,0,0,0,11.57,5.37A48.51,48.51,0,0,0,47.22,89.1l3.15-.16a21.63,21.63,0,0,0,3.2-.35l1.59-.24,0.8-.12,0.78-.2,3.12-.79c1-.3,2-0.71,3-1.06,0.5-.19,1-0.35,1.5-0.56l1.44-.69,1.45-.68a10.15,10.15,0,0,0,1.41-.74l2.74-1.63a48.32,48.32,0,0,0,9.47-8.3c0.69-.78,1.29-1.64,1.93-2.45,0.31-.41.64-0.82,0.95-1.23l0.82-1.31c0.53-.88,1.14-1.72,1.61-2.63l1.37-2.74a43.29,43.29,0,0,0,3.48-11.44,43.35,43.35,0,0,0,.59-5.86c0-.23,0-0.53,0-0.69l0-.72,0-1.43c-0.06-1,0-1.91-.15-2.84a45.88,45.88,0,0,0-6.94-19.93A44.83,44.83,0,0,0,71.89,7.52,42.75,42.75,0,0,0,59.21,1.71L56.54,1c-0.84-.19-1.65-0.27-2.4-0.4L52.07,0.3C51.44,0.2,50.85.21,50.34,0.17Z"/><path class="cls-3" d="M52,14.27a2.41,2.41,0,0,1,.27.62c0.17,1.32.29,2.65,0.46,4,0.08,0.58.25,1.14,0.38,1.74A5.56,5.56,0,0,0,56,19.23a2.1,2.1,0,0,1,1-.45,1,1,0,0,1,1,.72,1.13,1.13,0,0,1-.31,1.31,6.94,6.94,0,0,1-3.31,1.94,1.17,1.17,0,0,0-1,1,4.4,4.4,0,0,1-8.57-.17A0.91,0.91,0,0,0,44,22.8a7,7,0,0,1-3.4-1.9,1.18,1.18,0,1,1,1.6-1.72A5.61,5.61,0,0,0,45,20.62a6.6,6.6,0,0,0,.25-1.05c0.12-1.55.19-3.1,0.31-4.65a1.94,1.94,0,0,1,.33-0.64H52ZM45.3,23a3.94,3.94,0,0,0,3.95,3.54A3.86,3.86,0,0,0,52.93,23H45.3Zm7.26-2.41,0.08-.18A1.63,1.63,0,0,0,52,20.15q-2.93,0-5.85,0a1.45,1.45,0,0,0-.55.3l0.07,0.16h6.84Z"/><path class="cls-4" d="M49,51.82a7.58,7.58,0,0,0-.23,1c-0.44,3.92-.9,7.84-1.3,11.76-0.28,2.72-.42,5.45-0.7,8.16a3.08,3.08,0,0,1-3.27,2.82,3.14,3.14,0,0,1-3-3.22c0-2.89,0-5.78,0-8.67q0.07-9.78.15-19.56a2.44,2.44,0,0,1,.36-1.21c1.15-1.82,2.35-3.6,3.5-5.42A2.33,2.33,0,0,0,45,36.28c0-2.29.05-4.59,0-6.88a1,1,0,0,1,.82-1.21l0.74-.25v4.45h5.25v-4.5a10.65,10.65,0,0,1,1.33.61,0.81,0.81,0,0,1,.22.6c0,2.43,0,4.87,0,7.3a2,2,0,0,0,.29,1c1.18,1.85,2.4,3.67,3.57,5.52a2.52,2.52,0,0,1,.34,1.1c0.09,1,.12,2.09.17,3.14l0.2,0c0.15-.76.35-1.51,0.43-2.28a5.67,5.67,0,0,0-1.08-4.17c-0.91-1.21-1.72-2.49-2.56-3.76a1.5,1.5,0,0,1-.26-0.76c0-2.15,0-4.31,0-6.46,0-.09,0-0.18,0-0.46a19.67,19.67,0,0,1,1.42,1.53,35,35,0,0,1,5.44,10,15.36,15.36,0,0,1,.89,6.58,7.47,7.47,0,0,1-1.44,3.74,2.29,2.29,0,0,1-2.5.85l-0.58-.15c0,0.3,0,.53,0,0.77q0,9.75,0,19.5a3.14,3.14,0,0,1-2.42,3.27,3.08,3.08,0,0,1-3.82-2.65c-0.31-3.35-.52-6.72-0.84-10.07s-0.72-6.57-1.1-9.86a7.72,7.72,0,0,0-.26-1Zm1.61-13.57a1,1,0,1,0,1,1A1,1,0,0,0,50.65,38.25Zm-3.05,0a1,1,0,0,0,0,2A1,1,0,0,0,47.59,38.25Z"/><path class="cls-4" d="M27.73,34.41V24.62h1.1V35h3.11V24.63h1.13v9.8a4.79,4.79,0,0,0,2.3-2.66,8,8,0,0,0,.39-2.27c0.06-1.61,0-3.22,0-4.87h1a0.23,0.23,0,0,1,.07.1c0,2.3.36,4.64-.29,6.9a6.23,6.23,0,0,1-5,4.56L31,36.31v5.75c1.28-.31,2.53-0.61,3.77-0.94a1.21,1.21,0,0,0,.49-0.48L43,30.24c0.2-.26.43-0.49,0.73-0.82,0,0.25,0,.38,0,0.51,0,2.09,0,4.19,0,6.28a1.18,1.18,0,0,1-.15.62q-2.26,3.38-4.55,6.74a4.06,4.06,0,0,1-2.54,1.75c-1.84.42-3.67,0.9-5.57,1.37v28.8h-1.2V74.76q0-13.73,0-27.45a0.93,0.93,0,0,0-.51-1,2.45,2.45,0,0,1-1.07-2.7,1.55,1.55,0,0,1,1-1.15,0.69,0.69,0,0,0,.55-0.82c0-1.57,0-3.15,0-4.73,0-.2,0-0.39,0-0.61a7,7,0,0,1-3.73-1.65,6.16,6.16,0,0,1-2.19-4.37c-0.1-1.87,0-3.74,0-5.66H25c0,0.23,0,.44,0,0.65,0,1.67,0,3.35,0,5A5,5,0,0,0,27.73,34.41Z"/><path class="cls-3" d="M51.21,31.83H47c0-1.28,0-2.53,0-3.78a0.51,0.51,0,0,1,.35-0.35c1.14,0,2.29,0,3.44,0a0.56,0.56,0,0,1,.34.42C51.22,29.33,51.21,30.55,51.21,31.83Z"/><path class="cls-4" d="M45.3,23h7.63a3.86,3.86,0,0,1-3.68,3.54A3.94,3.94,0,0,1,45.3,23Z"/><path class="cls-4" d="M52.56,20.61H45.72l-0.07-.16a1.45,1.45,0,0,1,.55-0.3q2.93,0,5.85,0a1.63,1.63,0,0,1,.59.29Z"/><path class="cls-3" d="M50.65,38.25a1,1,0,1,1-1,1A1,1,0,0,1,50.65,38.25Z"/><path class="cls-3" d="M47.59,38.25a1,1,0,1,1-.95,1A1,1,0,0,1,47.59,38.25Z"/><path class="cls-5" d="M34.73,75.09c-1.74.15-3.26,0-4.34-1.39a29.19,29.19,0,0,1-1.68-2.62,30.71,30.71,0,0,0-2.21-3.38,8.39,8.39,0,0,0-5.9-2.8A13,13,0,0,0,13,66.38a14.46,14.46,0,0,0-1.43,1,17,17,0,0,1,1.73.57,9,9,0,0,1,3.22,3c1,1.23,1.87,2.49,2.91,3.65a8.45,8.45,0,0,0,7.35,2.64,22.23,22.23,0,0,0,2.41-.42,2,2,0,0,0,.34-0.14c-0.84-.17-1.63-0.31-2.41-0.48A10.93,10.93,0,0,1,21,72.51c-0.71-.82-1.43-1.63-2.15-2.45a9.7,9.7,0,0,0-3.38-2.59l0.05-.12c0.38,0.13.77,0.22,1.14,0.38a9,9,0,0,1,2.81,2c0.58,0.59,1.19,1.17,1.74,1.79a12,12,0,0,0,7,3.73,24.52,24.52,0,0,0,6.39.25c0.28,0,.55,0,0.57-0.42"/></svg>