<?xml version="1.0" encoding="UTF-8" standalone="no"?>
<svg width="16px" height="20px" viewBox="0 0 16 20" version="1.1" xmlns="http://www.w3.org/2000/svg" xmlns:xlink="http://www.w3.org/1999/xlink" xmlns:sketch="http://www.bohemiancoding.com/sketch/ns">
    <!-- Generator: Sketch 3.5.2 (25235) - http://www.bohemiancoding.com/sketch -->
    <title>client</title>
    <desc>Created with Sketch.</desc>
    <defs></defs>
    <g id="Page-1" stroke="none" stroke-width="1" fill="none" fill-rule="evenodd" sketch:type="MSPage">
        <g id="Dashboard" sketch:type="MSArtboardGroup" transform="translate(-110.000000, -210.000000)" fill="#253A1B">
            <g id="client" sketch:type="MSLayerGroup" transform="translate(110.000000, 210.000000)">
                <g id="Group" sketch:type="MSShapeGroup">
                    <path d="M8.09747368,5.21789474 C9.20336842,5.21789474 10.3042105,5.07368421 11.3755789,4.78884211 C11.3374737,4.43536842 11.3151579,4.16189474 11.2962105,3.93263158 C11.2421053,3.27263158 11.2122105,2.90884211 10.9027368,1.75368421 C10.6206316,0.700631579 9.15957895,0.149684211 7.86231579,0.149684211 C6.73684211,0.149684211 5.30652632,0.576421053 4.97831579,1.77957895 C4.71431579,2.74842105 4.69389474,3.21115789 4.66336842,3.912 C4.65242105,4.16126316 4.64063158,4.43642105 4.616,4.76926316 C5.79642105,5.06694737 6.96610526,5.21789474 8.09747368,5.21789474 L8.09747368,5.21789474 L8.09747368,5.21789474 Z" id="Shape"></path>
                    <path d="M15.9888421,5.57915789 C15.5477895,5.39242105 14.4593684,5.18821053 12.8387368,5.04378947 L12.932,4.93747368 C12.9949474,4.98884211 13.072,5.02 13.1543158,5.02 C13.1932632,5.02 13.2328421,5.01347368 13.2713684,5 L14.2347368,4.66315789 C14.4193684,4.59852632 14.5170526,4.39663158 14.4522105,4.212 C14.3873684,4.02715789 14.1852632,3.92968421 14.0010526,3.99452632 L13.6538947,4.116 L13.8898947,3.84757895 C13.9096842,3.85221053 13.9301053,3.85621053 13.9513684,3.85726316 L14.9705263,3.91389474 C14.9770526,3.91410526 14.9837895,3.91431579 14.9905263,3.91431579 C15.1772632,3.91431579 15.3334737,3.76842105 15.344,3.57978947 C15.3547368,3.38442105 15.2054737,3.21726316 15.0101053,3.20631579 L14.4791579,3.17684211 L14.7764211,2.83831579 C14.9052632,2.69136842 14.8909474,2.46757895 14.744,2.33831579 C14.5966316,2.20905263 14.3732632,2.22357895 14.2442105,2.37073684 L13.9343158,2.72336842 L13.9069474,2.22778947 C13.8962105,2.03242105 13.7311579,1.88315789 13.5336842,1.89368421 C13.3381053,1.90463158 13.1886316,2.07178947 13.1995789,2.26694737 L13.256,3.28610526 C13.2589474,3.34315789 13.2768421,3.39557895 13.3035789,3.44189474 L13.1086316,3.66315789 L13.18,3.28715789 C13.2164211,3.09494737 13.0901053,2.90968421 12.8976842,2.87326316 C12.7054737,2.83663158 12.5202105,2.96315789 12.4837895,3.15536842 L12.2938947,4.15810526 C12.2707368,4.27873684 12.3124211,4.39684211 12.3936842,4.47684211 L12.1894737,4.70905263 C12.1084211,4.80147368 12.0844211,4.92421053 12.1141053,5.03473684 C12.1204211,5.19621053 12.0176842,5.34336842 11.8602105,5.38905263 C10.6353684,5.74547368 9.36905263,5.92610526 8.09747368,5.92610526 L8.09747368,5.92610526 C6.81263158,5.92610526 5.48336842,5.74189474 4.14589474,5.37852632 C3.98042105,5.33368421 3.87094737,5.17642105 3.88610526,5.00568421 C3.88673684,4.99873684 3.88715789,4.99242105 3.88757895,4.98547368 C1.86484211,5.12947368 0.514947368,5.36568421 0.0111578947,5.57894737 C0.804210526,5.91452632 3.68547368,6.30778947 8,6.30778947 C12.3147368,6.308 15.1962105,5.91494737 15.9888421,5.57915789 L15.9888421,5.57915789 Z" id="Shape"></path>
                    <path d="M12.3223158,8.11178947 C12.3223158,7.68989474 12.2608421,7.27747368 12.1425263,6.87936842 C10.8865263,6.96863158 9.47094737,7.01621053 8,7.01621053 C6.52905263,7.01621053 5.11389474,6.96863158 3.85789474,6.87936842 C3.73936842,7.27705263 3.67789474,7.68926316 3.67789474,8.11178947 C3.67789474,10.4949474 5.61684211,12.4341053 8,12.4341053 C10.3833684,12.4343158 12.3223158,10.4951579 12.3223158,8.11178947 L12.3223158,8.11178947 Z" id="Shape"></path>
                    <path d="M4.43452632,11.7393684 L4.43452632,15.0583158 L5.20821053,15.0583158 L5.20821053,12.2943158 C4.94947368,12.1208421 4.708,11.9233684 4.48589474,11.7065263 C4.46926316,11.7176842 4.45178947,11.7277895 4.43452632,11.7393684 L4.43452632,11.7393684 Z" id="Shape"></path>
                    <path d="M10.7286316,15.0581053 L11.5010526,15.0581053 L11.5010526,11.7197895 C11.2646316,11.9490526 11.0058947,12.1551579 10.7286316,12.3349474 L10.7286316,15.0581053 L10.7286316,15.0581053 Z" id="Shape"></path>
                    <path d="M5.91663158,12.6890526 L5.91663158,15.0581053 L10.02,15.0581053 L10.02,12.7176842 C9.40147368,12.9901053 8.71810526,13.1427368 7.99978947,13.1427368 C7.25726316,13.1427368 6.55178947,12.9793684 5.91663158,12.6890526 L5.91663158,12.6890526 Z" id="Shape"></path>
                    <path d="M4.43452632,15.7696842 L4.43452632,19.2187368 L11.5010526,19.2187368 L11.5010526,15.7667368 L4.43452632,15.7667368 L4.43452632,15.7696842 L4.43452632,15.7696842 Z M10.8776842,16.0867368 C11.0612632,16.0867368 11.2109474,16.2364211 11.2109474,16.42 C11.2109474,16.6035789 11.0612632,16.7532632 10.8776842,16.7532632 C10.6941053,16.7532632 10.5444211,16.6035789 10.5444211,16.42 C10.5444211,16.2364211 10.6941053,16.0867368 10.8776842,16.0867368 L10.8776842,16.0867368 Z M4.99684211,16.0867368 C5.18021053,16.0867368 5.33010526,16.2364211 5.33010526,16.42 C5.33010526,16.6035789 5.18021053,16.7532632 4.99684211,16.7532632 C4.81326316,16.7532632 4.66357895,16.6035789 4.66357895,16.42 C4.66357895,16.2364211 4.81326316,16.0867368 4.99684211,16.0867368 L4.99684211,16.0867368 Z" id="Shape"></path>
                    <path d="M1.56652632,17.1143158 L1.56652632,19.2187368 L3.72610526,19.2187368 L3.72610526,15.7696842 L3.72610526,15.4124211 L3.72610526,12.2955789 C2.40336842,13.4854737 1.56652632,15.2058947 1.56652632,17.1143158 L1.56652632,17.1143158 Z" id="Shape"></path>
                    <path d="M12.2094737,12.1444211 L12.2094737,15.0583158 L12.2094737,15.6448421 L12.2094737,19.2189474 L14.544,19.2189474 L14.544,17.1145263 C14.544,15.1231579 13.6328421,13.3368421 12.2094737,12.1444211 L12.2094737,12.1444211 Z" id="Shape"></path>
                </g>
            </g>
        </g>
    </g>
</svg>