<svg id="Capa_1" data-name="Capa 1" xmlns="http://www.w3.org/2000/svg" viewBox="0 0 93.68 93.08"><defs><style>.cls-1,.cls-5{fill:#c0d24c;}.cls-2{fill:#a9abae;}.cls-3{fill:#7b7f2a;}.cls-4{fill:#aab541;}.cls-5{stroke:#fff;stroke-miterlimit:10;stroke-width:0.25px;}</style></defs><title>iconos terminados</title><path class="cls-1" d="M25.21,78.62c4.88,0.43,9.15-.12,12.17-3.91a81.93,81.93,0,0,0,4.7-7.34c2-3.19,11.16-1.48,13.57-4.35,4.25-5,4-10.16,10.5-10.78,3.53-.34,5.65-2.47,9-1.89a35.87,35.87,0,0,1,11,3.84,40.6,40.6,0,0,1,4,2.83,47.7,47.7,0,0,0-4.86,1.59c-3.93,1.77-6.47,5.08-9,8.37-2.68,3.44-5.26,7-8.16,10.24-5.49,6.16-12.7,8-20.64,7.41a62.41,62.41,0,0,1-6.76-1.17,5.65,5.65,0,0,1-.94-0.38c2.36-.47,4.57-0.86,6.76-1.34A30.67,30.67,0,0,0,63.7,71.38c2-2.31,4-4.57,6-6.86a27.22,27.22,0,0,1,9.48-7.28l-0.14-.32C78,57.27,76.9,57.54,75.88,58a25.2,25.2,0,0,0-7.9,5.7c-1.64,1.67-3.34,3.28-4.89,5-5.24,5.92-12,9-19.59,10.46a68.82,68.82,0,0,1-17.93.7C24.79,79.82,24,79.73,24,78.69"/><path class="cls-2" d="M47.14,0l3.19,0.15c0.52,0,1.1,0,1.74.11l2.07,0.31C54.89,0.7,55.7.78,56.55,1l2.68,0.68A45.4,45.4,0,0,1,72,7.32,47.16,47.16,0,0,1,85.08,20,46.87,46.87,0,0,1,92.8,40.1C93,41.05,93,42,93,43l0.1,1.48,0,0.74c0,0.32,0,.51,0,0.77a47.51,47.51,0,0,1-3.67,18.07L88.14,67c-0.46,1-1.07,1.87-1.6,2.82l-0.83,1.41c-0.31.45-.63,0.89-1,1.33-0.65.88-1.26,1.8-2,2.64a49.57,49.57,0,0,1-9.85,9A48.2,48.2,0,0,1,60.7,90l-3.32.87-0.83.21-0.85.13-1.7.27a23.86,23.86,0,0,1-3.41.39l-3.51.18A51.42,51.42,0,0,1,33.59,90a48.25,48.25,0,0,1-12.25-5.86,49.84,49.84,0,0,1-9.86-9c-0.7-.85-1.31-1.77-2-2.65-0.32-.44-0.65-0.88-1-1.33L7.74,69.81C7.21,68.86,6.6,68,6.14,67L4.79,64.07A45.11,45.11,0,0,1,1.53,52a45.09,45.09,0,0,1-.41-6c0-.27,0-0.46,0-0.78l0-.73L1.24,43c0.09-1,.08-1.92.24-2.89A46.83,46.83,0,0,1,9.2,19.95,47.19,47.19,0,0,1,22.27,7.32,45.42,45.42,0,0,1,35.06,1.64L37.74,1c0.85-.18,1.66-0.26,2.4-0.39l2.07-.31C42.85,0.17,43.43.19,44,.15Zm0,0L44,0.17c-0.52,0-1.1,0-1.74.12l-2.07.32C39.4,0.75,38.59.83,37.75,1l-2.67.7A42.72,42.72,0,0,0,22.4,7.52,44.8,44.8,0,0,0,9.76,20.32,45.9,45.9,0,0,0,2.83,40.22c-0.13.92-.09,1.91-0.15,2.87L2.62,44.54l0,0.73,0,0.68a43.45,43.45,0,0,0,.58,5.81A43.21,43.21,0,0,0,6.71,63.22L8.08,66c0.47,0.91,1.08,1.75,1.61,2.63l0.82,1.31c0.3,0.42.63,0.82,0.95,1.23,0.65,0.81,1.24,1.67,1.93,2.45a48,48,0,0,0,9.47,8.3,48.9,48.9,0,0,0,11.57,5.37A48.51,48.51,0,0,0,47.22,89.1l3.15-.16a21.63,21.63,0,0,0,3.2-.35l1.59-.24,0.8-.12,0.78-.2,3.12-.79c1-.3,2-0.71,3-1.06,0.5-.19,1-0.35,1.5-0.56l1.44-.69,1.45-.68a10.15,10.15,0,0,0,1.41-.74l2.74-1.63a48.32,48.32,0,0,0,9.47-8.3c0.69-.78,1.29-1.64,1.93-2.45,0.31-.41.64-0.82,0.95-1.23l0.82-1.31c0.53-.88,1.14-1.72,1.61-2.63l1.37-2.74a43.29,43.29,0,0,0,3.48-11.44,43.35,43.35,0,0,0,.59-5.86c0-.23,0-0.53,0-0.69l0-.72,0-1.43c-0.06-1,0-1.91-.15-2.84a45.88,45.88,0,0,0-6.94-19.93A44.83,44.83,0,0,0,71.89,7.52,42.75,42.75,0,0,0,59.21,1.71L56.54,1c-0.84-.19-1.65-0.27-2.4-0.4L52.07,0.3C51.44,0.2,50.85.21,50.34,0.17Z"/><path class="cls-3" d="M18.73,67.05V40.7a35.77,35.77,0,0,0,2.78,2.4q9.17,6.45,18.4,12.8A32.09,32.09,0,0,0,44,58.26a8.09,8.09,0,0,0,5.63.66,15.8,15.8,0,0,0,5.18-2.38Q62.44,51.27,70,46c2.37-1.65,4.88-3.12,6.88-5.26V67.05a9.76,9.76,0,0,1-.5,1.55,5.24,5.24,0,0,1-5,3H24.28a8.74,8.74,0,0,1-.91,0,5,5,0,0,1-2.68-1.11A5.59,5.59,0,0,1,18.73,67.05Z"/><path class="cls-4" d="M76.89,30.47v1.36a10.58,10.58,0,0,1-1.08,3.32A15.68,15.68,0,0,1,71,40.26q-8.64,6-17.28,12c-1,.67-2,1.27-3,1.86a5.49,5.49,0,0,1-5.77,0c-0.84-.47-1.68-1-2.47-1.5-6-4.18-12-8.35-18-12.58-2.72-1.93-4.92-4.3-5.73-7.68V31c0.08-.38.14-0.77,0.25-1.15,0.52-1.83,1.48-3.29,3.44-3.78a8.51,8.51,0,0,1,2-.19H71.17c0.34,0,.68,0,1,0a5,5,0,0,1,2.74,1.12A5.59,5.59,0,0,1,76.89,30.47Z"/><path class="cls-4" d="M60.1,31.32a3.35,3.35,0,0,1-.61,2c-0.58,1-1.15,2-1.72,3a2.44,2.44,0,0,1-1.68,1.29,2.28,2.28,0,0,1-1.55-.26c-0.67-.36-1.32-0.75-2-1.13a0.27,0.27,0,0,0-.38,0,13.63,13.63,0,0,0-2.47,3.07,15.45,15.45,0,0,0-1.87,4.09,1.52,1.52,0,0,0-.14.82,1.57,1.57,0,0,0,.67.44c0.54,0.32,1.09.62,1.61,1a2.16,2.16,0,0,1,.74,2.78c-0.39.78-.84,1.52-1.27,2.28L48.6,52.19a2.65,2.65,0,0,1-1.11,1.1,2.11,2.11,0,0,1-2,0c-0.92-.48-1.84-1-2.71-1.55a3.78,3.78,0,0,1-1.62-2.65,12.49,12.49,0,0,1,.17-4.9,24.23,24.23,0,0,1,3.2-8,22.83,22.83,0,0,1,6-6.59A10.16,10.16,0,0,1,53,28.21l0.14-.07,0.95-.25h0.18a3.18,3.18,0,0,1,2,.26c0.7,0.36,1.37.78,2.06,1.16A3.49,3.49,0,0,1,60,30.76Zm-6.19-2.07c-0.28.11-.58,0.2-0.85,0.33a13.38,13.38,0,0,0-3.14,2.14,22.32,22.32,0,0,0-4,4.67,22.8,22.8,0,0,0-3.55,9.36,8.87,8.87,0,0,0,.12,3.39,2.55,2.55,0,0,0,1.32,1.74c0.56,0.3,1.1.62,1.65,0.93,0.18,0.1.36,0.21,0.55,0.3a1,1,0,0,0,1.33-.36c0.07-.1.13-0.2,0.19-0.3L49,49c0.18-.31.36-0.62,0.53-0.93a1,1,0,0,0-.39-1.48l-0.25-.15-1.92-1.1a1,1,0,0,1-.56-1.25c0.06-.31.12-0.63,0.2-0.94a17,17,0,0,1,2.19-4.75,13.47,13.47,0,0,1,2.77-3.28A1,1,0,0,1,53,35l2,1.13a1.09,1.09,0,0,0,1.77-.48l1.69-2.92,0.25-.43a1.07,1.07,0,0,0-.44-1.61L58,30.6c-0.61-.35-1.23-0.68-1.82-1A2.66,2.66,0,0,0,53.91,29.25Z"/><path class="cls-3" d="M53.91,29.25a2.66,2.66,0,0,1,2.29.3c0.59,0.37,1.21.7,1.82,1l0.15,0.09a1.07,1.07,0,0,1,.44,1.61l-0.25.43-1.69,2.92a1.09,1.09,0,0,1-1.77.48L53,35a1,1,0,0,0-1.41.13,13.47,13.47,0,0,0-2.77,3.28,17,17,0,0,0-2.19,4.75c-0.08.31-.14,0.62-0.2,0.94a1,1,0,0,0,.56,1.25l1.92,1.1,0.25,0.15a1,1,0,0,1,.39,1.48c-0.17.32-.35,0.62-0.53,0.93l-1.42,2.46c-0.06.1-.12,0.21-0.19,0.3a1,1,0,0,1-1.33.36c-0.19-.09-0.37-0.2-0.55-0.3-0.55-.31-1.1-0.64-1.65-0.93a2.55,2.55,0,0,1-1.32-1.74,8.87,8.87,0,0,1-.12-3.39,22.8,22.8,0,0,1,3.55-9.36,22.32,22.32,0,0,1,4-4.67,13.38,13.38,0,0,1,3.14-2.14C53.33,29.45,53.63,29.36,53.91,29.25Z"/><path class="cls-5" d="M34.73,75.09c-1.74.15-3.26,0-4.34-1.39a29.19,29.19,0,0,1-1.68-2.62,30.71,30.71,0,0,0-2.21-3.38,8.39,8.39,0,0,0-5.9-2.8A13,13,0,0,0,13,66.38a14.46,14.46,0,0,0-1.43,1,17,17,0,0,1,1.73.57,9,9,0,0,1,3.22,3c1,1.23,1.87,2.49,2.91,3.65a8.45,8.45,0,0,0,7.35,2.64,22.23,22.23,0,0,0,2.41-.42,2,2,0,0,0,.34-0.14c-0.84-.17-1.63-0.31-2.41-0.48A10.93,10.93,0,0,1,21,72.51c-0.71-.82-1.43-1.63-2.15-2.45a9.7,9.7,0,0,0-3.38-2.59l0.05-.12c0.38,0.13.77,0.22,1.14,0.38a9,9,0,0,1,2.81,2c0.58,0.59,1.19,1.17,1.74,1.79a12,12,0,0,0,7,3.73,24.52,24.52,0,0,0,6.39.25c0.28,0,.55,0,0.57-0.42"/></svg>