<svg id="Capa_1" data-name="Capa 1" xmlns="http://www.w3.org/2000/svg" viewBox="0 0 92.64 93.37"><defs><style>.cls-1,.cls-5{fill:#c0d24c;}.cls-2{fill:#a9abae;}.cls-3{fill:#7b7f2a;}.cls-4{fill:#aab541;}.cls-5{stroke:#fff;stroke-miterlimit:10;stroke-width:0.25px;}</style></defs><title>iconos terminados</title><path class="cls-1" d="M24.3,78.62c4.88,0.43,9.15-.12,12.17-3.91a81.93,81.93,0,0,0,4.7-7.34c2-3.19,3.77-6.63,6.19-9.5,4.25-5,10.07-7.25,16.55-7.87a36.61,36.61,0,0,1,21.37,4.19,40.6,40.6,0,0,1,4,2.83,47.7,47.7,0,0,0-4.86,1.59c-3.93,1.77-6.47,5.08-9,8.37-2.68,3.44-5.26,7-8.16,10.24-5.49,6.16-12.7,8-20.64,7.41a62.41,62.41,0,0,1-6.76-1.17,5.65,5.65,0,0,1-.94-0.38c2.36-.47,4.57-0.86,6.76-1.34A30.67,30.67,0,0,0,62.79,71.38c2-2.31,4-4.57,6-6.86a27.22,27.22,0,0,1,9.48-7.28l-0.14-.32C77.1,57.27,76,57.54,75,58a25.2,25.2,0,0,0-7.9,5.7c-1.64,1.67-3.34,3.28-4.89,5-5.24,5.92-12,9-19.59,10.46a68.82,68.82,0,0,1-17.93.7c-0.77-.05-1.54-0.14-1.59-1.18"/><path class="cls-2" d="M46.24,0l3.19,0.15c0.52,0,1.1,0,1.74.11l2.07,0.31C54,0.7,54.8.78,55.64,1l2.68,0.68A45.4,45.4,0,0,1,71.11,7.32,47.16,47.16,0,0,1,84.17,20,46.87,46.87,0,0,1,91.89,40.1c0.17,1,.16,1.94.24,2.92l0.1,1.48,0,0.74c0,0.32,0,.51,0,0.77a47.51,47.51,0,0,1-3.67,18.07L87.23,67c-0.46,1-1.07,1.87-1.6,2.82l-0.83,1.41c-0.31.45-.63,0.89-1,1.33-0.65.88-1.26,1.8-2,2.64a49.57,49.57,0,0,1-9.85,9A48.2,48.2,0,0,1,59.79,90l-3.32.87-0.83.21-0.85.13-1.7.27a23.86,23.86,0,0,1-3.41.39l-3.51.18A51.42,51.42,0,0,1,32.68,90a48.25,48.25,0,0,1-12.25-5.86,49.84,49.84,0,0,1-9.86-9c-0.7-.85-1.31-1.77-2-2.65-0.32-.44-0.65-0.88-1-1.33L6.83,69.81C6.3,68.86,5.7,68,5.23,67L3.88,64.07A45.11,45.11,0,0,1,.62,52a45.09,45.09,0,0,1-.41-6c0-.27,0-0.46,0-0.78l0-.73L0.33,43c0.09-1,.08-1.92.24-2.89A46.83,46.83,0,0,1,8.3,19.95,47.19,47.19,0,0,1,21.36,7.32,45.42,45.42,0,0,1,34.15,1.64L36.83,1c0.85-.18,1.66-0.26,2.4-0.39l2.07-.31C41.94,0.17,42.53.19,43,.15Zm0,0L43,0.17c-0.52,0-1.1,0-1.74.12l-2.07.32C38.5,0.75,37.69.83,36.84,1l-2.67.7A42.72,42.72,0,0,0,21.5,7.52,44.8,44.8,0,0,0,8.85,20.32,45.9,45.9,0,0,0,1.92,40.22c-0.13.92-.09,1.91-0.15,2.87L1.72,44.54l0,0.73,0,0.68a43.45,43.45,0,0,0,.58,5.81A43.21,43.21,0,0,0,5.8,63.22L7.18,66c0.47,0.91,1.08,1.75,1.61,2.63L9.61,69.9c0.3,0.42.63,0.82,0.95,1.23,0.65,0.81,1.24,1.67,1.93,2.45A48,48,0,0,0,22,81.89a48.9,48.9,0,0,0,11.57,5.37A48.51,48.51,0,0,0,46.31,89.1l3.15-.16a21.63,21.63,0,0,0,3.2-.35l1.59-.24,0.8-.12,0.78-.2,3.12-.79c1-.3,2-0.71,3-1.06,0.5-.19,1-0.35,1.5-0.56l1.44-.69,1.45-.68a10.15,10.15,0,0,0,1.41-.74l2.74-1.63A48.32,48.32,0,0,0,80,73.59c0.69-.78,1.29-1.64,1.93-2.45,0.31-.41.64-0.82,0.95-1.23L83.7,68.6c0.53-.88,1.14-1.72,1.61-2.63l1.37-2.74a43.29,43.29,0,0,0,3.48-11.44,43.35,43.35,0,0,0,.59-5.86c0-.23,0-0.53,0-0.69l0-.72,0-1.43c-0.06-1,0-1.91-.15-2.84a45.88,45.88,0,0,0-6.94-19.93A44.83,44.83,0,0,0,71,7.52,42.75,42.75,0,0,0,58.3,1.71L55.63,1C54.79,0.83,54,.75,53.23.62L51.17,0.3C50.53,0.2,49.95.21,49.43,0.17Z"/><path class="cls-3" d="M24.06,75a4,4,0,0,1-.83-0.51,1.26,1.26,0,0,1,.24-1.94c0.41-.29.41-0.29,0.34-0.85a6,6,0,0,1-1.53.26,2.59,2.59,0,0,1-1.47-.53,6.16,6.16,0,0,1-2-4.09c0-.49.17-0.65,0.65-0.65a7.43,7.43,0,0,1,4.29,2.08V64.62a8.11,8.11,0,0,1-1.19.38,3,3,0,0,1-3.1-1.26,8.79,8.79,0,0,1-1.72-4.07c-0.12-.89.05-1.13,0.92-1.06a7.91,7.91,0,0,1,4.7,2.15,0.81,0.81,0,0,0,.39.28V57.58l-0.56.23A3,3,0,0,1,19.71,57a8.46,8.46,0,0,1-1.93-4.37c-0.11-.82.18-1.11,1-1a8.45,8.45,0,0,1,5,2.53V50.57l-0.49.19A3,3,0,0,1,19.76,50a8.37,8.37,0,0,1-2-4.47c-0.09-.77.1-1,0.87-0.93a7.92,7.92,0,0,1,4.77,2.15,4,4,0,0,1,.36.46,5.48,5.48,0,0,0,.09-0.61c0-.54,0-1.08,0-1.61a1.81,1.81,0,0,0-1-2.11,2.36,2.36,0,0,1-1.17-2.33,8,8,0,0,1,1.75-4.74c0.55-.69.83-0.71,1.35,0a7.19,7.19,0,0,1,1.69,5.46,2.57,2.57,0,0,1-1.54,2,0.78,0.78,0,0,0-.5.86c0,1,0,2,0,3.13,1.07-1.19,4.75-1.51,6.09-1.94,0.56-.18-1.3-0.58-0.71-0.68a0.56,0.56,0,0,1,.71.68A7.39,7.39,0,0,1,28,50.5a2.83,2.83,0,0,1-2.89.29l-0.45-.2-0.11,0v3.3a32.11,32.11,0,0,1,2.82-1.69,9.25,9.25,0,0,1,2.32-.63,0.68,0.68,0,0,1,.9.87,8,8,0,0,1-2.1,4.67,2.83,2.83,0,0,1-3.24.72c-0.21-.08-0.41-0.17-0.69-0.29v3.55l0.38-.33a8.07,8.07,0,0,1,4.89-2.17,0.62,0.62,0,0,1,.77.76,7.74,7.74,0,0,1-2.34,5,2.88,2.88,0,0,1-3.08.49c-0.19-.06-0.37-0.16-0.62-0.27v4.05a22.56,22.56,0,0,1,2.29-1.37,9.73,9.73,0,0,1,2.07-.55,0.46,0.46,0,0,1,.59.56,6.21,6.21,0,0,1-2,4.21,2.23,2.23,0,0,1-2.28.39,2.05,2.05,0,0,0-.8-0.15,1.9,1.9,0,0,0,.36.74,1.35,1.35,0,0,1,.66,1.3,1.22,1.22,0,0,1-1,1.12,0.48,0.48,0,0,0-.15.11H24.06Z"/><path class="cls-3" d="M63.32,75a4,4,0,0,1-.83-0.51,1.23,1.23,0,0,1,.25-1.92,0.66,0.66,0,0,0,.34-0.86,6.12,6.12,0,0,1-1.54.26,2.59,2.59,0,0,1-1.47-.53,6.17,6.17,0,0,1-1.95-4.1,0.51,0.51,0,0,1,.66-0.64,7.16,7.16,0,0,1,4.28,2.06V64.6l-0.54.23a3,3,0,0,1-3.46-.75,8.36,8.36,0,0,1-2-4.52c-0.09-.76.1-1,0.88-0.93a8.15,8.15,0,0,1,5.14,2.51V57.58l-0.58.23A3,3,0,0,1,59,57a8.44,8.44,0,0,1-2-4.42c-0.1-.8.2-1.08,1-1a8.54,8.54,0,0,1,5,2.52V50.58a7.83,7.83,0,0,1-1.17.39,3,3,0,0,1-3.11-1.24,8.78,8.78,0,0,1-1.74-4.12c-0.11-.86.06-1.1,0.89-1a7.9,7.9,0,0,1,4.76,2.17c0.1,0.09.19,0.2,0.36,0.38a5.09,5.09,0,0,0,.07-0.54c0-.72,0-1.45,0-2.17a1.22,1.22,0,0,0-.72-1.37A2.58,2.58,0,0,1,61,40.54a7.88,7.88,0,0,1,1.79-4.79c0.53-.65.8-0.65,1.32,0a7.7,7.7,0,0,1,1.78,5,2.74,2.74,0,0,1-1.67,2.5,0.71,0.71,0,0,0-.46.76c0,1,0,2,0,2.94,1-.59,1.91-1.26,2.93-1.74A7.44,7.44,0,0,1,69,44.59c0.83-.11,1,0.15.89,1a8.76,8.76,0,0,1-1.74,4.12,3,3,0,0,1-3,1.24,8.9,8.9,0,0,1-1.23-.38v3.54A8.36,8.36,0,0,1,68,51.74c1.82-.47,2.26-0.07,1.69,1.72a13.22,13.22,0,0,1-1.5,3.17,2.93,2.93,0,0,1-4,1.08c-0.11,0-.22-0.08-0.38-0.13v3.61a7.93,7.93,0,0,1,3.6-2.27,7.19,7.19,0,0,1,1.7-.31c0.64,0,.81.15,0.76,0.81a3.61,3.61,0,0,1-.23,1.21A20.35,20.35,0,0,1,68,63.82a2.91,2.91,0,0,1-3.81.93l-0.39-.15v4c0.93-.52,1.87-1.09,2.86-1.56a5.57,5.57,0,0,1,1.56-.31,0.42,0.42,0,0,1,.53.5,6.09,6.09,0,0,1-2,4.31c-0.72.64-1.4,0.61-3.09,0.07a2.51,2.51,0,0,0,.42.88,1.35,1.35,0,0,1,.68,1.24,1.23,1.23,0,0,1-1,1.18,0.48,0.48,0,0,0-.15.11H63.32Z"/><path class="cls-4" d="M43.31,41.7V36.07a15,15,0,0,1-2.66.71,4.72,4.72,0,0,1-4.35-2.17,13.71,13.71,0,0,1-2.74-6.82c-0.1-1.14.09-1.41,1.23-1.34a12.46,12.46,0,0,1,8,3.65c0.12,0.11.22,0.25,0.34,0.37a0.91,0.91,0,0,0,.17.09,3.15,3.15,0,0,0,.07-0.46c0-1.64,0-3.27,0-4.91A0.85,0.85,0,0,0,43,24.53a5,5,0,0,1-3-5.74,13.79,13.79,0,0,1,2.84-6.51c0.83-1,1.17-1,2,0a12.75,12.75,0,0,1,2.91,7.38,4.63,4.63,0,0,1-2.92,4.81,0.83,0.83,0,0,0-.56.89c0,1.71,0,3.43,0,5.24a1.75,1.75,0,0,0,.32-0.2,13.28,13.28,0,0,1,7.25-3.9,4.89,4.89,0,0,1,1.05,0c1.09,0,1.28.22,1.18,1.33a11.86,11.86,0,0,1-1.63,5,12.73,12.73,0,0,1-1.91,2.65,4.69,4.69,0,0,1-5.78.67l-0.44-.24v5.94l0.51-.52a12.55,12.55,0,0,1,8.06-3.67c1.09-.07,1.28.21,1.19,1.32a12,12,0,0,1-1.65,5.09,12.42,12.42,0,0,1-1.88,2.6,4.72,4.72,0,0,1-5.78.68l-0.44-.25v5.84l0.2,0.2a1.53,1.53,0,0,1,.21-0.49A12.43,12.43,0,0,1,53,48.83c0.89-.06,1.16.19,1.1,1.06a12.41,12.41,0,0,1-3.55,8,4.67,4.67,0,0,1-5.79.64l-0.43-.25V65c0.93-.66,1.84-1.4,2.84-2a8.58,8.58,0,0,1,4.35-1.3c0.69,0,.89.17,0.84,0.84a10,10,0,0,1-3,6.64c-1.32,1.32-3,1.34-5,.32A1,1,0,0,0,44.88,71a2.06,2.06,0,0,1,.94,2.36,2,2,0,0,1-2,1.48,2.05,2.05,0,0,1-2-1.52A2.08,2.08,0,0,1,42.73,71c0.71-.45.76-0.58,0.54-1.53a4.14,4.14,0,0,1-3.25.64,4,4,0,0,1-2.46-1.66,11.52,11.52,0,0,1-2.24-5.25c-0.19-1.34.06-1.67,1.4-1.47A10.37,10.37,0,0,1,43,64.91a1.72,1.72,0,0,1,.19.32l0.15-.09V58.32c-0.33.17-.64,0.36-1,0.49A4.9,4.9,0,0,1,36.26,57a13.21,13.21,0,0,1-2.68-6.65c-0.12-1.47.12-1.54,1.33-1.47a12.2,12.2,0,0,1,6,2.16,29.33,29.33,0,0,1,2.4,1.92V47.26a14.93,14.93,0,0,1-2.57.71,4.73,4.73,0,0,1-4.46-2.18A13.74,13.74,0,0,1,33.56,39c-0.11-1.18.07-1.42,1.25-1.39A12.09,12.09,0,0,1,41,39.83,26.92,26.92,0,0,1,43.31,41.7Z"/><path class="cls-5" d="M33.83,75.09c-1.74.15-3.26,0-4.34-1.39a29.19,29.19,0,0,1-1.68-2.62,30.71,30.71,0,0,0-2.21-3.38,8.39,8.39,0,0,0-5.9-2.8,13,13,0,0,0-7.61,1.49,14.46,14.46,0,0,0-1.43,1A17,17,0,0,1,12.4,68a9,9,0,0,1,3.22,3c1,1.23,1.87,2.49,2.91,3.65a8.45,8.45,0,0,0,7.35,2.64,22.23,22.23,0,0,0,2.41-.42,2,2,0,0,0,.34-0.14c-0.84-.17-1.63-0.31-2.41-0.48a10.93,10.93,0,0,1-6.11-3.68c-0.71-.82-1.43-1.63-2.15-2.45a9.7,9.7,0,0,0-3.38-2.59l0.05-.12c0.38,0.13.77,0.22,1.14,0.38a9,9,0,0,1,2.81,2c0.58,0.59,1.19,1.17,1.74,1.79a12,12,0,0,0,7,3.73,24.52,24.52,0,0,0,6.39.25c0.28,0,.55,0,0.57-0.42"/></svg>