<?xml version="1.0" encoding="UTF-8" standalone="no"?>
<svg width="16px" height="15px" viewBox="0 0 16 15" version="1.1" xmlns="http://www.w3.org/2000/svg" xmlns:xlink="http://www.w3.org/1999/xlink" xmlns:sketch="http://www.bohemiancoding.com/sketch/ns">
    <!-- Generator: Sketch 3.5.2 (25235) - http://www.bohemiancoding.com/sketch -->
    <title>farm</title>
    <desc>Created with Sketch.</desc>
    <defs></defs>
    <g id="Page-1" stroke="none" stroke-width="1" fill="none" fill-rule="evenodd" sketch:type="MSPage">
        <g id="Dashboard" sketch:type="MSArtboardGroup" transform="translate(-110.000000, -278.000000)" fill="#27383F">
            <g id="farm" sketch:type="MSLayerGroup" transform="translate(110.000000, 278.000000)">
                <g id="Group" sketch:type="MSShapeGroup">
                    <path d="M5.27872,14.39536 L10.72144,14.39536 L8,11.92912 L5.27872,14.39536 Z" id="Shape"></path>
                    <path d="M10.43728,8.89728 L5.56272,8.89728 L8,11.1064 L10.43728,8.89728 Z" id="Shape"></path>
                    <rect id="Rectangle-path" x="6.34848" y="4.07936" width="3.3032" height="2.05504"></rect>
                    <path d="M7.9704,1.14208 L3.2,3.14848 L1.07184,8.32192 C1.07872,8.3512 1.08368,8.38064 1.08368,8.41056 L1.08368,14.0472 C1.08368,14.23856 1.24032,14.39552 1.432,14.39552 L4.49232,14.39552 L4.49232,8.61872 C4.49232,8.4648 4.61696,8.34016 4.77104,8.34016 L11.22912,8.34016 C11.38304,8.34016 11.50768,8.4648 11.50768,8.61872 L11.50768,14.39536 L14.56816,14.39536 C14.75952,14.39536 14.91648,14.23856 14.91648,14.04704 L14.91648,8.39888 C14.91648,8.388 14.91872,8.37696 14.91984,8.36624 L12.74432,3.14128 L7.9704,1.14208 L7.9704,1.14208 Z M10.2088,6.41312 C10.2088,6.56704 10.08416,6.69184 9.93024,6.69184 L6.06976,6.69184 C5.91584,6.69184 5.79104,6.56704 5.79104,6.41312 L5.79104,3.80064 C5.79104,3.64672 5.91584,3.52192 6.06976,3.52192 L9.93008,3.52192 C10.084,3.52192 10.20864,3.64672 10.20864,3.80064 L10.20864,6.41312 L10.2088,6.41312 Z" id="Shape"></path>
                    <path d="M10.9504,13.78048 L10.9504,9.25488 L8.45376,11.5176 L10.9504,13.78048 Z" id="Shape"></path>
                    <path d="M5.0496,13.78032 L7.54624,11.5176 L5.0496,9.25504 L5.0496,13.78032 Z" id="Shape"></path>
                    <path d="M15.9768,7.84736 L13.85184,2.69872 C13.74864,2.44864 13.48256,2.18176 13.23264,2.07792 L8.43296,0.08272 C8.18288,-0.02128 7.8056,-0.02112 7.55552,0.08336 L2.75888,2.08576 C2.50912,2.18992 2.24336,2.45728 2.14048,2.70752 L0.02288,7.85968 C-0.04096,8.01536 0.03328,8.19344 0.18896,8.25728 C0.22688,8.27296 0.26608,8.28032 0.3048,8.28032 C0.38928,8.28032 0.46928,8.24368 0.52704,8.1816 C0.5512,8.15552 0.57248,8.12624 0.58688,8.09152 L0.63904,7.96464 L2.70432,2.9392 C2.74608,2.83744 2.89216,2.69072 2.99376,2.64832 L7.7904,0.64576 C7.89152,0.60352 8.0976,0.60352 8.19904,0.64544 L12.02224,2.23472 L13.016,2.65088 C13.07952,2.68256 13.15312,2.74672 13.21104,2.81568 C13.21216,2.81792 13.21424,2.8192 13.21504,2.82144 L15.35184,7.95456 L15.36096,7.95264 L15.4136,8.08 C15.47744,8.23552 15.65504,8.31024 15.81152,8.24528 C15.9672,8.18128 16.04112,8.00304 15.9768,7.84736 L15.9768,7.84736 Z" id="Shape"></path>
                </g>
            </g>
        </g>
    </g>
</svg>