<?xml version="1.0" encoding="UTF-8" standalone="no"?>
<svg width="14px" height="15px" viewBox="0 0 14 15" version="1.1" xmlns="http://www.w3.org/2000/svg" xmlns:xlink="http://www.w3.org/1999/xlink" xmlns:sketch="http://www.bohemiancoding.com/sketch/ns">
    <!-- Generator: Sketch 3.5.2 (25235) - http://www.bohemiancoding.com/sketch -->
    <title>Shape</title>
    <desc>Created with Sketch.</desc>
    <defs></defs>
    <g id="Page-1" stroke="none" stroke-width="1" fill="none" fill-rule="evenodd" sketch:type="MSPage">
        <g id="Dashboard" sketch:type="MSArtboardGroup" transform="translate(-90.000000, -84.000000)" fill="#27383F">
            <g id="menu" sketch:type="MSLayerGroup" transform="translate(0.000000, 68.000000)">
                <g id="home" sketch:type="MSShapeGroup">
                    <g id="content" transform="translate(79.000000, 16.000000)">
                        <path d="M11,5.57575751 L11,5.58370902 L11,13.5709089 C11,14.5442907 11.196,14.7393938 12.2,14.7393938 L14.9999999,14.7393938 C16.0039999,14.7393938 16.1999999,14.5557332 16.1999999,13.5709089 L16.1999999,10.4727271 L19.7999999,10.4727271 L19.7999999,13.5825453 C19.7999999,14.5557332 20.0039999,14.7378422 20.9999999,14.7341574 C21.0159999,14.7459877 23.7999998,14.7341574 23.7999998,14.7341574 C24.8121998,14.7341574 24.9999998,14.5291635 24.9999998,13.5709089 L24.9999998,5.81624235 C24.9999998,5.78521205 24.9639998,5.75786659 24.8921998,5.72683629 L17.9999999,-8.8817842e-16 L11.0718,5.51776963 L11,5.57575751 L11,5.57575751 Z" id="Shape"></path>
                    </g>
                </g>
            </g>
        </g>
    </g>
</svg>