<?xml version="1.0" encoding="UTF-8" standalone="no"?>
<svg width="224px" height="92px" viewBox="0 0 224 92" version="1.1" xmlns="http://www.w3.org/2000/svg" xmlns:xlink="http://www.w3.org/1999/xlink">
    <!-- Generator: Sketch 3.8.3 (29802) - http://www.bohemiancoding.com/sketch -->
    <title>logo final editble agrosellers</title>
    <desc>Created with Sketch.</desc>
    <defs></defs>
    <g id="Page-1" stroke="none" stroke-width="1" fill="none" fill-rule="evenodd">
        <g id="logo-final-editble-agrosellers">
            <g id="Page-1">
                <path d="M129.498576,47.3299615 C135.461293,47.2291438 140.503558,45.0704986 144.130341,40.2480935 C145.888581,37.9121946 147.361638,35.3474831 148.824538,32.8044992 C150.794429,29.378927 152.514346,25.8049062 154.545916,22.4176581 C160.523673,12.4529845 169.27089,6.32366509 180.70579,4.24410995 C190.960142,2.37935419 201.012186,3.45126319 210.798615,6.97414976 C215.317576,8.60089226 219.502802,10.8428032 223.02307,14.1850389 C223.245336,14.397078 223.449873,14.6261738 223.751017,14.9397384 C223.300929,14.9862016 223.026679,15.0192885 222.752536,15.0434578 C220.540385,15.2443855 218.407219,15.7774559 216.392174,16.7044904 C213.461632,18.0525599 210.923213,19.9633542 208.647861,22.2415014 C205.160397,25.7307703 202.304981,29.7293295 199.402924,33.6879368 C196.124421,38.1616733 192.826808,42.6183179 188.797391,46.4665883 C184.874561,50.2132626 180.459036,53.2149333 175.225256,54.7365409 C167.238117,57.0592051 159.139791,57.1748499 151.023949,55.3698983 C149.282765,54.9829055 147.57849,54.4243564 145.857582,53.9445081 C145.871525,53.8747602 145.885892,53.8049769 145.899021,53.7356537 C146.018381,53.7198003 146.134946,53.7028499 146.253422,53.6915261 C152.072892,53.1517321 157.770384,52.0366863 163.284995,50.0603905 C166.615199,48.8667147 169.822185,47.4025757 172.758956,45.4253953 C176.451064,42.939703 179.746518,39.978055 182.702362,36.6556006 C186.217003,32.7050262 189.629058,28.6617378 193.181528,24.7464442 C197.169223,20.3514793 201.747352,16.7169466 207.301632,14.4450275 C207.437129,14.3893637 207.546475,14.2676676 207.667852,14.1768998 C205.12048,14.6003058 202.745443,15.4409959 200.470339,16.5604651 C196.256698,18.632872 192.721886,21.6123551 189.455626,24.9303153 C186.048101,28.3909915 182.724514,31.9355349 179.254213,35.3305327 C175.639462,38.8682464 171.491357,41.7050844 166.858732,43.7405826 C161.435809,46.1250325 155.745926,47.6691109 149.903666,48.6438117 C142.711072,49.8443172 135.475837,49.794563 128.229172,49.3820916 C126.588805,49.2877144 124.948722,49.1775899 123.465049,49.0848758 C123.076747,48.282793 122.746833,47.6014155 122.420211,46.9264076 C122.804196,46.8839785 123.286911,46.9763741 123.559037,46.7791621 C127.524686,43.89257 129.232465,40.7344885 128.365766,36.045528 C127.898444,33.5136202 127.171382,31.0271141 126.541033,28.5258161 C124.856326,21.8345504 126.032591,15.7540651 130.442207,10.3875842 C133.116441,7.13215292 136.394555,4.62229131 140.149156,2.71489415 C142.56503,1.48699905 145.082111,0.60600316 147.792263,0.353622749 C148.379086,0.299055924 148.974226,0.323826856 149.725139,0.30797346 C147.46925,2.63276082 146.577709,5.32153934 146.551416,8.27458831 C146.53259,10.4197864 146.763172,12.5679216 146.888265,14.7143583 C147.074154,17.8948752 147.433049,21.0748967 147.414612,24.2549182 C147.393415,28.1837649 145.934514,31.6799343 143.406215,34.6989801 C141.724234,36.707478 139.844226,38.5173485 137.640109,39.9445788 C136.528672,40.6634667 135.322151,41.2315349 134.159156,41.8682894 C134.124653,41.8123425 134.089939,41.7574572 134.055649,41.7029965 C134.462104,41.2231128 134.871462,40.7466262 135.275405,40.2642654 C139.822463,34.831363 142.228676,28.6617378 141.767477,21.491473 C141.665845,19.8992682 141.648506,18.3033479 141.588701,16.7090199 C141.453594,13.0800076 141.707283,9.50959621 143.14973,6.11399684 C143.158542,6.09545403 143.112503,6.0559267 143.061263,5.98168468 C141.589515,8.17695545 140.716906,10.5727646 140.491809,13.153825 C140.279062,15.574122 140.233838,18.0090338 140.167735,20.4401239 C140.086981,23.4684765 139.885841,26.4804803 138.836899,29.3542622 C136.950203,34.5236373 133.815724,38.8766686 129.883374,42.668072 C128.307695,44.1854686 126.626315,45.5928114 124.810004,47.2131134 C126.490606,47.2594351 127.994839,47.355334 129.498576,47.3299615" id="Fill-1" fill="#BFD14D"></path>
                <path d="M21.9732676,75.1312278 L18.7896367,75.1312278 L16.2007204,68.2742445 L5.81023444,68.2742445 L3.36120316,75.1312278 L0.17764297,75.1312278 L9.55361769,50.6417997 L12.5272973,50.6417997 L21.9732676,75.1312278 Z M15.256134,65.6852575 L11.407722,55.2597384 C11.3027994,54.9099728 11.1629852,54.3501498 11.0229586,53.6155855 L10.9529276,53.6155855 C10.8480051,54.315152 10.7081908,54.8399419 10.5681289,55.2597384 L6.75478547,65.6852575 L15.256134,65.6852575 Z" id="Fill-2" fill="#BFD14D"></path>
                <path d="M37.8951381,73.7317763 C37.8951381,80.168963 34.8165005,83.3524878 28.6591899,83.3524878 C26.4899994,83.3524878 24.6008619,82.9677245 22.9916006,82.1281314 L22.9916006,79.32937 C24.950769,80.4139122 26.8399773,80.9737352 28.6241921,80.9737352 C32.9272923,80.9737352 35.0962705,78.699516 35.0962705,74.116575 L35.0962705,72.1924398 L35.026381,72.1924398 C33.6969605,74.431449 31.6677965,75.5510243 29.0089908,75.5510243 C26.8399773,75.5510243 25.0905833,74.7463229 23.7611981,73.2069864 C22.4318837,71.6676145 21.7670319,69.5686319 21.7670319,66.9446471 C21.7670319,63.9710382 22.4667754,61.6271065 23.9012246,59.8428916 C25.3356385,58.0934976 27.294807,57.2189068 29.7785529,57.2189068 C32.1225908,57.2189068 33.8719141,58.1635286 35.026381,60.0527368 L35.0962705,60.0527368 L35.0962705,57.6387033 L37.8951381,57.6387033 L37.8951381,73.7317763 Z M35.0962705,67.224594 L35.0962705,64.6357131 C35.0962705,63.236297 34.6065845,62.046903 33.6969605,61.0672834 C32.7523387,60.0876638 31.5629801,59.5979425 30.163564,59.5979425 C28.4491678,59.5979425 27.0848556,60.2276904 26.105236,61.4870799 C25.125581,62.7464695 24.6357889,64.4958635 24.6357889,66.7697997 C24.6357889,68.6940411 25.0905833,70.2681984 26.0352051,71.4227716 C26.9798269,72.6122363 28.2393226,73.1719532 29.7785529,73.1719532 C31.3529226,73.1719532 32.6124183,72.6122363 33.6269295,71.4927671 C34.6065845,70.3732272 35.0962705,68.9738111 35.0962705,67.224594 L35.0962705,67.224594 Z" id="Fill-3" fill="#BFD14D"></path>
                <path d="M50.4526913,60.4725333 C49.96297,60.0876638 49.2632265,59.9127103 48.3186047,59.9127103 C47.1292461,59.9127103 46.1496265,60.4725333 45.3449251,61.5921087 C44.5402591,62.7114717 44.1204626,64.2509144 44.1204626,66.2100828 L44.1204626,75.1312278 L41.3217011,75.1312278 L41.3217011,57.6387033 L44.1204626,57.6387033 L44.1204626,61.242237 L44.1904581,61.242237 C44.6102547,60.017739 45.2051109,59.0381194 46.0096708,58.3734799 C46.8492638,57.6737011 47.7588878,57.3239355 48.7733991,57.3239355 C49.5081757,57.3239355 50.0678218,57.3939311 50.4526913,57.5687785 L50.4526913,60.4725333 Z" id="Fill-4" fill="#BFD14D"></path>
                <path d="M58.1008227,75.5510243 C55.5120126,75.5510243 53.4478509,74.7114313 51.9085852,73.1020638 C50.3692487,71.4577694 49.5994742,69.288685 49.5994742,66.5948461 C49.5994742,63.6560935 50.4042464,61.3471596 52.0134016,59.7028651 C53.6228044,58.0584998 55.7917826,57.2189068 58.5206193,57.2189068 C61.1096063,57.2189068 63.1736619,58.0235728 64.6080051,59.6328695 C66.077346,61.242237 66.8121226,63.4812461 66.8121226,66.3150054 C66.8121226,69.1138376 66.0423482,71.3528468 64.4680847,73.0320329 C62.8588234,74.7114313 60.7597346,75.5510243 58.1008227,75.5510243 L58.1008227,75.5510243 Z M58.3107741,59.5979425 C56.5265592,59.5979425 55.0922161,60.1926926 54.0426009,61.417049 C52.9930566,62.6416531 52.4682313,64.3208392 52.4682313,66.4898174 C52.4682313,68.5540145 52.9930566,70.1983798 54.0426009,71.3878445 C55.1272493,72.5772385 56.5265592,73.1719532 58.3107741,73.1719532 C60.1299867,73.1719532 61.5294028,72.5772385 62.4739185,71.4227716 C63.4535381,70.2332714 63.9433656,68.5890123 63.9433656,66.4199987 C63.9433656,64.2159166 63.4535381,62.5366243 62.4739185,61.3471596 C61.5294028,60.1926926 60.1299867,59.5979425 58.3107741,59.5979425 L58.3107741,59.5979425 Z" id="Fill-5" fill="#BFD14D"></path>
                <path d="M68.2590989,74.1781839 L68.2590989,70.7846016 C68.6438622,71.1345795 69.0986566,71.4144202 69.658515,71.6941902 C70.183128,71.9741725 70.7778427,72.2190155 71.3726989,72.393969 C71.967449,72.5689934 72.5620575,72.7438408 73.1569137,72.8487633 C73.7866616,72.9187943 74.3464847,72.9887899 74.836206,72.9887899 C76.6203855,72.9887899 77.9148082,72.6738098 78.7893991,72.0091703 C79.6639899,71.3444246 80.1187842,70.3998028 80.1187842,69.1754111 C80.1187842,68.5106654 79.9439722,67.9508423 79.6639899,67.4610148 C79.3842199,66.9712227 78.9644234,66.5164992 78.4746313,66.0966319 C77.949806,65.7118332 77.3550559,65.3270344 76.6554186,64.9422357 C75.9556398,64.5924701 75.1860777,64.1724613 74.3813763,63.7876979 C73.5416771,63.3328682 72.7371172,62.9130717 72.0024468,62.4582774 C71.2326724,62.0034831 70.6030306,61.5136556 70.0432784,60.9889365 C69.5184531,60.4641112 69.0986566,59.8344695 68.7837118,59.1697239 C68.4689441,58.5050844 68.2940967,57.7002768 68.2940967,56.7906882 C68.2940967,55.6713251 68.5389397,54.6917055 69.028661,53.8868979 C69.5184531,53.0473049 70.183128,52.3827716 70.9529024,51.8229485 C71.7574976,51.2981232 72.6670863,50.9133245 73.6816329,50.6333776 C74.6962502,50.3884992 75.7457946,50.2485788 76.7952329,50.2485788 C79.2091956,50.2485788 80.9934104,50.5285611 82.0780588,51.1231697 L82.0780588,54.3417276 C80.6436095,53.3621788 78.7893991,52.8374597 76.5154629,52.8374597 C75.8856442,52.8374597 75.2560733,52.9073845 74.6262547,53.0473049 C73.9965068,53.1873668 73.4368607,53.397212 72.9470686,53.6771589 C72.4572411,53.9919267 72.0723716,54.3767254 71.7574976,54.8315197 C71.4426945,55.2863494 71.3026679,55.8461725 71.3026679,56.545916 C71.3026679,57.1755577 71.4076967,57.7002768 71.6524689,58.1551065 C71.8975242,58.6099008 72.2472897,59.0296973 72.702084,59.414673 C73.1569137,59.7644739 73.7166306,60.1492373 74.3464847,60.4991444 C75.011018,60.8490161 75.7807924,61.2338856 76.6203855,61.6536821 C77.4950117,62.1085118 78.3346047,62.5633062 79.104273,63.0181005 C79.9090452,63.5078218 80.5736139,64.0326471 81.1684348,64.627291 C81.7631848,65.1871141 82.2529769,65.8518597 82.6027779,66.5514262 C82.9526496,67.2511697 83.09257,68.0558711 83.09257,68.9654597 C83.09257,70.1899577 82.8826186,71.2043981 82.3928265,72.0441681 C81.9380322,72.8837611 81.2733573,73.548436 80.5036891,74.0732613 C79.6990231,74.5979804 78.754472,74.9827438 77.7048569,75.2277991 C76.6554186,75.4375735 75.5708411,75.5776 74.3813763,75.5776 C73.9965068,75.5776 73.5416771,75.5425668 72.9470686,75.4725712 C72.3872455,75.4025403 71.8274932,75.3327216 71.2326724,75.1928013 C70.6380284,75.0877725 70.0783115,74.9129251 69.5534863,74.738007 C68.993734,74.5629472 68.5739374,74.3881352 68.2590989,74.1781839" id="Fill-6" fill="#FFFFFF"></path>
                <path d="M99.4459855,67.1112493 L87.0963311,67.1112493 C87.1313643,69.0703823 87.6560834,70.5748272 88.6707008,71.6243716 C89.6852474,72.6738098 91.0496657,73.1986351 92.7988474,73.1986351 C94.7580158,73.1986351 96.5772284,72.5689934 98.2215937,71.2743937 L98.2215937,73.8984139 C96.6822572,75.0177769 94.6530932,75.5776 92.1342079,75.5776 C89.6502496,75.5776 87.726079,74.7730047 86.3266629,73.1986351 C84.8923551,71.5893738 84.1925763,69.3502585 84.1925763,66.4815014 C84.1925763,63.7526648 84.9623507,61.5486888 86.5017226,59.8344695 C88.0409529,58.1200733 89.9650882,57.2454825 92.2391305,57.2454825 C94.5480645,57.2454825 96.2974585,57.9802591 97.556848,59.4844916 C98.8162376,60.9539387 99.4459855,63.0181005 99.4459855,65.6419084 L99.4459855,67.1112493 Z M96.5772284,64.7323197 C96.5772284,63.1230231 96.1574319,61.8635273 95.4228676,60.9539387 C94.6530932,60.0443147 93.5686218,59.6245182 92.2041327,59.6245182 C90.8747122,59.6245182 89.755243,60.0793479 88.8456543,61.0238635 C87.9010325,61.9684853 87.3413156,63.193054 87.1313643,64.7323197 L96.5772284,64.7323197 Z" id="Fill-7" fill="#FFFFFF"></path>
                <path d="M104.067746,70.2598825 C104.067746,71.8692499 104.697494,72.6738098 105.921992,72.6738098 C106.411784,72.6738098 106.866578,72.6038142 107.286481,72.4989978 L107.286481,75.0177769 C107.041532,75.0877725 106.761656,75.1227703 106.411784,75.1928013 C106.061912,75.2277991 105.677113,75.2627261 105.29235,75.2627261 C104.732492,75.2627261 104.207773,75.1578035 103.71798,74.9827438 C103.228153,74.8078964 102.773359,74.5279494 102.423558,74.1431507 C102.073686,73.7583874 101.793739,73.3035577 101.583965,72.7438408 C101.373942,72.1840177 101.26902,71.5193428 101.26902,70.7495684 L101.26902,49.2689592 L104.067746,49.2689592 L104.067746,70.2598825 Z" id="Fill-8" fill="#FFFFFF"></path>
                <path d="M110.701331,70.2598825 C110.701331,71.8692499 111.331079,72.6738098 112.555577,72.6738098 C113.045263,72.6738098 113.500092,72.6038142 113.920066,72.4989978 L113.920066,75.0177769 C113.675117,75.0877725 113.39524,75.1227703 113.045263,75.1928013 C112.695497,75.2277991 112.310698,75.2627261 111.9259,75.2627261 C111.366076,75.2627261 110.841251,75.1578035 110.351565,74.9827438 C109.861738,74.8078964 109.406943,74.5279494 109.057142,74.1431507 C108.707271,73.7583874 108.427324,73.3035577 108.217479,72.7438408 C108.007527,72.1840177 107.902605,71.5193428 107.902605,70.7495684 L107.902605,49.2689592 L110.701331,49.2689592 L110.701331,70.2598825 Z" id="Fill-9" fill="#FFFFFF"></path>
                <path d="M128.774946,67.1112493 L116.425292,67.1112493 C116.460325,69.0703823 116.985044,70.5748272 117.999661,71.6243716 C119.014208,72.6738098 120.378626,73.1986351 122.127808,73.1986351 C124.086976,73.1986351 125.906189,72.5689934 127.550554,71.2743937 L127.550554,73.8984139 C126.011218,75.0177769 123.982054,75.5776 121.463168,75.5776 C118.97921,75.5776 117.055039,74.7730047 115.655623,73.1986351 C114.221316,71.5893738 113.521537,69.3502585 113.521537,66.4815014 C113.521537,63.7526648 114.291311,61.5486888 115.830683,59.8344695 C117.369913,58.1200733 119.294084,57.2454825 121.568091,57.2454825 C123.877025,57.2454825 125.626419,57.9802591 126.885809,59.4844916 C128.145198,60.9539387 128.774946,63.0181005 128.774946,65.6419084 L128.774946,67.1112493 Z M125.906189,64.7323197 C125.906189,63.1230231 125.486392,61.8635273 124.751828,60.9539387 C123.982054,60.0443147 122.897582,59.6245182 121.533093,59.6245182 C120.203673,59.6245182 119.084203,60.0793479 118.174615,61.0238635 C117.229993,61.9684853 116.670276,63.193054 116.460325,64.7323197 L125.906189,64.7323197 Z" id="Fill-10" fill="#FFFFFF"></path>
                <path d="M139.903995,60.4991444 C139.41438,60.1143457 138.714636,59.9392859 137.770015,59.9392859 C136.58055,59.9392859 135.601036,60.4991444 134.796229,61.6186844 C133.991633,62.7381536 133.571837,64.27749 133.571837,66.2366585 L133.571837,75.1578035 L130.773005,75.1578035 L130.773005,57.665279 L133.571837,57.665279 L133.571837,61.2688126 L133.641868,61.2688126 C134.061664,60.0443147 134.656415,59.0646951 135.460974,58.4000556 C136.300674,57.7002768 137.210191,57.3505112 138.224809,57.3505112 C138.959585,57.3505112 139.519232,57.4205422 139.903995,57.5953542 L139.903995,60.4991444 Z" id="Fill-11" fill="#FFFFFF"></path>
                <path d="M139.890477,74.5279494 L139.890477,71.5193428 C141.394816,72.638812 143.074002,73.1986351 144.928212,73.1986351 C147.377173,73.1986351 148.601777,72.393969 148.601777,70.7495684 C148.601777,70.2948803 148.496748,69.8749776 148.286797,69.5602098 C148.076952,69.245442 147.796969,68.9654597 147.447204,68.685619 C147.097332,68.4406698 146.677536,68.2307893 146.187814,68.0208733 C145.697987,67.8109927 145.173161,67.6010768 144.613445,67.3911962 C143.843776,67.0762515 143.179031,66.7964815 142.584281,66.4815014 C141.989637,66.1666275 141.499845,65.8168619 141.115046,65.3970654 C140.73007,65.0122667 140.415196,64.5574724 140.205422,64.0676449 C140.030397,63.5778528 139.925475,62.9831027 139.925475,62.3182509 C139.925475,61.4786578 140.100428,60.7790913 140.485192,60.1143457 C140.869991,59.4844916 141.359818,58.9598787 141.989637,58.5398698 C142.619208,58.1200733 143.318951,57.8053055 144.123652,57.5604626 C144.928212,57.3505112 145.768018,57.2454825 146.607611,57.2454825 C148.146947,57.2454825 149.476368,57.5254648 150.665726,58.0501839 L150.665726,60.8839077 C149.406337,60.0443147 147.901998,59.6245182 146.257739,59.6245182 C145.73302,59.6245182 145.243192,59.6595513 144.823396,59.7994717 C144.403599,59.9045005 144.053621,60.0793479 143.738854,60.2892992 C143.42398,60.4991444 143.214028,60.7790913 143.039004,61.0588613 C142.864263,61.3737352 142.794232,61.6887153 142.794232,62.0734787 C142.794232,62.5283084 142.864263,62.9130717 143.039004,63.2278395 C143.214028,63.5078218 143.458978,63.7876979 143.773745,64.0326471 C144.088619,64.27749 144.473418,64.4874414 144.928212,64.6972866 C145.383042,64.8722401 145.907832,65.0820853 146.467584,65.3270344 C147.237359,65.6069106 147.936996,65.9218907 148.566744,66.2366585 C149.161388,66.5514262 149.686213,66.9014041 150.141007,67.2862028 C150.560804,67.6710724 150.910676,68.1257959 151.120556,68.6505858 C151.365505,69.1754111 151.470534,69.770055 151.470534,70.4698338 C151.470534,71.3444246 151.29558,72.0792013 150.910676,72.7438408 C150.525912,73.3735886 150.036085,73.8984139 149.371339,74.3182104 C148.741591,74.738007 148.006921,75.0527747 147.167328,75.2627261 C146.362662,75.4725712 145.488035,75.5776 144.578447,75.5776 C142.759234,75.5776 141.219862,75.2277991 139.890477,74.5279494" id="Fill-12" fill="#FFFFFF"></path>
                <path d="M47.2363627,85.7967419 C47.2363627,87.9168859 46.2734812,88.9878041 44.3588651,88.9878041 C42.5199065,88.9878041 41.600551,87.9601289 41.600551,85.9157131 L41.600551,81.2860259 L42.4875981,81.2860259 L42.4875981,85.8617479 C42.4875981,87.4085156 43.1473542,88.1873137 44.4562856,88.1873137 C45.7219033,88.1873137 46.3492449,87.4409302 46.3492449,85.9372638 L46.3492449,81.2860259 L47.2363627,81.2860259 L47.2363627,85.7967419 Z M53.499516,88.8580044 L52.6341258,88.8580044 L52.6341258,85.775085 C52.6341258,84.6284385 52.2122414,84.0550622 51.3793719,84.0550622 C50.9466237,84.0550622 50.58971,84.2174534 50.3083476,84.541988 C50.016369,84.8664872 49.8755994,85.2775431 49.8755994,85.775085 L49.8755994,88.8580044 L49.0103507,88.8580044 L49.0103507,83.449413 L49.8755994,83.449413 L49.8755994,84.3472531 L49.8973978,84.3472531 C50.3083476,83.6658755 50.9033807,83.3196133 51.6713504,83.3196133 C52.2663128,83.3196133 52.7206117,83.5143836 53.0343532,83.8928834 C53.348024,84.2715248 53.499516,84.8339665 53.499516,85.5479709 L53.499516,88.8580044 Z M59.0054218,88.8580044 L58.1400316,88.8580044 L58.1400316,88.0142003 L58.1184809,88.0142003 C57.7398041,88.6633049 57.1880847,88.9878041 56.4525295,88.9878041 C55.9116385,88.9878041 55.4897542,88.8363476 55.1869118,88.5550559 C54.8840695,88.2739058 54.732613,87.8952291 54.732613,87.4192379 C54.732613,86.4133611 55.32754,85.818328 56.5175355,85.6561137 L58.1400316,85.4289997 C58.1400316,84.5094673 57.7722894,84.0550622 57.0259058,84.0550622 C56.3768013,84.0550622 55.7818389,84.2715248 55.2626401,84.7149953 L55.2626401,83.8280543 C55.7927027,83.4926205 56.4092866,83.3196133 57.1016341,83.3196133 C58.3672518,83.3196133 59.0054218,83.9902686 59.0054218,85.3423368 L59.0054218,88.8580044 Z M58.1400316,86.1212411 L56.8312063,86.3051122 C56.4308727,86.3591836 56.1280303,86.4565687 55.9223962,86.5971261 C55.7278736,86.7378603 55.61966,86.9975659 55.61966,87.3544442 C55.61966,87.6249074 55.716939,87.8411577 55.9008101,88.0034427 C56.0956158,88.1765915 56.3442806,88.2523197 56.6580575,88.2523197 C57.0799773,88.2523197 57.4368556,88.1008632 57.7181472,87.8086724 C57.9992973,87.5059362 58.1400316,87.1165371 58.1400316,86.6621321 L58.1400316,86.1212411 Z M67.2912986,88.6092335 C66.8802073,88.8580044 66.3827008,88.9878041 65.8094306,88.9878041 C65.0413548,88.9878041 64.4139071,88.7282047 63.9487798,88.2305567 C63.4728948,87.7329087 63.2348815,87.0840164 63.2348815,86.2834553 C63.2348815,85.3855798 63.494587,84.6716815 64.002922,84.1307905 C64.5113984,83.5901472 65.1928114,83.3196133 66.0473378,83.3196133 C66.5233289,83.3196133 66.9342787,83.40617 67.302127,83.5901472 L67.302127,84.476982 C66.9020057,84.1957965 66.4691513,84.0550622 66.0149586,84.0550622 C65.4632392,84.0550622 65.0088341,84.2497618 64.6519558,84.6502016 C64.2949359,85.0396006 64.1218932,85.5587994 64.1218932,86.207727 C64.1218932,86.8351393 64.2842136,87.3435096 64.6194351,87.7005295 C64.9548689,88.0683425 65.3982332,88.2523197 65.9608872,88.2523197 C66.436843,88.2523197 66.8802073,88.1008632 67.2912986,87.7870863 L67.2912986,88.6092335 Z M70.8609314,88.9878041 C70.0605472,88.9878041 69.4221649,88.7282047 68.9462092,88.2305567 C68.4703242,87.7221864 68.2323817,87.0515311 68.2323817,86.2186616 C68.2323817,85.3099577 68.4810818,84.596024 68.9786945,84.0875829 C69.4763425,83.5792126 70.1469978,83.3196133 70.9907311,83.3196133 C71.7911861,83.3196133 72.4293561,83.5683488 72.8728265,84.0659968 C73.3272316,84.5635387 73.5544164,85.2558863 73.5544164,86.1319633 C73.5544164,86.9975659 73.3165093,87.6897011 72.8295836,88.2088998 C72.3321479,88.7282047 71.6830433,88.9878041 70.8609314,88.9878041 L70.8609314,88.9878041 Z M70.9258313,84.0550622 C70.374218,84.0550622 69.9306414,84.2390395 69.6061422,84.6177163 C69.281643,84.9961807 69.1194288,85.5154856 69.1194288,86.1861409 C69.1194288,86.8243109 69.281643,87.3327874 69.6061422,87.7005295 C69.9414698,88.0683425 70.374218,88.2523197 70.9258313,88.2523197 C71.4883438,88.2523197 71.9209858,88.0683425 72.2131058,87.7114641 C72.5159128,87.3435096 72.6674047,86.8351393 72.6674047,86.164484 C72.6674047,85.4830711 72.5159128,84.9638724 72.2131058,84.596024 C71.9209858,84.2390395 71.4883438,84.0550622 70.9258313,84.0550622 L70.9258313,84.0550622 Z M82.6192329,88.8580044 L81.7538427,88.8580044 L81.7538427,85.7534989 C81.7538427,85.1476373 81.6565637,84.7149953 81.4725864,84.4553959 C81.2886092,84.1849681 80.985873,84.0550622 80.5422964,84.0550622 C80.1745896,84.0550622 79.8608126,84.2174534 79.6012133,84.5527103 C79.3416847,84.8988664 79.2118142,85.2990938 79.2118142,85.775085 L79.2118142,88.8580044 L78.346424,88.8580044 L78.346424,85.6452853 C78.346424,84.5851956 77.9354742,84.0550622 77.113327,84.0550622 C76.7346502,84.0550622 76.4209795,84.2065188 76.1722085,84.5311242 C75.934266,84.8449011 75.8043956,85.2666085 75.8043956,85.775085 L75.8043956,88.8580044 L74.9390054,88.8580044 L74.9390054,83.449413 L75.8043956,83.449413 L75.8043956,84.3040455 L75.8260524,84.3040455 C76.2154515,83.6441125 76.7671355,83.3196133 77.5027261,83.3196133 C77.8811905,83.3196133 78.1949675,83.4277207 78.4763299,83.6333548 C78.7465807,83.838812 78.941351,84.1092398 79.0387716,84.4445675 C79.4388929,83.6981485 80.0338553,83.3196133 80.8344164,83.3196133 C82.0242705,83.3196133 82.6192329,84.0550622 82.6192329,85.5263141 L82.6192329,88.8580044 Z M85.1397106,88.0791002 L85.1179476,88.0791002 L85.1179476,91.3458907 L84.2525573,91.3458907 L84.2525573,83.449413 L85.1179476,83.449413 L85.1179476,84.4012537 L85.1397106,84.4012537 C85.5723526,83.6765978 86.1889365,83.3196133 87.0110837,83.3196133 C87.7033251,83.3196133 88.2549384,83.5683488 88.6444436,84.04434 C89.0338427,84.5311242 89.2285422,85.180158 89.2285422,85.9914414 C89.2285422,86.9000392 89.0122566,87.6249074 88.5686799,88.1656569 C88.1252095,88.7065125 87.5302825,88.9878041 86.7622066,88.9878041 C86.0590306,88.9878041 85.5182812,88.6849618 85.1397106,88.0791002 L85.1397106,88.0791002 Z M85.1179476,85.8940562 L85.1179476,86.6512682 C85.1179476,87.0947387 85.2694041,87.4734155 85.5615949,87.7870863 C85.8427804,88.1008632 86.2105226,88.2523197 86.6649276,88.2523197 C87.1841264,88.2523197 87.5951823,88.0576202 87.8980246,87.6571804 C88.1901093,87.2462306 88.3416013,86.6946174 88.3416013,85.9807191 C88.3416013,85.3748575 88.2009731,84.9096948 87.9196815,84.5635387 C87.6492537,84.2174534 87.2705769,84.0550622 86.7947273,84.0550622 C86.2862509,84.0550622 85.8860234,84.2283172 85.583181,84.5744733 C85.2694041,84.931387 85.1179476,85.3640998 85.1179476,85.8940562 L85.1179476,85.8940562 Z M93.4363096,84.32549 C93.2850654,84.2065188 93.0686028,84.1525536 92.7765889,84.1525536 C92.4087406,84.1525536 92.1058275,84.32549 91.8570566,84.6716815 C91.6083918,85.0179438 91.4784859,85.4937934 91.4784859,86.0996904 L91.4784859,88.8580044 L90.6130957,88.8580044 L90.6130957,83.449413 L91.4784859,83.449413 L91.4784859,84.5635387 L91.5001428,84.5635387 C91.6298363,84.1849681 91.8138136,83.8821258 92.0625845,83.6765978 C92.32229,83.4602414 92.6034401,83.3520986 92.9171109,83.3520986 C93.1443311,83.3520986 93.3173738,83.3736493 93.4363096,83.4277207 L93.4363096,84.32549 Z M98.2499741,88.8580044 L97.3846193,88.8580044 L97.3846193,88.0142003 L97.3630332,88.0142003 C96.9844626,88.6633049 96.4327785,88.9878041 95.697188,88.9878041 C95.1563324,88.9878041 94.734448,88.8363476 94.4316057,88.5550559 C94.1286572,88.2739058 93.9772006,87.8952291 93.9772006,87.4192379 C93.9772006,86.4133611 94.5721276,85.818328 95.7620878,85.6561137 L97.3846193,85.4289997 C97.3846193,84.5094673 97.0168771,84.0550622 96.2705643,84.0550622 C95.6214597,84.0550622 95.0265327,84.2715248 94.507334,84.7149953 L94.507334,83.8280543 C95.037255,83.4926205 95.6539804,83.3196133 96.3462926,83.3196133 C97.6118041,83.3196133 98.2499741,83.9902686 98.2499741,85.3423368 L98.2499741,88.8580044 Z M97.3846193,86.1212411 L96.0758648,86.3051122 C95.675425,86.3591836 95.3726888,86.4565687 95.1670547,86.5971261 C94.9724613,86.7378603 94.8643185,86.9975659 94.8643185,87.3544442 C94.8643185,87.6249074 94.9615267,87.8411577 95.1455039,88.0034427 C95.3402035,88.1765915 95.5889744,88.2523197 95.9026452,88.2523197 C96.3245295,88.2523197 96.6815494,88.1008632 96.9626995,87.8086724 C97.2439912,87.5059362 97.3846193,87.1165371 97.3846193,86.6621321 L97.3846193,86.1212411 Z M103.290859,82.0756524 C103.139402,82.0756524 103.009496,82.021581 102.90146,81.9133675 C102.782488,81.8159469 102.728311,81.675425 102.728311,81.5132107 C102.728311,81.3508196 102.782488,81.2210199 102.90146,81.1128771 C103.009496,81.0047343 103.139402,80.9505921 103.290859,80.9505921 C103.453144,80.9505921 103.582837,81.0047343 103.701809,81.1128771 C103.810058,81.2210199 103.864129,81.3508196 103.864129,81.5132107 C103.864129,81.675425 103.810058,81.8052246 103.701809,81.9133675 C103.582837,82.021581 103.453144,82.0756524 103.290859,82.0756524 L103.290859,82.0756524 Z M103.712672,88.8580044 L102.847282,88.8580044 L102.847282,83.449413 L103.712672,83.449413 L103.712672,88.8580044 Z M109.954239,88.8580044 L109.088849,88.8580044 L109.088849,85.775085 C109.088849,84.6284385 108.666965,84.0550622 107.834095,84.0550622 C107.401453,84.0550622 107.044433,84.2174534 106.763071,84.541988 C106.471057,84.8664872 106.330429,85.2775431 106.330429,85.775085 L106.330429,88.8580044 L105.465074,88.8580044 L105.465074,83.449413 L106.330429,83.449413 L106.330429,84.3472531 L106.352121,84.3472531 C106.763071,83.6658755 107.358104,83.3196133 108.126074,83.3196133 C108.721036,83.3196133 109.175406,83.5143836 109.489077,83.8928834 C109.802748,84.2715248 109.954239,84.8339665 109.954239,85.5479709 L109.954239,88.8580044 Z M114.097107,88.803933 C113.891579,88.9229043 113.621151,88.9769757 113.28593,88.9769757 C112.344811,88.9769757 111.868926,88.4470193 111.868926,87.3867526 L111.868926,84.1849681 L110.938566,84.1849681 L110.938566,83.449413 L111.868926,83.449413 L111.868926,82.1296177 L112.734317,81.8484676 L112.734317,83.449413 L114.097107,83.449413 L114.097107,84.1849681 L112.734317,84.1849681 L112.734317,87.235473 C112.734317,87.6032152 112.79911,87.8519861 112.918082,88.0142003 C113.047987,88.1656569 113.242687,88.2413852 113.534701,88.2413852 C113.751057,88.2413852 113.934928,88.1873137 114.097107,88.0683425 L114.097107,88.803933 Z M119.603119,86.3701182 L115.784715,86.3701182 C115.795473,86.9758028 115.957758,87.4409302 116.271429,87.7654294 C116.5851,88.0899286 117.007019,88.2523197 117.547981,88.2523197 C118.15363,88.2523197 118.716178,88.0576202 119.224655,87.6571804 L119.224655,88.4686054 C118.748593,88.8147615 118.121145,88.9878041 117.342453,88.9878041 C116.574377,88.9878041 115.979415,88.7390332 115.546808,88.2523197 C115.103125,87.7547071 114.886875,87.0623596 114.886875,86.1754186 C114.886875,85.3316145 115.124888,84.6502016 115.600773,84.1200682 C116.076729,83.5901472 116.671762,83.3196133 117.374726,83.3196133 C118.088837,83.3196133 118.629621,83.5466919 119.019021,84.0118193 C119.40842,84.4662243 119.603119,85.1043943 119.603119,85.9157131 L119.603119,86.3701182 Z M118.716178,85.6345276 C118.716178,85.136915 118.586272,84.7474098 118.359264,84.4662243 C118.121145,84.1849681 117.785924,84.0550622 117.364004,84.0550622 C116.953054,84.0550622 116.606863,84.1957965 116.325606,84.4879166 C116.033486,84.7798951 115.860479,85.1585719 115.795473,85.6345276 L118.716178,85.6345276 Z M121.777335,88.8580044 L120.91198,88.8580044 L120.91198,80.8532777 L121.777335,80.8532777 L121.777335,88.8580044 Z M123.973313,82.0756524 C123.821857,82.0756524 123.691951,82.021581 123.583914,81.9133675 C123.464943,81.8159469 123.410765,81.675425 123.410765,81.5132107 C123.410765,81.3508196 123.464943,81.2210199 123.583914,81.1128771 C123.691951,81.0047343 123.821857,80.9505921 123.973313,80.9505921 C124.135633,80.9505921 124.265327,81.0047343 124.384298,81.1128771 C124.492512,81.2210199 124.546583,81.3508196 124.546583,81.5132107 C124.546583,81.675425 124.492512,81.8052246 124.384298,81.9133675 C124.265327,82.021581 124.135633,82.0756524 123.973313,82.0756524 L123.973313,82.0756524 Z M124.395127,88.8580044 L123.529736,88.8580044 L123.529736,83.449413 L124.395127,83.449413 L124.395127,88.8580044 Z M130.766494,88.4252562 C130.766494,90.4157068 129.814653,91.4000329 127.910759,91.4000329 C127.240104,91.4000329 126.655899,91.281097 126.158463,91.0213915 L126.158463,90.1560013 C126.764148,90.4914351 127.348246,90.6644777 127.89993,90.6644777 C129.230448,90.6644777 129.901103,89.9613017 129.901103,88.5443336 L129.901103,87.9494066 L129.879553,87.9494066 C129.468497,88.6416126 128.841049,88.9878041 128.018902,88.9878041 C127.348246,88.9878041 126.807355,88.7390332 126.396406,88.2630774 C125.985314,87.7870863 125.779786,87.1380878 125.779786,86.3266983 C125.779786,85.4073428 125.996072,84.68251 126.439649,84.1307905 C126.883084,83.5901472 127.488981,83.3196133 128.25695,83.3196133 C128.981677,83.3196133 129.522462,83.6115918 129.879553,84.1957965 L129.901103,84.1957965 L129.901103,83.449413 L130.766494,83.449413 L130.766494,88.4252562 Z M129.901103,86.4133611 L129.901103,85.6127646 C129.901103,85.180158 129.749647,84.8124158 129.468497,84.5094673 C129.176483,84.2065188 128.808528,84.0550622 128.375922,84.0550622 C127.845859,84.0550622 127.423975,84.2497618 127.121132,84.639267 C126.818184,85.028666 126.666833,85.569557 126.666833,86.2726976 C126.666833,86.86766 126.807355,87.3544442 127.099582,87.7114641 C127.39156,88.0791002 127.780959,88.2523197 128.25695,88.2523197 C128.743735,88.2523197 129.133134,88.0791002 129.446911,87.7329087 C129.749647,87.3867526 129.901103,86.9541106 129.901103,86.4133611 L129.901103,86.4133611 Z M136.867433,86.3701182 L133.049029,86.3701182 C133.059786,86.9758028 133.222071,87.4409302 133.535742,87.7654294 C133.849413,88.0899286 134.271297,88.2523197 134.812188,88.2523197 C135.417944,88.2523197 135.980492,88.0576202 136.488862,87.6571804 L136.488862,88.4686054 C136.0128,88.8147615 135.385458,88.9878041 134.606767,88.9878041 C133.838691,88.9878041 133.243728,88.7390332 132.811015,88.2523197 C132.367439,87.7547071 132.151153,87.0623596 132.151153,86.1754186 C132.151153,85.3316145 132.389096,84.6502016 132.865087,84.1200682 C133.341043,83.5901472 133.936076,83.3196133 134.639039,83.3196133 C135.353044,83.3196133 135.893829,83.5466919 136.283228,84.0118193 C136.672733,84.4662243 136.867433,85.1043943 136.867433,85.9157131 L136.867433,86.3701182 Z M135.980492,85.6345276 C135.980492,85.136915 135.850586,84.7474098 135.623578,84.4662243 C135.385458,84.1849681 135.050202,84.0550622 134.628317,84.0550622 C134.217261,84.0550622 133.87107,84.1957965 133.58992,84.4879166 C133.2978,84.7798951 133.124757,85.1585719 133.059786,85.6345276 L135.980492,85.6345276 Z M142.665423,88.8580044 L141.800068,88.8580044 L141.800068,85.775085 C141.800068,84.6284385 141.378148,84.0550622 140.545279,84.0550622 C140.112566,84.0550622 139.755652,84.2174534 139.47429,84.541988 C139.182276,84.8664872 139.041648,85.2775431 139.041648,85.775085 L139.041648,88.8580044 L138.176258,88.8580044 L138.176258,83.449413 L139.041648,83.449413 L139.041648,84.3472531 L139.063305,84.3472531 C139.47429,83.6658755 140.069323,83.3196133 140.837293,83.3196133 C141.43222,83.3196133 141.886519,83.5143836 142.200296,83.8928834 C142.513967,84.2715248 142.665423,84.8339665 142.665423,85.5479709 L142.665423,88.8580044 Z M146.808326,88.803933 C146.602798,88.9229043 146.33237,88.9769757 145.997113,88.9769757 C145.05603,88.9769757 144.580039,88.4470193 144.580039,87.3867526 L144.580039,84.1849681 L143.649785,84.1849681 L143.649785,83.449413 L144.580039,83.449413 L144.580039,82.1296177 L145.445429,81.8484676 L145.445429,83.449413 L146.808326,83.449413 L146.808326,84.1849681 L145.445429,84.1849681 L145.445429,87.235473 C145.445429,87.6032152 145.510223,87.8519861 145.6293,88.0142003 C145.759171,88.1656569 145.95387,88.2413852 146.245884,88.2413852 C146.462241,88.2413852 146.646041,88.1873137 146.808326,88.0683425 L146.808326,88.803933 Z M152.314338,86.3701182 L148.495934,86.3701182 C148.506657,86.9758028 148.668977,87.4409302 148.982648,87.7654294 C149.296318,88.0899286 149.718203,88.2523197 150.259094,88.2523197 C150.864849,88.2523197 151.427397,88.0576202 151.935874,87.6571804 L151.935874,88.4686054 C151.459706,88.8147615 150.832364,88.9878041 150.053637,88.9878041 C149.285561,88.9878041 148.690634,88.7390332 148.257886,88.2523197 C147.814344,87.7547071 147.598059,87.0623596 147.598059,86.1754186 C147.598059,85.3316145 147.836001,84.6502016 148.311957,84.1200682 C148.787948,83.5901472 149.382981,83.3196133 150.085945,83.3196133 C150.800056,83.3196133 151.340734,83.5466919 151.730239,84.0118193 C152.119639,84.4662243 152.314338,85.1043943 152.314338,85.9157131 L152.314338,86.3701182 Z M151.427397,85.6345276 C151.427397,85.136915 151.297491,84.7474098 151.070483,84.4662243 C150.832364,84.1849681 150.497107,84.0550622 150.075223,84.0550622 C149.664238,84.0550622 149.317975,84.1957965 149.03679,84.4879166 C148.744705,84.7798951 148.571663,85.1585719 148.506657,85.6345276 L151.427397,85.6345276 Z" id="Fill-13" fill="#FFFFFF"></path>
            </g>
        </g>
    </g>
</svg>