<?xml version="1.0" encoding="UTF-8"?>
<svg width="754px" height="294px" viewBox="0 0 754 294" version="1.1" xmlns="http://www.w3.org/2000/svg" xmlns:xlink="http://www.w3.org/1999/xlink">
    <!-- Generator: Sketch 39.1 (31720) - http://www.bohemiancoding.com/sketch -->
    <title>LOGO AGROSELLERS CON SLOGAN</title>
    <desc>Created with Sketch.</desc>
    <defs></defs>
    <g id="Page-1" stroke="none" stroke-width="1" fill="none" fill-rule="evenodd">
        <g id="LOGO-AGROSELLERS-CON-SLOGAN">
            <path d="M73.119,255.901 L62.543,255.901 L53.944,233.123 L19.427,233.123 L11.292,255.901 L0.717,255.901 L31.863,174.55 L41.741,174.55 L73.119,255.901 L73.119,255.901 Z M50.806,224.523 L38.022,189.89 C37.673,188.728 37.208,186.869 36.744,184.428 L36.511,184.428 C36.163,186.753 35.698,188.496 35.233,189.89 L22.565,224.523 L50.806,224.523 L50.806,224.523 Z" id="Fill-1" fill="#C0D24C"></path>
            <path d="M126.731,251.253 C126.731,272.636 116.503,283.212 96.049,283.212 C88.844,283.212 82.568,281.933 77.223,279.144 L77.223,269.847 C83.731,273.45 90.006,275.309 95.933,275.309 C110.228,275.309 117.433,267.755 117.433,252.531 L117.433,246.139 L117.201,246.139 C112.785,253.577 106.044,257.296 97.212,257.296 C90.006,257.296 84.196,254.623 79.779,249.509 C75.363,244.396 73.155,237.423 73.155,228.707 C73.155,218.828 75.479,211.042 80.244,205.115 C85.009,199.304 91.517,196.399 99.769,196.399 C107.555,196.399 113.366,199.536 117.201,205.812 L117.433,205.812 L117.433,197.793 L126.731,197.793 L126.731,251.253 L126.731,251.253 Z M117.433,229.636 L117.433,221.036 C117.433,216.388 115.806,212.436 112.785,209.182 C109.647,205.928 105.695,204.301 101.047,204.301 C95.352,204.301 90.82,206.393 87.566,210.577 C84.312,214.761 82.685,220.572 82.685,228.126 C82.685,234.517 84.196,239.747 87.333,243.582 C90.471,247.534 94.655,249.393 99.769,249.393 C104.998,249.393 109.182,247.534 112.552,243.815 C115.806,240.096 117.433,235.447 117.433,229.636 L117.433,229.636 Z" id="Fill-2" fill="#C0D24C"></path>
            <path d="M169.166,207.207 C167.539,205.928 165.215,205.347 162.077,205.347 C158.125,205.347 154.872,207.207 152.198,210.926 C149.525,214.645 148.131,219.758 148.131,226.266 L148.131,255.901 L138.834,255.901 L138.834,197.793 L148.131,197.793 L148.131,209.763 L148.363,209.763 C149.758,205.696 151.734,202.442 154.407,200.234 C157.196,197.909 160.217,196.747 163.587,196.747 C166.028,196.747 167.888,196.98 169.166,197.561 L169.166,207.207" id="Fill-3" fill="#C0D24C"></path>
            <path d="M195.292,257.296 C186.692,257.296 179.836,254.506 174.722,249.161 C169.609,243.699 167.052,236.493 167.052,227.544 C167.052,217.782 169.725,210.112 175.071,204.65 C180.416,199.188 187.622,196.399 196.687,196.399 C205.287,196.399 212.144,199.072 216.908,204.417 C221.79,209.763 224.23,217.201 224.23,226.615 C224.23,235.912 221.673,243.35 216.444,248.928 C211.098,254.506 204.125,257.296 195.292,257.296 L195.292,257.296 Z M195.989,204.301 C190.062,204.301 185.298,206.277 181.811,210.344 C178.325,214.412 176.581,219.99 176.581,227.196 C176.581,234.053 178.325,239.515 181.811,243.466 C185.414,247.417 190.062,249.393 195.989,249.393 C202.033,249.393 206.681,247.417 209.819,243.582 C213.073,239.631 214.7,234.169 214.7,226.963 C214.7,219.642 213.073,214.063 209.819,210.112 C206.681,206.161 202.033,204.301 195.989,204.301 L195.989,204.301 Z" id="Fill-4" fill="#C0D24C"></path>
            <path d="M229.822,241.032 C231.1,242.194 232.727,243.124 234.47,244.054 C236.213,244.983 238.189,245.797 240.165,246.378 C242.14,246.959 244.116,247.54 246.092,247.889 C248.184,248.121 250.043,248.354 251.67,248.354 C257.597,248.354 261.897,247.308 264.802,245.099 C267.708,242.892 269.219,239.754 269.219,235.686 C269.219,233.478 268.638,231.618 267.708,229.991 C266.778,228.365 265.384,226.854 263.756,225.459 C262.013,224.181 260.038,222.902 257.713,221.624 C255.389,220.462 252.832,219.067 250.159,217.789 C247.37,216.278 244.697,214.884 242.257,213.373 C239.7,211.862 237.608,210.235 235.748,208.491 C234.005,206.748 232.611,204.656 231.565,202.448 C230.519,200.24 229.938,197.567 229.938,194.546 C229.938,190.827 230.751,187.573 232.378,184.9 C234.005,182.111 236.213,179.902 238.77,178.043 C241.443,176.3 244.465,175.021 247.835,174.092 C251.205,173.278 254.692,172.813 258.178,172.813 C266.197,172.813 272.124,173.743 275.727,175.719 L275.727,186.41 C270.962,183.156 264.802,181.413 257.248,181.413 C255.157,181.413 253.065,181.646 250.973,182.111 C248.881,182.575 247.022,183.273 245.395,184.202 C243.767,185.248 242.489,186.527 241.443,188.037 C240.397,189.548 239.932,191.408 239.932,193.732 C239.932,195.824 240.281,197.567 241.095,199.078 C241.908,200.589 243.07,201.983 244.581,203.262 C246.092,204.424 247.951,205.702 250.043,206.865 C252.251,208.027 254.808,209.305 257.597,210.7 C260.503,212.21 263.292,213.721 265.848,215.232 C268.522,216.859 270.73,218.602 272.705,220.578 C274.681,222.437 276.308,224.645 277.47,226.97 C278.632,229.294 279.097,231.967 279.097,234.989 C279.097,239.056 278.4,242.427 276.773,245.216 C275.262,248.005 273.054,250.213 270.497,251.956 C267.824,253.699 264.686,254.978 261.2,255.791 C257.713,256.489 254.111,256.954 250.159,256.954 C248.881,256.954 247.37,256.837 245.395,256.605 C243.535,256.373 241.675,256.14 239.7,255.675 C237.724,255.327 235.865,254.745 234.121,254.164 C232.262,253.583 230.867,253.002 229.822,252.305 L229.822,241.032 Z" id="Fill-5" fill="#FFFFFF"></path>
            <path d="M334.142,228.829 L293.118,228.829 C293.234,235.337 294.977,240.335 298.347,243.821 C301.718,247.308 306.25,249.051 312.061,249.051 C318.569,249.051 324.612,246.959 330.074,242.659 L330.074,251.375 C324.961,255.094 318.22,256.954 309.853,256.954 C301.602,256.954 295.21,254.281 290.561,249.051 C285.796,243.705 283.472,236.267 283.472,226.737 C283.472,217.673 286.029,210.351 291.142,204.656 C296.256,198.962 302.648,196.056 310.202,196.056 C317.872,196.056 323.683,198.497 327.866,203.494 C332.05,208.375 334.142,215.232 334.142,223.948 L334.142,228.829 L334.142,228.829 Z M324.612,220.927 C324.612,215.581 323.218,211.397 320.777,208.375 C318.22,205.354 314.618,203.959 310.085,203.959 C305.669,203.959 301.95,205.47 298.928,208.608 C295.791,211.746 293.931,215.813 293.234,220.927 L324.612,220.927 L324.612,220.927 Z" id="Fill-6" fill="#FFFFFF"></path>
            <path d="M350.216,239.289 C350.216,244.635 352.307,247.308 356.375,247.308 C358.002,247.308 359.513,247.075 360.907,246.727 L360.907,255.094 C360.094,255.327 359.164,255.443 358.002,255.675 C356.84,255.791 355.562,255.908 354.283,255.908 C352.424,255.908 350.68,255.559 349.053,254.978 C347.426,254.397 345.916,253.467 344.753,252.189 C343.591,250.91 342.662,249.4 341.964,247.54 C341.267,245.681 340.918,243.473 340.918,240.916 L340.918,169.559 L350.216,169.559 L350.216,239.289" id="Fill-7" fill="#FFFFFF"></path>
            <path d="M372.972,239.289 C372.972,244.635 375.064,247.308 379.131,247.308 C380.758,247.308 382.269,247.075 383.664,246.727 L383.664,255.094 C382.85,255.327 381.92,255.443 380.758,255.675 C379.596,255.791 378.318,255.908 377.039,255.908 C375.18,255.908 373.437,255.559 371.81,254.978 C370.183,254.397 368.672,253.467 367.51,252.189 C366.347,250.91 365.418,249.4 364.721,247.54 C364.023,245.681 363.675,243.473 363.675,240.916 L363.675,169.559 L372.972,169.559 L372.972,239.289" id="Fill-8" fill="#FFFFFF"></path>
            <path d="M433.731,228.829 L392.706,228.829 C392.823,235.337 394.566,240.335 397.936,243.821 C401.307,247.308 405.839,249.051 411.65,249.051 C418.158,249.051 424.201,246.959 429.663,242.659 L429.663,251.375 C424.55,255.094 417.809,256.954 409.442,256.954 C401.19,256.954 394.798,254.281 390.15,249.051 C385.385,243.705 383.06,236.267 383.06,226.737 C383.06,217.673 385.617,210.351 390.731,204.656 C395.844,198.962 402.236,196.056 409.79,196.056 C417.461,196.056 423.271,198.497 427.455,203.494 C431.639,208.375 433.731,215.232 433.731,223.948 L433.731,228.829 L433.731,228.829 Z M424.201,220.927 C424.201,215.581 422.806,211.397 420.366,208.375 C417.809,205.354 414.206,203.959 409.674,203.959 C405.258,203.959 401.539,205.47 398.517,208.608 C395.38,211.746 393.52,215.813 392.823,220.927 L424.201,220.927 L424.201,220.927 Z" id="Fill-9" fill="#FFFFFF"></path>
            <path d="M471.421,206.865 C469.794,205.586 467.469,205.005 464.331,205.005 C460.38,205.005 457.126,206.865 454.453,210.583 C451.78,214.302 450.385,219.416 450.385,225.924 L450.385,255.559 L441.088,255.559 L441.088,197.451 L450.385,197.451 L450.385,209.421 L450.618,209.421 C452.012,205.354 453.988,202.1 456.661,199.892 C459.45,197.567 462.472,196.405 465.842,196.405 C468.283,196.405 470.142,196.637 471.421,197.219 L471.421,206.865" id="Fill-10" fill="#FFFFFF"></path>
            <path d="M471.301,253.467 L471.301,243.473 C476.299,247.191 481.993,249.051 488.036,249.051 C496.172,249.051 500.239,246.378 500.239,240.916 C500.239,239.405 499.89,238.01 499.193,236.965 C498.496,235.919 497.566,234.989 496.404,234.059 C495.242,233.246 493.847,232.548 492.22,231.851 C490.593,231.154 488.85,230.456 486.991,229.759 C484.434,228.713 482.226,227.783 480.25,226.737 C478.274,225.691 476.647,224.529 475.369,223.135 C474.091,221.856 473.045,220.346 472.347,218.719 C471.766,217.091 471.418,215.116 471.418,212.908 C471.418,210.118 471.999,207.794 473.277,205.586 C474.555,203.494 476.183,201.751 478.274,200.356 C480.366,198.962 482.691,197.916 485.363,197.102 C488.036,196.405 490.826,196.056 493.615,196.056 C498.728,196.056 503.145,196.986 507.096,198.729 L507.096,208.143 C502.912,205.354 497.915,203.959 492.453,203.959 C490.71,203.959 489.082,204.075 487.688,204.54 C486.293,204.889 485.131,205.47 484.085,206.167 C483.039,206.865 482.342,207.794 481.761,208.724 C481.18,209.77 480.947,210.816 480.947,212.094 C480.947,213.605 481.18,214.884 481.761,215.929 C482.342,216.859 483.155,217.789 484.201,218.602 C485.247,219.416 486.526,220.113 488.036,220.81 C489.547,221.392 491.29,222.089 493.15,222.902 C495.707,223.832 498.031,224.878 500.123,225.924 C502.099,226.97 503.842,228.132 505.353,229.411 C506.747,230.689 507.909,232.2 508.607,233.943 C509.42,235.686 509.769,237.662 509.769,239.986 C509.769,242.892 509.188,245.332 507.909,247.54 C506.631,249.632 505.004,251.375 502.796,252.77 C500.704,254.164 498.264,255.21 495.474,255.908 C492.801,256.605 489.896,256.954 486.874,256.954 C480.831,256.954 475.718,255.791 471.301,253.467" id="Fill-11" fill="#FFFFFF"></path>
            <path d="M436.297,158.983 C456.351,158.644 473.309,151.384 485.507,135.166 C491.42,127.31 496.374,118.684 501.294,110.132 C507.919,98.611 513.703,86.591 520.536,75.199 C540.64,41.686 570.058,21.072 608.516,14.078 C643.003,7.807 676.809,11.412 709.723,23.26 C724.921,28.731 738.996,36.271 750.836,47.511 C751.583,48.224 752.271,48.995 753.284,50.05 C751.77,50.206 750.848,50.317 749.926,50.399 C742.486,51.074 735.312,52.867 728.535,55.985 C718.679,60.518 710.142,66.945 702.49,74.607 C690.76,86.342 681.157,99.789 671.397,113.103 C660.371,128.149 649.281,143.137 635.729,156.079 C622.536,168.68 607.686,178.775 590.084,183.893 C563.222,191.704 535.986,192.093 508.691,186.023 C502.835,184.721 497.103,182.843 491.316,181.229 C491.363,180.994 491.411,180.759 491.455,180.526 C491.856,180.473 492.248,180.417 492.647,180.378 C512.219,178.563 531.38,174.813 549.927,168.166 C561.127,164.152 571.912,159.228 581.789,152.578 C594.206,144.218 605.29,134.257 615.231,123.084 C627.051,109.797 638.526,96.199 650.474,83.031 C663.885,68.25 679.282,56.027 697.962,48.386 C698.418,48.199 698.785,47.789 699.193,47.484 C690.626,48.908 682.639,51.736 674.987,55.5 C660.816,62.47 648.928,72.491 637.943,83.65 C626.483,95.288 615.305,107.209 603.634,118.627 C591.477,130.525 577.526,140.066 561.946,146.912 C543.708,154.931 524.572,160.124 504.923,163.402 C480.733,167.44 456.4,167.272 432.028,165.885 C426.511,165.568 420.996,165.197 416.006,164.885 C414.7,162.188 413.59,159.896 412.492,157.626 C413.784,157.483 415.407,157.794 416.322,157.131 C429.659,147.423 435.402,136.802 432.488,121.032 C430.916,112.517 428.471,104.154 426.351,95.742 C420.685,73.238 424.641,52.788 439.471,34.74 C448.465,23.792 459.49,15.351 472.117,8.936 C480.242,4.806 488.707,1.843 497.822,0.994 C499.796,0.81 501.797,0.894 504.323,0.841 C496.736,8.659 493.737,17.702 493.649,27.634 C493.586,34.848 494.361,42.073 494.782,49.292 C495.407,59.988 496.614,70.683 496.552,81.378 C496.481,94.591 491.574,106.35 483.071,116.503 C477.414,123.258 471.092,129.345 463.679,134.145 C459.941,136.563 455.883,138.473 451.972,140.615 C451.856,140.426 451.739,140.242 451.624,140.059 C452.991,138.445 454.367,136.843 455.726,135.22 C471.018,116.948 479.111,96.199 477.56,72.084 C477.218,66.729 477.16,61.362 476.959,56 C476.504,43.795 477.357,31.787 482.209,20.367 C482.238,20.305 482.083,20.172 481.911,19.922 C476.962,27.305 474.027,35.363 473.27,44.043 C472.554,52.183 472.402,60.372 472.18,68.549 C471.908,78.733 471.232,88.863 467.704,98.528 C461.358,115.914 450.817,130.553 437.592,143.304 C432.293,148.408 426.637,153.141 420.529,158.59 C426.181,158.746 431.24,159.069 436.297,158.983" id="Fill-12" fill="#BFD14D"></path>
            <path d="M151.742,280.295 C151.124,282.65 150.064,284.417 148.533,285.594 C147.003,286.742 145.177,287.331 143.028,287.331 C139.584,287.331 137.082,286.242 135.492,284.093 C133.932,281.944 133.137,279.324 133.137,276.291 C133.137,272.935 134.049,270.286 135.904,268.402 C137.759,266.488 140.143,265.546 143.058,265.546 C145.118,265.546 146.855,266.076 148.327,267.106 C149.77,268.166 150.8,269.697 151.389,271.699 L148.651,272.346 C148.21,270.875 147.503,269.785 146.561,269.049 C145.619,268.284 144.441,267.931 143.028,267.931 C140.732,267.931 138.995,268.696 137.817,270.197 C136.61,271.699 136.022,273.73 136.022,276.262 C136.022,279.206 136.64,281.384 137.906,282.797 C139.142,284.24 140.791,284.946 142.793,284.946 C144.441,284.946 145.766,284.505 146.796,283.622 C147.827,282.709 148.563,281.384 148.975,279.589 L151.742,280.295 L151.742,280.295 Z M161.074,271.375 C163.135,271.375 164.843,272.052 166.197,273.377 C167.551,274.731 168.228,276.645 168.228,279.117 C168.228,282.12 167.492,284.24 166.02,285.476 C164.578,286.713 162.9,287.331 161.074,287.331 C159.131,287.331 157.483,286.683 156.07,285.417 C154.627,284.151 153.921,282.12 153.921,279.353 C153.921,276.674 154.627,274.672 155.982,273.347 C157.365,272.052 159.043,271.375 161.074,271.375 L161.074,271.375 Z M161.074,285.211 C162.546,285.211 163.665,284.652 164.43,283.563 C165.196,282.473 165.579,281.031 165.579,279.265 C165.579,277.351 165.166,275.909 164.283,274.937 C163.43,273.965 162.34,273.495 161.074,273.495 C159.75,273.495 158.69,273.995 157.836,274.966 C156.982,275.938 156.57,277.41 156.57,279.353 C156.57,281.296 157.012,282.738 157.865,283.739 C158.719,284.711 159.779,285.211 161.074,285.211 L161.074,285.211 Z M191.897,286.978 L189.306,286.978 L189.306,277.351 C189.306,276.645 189.277,276.026 189.159,275.526 C189.071,275.025 188.835,274.584 188.423,274.201 C188.041,273.789 187.422,273.612 186.569,273.612 C185.538,273.612 184.685,273.965 183.948,274.672 C183.213,275.379 182.83,276.527 182.83,278.117 L182.83,286.978 L180.239,286.978 L180.239,277.057 C180.239,275.732 180.004,274.819 179.533,274.348 C179.091,273.848 178.414,273.612 177.56,273.612 C176.471,273.612 175.558,273.995 174.822,274.76 C174.116,275.526 173.763,276.969 173.763,279.058 L173.763,286.978 L171.172,286.978 L171.172,271.728 L173.498,271.728 L173.498,273.848 L173.557,273.848 C174.587,272.199 176.118,271.375 178.12,271.375 C179.238,271.375 180.151,271.61 180.887,272.052 C181.593,272.494 182.123,273.171 182.447,274.054 C183.595,272.258 185.155,271.375 187.157,271.375 C188.747,271.375 189.925,271.817 190.72,272.67 C191.514,273.524 191.897,274.79 191.897,276.497 L191.897,286.978 L191.897,286.978 Z M198.197,273.701 C199.169,272.14 200.611,271.375 202.554,271.375 C204.556,271.375 206.146,272.111 207.294,273.553 C208.442,274.996 209.031,276.91 209.031,279.235 C209.031,281.708 208.383,283.68 207.117,285.152 C205.822,286.595 204.262,287.331 202.377,287.331 C200.729,287.331 199.434,286.683 198.433,285.388 L198.374,285.388 L198.374,292.836 L195.783,292.836 L195.783,271.728 L198.138,271.728 L198.138,273.701 L198.197,273.701 L198.197,273.701 Z M202.201,285.211 C203.408,285.211 204.409,284.711 205.203,283.71 C205.999,282.709 206.381,281.208 206.381,279.235 C206.381,277.351 205.999,275.909 205.233,274.908 C204.497,273.907 203.496,273.406 202.319,273.406 C201.082,273.406 200.081,273.965 199.286,275.084 C198.492,276.203 198.109,277.675 198.109,279.441 C198.109,281.325 198.492,282.768 199.257,283.739 C199.993,284.711 200.994,285.211 202.201,285.211 L202.201,285.211 Z M225.34,286.978 L222.631,286.978 C222.367,286.507 222.19,285.859 222.102,285.093 C220.365,286.595 218.481,287.331 216.479,287.331 C214.86,287.331 213.594,286.919 212.681,286.124 C211.739,285.329 211.268,284.269 211.268,282.945 C211.268,281.679 211.71,280.619 212.622,279.824 C213.505,279 215.066,278.44 217.274,278.176 L219.688,277.822 C220.6,277.675 221.336,277.498 221.925,277.292 C221.925,276.497 221.896,275.968 221.866,275.644 C221.807,275.32 221.66,274.996 221.424,274.643 C221.189,274.289 220.806,274.024 220.306,273.818 C219.776,273.583 219.099,273.495 218.216,273.495 C217.097,273.495 216.214,273.701 215.566,274.113 C214.918,274.525 214.477,275.29 214.241,276.409 L211.71,276.085 C212.004,274.525 212.71,273.347 213.859,272.552 C215.007,271.758 216.596,271.375 218.598,271.375 C220.424,271.375 221.778,271.64 222.631,272.199 C223.485,272.729 224.015,273.377 224.221,274.142 C224.427,274.908 224.516,275.909 224.516,277.116 L224.516,280.589 C224.516,282.709 224.545,284.122 224.633,284.858 C224.722,285.565 224.957,286.271 225.34,286.978 L225.34,286.978 Z M221.925,280.265 L221.925,279.324 C220.571,279.765 218.922,280.148 216.979,280.413 C215.007,280.648 214.035,281.502 214.035,282.886 C214.035,283.592 214.3,284.151 214.83,284.623 C215.36,285.064 216.096,285.3 217.097,285.3 C218.363,285.3 219.482,284.917 220.453,284.151 C221.424,283.386 221.925,282.091 221.925,280.265 L221.925,280.265 Z M236.703,272.199 L235.82,274.584 C235.172,274.201 234.554,274.024 233.936,274.024 C232.965,274.024 232.229,274.466 231.728,275.32 C231.228,276.203 230.992,277.41 230.992,278.97 L230.992,286.978 L228.402,286.978 L228.402,271.728 L230.757,271.728 L230.757,274.024 L230.816,274.024 C231.64,272.258 232.729,271.375 234.054,271.375 C234.937,271.375 235.82,271.64 236.703,272.199 L236.703,272.199 Z M251.541,280.001 L240.118,280.001 C240.236,281.679 240.707,282.974 241.561,283.857 C242.414,284.77 243.503,285.211 244.769,285.211 C245.77,285.211 246.595,284.946 247.272,284.417 C247.92,283.916 248.449,283.121 248.803,282.061 L251.452,282.385 C251.04,283.975 250.245,285.211 249.097,286.065 C247.949,286.919 246.507,287.331 244.769,287.331 C242.473,287.331 240.707,286.624 239.412,285.241 C238.116,283.828 237.469,281.914 237.469,279.471 C237.469,277.057 238.087,275.114 239.353,273.612 C240.589,272.14 242.355,271.375 244.622,271.375 C245.741,271.375 246.801,271.61 247.831,272.111 C248.862,272.611 249.745,273.436 250.481,274.613 C251.187,275.791 251.541,277.586 251.541,280.001 L251.541,280.001 Z M248.891,277.881 C248.773,276.321 248.302,275.202 247.448,274.525 C246.595,273.848 245.653,273.495 244.622,273.495 C243.415,273.495 242.414,273.907 241.62,274.702 C240.854,275.526 240.383,276.586 240.265,277.881 L248.891,277.881 L248.891,277.881 Z M258.282,286.978 C258.282,288.185 258.046,289.127 257.576,289.774 C257.134,290.422 256.545,290.864 255.868,291.128 L255.162,290.039 C256.251,289.568 256.781,288.567 256.781,286.978 L255.338,286.978 L255.338,284.034 L258.282,284.034 L258.282,286.978 L258.282,286.978 Z M283.511,281.708 C283.187,283.651 282.422,285.064 281.215,285.977 C280.008,286.889 278.653,287.331 277.152,287.331 C274.944,287.331 273.237,286.595 272.03,285.152 C270.823,283.71 270.204,281.767 270.204,279.382 C270.204,277.41 270.558,275.82 271.264,274.613 C271.942,273.436 272.824,272.582 273.855,272.111 C274.915,271.61 276.004,271.375 277.152,271.375 C278.712,271.375 280.066,271.787 281.185,272.611 C282.304,273.406 282.981,274.613 283.246,276.203 L280.744,276.586 C280.479,275.555 280.066,274.79 279.478,274.26 C278.918,273.759 278.153,273.495 277.27,273.495 C275.827,273.495 274.709,273.995 273.973,275.025 C273.237,276.056 272.854,277.498 272.854,279.324 C272.854,281.208 273.207,282.65 273.943,283.68 C274.679,284.711 275.739,285.211 277.123,285.211 C278.242,285.211 279.095,284.887 279.743,284.24 C280.39,283.622 280.773,282.65 280.95,281.384 L283.511,281.708 L283.511,281.708 Z M291.96,271.375 C294.021,271.375 295.728,272.052 297.082,273.377 C298.436,274.731 299.114,276.645 299.114,279.117 C299.114,282.12 298.378,284.24 296.906,285.476 C295.463,286.713 293.785,287.331 291.96,287.331 C290.017,287.331 288.368,286.683 286.955,285.417 C285.513,284.151 284.806,282.12 284.806,279.353 C284.806,276.674 285.513,274.672 286.867,273.347 C288.251,272.052 289.929,271.375 291.96,271.375 L291.96,271.375 Z M291.96,285.211 C293.432,285.211 294.551,284.652 295.316,283.563 C296.081,282.473 296.464,281.031 296.464,279.265 C296.464,277.351 296.052,275.909 295.169,274.937 C294.315,273.965 293.226,273.495 291.96,273.495 C290.635,273.495 289.575,273.995 288.722,274.966 C287.868,275.938 287.456,277.41 287.456,279.353 C287.456,281.296 287.897,282.738 288.751,283.739 C289.605,284.711 290.665,285.211 291.96,285.211 L291.96,285.211 Z M322.783,286.978 L320.192,286.978 L320.192,277.351 C320.192,276.645 320.163,276.026 320.045,275.526 C319.956,275.025 319.721,274.584 319.309,274.201 C318.926,273.789 318.308,273.612 317.454,273.612 C316.424,273.612 315.57,273.965 314.834,274.672 C314.098,275.379 313.715,276.527 313.715,278.117 L313.715,286.978 L311.125,286.978 L311.125,277.057 C311.125,275.732 310.889,274.819 310.418,274.348 C309.977,273.848 309.3,273.612 308.446,273.612 C307.356,273.612 306.444,273.995 305.708,274.76 C305.001,275.526 304.648,276.969 304.648,279.058 L304.648,286.978 L302.058,286.978 L302.058,271.728 L304.383,271.728 L304.383,273.848 L304.442,273.848 C305.473,272.199 307.003,271.375 309.005,271.375 C310.124,271.375 311.036,271.61 311.772,272.052 C312.479,272.494 313.009,273.171 313.333,274.054 C314.481,272.258 316.041,271.375 318.043,271.375 C319.633,271.375 320.81,271.817 321.605,272.67 C322.4,273.524 322.783,274.79 322.783,276.497 L322.783,286.978 L322.783,286.978 Z M329.083,273.701 C330.054,272.14 331.497,271.375 333.44,271.375 C335.442,271.375 337.031,272.111 338.179,273.553 C339.327,274.996 339.916,276.91 339.916,279.235 C339.916,281.708 339.269,283.68 338.003,285.152 C336.707,286.595 335.147,287.331 333.263,287.331 C331.615,287.331 330.319,286.683 329.318,285.388 L329.259,285.388 L329.259,292.836 L326.669,292.836 L326.669,271.728 L329.024,271.728 L329.024,273.701 L329.083,273.701 L329.083,273.701 Z M333.086,285.211 C334.293,285.211 335.294,284.711 336.089,283.71 C336.884,282.709 337.267,281.208 337.267,279.235 C337.267,277.351 336.884,275.909 336.118,274.908 C335.383,273.907 334.382,273.406 333.204,273.406 C331.968,273.406 330.967,273.965 330.172,275.084 C329.377,276.203 328.994,277.675 328.994,279.441 C328.994,281.325 329.377,282.768 330.142,283.739 C330.878,284.711 331.879,285.211 333.086,285.211 L333.086,285.211 Z M351.221,272.199 L350.338,274.584 C349.69,274.201 349.072,274.024 348.453,274.024 C347.482,274.024 346.746,274.466 346.246,275.32 C345.745,276.203 345.51,277.41 345.51,278.97 L345.51,286.978 L342.919,286.978 L342.919,271.728 L345.274,271.728 L345.274,274.024 L345.333,274.024 C346.157,272.258 347.246,271.375 348.571,271.375 C349.454,271.375 350.338,271.64 351.221,272.199 L351.221,272.199 Z M366.058,280.001 L354.636,280.001 C354.753,281.679 355.224,282.974 356.078,283.857 C356.932,284.77 358.021,285.211 359.287,285.211 C360.288,285.211 361.112,284.946 361.789,284.417 C362.437,283.916 362.967,283.121 363.32,282.061 L365.97,282.385 C365.557,283.975 364.763,285.211 363.615,286.065 C362.466,286.919 361.024,287.331 359.287,287.331 C356.991,287.331 355.224,286.624 353.929,285.241 C352.634,283.828 351.986,281.914 351.986,279.471 C351.986,277.057 352.604,275.114 353.87,273.612 C355.107,272.14 356.873,271.375 359.14,271.375 C360.258,271.375 361.318,271.61 362.349,272.111 C363.379,272.611 364.262,273.436 364.998,274.613 C365.704,275.791 366.058,277.586 366.058,280.001 L366.058,280.001 Z M363.408,277.881 C363.291,276.321 362.82,275.202 361.966,274.525 C361.112,273.848 360.17,273.495 359.14,273.495 C357.933,273.495 356.932,273.907 356.137,274.702 C355.372,275.526 354.901,276.586 354.783,277.881 L363.408,277.881 L363.408,277.881 Z M389.874,271.728 L384.045,287.243 C384.045,287.272 384.015,287.301 384.015,287.331 C383.456,289.068 382.808,290.452 382.073,291.541 C381.337,292.63 380.277,293.16 378.893,293.16 C378.452,293.16 377.892,293.072 377.215,292.865 L376.95,290.422 C377.451,290.569 377.951,290.658 378.422,290.658 C379.394,290.658 380.041,290.393 380.424,289.863 C380.777,289.333 381.189,288.391 381.66,287.007 L375.861,271.728 L378.658,271.728 L382.249,281.708 C382.455,282.326 382.691,283.121 382.926,284.093 L382.985,284.093 C383.221,282.974 383.515,281.914 383.898,280.913 L387.254,271.728 L389.874,271.728 L389.874,271.728 Z M412.748,281.708 C412.424,283.651 411.659,285.064 410.452,285.977 C409.245,286.889 407.89,287.331 406.389,287.331 C404.181,287.331 402.474,286.595 401.267,285.152 C400.06,283.71 399.441,281.767 399.441,279.382 C399.441,277.41 399.795,275.82 400.501,274.613 C401.178,273.436 402.061,272.582 403.092,272.111 C404.152,271.61 405.241,271.375 406.389,271.375 C407.949,271.375 409.303,271.787 410.422,272.611 C411.541,273.406 412.218,274.613 412.483,276.203 L409.981,276.586 C409.716,275.555 409.303,274.79 408.715,274.26 C408.155,273.759 407.39,273.495 406.507,273.495 C405.064,273.495 403.946,273.995 403.21,275.025 C402.474,276.056 402.091,277.498 402.091,279.324 C402.091,281.208 402.444,282.65 403.18,283.68 C403.916,284.711 404.976,285.211 406.36,285.211 C407.478,285.211 408.332,284.887 408.98,284.24 C409.627,283.622 410.01,282.65 410.187,281.384 L412.748,281.708 L412.748,281.708 Z M421.197,271.375 C423.257,271.375 424.965,272.052 426.319,273.377 C427.673,274.731 428.35,276.645 428.35,279.117 C428.35,282.12 427.615,284.24 426.143,285.476 C424.7,286.713 423.022,287.331 421.197,287.331 C419.254,287.331 417.605,286.683 416.192,285.417 C414.75,284.151 414.043,282.12 414.043,279.353 C414.043,276.674 414.75,274.672 416.104,273.347 C417.488,272.052 419.166,271.375 421.197,271.375 L421.197,271.375 Z M421.197,285.211 C422.669,285.211 423.788,284.652 424.553,283.563 C425.318,282.473 425.701,281.031 425.701,279.265 C425.701,277.351 425.289,275.909 424.406,274.937 C423.552,273.965 422.463,273.495 421.197,273.495 C419.872,273.495 418.812,273.995 417.959,274.966 C417.105,275.938 416.693,277.41 416.693,279.353 C416.693,281.296 417.134,282.738 417.988,283.739 C418.842,284.711 419.902,285.211 421.197,285.211 L421.197,285.211 Z M439.861,275.997 C439.743,275.172 439.419,274.525 438.86,274.113 C438.301,273.701 437.506,273.495 436.505,273.495 C435.534,273.495 434.739,273.671 434.121,273.995 C433.502,274.319 433.208,274.819 433.208,275.467 C433.208,276.056 433.443,276.497 433.944,276.762 C434.415,277.027 435.386,277.322 436.799,277.704 C438.419,278.117 439.626,278.47 440.42,278.794 C441.215,279.117 441.833,279.559 442.275,280.118 C442.717,280.707 442.952,281.502 442.952,282.503 C442.952,283.857 442.393,285.005 441.274,285.947 C440.185,286.86 438.684,287.331 436.829,287.331 C434.886,287.331 433.384,286.919 432.295,286.094 C431.206,285.3 430.529,284.063 430.293,282.415 L432.855,282.032 C433.002,283.092 433.384,283.886 434.062,284.417 C434.709,284.946 435.622,285.211 436.799,285.211 C437.918,285.211 438.801,284.976 439.39,284.505 C440.008,284.034 440.303,283.445 440.303,282.768 C440.303,282.297 440.156,281.944 439.891,281.649 C439.626,281.384 439.272,281.178 438.86,281.031 C438.419,280.884 437.506,280.648 436.034,280.295 C433.885,279.765 432.443,279.147 431.736,278.411 C431.059,277.675 430.705,276.792 430.705,275.762 C430.705,274.496 431.206,273.436 432.237,272.611 C433.237,271.787 434.621,271.375 436.329,271.375 C438.154,271.375 439.567,271.728 440.568,272.464 C441.598,273.171 442.187,274.231 442.393,275.644 L439.861,275.997 L439.861,275.997 Z M459.32,280.001 L447.898,280.001 C448.016,281.679 448.487,282.974 449.34,283.857 C450.194,284.77 451.283,285.211 452.549,285.211 C453.55,285.211 454.374,284.946 455.052,284.417 C455.699,283.916 456.229,283.121 456.582,282.061 L459.232,282.385 C458.82,283.975 458.025,285.211 456.877,286.065 C455.729,286.919 454.286,287.331 452.549,287.331 C450.253,287.331 448.487,286.624 447.191,285.241 C445.896,283.828 445.248,281.914 445.248,279.471 C445.248,277.057 445.867,275.114 447.133,273.612 C448.369,272.14 450.135,271.375 452.402,271.375 C453.521,271.375 454.581,271.61 455.611,272.111 C456.641,272.611 457.525,273.436 458.26,274.613 C458.967,275.791 459.32,277.586 459.32,280.001 L459.32,280.001 Z M456.671,277.881 C456.553,276.321 456.082,275.202 455.228,274.525 C454.374,273.848 453.433,273.495 452.402,273.495 C451.195,273.495 450.194,273.907 449.399,274.702 C448.634,275.526 448.163,276.586 448.045,277.881 L456.671,277.881 L456.671,277.881 Z M474.923,281.708 C474.599,283.651 473.834,285.064 472.627,285.977 C471.42,286.889 470.065,287.331 468.564,287.331 C466.356,287.331 464.649,286.595 463.442,285.152 C462.235,283.71 461.616,281.767 461.616,279.382 C461.616,277.41 461.97,275.82 462.676,274.613 C463.354,273.436 464.237,272.582 465.267,272.111 C466.327,271.61 467.416,271.375 468.564,271.375 C470.124,271.375 471.478,271.787 472.597,272.611 C473.716,273.406 474.393,274.613 474.658,276.203 L472.156,276.586 C471.891,275.555 471.478,274.79 470.89,274.26 C470.33,273.759 469.565,273.495 468.682,273.495 C467.239,273.495 466.121,273.995 465.385,275.025 C464.649,276.056 464.266,277.498 464.266,279.324 C464.266,281.208 464.619,282.65 465.355,283.68 C466.091,284.711 467.151,285.211 468.535,285.211 C469.654,285.211 470.507,284.887 471.155,284.24 C471.802,283.622 472.185,282.65 472.362,281.384 L474.923,281.708 L474.923,281.708 Z M489.613,286.978 L487.022,286.978 L487.022,277.351 C487.022,276.085 486.757,275.172 486.227,274.555 C485.668,273.907 484.873,273.612 483.813,273.612 C482.754,273.612 481.812,273.965 480.987,274.702 C480.163,275.438 479.751,276.762 479.751,278.646 L479.751,286.978 L477.16,286.978 L477.16,265.899 L479.751,265.899 L479.751,273.465 C480.987,272.082 482.518,271.375 484.344,271.375 C485.344,271.375 486.286,271.581 487.17,271.993 C488.082,272.376 488.7,272.994 489.083,273.848 C489.436,274.672 489.613,275.82 489.613,277.322 L489.613,286.978 L489.613,286.978 Z M506.776,280.001 L495.354,280.001 C495.471,281.679 495.942,282.974 496.796,283.857 C497.65,284.77 498.739,285.211 500.005,285.211 C501.006,285.211 501.83,284.946 502.507,284.417 C503.155,283.916 503.685,283.121 504.038,282.061 L506.688,282.385 C506.275,283.975 505.481,285.211 504.333,286.065 C503.184,286.919 501.742,287.331 500.005,287.331 C497.709,287.331 495.942,286.624 494.647,285.241 C493.352,283.828 492.704,281.914 492.704,279.471 C492.704,277.057 493.322,275.114 494.588,273.612 C495.825,272.14 497.591,271.375 499.858,271.375 C500.976,271.375 502.036,271.61 503.067,272.111 C504.097,272.611 504.98,273.436 505.716,274.613 C506.423,275.791 506.776,277.586 506.776,280.001 L506.776,280.001 Z M504.126,277.881 C504.009,276.321 503.538,275.202 502.684,274.525 C501.83,273.848 500.888,273.495 499.858,273.495 C498.651,273.495 497.65,273.907 496.855,274.702 C496.09,275.526 495.619,276.586 495.501,277.881 L504.126,277.881 L504.126,277.881 Z" id="Fill-13" fill="#FFFFFF"></path>
        </g>
    </g>
</svg>