<?xml version="1.0" encoding="UTF-8" standalone="no"?>
<svg width="16px" height="15px" viewBox="0 0 16 15" version="1.1" xmlns="http://www.w3.org/2000/svg" xmlns:xlink="http://www.w3.org/1999/xlink" xmlns:sketch="http://www.bohemiancoding.com/sketch/ns">
    <!-- Generator: Sketch 3.5.2 (25235) - http://www.bohemiancoding.com/sketch -->
    <title>offer</title>
    <desc>Created with Sketch.</desc>
    <defs></defs>
    <g id="Page-1" stroke="none" stroke-width="1" fill="none" fill-rule="evenodd" sketch:type="MSPage">
        <g id="Dashboard" sketch:type="MSArtboardGroup" transform="translate(-110.000000, -344.000000)" fill="#27383F">
            <g id="offer" sketch:type="MSLayerGroup" transform="translate(110.000000, 344.000000)">
                <g id="Group" sketch:type="MSShapeGroup">
                    <path d="M1.49071609,6.26851094 L0.028982195,11.724098 C-0.0921029263,12.1776782 0.176915853,12.644416 0.631207314,12.7667458 L3.43341218,13.517438 L1.49071609,6.26851094 L1.49071609,6.26851094 Z" id="Shape"></path>
                    <path d="M3.10447315,7.90484923 L4.71858583,13.9292341 C4.84091558,14.3831699 5.30729778,14.6527221 5.76123363,14.5314592 L8.89219971,13.6920424 L3.10447315,7.90484923 L3.10447315,7.90484923 Z" id="Shape"></path>
                    <path d="M7.93756532,6.50908094 C7.88813557,6.42248997 7.82643728,6.3433668 7.75211484,6.27188924 L7.50692191,6.03540875 C7.43277728,5.96375338 7.35080923,5.90543338 7.26155118,5.86009314 C7.17211533,5.8147529 7.08090143,5.78737095 6.98790948,5.77759168 C6.89509533,5.76799021 6.80139216,5.77990314 6.70733338,5.81404168 C6.61309679,5.84800241 6.52508338,5.90756704 6.44329314,5.99237997 C6.35919143,6.07932655 6.30264948,6.17000704 6.27313387,6.26442143 C6.24344046,6.35865802 6.23526143,6.45218338 6.24841899,6.54464192 C6.26157655,6.63727826 6.2923368,6.72742533 6.34105533,6.81508314 C6.38941826,6.90274094 6.45076094,6.98239752 6.52508338,7.05405289 L6.77027631,7.29053338 C6.84442094,7.36201094 6.92567777,7.41997533 7.01404679,7.46424874 C7.10241582,7.50852216 7.19362972,7.53501508 7.28733289,7.54372752 C7.38139167,7.55243996 7.47562825,7.53981581 7.56986484,7.50585508 C7.66392362,7.47171655 7.75300386,7.41126289 7.83692776,7.3243163 C7.91889581,7.23950338 7.97437093,7.14988972 8.00388654,7.05547533 C8.03357996,6.96106094 8.0422924,6.86824679 8.03020167,6.77667728 C8.01811093,6.68492997 7.98717289,6.59567192 7.93756532,6.50908094 L7.93756532,6.50908094 Z" id="Shape"></path>
                    <path d="M15.7529787,6.90878631 L8.86446215,0.020269756 L3.98033998,0.0195585365 C3.35339998,0.0195585365 2.84470023,0.528080485 2.84470023,1.15519829 L2.84452242,6.04003168 L9.73321678,12.928726 C10.0660675,13.261399 10.6044607,13.261399 10.9373114,12.928726 L15.7528009,8.11270313 C16.0856516,7.77967459 16.0856516,7.24145923 15.7529787,6.90878631 L15.7529787,6.90878631 Z M5.38393168,2.55950121 C5.05143656,2.89235194 4.51233217,2.89235194 4.17983705,2.55950121 C3.84769754,2.22700609 3.84734193,1.68843511 4.17983705,1.35593999 C4.51233217,1.02326707 5.05161436,1.02326707 5.38393168,1.35576219 C5.7166046,1.6879017 5.7166046,2.22682828 5.38393168,2.55950121 L5.38393168,2.55950121 Z M8.52289898,7.22385655 C8.46120069,7.3897485 8.35985191,7.54568338 8.21885264,7.69219459 C8.07554191,7.84066167 7.92174069,7.94930045 7.75727118,8.01793313 C7.59262386,8.08674362 7.42762094,8.12088215 7.26190679,8.12088215 C7.09619265,8.12088215 6.93456801,8.08674362 6.77703289,8.01882215 C6.61931997,7.95072289 6.47583143,7.85435264 6.34638948,7.72971142 L6.10119655,7.49323094 C5.96997655,7.36645606 5.86720534,7.22545679 5.79359412,7.07041094 C5.7199829,6.91536509 5.67873217,6.7553407 5.67055314,6.58944875 C5.66237412,6.42391241 5.68957826,6.25766485 5.75216558,6.09088387 C5.81510851,5.9241029 5.9168129,5.7674568 6.05798997,5.62094558 C6.2013007,5.47247851 6.35527972,5.36383973 6.51957143,5.29520705 C6.68404094,5.22657436 6.84868826,5.19385827 7.01333557,5.19705875 C7.17798289,5.20025924 7.33925191,5.23599802 7.49696484,5.30391948 C7.65449996,5.37201875 7.79905533,5.46945583 7.93045313,5.5962307 L8.17546825,5.83271119 C8.3049102,5.95735241 8.407148,6.09692924 8.48200386,6.25073046 C8.55668191,6.40470948 8.59739922,6.56384484 8.60468922,6.72849216 C8.61162361,6.89278387 8.58424166,7.0579646 8.52289898,7.22385655 L8.52289898,7.22385655 Z M10.0114814,9.80753922 L8.57126191,4.05235095 L9.10378751,3.92077535 L10.5438292,9.67596361 L10.0114814,9.80753922 L10.0114814,9.80753922 Z M13.3115399,7.48682996 C13.2498416,7.65272191 13.1486707,7.80883459 13.0074936,7.95516801 C12.8641829,8.10363508 12.7103816,8.21227386 12.5457343,8.28090654 C12.3814426,8.34953922 12.2162619,8.38403337 12.0507255,8.38385557 C11.8848336,8.38385557 11.7230312,8.34971703 11.565496,8.28161776 C11.4079609,8.21351849 11.2634056,8.11625923 11.1318299,7.98912874 L10.8836143,7.74980337 C10.7541724,7.62498435 10.6521124,7.4846963 10.5772565,7.32858362 C10.5025785,7.17264874 10.4616834,7.01226874 10.4543934,6.84762143 C10.4472812,6.68315192 10.4750187,6.51743777 10.537606,6.35047899 C10.6003712,6.18369802 10.7022534,6.02705192 10.8434304,5.88071851 C10.9865634,5.73225143 11.1405424,5.62343485 11.3050119,5.55480217 C11.4694814,5.48616948 11.6341287,5.45238656 11.7985982,5.45363119 C11.9632455,5.45487583 12.125048,5.48990339 12.2836499,5.55889168 C12.4424297,5.62787997 12.5864516,5.72496143 12.7158936,5.84960265 L12.9641092,6.08892802 C13.0956848,6.2158807 13.1981004,6.35670216 13.2718894,6.51174801 C13.3455007,6.66679387 13.3860402,6.82664045 13.3931524,6.99110996 C13.4004424,7.15593508 13.3732382,7.32093801 13.3115399,7.48682996 L13.3115399,7.48682996 Z" id="Shape"></path>
                    <path d="M12.7233614,6.76903167 C12.6739316,6.6824407 12.6118777,6.60331753 12.5375553,6.53166216 L12.2893397,6.2923368 C12.2151951,6.22068143 12.1334048,6.16236143 12.043969,6.11702119 C11.9545331,6.07185875 11.8638526,6.04483241 11.7719275,6.03594216 C11.6801802,6.02705192 11.5870104,6.03985387 11.4929516,6.0738146 C11.3987151,6.10777533 11.3107016,6.16733997 11.2289114,6.25215289 C11.1469434,6.33696582 11.0914682,6.42657948 11.0617748,6.52099387 C11.032437,6.61523045 11.0231912,6.70875582 11.0342151,6.80121435 C11.045239,6.8938507 11.0749324,6.98399777 11.1236509,7.07165557 C11.171836,7.15949118 11.2333565,7.23896996 11.307679,7.31062533 L11.5558946,7.54995069 C11.630217,7.62160606 11.7118295,7.67992606 11.8012653,7.7252663 C11.8907012,7.77060654 11.9826263,7.79763289 12.0765073,7.80634533 C12.1702104,7.81505776 12.264447,7.80243362 12.3586836,7.76847289 C12.4529202,7.73433435 12.5418226,7.67388069 12.6259243,7.5867563 C12.7077146,7.50194338 12.7631897,7.41232972 12.7928831,7.31809313 C12.8223987,7.22367874 12.8307555,7.13033118 12.8177758,7.03787265 C12.8042626,6.94541411 12.7727912,6.85580045 12.7233614,6.76903167 L12.7233614,6.76903167 Z" id="Shape"></path>
                </g>
            </g>
        </g>
    </g>
</svg>