<svg id="Capa_1" data-name="Capa 1" xmlns="http://www.w3.org/2000/svg" viewBox="0 0 93.68 92.54"><defs><style>.cls-1,.cls-6{fill:#c0d24c;}.cls-2{fill:#fff;}.cls-3{fill:#a9abae;}.cls-4{fill:#7b7f2a;}.cls-5{fill:#aab541;}.cls-6{stroke:#fff;stroke-miterlimit:10;stroke-width:0.25px;}</style></defs><title>iconos terminados</title><path class="cls-1" d="M25.21,78.62c4.88,0.43,9.15-.12,12.17-3.91a81.93,81.93,0,0,0,4.7-7.34c2-3.19,3.77-6.63,6.19-9.5,4.25-5,10.07-7.25,16.55-7.87a36.61,36.61,0,0,1,21.37,4.19,40.6,40.6,0,0,1,4,2.83,47.7,47.7,0,0,0-4.86,1.59c-3.93,1.77-6.47,5.08-9,8.37-2.68,3.44-5.26,7-8.16,10.24-5.49,6.16-12.7,8-20.64,7.41a62.41,62.41,0,0,1-6.76-1.17,5.65,5.65,0,0,1-.94-0.38c2.36-.47,4.57-0.86,6.76-1.34A30.67,30.67,0,0,0,63.7,71.38c2-2.31,4-4.57,6-6.86a27.22,27.22,0,0,1,9.48-7.28l-0.14-.32C78,57.27,76.9,57.54,75.88,58a25.2,25.2,0,0,0-7.9,5.7c-1.64,1.67-3.34,3.28-4.89,5-5.24,5.92-12,9-19.59,10.46a68.82,68.82,0,0,1-17.93.7C24.79,79.82,24,79.73,24,78.69"/><rect class="cls-2" x="15.97" y="22.92" width="63.69" height="43.08"/><path class="cls-3" d="M47.14,0l3.19,0.15c0.52,0,1.1,0,1.74.11l2.07,0.31C54.89,0.7,55.7.78,56.55,1l2.68,0.68A45.4,45.4,0,0,1,72,7.32,47.16,47.16,0,0,1,85.08,20,46.87,46.87,0,0,1,92.8,40.1C93,41.05,93,42,93,43l0.1,1.48,0,0.74c0,0.32,0,.51,0,0.77a47.51,47.51,0,0,1-3.67,18.07L88.14,67c-0.46,1-1.07,1.87-1.6,2.82l-0.83,1.41c-0.31.45-.63,0.89-1,1.33-0.65.88-1.26,1.8-2,2.64a49.57,49.57,0,0,1-9.85,9A48.2,48.2,0,0,1,60.7,90l-3.32.87-0.83.21-0.85.13-1.7.27a23.86,23.86,0,0,1-3.41.39l-3.51.18A51.42,51.42,0,0,1,33.59,90a48.25,48.25,0,0,1-12.25-5.86,49.84,49.84,0,0,1-9.86-9c-0.7-.85-1.31-1.77-2-2.65-0.32-.44-0.65-0.88-1-1.33L7.74,69.81C7.21,68.86,6.6,68,6.14,67L4.79,64.07A45.11,45.11,0,0,1,1.53,52a45.09,45.09,0,0,1-.41-6c0-.27,0-0.46,0-0.78l0-.73L1.24,43c0.09-1,.08-1.92.24-2.89A46.83,46.83,0,0,1,9.2,19.95,47.19,47.19,0,0,1,22.27,7.32,45.42,45.42,0,0,1,35.06,1.64L37.74,1c0.85-.18,1.66-0.26,2.4-0.39l2.07-.31C42.85,0.17,43.43.19,44,.15Zm0,0L44,0.17c-0.52,0-1.1,0-1.74.12l-2.07.32C39.4,0.75,38.59.83,37.75,1l-2.67.7A42.72,42.72,0,0,0,22.4,7.52,44.8,44.8,0,0,0,9.76,20.32,45.9,45.9,0,0,0,2.83,40.22c-0.13.92-.09,1.91-0.15,2.87L2.62,44.54l0,0.73,0,0.68a43.45,43.45,0,0,0,.58,5.81A43.21,43.21,0,0,0,6.71,63.22L8.08,66c0.47,0.91,1.08,1.75,1.61,2.63l0.82,1.31c0.3,0.42.63,0.82,0.95,1.23,0.65,0.81,1.24,1.67,1.93,2.45a48,48,0,0,0,9.47,8.3,48.9,48.9,0,0,0,11.57,5.37A48.51,48.51,0,0,0,47.22,89.1l3.15-.16a21.63,21.63,0,0,0,3.2-.35l1.59-.24,0.8-.12,0.78-.2,3.12-.79c1-.3,2-0.71,3-1.06,0.5-.19,1-0.35,1.5-0.56l1.44-.69,1.45-.68a10.15,10.15,0,0,0,1.41-.74l2.74-1.63a48.32,48.32,0,0,0,9.47-8.3c0.69-.78,1.29-1.64,1.93-2.45,0.31-.41.64-0.82,0.95-1.23l0.82-1.31c0.53-.88,1.14-1.72,1.61-2.63l1.37-2.74a43.29,43.29,0,0,0,3.48-11.44,43.35,43.35,0,0,0,.59-5.86c0-.23,0-0.53,0-0.69l0-.72,0-1.43c-0.06-1,0-1.91-.15-2.84a45.88,45.88,0,0,0-6.94-19.93A44.83,44.83,0,0,0,71.89,7.52,42.75,42.75,0,0,0,59.21,1.71L56.54,1c-0.84-.19-1.65-0.27-2.4-0.4L52.07,0.3C51.44,0.2,50.85.21,50.34,0.17Z"/><path class="cls-4" d="M54.47,44.15c3.77,0,7.54,0,11.31,0a0.9,0.9,0,0,1,1,1c0,0.9,0,1.81,0,2.71a0.81,0.81,0,0,1-.88.92c-0.6,0-.6,0-0.73.59Q64,54.24,62.93,59.12a2.28,2.28,0,0,1-2.28,1.82H50.45c-2.44,0-4.88,0-7.31,0a2.44,2.44,0,0,1-2.39-1.9c-0.73-3.29-1.5-6.58-2.24-9.87a0.4,0.4,0,0,0-.5-0.41,1,1,0,0,1-1.07-.55V44.67a1.18,1.18,0,0,1,1.17-.52c3.48,0,7,0,10.43,0,0,0.21,0,.43,0,0.64a2.91,2.91,0,0,0,1.58,2.68,3,3,0,0,0,4.14-1.54A5.21,5.21,0,0,0,54.47,44.15ZM42.25,48.77h-0.9c-0.12,0-.18,0-0.15.17,0.12,0.49.23,1,.34,1.47a0.16,0.16,0,0,0,.18.14h1.68c0.11,0,.15,0,0.13-0.15-0.08-.48-0.15-1-0.22-1.43a0.19,0.19,0,0,0-.23-0.19C42.81,48.78,42.53,48.77,42.25,48.77Zm19.24,0c-0.28,0-.56,0-0.84,0a0.21,0.21,0,0,0-.26.22c-0.06.46-.13,0.92-0.21,1.38,0,0.15,0,.18.16,0.18H62a0.2,0.2,0,0,0,.22-0.2c0.1-.46.2-0.93,0.32-1.38,0-.18,0-0.2-0.17-0.19H61.49Zm-11.59,0c-0.27,0-.54,0-0.82,0s-0.22.05-.2,0.22c0,0.46.09,0.93,0.12,1.39a0.15,0.15,0,0,0,.18.17h1.57a0.14,0.14,0,0,0,.17-0.17c0-.48,0-1,0-1.43a0.15,0.15,0,0,0-.19-0.18H49.9Zm3.91,0H53c-0.11,0-.18,0-0.18.16,0,0.49,0,1,0,1.46a0.13,0.13,0,0,0,.15.16h1.63a0.13,0.13,0,0,0,.15-0.14c0-.48.08-1,0.13-1.45,0-.14,0-0.19-0.18-0.18H53.81ZM43,52.48c-0.25,0-.5,0-0.76,0s-0.2.06-.16,0.21c0.12,0.51.24,1,.35,1.53a0.16,0.16,0,0,0,.18.14H44c0.13,0,.14-0.06.12-0.16Q44,53.43,43.9,52.67a0.18,0.18,0,0,0-.22-0.19C43.45,52.49,43.21,52.48,43,52.48Zm17.79,0c-0.24,0-.49,0-0.73,0a0.2,0.2,0,0,0-.24.21q-0.11.75-.24,1.49c0,0.12,0,.18.14,0.18h1.4a0.17,0.17,0,0,0,.2-0.15c0.11-.5.23-1,0.34-1.5,0-.16,0-0.23-0.18-0.22S61,52.48,60.77,52.48ZM46.1,48.77H45.35a0.16,0.16,0,0,0-.19.21,11.24,11.24,0,0,1,.25,1.36,0.19,0.19,0,0,0,.22.2c0.44,0,.89,0,1.34,0,0.16,0,.2-0.06.18-0.21,0-.31-0.05-0.62-0.08-0.93,0-.64,0-0.64-0.7-0.64H46.1Zm11.32,1.77h0.67a0.16,0.16,0,0,0,.2-0.15c0.07-.48.14-1,0.21-1.44,0-.14,0-0.19-0.16-0.19H56.88c-0.1,0-.18,0-0.19.15q-0.05.71-.12,1.42c0,0.15,0,.21.19,0.2h0.67Zm-6.52,2.87h0c0-.24,0-0.49,0-0.73s0-.21-0.19-0.21c-0.45,0-.89,0-1.34,0-0.15,0-.2,0-0.19.2,0,0.35.05,0.7,0.09,1,0.06,0.63.06,0.63,0.69,0.62a1.32,1.32,0,0,0,.89-0.06A1.68,1.68,0,0,0,50.91,53.42Zm1.88,0c0,0.28,0,.52,0,0.75s0,0.25.22,0.24c0.38,0,.76,0,1.13,0,0.18,0,.23-0.06.23-0.23,0-.34.06-0.68,0.09-1,0.07-.63.07-0.63-0.57-0.63H53.72a1.68,1.68,0,0,0-.87.05A1.36,1.36,0,0,0,52.78,53.37Zm4.44-.89H56.54a0.15,0.15,0,0,0-.19.16q-0.06.75-.13,1.51c0,0.14,0,.21.18,0.21h1.11a0.15,0.15,0,0,0,.19-0.16c0-.31.1-0.61,0.15-0.92a1.34,1.34,0,0,0,.08-0.73A1,1,0,0,0,57.22,52.48Zm-10.62,0H45.92c-0.12,0-.17,0-0.15.16q0.14,0.77.24,1.55a0.15,0.15,0,0,0,.19.16h1.11c0.17,0,.19-0.07.18-0.21,0-.3,0-0.6-0.08-0.9a1.2,1.2,0,0,0-.11-0.72A1.26,1.26,0,0,0,46.6,52.48Zm-2.91,3.85v0H43.11c-0.15,0-.21,0-0.17.2,0.12,0.49.23,1,.34,1.47a0.17,0.17,0,0,0,.2.14c0.36,0,.72,0,1.07,0,0.19,0,.2-0.08.18-0.23s-0.09-.55-0.14-0.83a1.12,1.12,0,0,0-.16-0.71A1.55,1.55,0,0,0,43.69,56.33Zm16.4,0H59.4a0.17,0.17,0,0,0-.2.18q-0.06.47-.14,0.95c-0.12.68-.12,0.69,0.56,0.68a1.56,1.56,0,0,0,.74,0,1.19,1.19,0,0,0,.21-0.69c0-.1.05-0.21,0.08-0.31a1.29,1.29,0,0,0,.11-0.69A1,1,0,0,0,60.09,56.31Zm-9.16.91c0-.24,0-0.48,0-0.73s0-.2-0.17-0.19h-1c-0.12,0-.17,0-0.16.16,0.05,0.49.1,1,.14,1.47a0.15,0.15,0,0,0,.17.17h0.9A0.14,0.14,0,0,0,50.93,58C50.92,57.71,50.92,57.47,50.92,57.23Zm1.86,0c0,0.24,0,.48,0,0.73a0.16,0.16,0,0,0,.2.2h0.84a0.16,0.16,0,0,0,.2-0.17q0.05-.74.14-1.47c0-.14,0-0.16-0.16-0.16H53c-0.15,0-.17.07-0.17,0.19S52.78,57,52.78,57.2Zm-5.57.92a2.84,2.84,0,0,1,.35,0c0.22,0,.29,0,0.26-0.27-0.06-.44-0.09-0.89-0.12-1.33a0.19,0.19,0,0,0-.23-0.21c-0.31,0-.62,0-0.93,0s-0.2.06-.17,0.21q0.09,0.5.16,1C46.63,58.12,46.63,58.12,47.22,58.12Zm9.48-1.81H56.2a0.16,0.16,0,0,0-.2.18q-0.06.72-.13,1.45a0.14,0.14,0,0,0,.17.19h0.84a0.18,0.18,0,0,0,.21-0.2c0-.32.1-0.63,0.15-0.94C57.37,56.31,57.37,56.31,56.7,56.31Z"/><path class="cls-5" d="M54.47,44.15a5.21,5.21,0,0,1-.22,1.78,3,3,0,0,1-4.14,1.54,2.91,2.91,0,0,1-1.58-2.68c0-.21,0-0.43,0-0.64a1.36,1.36,0,0,1,0-.65,0.81,0.81,0,0,1,.61,0c0.22,0,.17-0.13.17-0.25q0-2,0-4,0-3.5,0-7a0.81,0.81,0,0,1,.93-0.94H52.7a0.81,0.81,0,0,1,.93.94q0,5.44,0,10.87c0,0.26.05,0.35,0.33,0.33,0.5,0,.5,0,0.5.49C54.46,44,54.47,44.08,54.47,44.15Z"/><path class="cls-4" d="M18.27,65.2V27c0.6-2.12,2-3.22,4.73-3.21q27.27,0,54.54,0a6.19,6.19,0,0,1,1.81.31A4,4,0,0,1,81.91,27V65.2c-0.18.43-.33,0.89-0.56,1.3a3.68,3.68,0,0,1-3.58,1.88c-6.42,0-12.84,0-19.26,0h-0.8v5.16c1.31,0,2.57,0,3.83,0A1.71,1.71,0,0,1,61.68,77a4.9,4.9,0,0,1-.62,0h-22a4.11,4.11,0,0,1-.8-0.06,1.64,1.64,0,0,1-1.36-1.68,1.69,1.69,0,0,1,1.82-1.7c1.24,0,2.47,0,3.72,0V68.37H23.14l-1.3,0a3.36,3.36,0,0,1-3-1.8A11.19,11.19,0,0,1,18.27,65.2ZM78.44,27.33H21.7V28q0,18,0,36c0,0.86,0,.86.87,0.86h55c0.88,0,.88,0,0.88-0.9q0-18,0-36V27.33Z"/><path class="cls-6" d="M34.73,75.09c-1.74.15-3.26,0-4.34-1.39a29.19,29.19,0,0,1-1.68-2.62,30.71,30.71,0,0,0-2.21-3.38,8.39,8.39,0,0,0-5.9-2.8A13,13,0,0,0,13,66.38a14.46,14.46,0,0,0-1.43,1,17,17,0,0,1,1.73.57,9,9,0,0,1,3.22,3c1,1.23,1.87,2.49,2.91,3.65a8.45,8.45,0,0,0,7.35,2.64,22.23,22.23,0,0,0,2.41-.42,2,2,0,0,0,.34-0.14c-0.84-.17-1.63-0.31-2.41-0.48A10.93,10.93,0,0,1,21,72.51c-0.71-.82-1.43-1.63-2.15-2.45a9.7,9.7,0,0,0-3.38-2.59l0.05-.12c0.38,0.13.77,0.22,1.14,0.38a9,9,0,0,1,2.81,2c0.58,0.59,1.19,1.17,1.74,1.79a12,12,0,0,0,7,3.73,24.52,24.52,0,0,0,6.39.25c0.28,0,.55,0,0.57-0.42"/></svg>