<?xml version="1.0" encoding="UTF-8" standalone="no"?>
<svg width="11px" height="16px" viewBox="0 0 11 16" version="1.1" xmlns="http://www.w3.org/2000/svg" xmlns:xlink="http://www.w3.org/1999/xlink" xmlns:sketch="http://www.bohemiancoding.com/sketch/ns">
    <!-- Generator: Sketch 3.5.2 (25235) - http://www.bohemiancoding.com/sketch -->
    <title>order</title>
    <desc>Created with Sketch.</desc>
    <defs></defs>
    <g id="Page-1" stroke="none" stroke-width="1" fill="none" fill-rule="evenodd" sketch:type="MSPage">
        <g id="Dashboard" sketch:type="MSArtboardGroup" transform="translate(-131.000000, -343.000000)">
            <g id="order" sketch:type="MSLayerGroup" transform="translate(131.000000, 343.000000)">
                <g id="Group" sketch:type="MSShapeGroup">
                    <path d="M0.998574762,1.5670181 L3.9260781,1.5670181 C3.9260781,0.701511905 4.62740667,0 5.49309619,0 C6.35879095,0 7.06030286,0.701328571 7.06030286,1.5670181 L9.98761762,1.5670181 C10.5371357,1.5670181 10.9861924,2.01626438 10.9861924,2.56559286 L10.9861924,14.5510881 C10.9861924,15.1006062 10.5369461,15.5496629 9.98761762,15.5496629 L0.998574762,15.5496629 C0.449056667,15.5496629 -8.8817842e-16,15.1004166 -8.8817842e-16,14.5510881 L-8.8817842e-16,2.56559286 C-8.8817842e-16,2.01607476 0.449246286,1.5670181 0.998574762,1.5670181 L0.998574762,1.5670181 L0.998574762,1.5670181 Z" id="Shape" fill="#253A1B"></path>
                    <path d="M5.49308571,0.468737762 C6.09957857,0.468737762 6.59155619,0.960528381 6.59155619,1.56701967 C6.59155619,1.7675591 6.70363362,1.95535424 6.77747714,2.11653776 L6.81664799,2.11653776 C6.9463427,2.11653776 7.05729551,2.20012729 7.09890275,2.31632762 L8.43914275,2.31632762 C8.90619384,2.31632762 9.28797084,2.69829005 9.28797084,3.16533905 L9.28797084,3.16533905 L9.2752263,4.07301714 L1.71000249,4.06439581 L1.6978202,3.16533962 L1.6978202,3.16533962 C1.6978202,2.69828853 2.0795951,2.3163282 2.54664829,2.3163282 L3.887454,2.3163282 C3.9290613,2.20031486 4.04001405,2.11653834 4.16970877,2.11653834 L4.20887961,2.11653834 C4.28253561,1.95535691 4.39498809,1.76756177 4.39498809,1.56702024 C4.39498809,0.960715957 4.8867787,0.468738338 5.49326999,0.468738338 L5.49308257,0.468738338 L5.49308571,0.468737762 Z M5.49308571,1.0169411 C5.76896833,1.0169411 5.99256062,1.24053338 5.99256062,1.516416 C5.99256062,1.79229862 5.76896833,2.01570338 5.49308571,2.01570338 C5.2172031,2.01570338 4.99379833,1.79229862 4.99379833,1.516416 C4.99379833,1.24053338 5.2172031,1.0169411 5.49308571,1.0169411 L5.49308571,1.0169411 Z" id="Shape" fill="#FEFEFE"></path>
                    <path d="M1.52316476,5.68595238 L2.33300571,5.68595238 L2.33300571,6.23565381 L1.52316476,6.23565381 L1.52316476,5.68595238 L1.52316476,5.68595238 Z M3.08212667,5.68595238 L9.46286,5.68595238 L9.46286,6.23565381 L3.08212667,6.23565381 L3.08212667,5.68595238 L3.08212667,5.68595238 Z" id="Shape" fill="#FEFEFE"></path>
                    <path d="M1.52316476,8.09128571 L2.33300571,8.09128571 L2.33300571,8.64080381 L1.52316476,8.64080381 L1.52316476,8.09128571 L1.52316476,8.09128571 Z M3.08212667,8.09128571 L9.46286,8.09128571 L9.46286,8.64080381 L3.08212667,8.64080381 L3.08212667,8.09128571 L3.08212667,8.09128571 Z" id="Shape" fill="#FEFEFE"></path>
                    <path d="M1.52316476,10.4957286 L2.33300571,10.4957286 L2.33300571,11.0452467 L1.52316476,11.0452467 L1.52316476,10.4957286 L1.52316476,10.4957286 Z M3.08212667,10.4957286 L9.46286,10.4957286 L9.46286,11.0452467 L3.08212667,11.0452467 L3.08212667,10.4957286 L3.08212667,10.4957286 Z" id="Shape" fill="#FEFEFE"></path>
                    <path d="M1.52316476,12.9003286 L2.33300571,12.9003286 L2.33300571,13.4496581 L1.52316476,13.4496581 L1.52316476,12.9003286 L1.52316476,12.9003286 Z M3.08212667,12.9003286 L9.46286,12.9003286 L9.46286,13.4496581 L3.08212667,13.4496581 L3.08212667,12.9003286 L3.08212667,12.9003286 Z" id="Shape" fill="#FEFEFE"></path>
                </g>
            </g>
        </g>
    </g>
</svg>