<svg xmlns="http://www.w3.org/2000/svg" xmlns:xlink="http://www.w3.org/1999/xlink" viewBox="0 0 93.45 97.04"><defs><style>.cls-1{fill:none;}.cls-2{isolation:isolate;}.cls-3,.cls-5{fill:#c0d24c;}.cls-4{fill:#a9abae;}.cls-215,.cls-5{stroke:#fff;stroke-miterlimit:10;stroke-width:0.25px;}.cls-206,.cls-6{fill:#393939;}.cls-6{opacity:0.1;}.cls-215,.cls-6,.cls-7{mix-blend-mode:multiply;}.cls-222,.cls-8{fill:#fff;}.cls-8{opacity:0.42;}.cls-9{fill:#fefefe;opacity:0.42;}.cls-10{fill:#fdfdfd;opacity:0.43;}.cls-11{fill:#fcfcfc;opacity:0.43;}.cls-12{fill:#fbfbfb;opacity:0.43;}.cls-13{fill:#fafafa;opacity:0.43;}.cls-14{fill:#f9f9f9;opacity:0.44;}.cls-15{fill:#f8f8f8;opacity:0.44;}.cls-16{fill:#f7f7f7;opacity:0.44;}.cls-17{fill:#f6f6f6;opacity:0.45;}.cls-18{fill:#f5f5f5;opacity:0.45;}.cls-19{fill:#f4f4f4;opacity:0.45;}.cls-20{fill:#f3f3f3;opacity:0.46;}.cls-21{fill:#f2f2f2;opacity:0.46;}.cls-22{fill:#f1f1f1;opacity:0.46;}.cls-23{fill:#f0f0f0;opacity:0.46;}.cls-24{fill:#efefef;opacity:0.47;}.cls-25{fill:#eee;opacity:0.47;}.cls-26{fill:#ededed;opacity:0.47;}.cls-27{fill:#ececec;opacity:0.48;}.cls-28{fill:#ebebeb;opacity:0.48;}.cls-29{fill:#eaeaea;opacity:0.48;}.cls-30{fill:#e9e9e9;opacity:0.48;}.cls-31{fill:#e8e8e8;opacity:0.49;}.cls-32{fill:#e7e7e7;opacity:0.49;}.cls-33{fill:#e6e6e6;opacity:0.49;}.cls-34{fill:#e5e5e5;opacity:0.5;}.cls-220,.cls-35{fill:#e4e4e4;}.cls-35{opacity:0.5;}.cls-36{fill:#e3e3e3;opacity:0.5;}.cls-37{fill:#e2e2e2;opacity:0.5;}.cls-38{fill:#e1e1e1;opacity:0.51;}.cls-39{fill:#e0e0e0;opacity:0.51;}.cls-40{fill:#dfdfdf;opacity:0.51;}.cls-41{fill:#dedede;opacity:0.52;}.cls-42{fill:#ddd;opacity:0.52;}.cls-43{fill:#dcdcdc;opacity:0.52;}.cls-44{fill:#dbdbdb;opacity:0.53;}.cls-45{fill:#dadada;opacity:0.53;}.cls-46{fill:#d9d9d9;opacity:0.53;}.cls-47{fill:#d8d8d8;opacity:0.53;}.cls-48{fill:#d7d7d7;opacity:0.54;}.cls-49{fill:#d6d6d6;opacity:0.54;}.cls-50{fill:#d5d5d5;opacity:0.54;}.cls-51{fill:#d4d4d4;opacity:0.55;}.cls-52{fill:#d3d3d3;opacity:0.55;}.cls-53{fill:#d2d2d2;opacity:0.55;}.cls-54{fill:#d1d1d1;opacity:0.55;}.cls-55{fill:#d0d0d0;opacity:0.56;}.cls-56{fill:#cfcfcf;opacity:0.56;}.cls-57{fill:#cecece;opacity:0.56;}.cls-58{fill:#cdcdcd;opacity:0.57;}.cls-59{fill:#ccc;opacity:0.57;}.cls-60{fill:#cbcbcb;opacity:0.57;}.cls-61{fill:#cacaca;opacity:0.58;}.cls-62{fill:#c9c9c9;opacity:0.58;}.cls-63{fill:#c8c8c8;opacity:0.58;}.cls-64{fill:#c7c7c7;opacity:0.58;}.cls-216,.cls-65{fill:#c6c6c6;}.cls-65{opacity:0.59;}.cls-66{fill:#c5c5c5;opacity:0.59;}.cls-67{fill:#c4c4c4;opacity:0.59;}.cls-68{fill:#c3c3c3;opacity:0.6;}.cls-69{fill:#c2c2c2;opacity:0.6;}.cls-70{fill:#c1c1c1;opacity:0.6;}.cls-71{fill:silver;opacity:0.6;}.cls-72{fill:#bfbfbf;opacity:0.61;}.cls-73{fill:#bebebe;opacity:0.61;}.cls-74{fill:#bdbdbd;opacity:0.61;}.cls-75{fill:#bcbcbc;opacity:0.62;}.cls-76{fill:#bbb;opacity:0.62;}.cls-77{fill:#bababa;opacity:0.62;}.cls-78{fill:#b9b9b9;opacity:0.63;}.cls-79{fill:#b8b8b8;opacity:0.63;}.cls-80{fill:#b7b7b7;opacity:0.63;}.cls-81{fill:#b6b6b6;opacity:0.63;}.cls-82{fill:#b5b5b5;opacity:0.64;}.cls-83{fill:#b4b4b4;opacity:0.64;}.cls-84{fill:#b3b3b3;opacity:0.64;}.cls-85{fill:#b2b2b2;opacity:0.65;}.cls-86{fill:#b1b1b1;opacity:0.65;}.cls-87{fill:#b0b0b0;opacity:0.65;}.cls-88{fill:#afafaf;opacity:0.65;}.cls-89{fill:#aeaeae;opacity:0.66;}.cls-221,.cls-90{fill:#adadad;}.cls-90{opacity:0.66;}.cls-91{fill:#acacac;opacity:0.66;}.cls-92{fill:#ababab;opacity:0.67;}.cls-93{fill:#aaa;opacity:0.67;}.cls-94{fill:#a9a9a9;opacity:0.67;}.cls-95{fill:#a8a8a8;opacity:0.67;}.cls-96{fill:#a7a7a7;opacity:0.68;}.cls-97{fill:#a6a6a6;opacity:0.68;}.cls-98{fill:#a5a5a5;opacity:0.68;}.cls-99{fill:#a4a4a4;opacity:0.69;}.cls-100{fill:#a3a3a3;opacity:0.69;}.cls-101{fill:#a2a2a2;opacity:0.69;}.cls-102{fill:#a1a1a1;opacity:0.7;}.cls-103{fill:#a0a0a0;opacity:0.7;}.cls-104{fill:#9f9f9f;opacity:0.7;}.cls-105,.cls-207{fill:#9e9e9e;}.cls-105{opacity:0.7;}.cls-106{fill:#9d9d9d;opacity:0.71;}.cls-107{fill:#9c9c9c;opacity:0.71;}.cls-108{fill:#9b9b9b;opacity:0.71;}.cls-109{fill:#9a9a9a;opacity:0.72;}.cls-110{fill:#999;opacity:0.72;}.cls-111{fill:#989898;opacity:0.72;}.cls-112{fill:#979797;opacity:0.72;}.cls-113{fill:#969696;opacity:0.73;}.cls-114{fill:#959595;opacity:0.73;}.cls-115{fill:#949494;opacity:0.73;}.cls-116{fill:#939393;opacity:0.74;}.cls-117{fill:#929292;opacity:0.74;}.cls-118{fill:#919191;opacity:0.74;}.cls-119{fill:#909090;opacity:0.75;}.cls-120{fill:#8f8f8f;opacity:0.75;}.cls-121{fill:#8e8e8e;opacity:0.75;}.cls-122{fill:#8d8d8d;opacity:0.75;}.cls-123{fill:#8c8c8c;opacity:0.76;}.cls-124{fill:#8b8b8b;opacity:0.76;}.cls-125{fill:#8a8a8a;opacity:0.76;}.cls-126{fill:#898989;opacity:0.77;}.cls-127{fill:#888;opacity:0.77;}.cls-128{fill:#878787;opacity:0.77;}.cls-129{fill:#868686;opacity:0.77;}.cls-130{fill:#858585;opacity:0.78;}.cls-131{fill:#848484;opacity:0.78;}.cls-132{fill:#838383;opacity:0.78;}.cls-133{fill:#828282;opacity:0.79;}.cls-134{fill:#818181;opacity:0.79;}.cls-135{fill:gray;opacity:0.79;}.cls-136{fill:#7f7f7f;opacity:0.79;}.cls-137{fill:#7e7e7e;opacity:0.8;}.cls-138{fill:#7d7d7d;opacity:0.8;}.cls-139{fill:#7c7c7c;opacity:0.8;}.cls-140{fill:#7b7b7b;opacity:0.81;}.cls-141{fill:#7a7a7a;opacity:0.81;}.cls-142{fill:#797979;opacity:0.81;}.cls-143{fill:#787878;opacity:0.82;}.cls-144{fill:#777;opacity:0.82;}.cls-145{fill:#767676;opacity:0.82;}.cls-146{fill:#757575;opacity:0.82;}.cls-147{fill:#747474;opacity:0.83;}.cls-148{fill:#737373;opacity:0.83;}.cls-149{fill:#727272;opacity:0.83;}.cls-150{fill:#717171;opacity:0.84;}.cls-151{fill:#707070;opacity:0.84;}.cls-152{fill:#6f6f6f;opacity:0.84;}.cls-153{fill:#6e6e6e;opacity:0.84;}.cls-154{fill:#6d6d6d;opacity:0.85;}.cls-155{fill:#6c6c6c;opacity:0.85;}.cls-156{fill:#6b6b6b;opacity:0.85;}.cls-157{fill:#6a6a6a;opacity:0.86;}.cls-158{fill:#696969;opacity:0.86;}.cls-159{fill:#686868;opacity:0.86;}.cls-160{fill:#676767;opacity:0.87;}.cls-161{fill:#666;opacity:0.87;}.cls-162{fill:#656565;opacity:0.87;}.cls-163{fill:#646464;opacity:0.87;}.cls-164{fill:#636363;opacity:0.88;}.cls-165{fill:#626262;opacity:0.88;}.cls-166{fill:#616161;opacity:0.88;}.cls-167{fill:#606060;opacity:0.89;}.cls-168{fill:#5f5f5f;opacity:0.89;}.cls-169{fill:#5e5e5e;opacity:0.89;}.cls-170{fill:#5d5d5d;opacity:0.89;}.cls-171{fill:#5c5c5c;opacity:0.9;}.cls-172{fill:#5b5b5b;opacity:0.9;}.cls-173{fill:#5a5a5a;opacity:0.9;}.cls-174{fill:#595959;opacity:0.91;}.cls-175{fill:#585858;opacity:0.91;}.cls-176{fill:#575757;opacity:0.91;}.cls-177{fill:#565656;opacity:0.92;}.cls-178{fill:#555;opacity:0.92;}.cls-179{fill:#545454;opacity:0.92;}.cls-180{fill:#535353;opacity:0.92;}.cls-181{fill:#525252;opacity:0.93;}.cls-182{fill:#515151;opacity:0.93;}.cls-183{fill:#505050;opacity:0.93;}.cls-184{fill:#4f4f4f;opacity:0.94;}.cls-185{fill:#4e4e4e;opacity:0.94;}.cls-186{fill:#4d4d4d;opacity:0.94;}.cls-187{fill:#4c4c4c;opacity:0.94;}.cls-188{fill:#4b4b4b;opacity:0.95;}.cls-189{fill:#4a4a4a;opacity:0.95;}.cls-190{fill:#494949;opacity:0.95;}.cls-191{fill:#484848;opacity:0.96;}.cls-192{fill:#474747;opacity:0.96;}.cls-193{fill:#464646;opacity:0.96;}.cls-194{fill:#454545;opacity:0.96;}.cls-195{fill:#444;opacity:0.97;}.cls-196{fill:#434343;opacity:0.97;}.cls-197{fill:#424242;opacity:0.97;}.cls-198{fill:#414141;opacity:0.98;}.cls-199{fill:#404040;opacity:0.98;}.cls-200{fill:#3f3f3f;opacity:0.98;}.cls-201{fill:#3e3e3e;opacity:0.99;}.cls-202{fill:#3d3d3d;opacity:0.99;}.cls-203{fill:#3c3c3c;opacity:0.99;}.cls-204{fill:#3b3b3b;opacity:0.99;}.cls-205{fill:#3a3a3a;opacity:1;}.cls-208{fill:url(#Degradado_sin_nombre_111);}.cls-209{fill:url(#Degradado_sin_nombre_56);}.cls-210{fill:url(#Degradado_sin_nombre_58);}.cls-211{fill:url(#Degradado_sin_nombre_103);}.cls-212{fill:url(#Degradado_sin_nombre_131);}.cls-213{fill:url(#Degradado_sin_nombre_95);}.cls-214{fill:url(#Degradado_sin_nombre_109);}.cls-215{fill:#bed04c;}.cls-217{fill:#31240f;}.cls-218{fill:url(#radial-gradient);}.cls-219{fill:url(#radial-gradient-2);}.cls-223{clip-path:url(#clip-path);}.cls-224{fill:url(#linear-gradient);}.cls-225{fill:url(#linear-gradient-2);}.cls-226{fill:url(#linear-gradient-3);}.cls-227{fill:url(#linear-gradient-4);}.cls-228{fill:url(#linear-gradient-5);}.cls-229{fill:url(#linear-gradient-6);}</style><linearGradient id="Degradado_sin_nombre_111" x1="74.58" y1="42.11" x2="58.68" y2="42.71" gradientUnits="userSpaceOnUse"><stop offset="0" stop-color="silver"/><stop offset="0.21" stop-color="#cacaca"/><stop offset="0.64" stop-color="#d9d9d9"/><stop offset="1" stop-color="#dedede"/></linearGradient><linearGradient id="Degradado_sin_nombre_56" x1="67.66" y1="76.37" x2="59.89" y2="65.33" gradientUnits="userSpaceOnUse"><stop offset="0" stop-color="#bcbcbc"/><stop offset="1" stop-color="#e2e2e2"/></linearGradient><linearGradient id="Degradado_sin_nombre_58" x1="42.9" y1="36.64" x2="53.49" y2="88.86" gradientTransform="translate(-5.09 -26.12) rotate(1.13)" gradientUnits="userSpaceOnUse"><stop offset="0" stop-color="#fff"/><stop offset="0.5" stop-color="#f1f1f1"/><stop offset="1" stop-color="#e8e8e8"/></linearGradient><linearGradient id="Degradado_sin_nombre_103" x1="56.93" y1="48.04" x2="75.72" y2="41.29" gradientUnits="userSpaceOnUse"><stop offset="0" stop-color="#d4d4d4"/><stop offset="1" stop-color="#ababab"/></linearGradient><linearGradient id="Degradado_sin_nombre_131" x1="39.1" y1="81.57" x2="44.44" y2="57.3" gradientUnits="userSpaceOnUse"><stop offset="0.01" stop-color="#dadada"/><stop offset="1" stop-color="#e4e4e4"/></linearGradient><linearGradient id="Degradado_sin_nombre_95" x1="77.89" y1="94.32" x2="68.98" y2="84.83" gradientTransform="translate(-5.09 -26.12) rotate(1.13)" gradientUnits="userSpaceOnUse"><stop offset="0.01" stop-color="#dedede"/><stop offset="0.09" stop-color="#dbdbdb"/><stop offset="0.63" stop-color="#c7c7c7"/><stop offset="1" stop-color="silver"/></linearGradient><linearGradient id="Degradado_sin_nombre_109" x1="69.05" y1="99.69" x2="69.05" y2="88.2" gradientTransform="translate(-5.09 -26.12) rotate(1.13)" gradientUnits="userSpaceOnUse"><stop offset="0" stop-color="#d4d4d4"/><stop offset="0.99" stop-color="silver"/></linearGradient><radialGradient id="radial-gradient" cx="49.05" cy="17.62" r="1.11" gradientUnits="userSpaceOnUse"><stop offset="0.21"/><stop offset="0.32" stop-color="#030303"/><stop offset="0.4" stop-color="#0c0c0c"/><stop offset="0.47" stop-color="#1c1c1c"/><stop offset="0.54" stop-color="#323232"/><stop offset="0.6" stop-color="#4f4f4f"/><stop offset="0.66" stop-color="#727272"/><stop offset="0.71" stop-color="#9c9c9c"/><stop offset="0.77" stop-color="#ccc"/><stop offset="0.81" stop-color="#fff"/><stop offset="0.83" stop-color="#f5f5f5"/><stop offset="0.87" stop-color="#d9d9d9"/><stop offset="0.91" stop-color="#acacac"/><stop offset="0.96" stop-color="#6f6f6f"/><stop offset="1" stop-color="#393939"/></radialGradient><radialGradient id="radial-gradient-2" cx="35.24" cy="18.3" r="1.02" xlink:href="#radial-gradient"/><clipPath id="clip-path"><path class="cls-1" d="M24.05,41l0.35-3,0.13-3.14L9.66,28,2,38l8,12.58,6.27,2.34,22.17,6,30.48-3,9.37-3.72L80.06,40.3l-5-5-12.62-.55-0.33,8.54c2-.63-9,1.43-20,1A81.17,81.17,0,0,1,24.05,41Z"/></clipPath><linearGradient id="linear-gradient" x1="76.54" y1="-1283.54" x2="97" y2="-1283.54" gradientTransform="matrix(1, 0.07, 0.07, -1, 73.54, -1243.16)" gradientUnits="userSpaceOnUse"><stop offset="0" stop-color="#291e12"/><stop offset="0" stop-color="#3c2a18"/><stop offset="0" stop-color="#52371f"/><stop offset="0.01" stop-color="#624124"/><stop offset="0.01" stop-color="#6e4928"/><stop offset="0.02" stop-color="#754d2a"/><stop offset="0.03" stop-color="#774e2b"/><stop offset="0.29" stop-color="#f1e48d"/><stop offset="0.34" stop-color="#f2e68c"/><stop offset="0.45" stop-color="#a38043"/><stop offset="0.46" stop-color="#a48244"/><stop offset="0.52" stop-color="#c19f58"/><stop offset="0.57" stop-color="#d2b165"/><stop offset="0.61" stop-color="#d8b769"/><stop offset="0.65" stop-color="#cfad63"/><stop offset="0.72" stop-color="#b79454"/><stop offset="0.81" stop-color="#916a3c"/><stop offset="0.87" stop-color="#774e2b"/><stop offset="1" stop-color="#291e12"/></linearGradient><linearGradient id="linear-gradient-2" x1="44.43" y1="-1282.93" x2="23.14" y2="-1283.44" xlink:href="#linear-gradient"/><linearGradient id="linear-gradient-3" x1="58.38" y1="42.14" x2="65.67" y2="42.14" gradientTransform="matrix(1, 0, 0, 1, 0, 0)" xlink:href="#linear-gradient"/><linearGradient id="linear-gradient-4" x1="18.7" y1="39.67" x2="26.31" y2="39.67" gradientUnits="userSpaceOnUse"><stop offset="0" stop-color="#d8b769"/><stop offset="0.05" stop-color="#d8b769"/><stop offset="0.45" stop-color="#f0e289"/><stop offset="0.48" stop-color="#f2e68c"/><stop offset="0.53" stop-color="#ede088"/><stop offset="0.6" stop-color="#dfcf7c"/><stop offset="0.67" stop-color="#c8b368"/><stop offset="0.75" stop-color="#a88c4d"/><stop offset="0.84" stop-color="#805b2b"/><stop offset="0.85" stop-color="#8c6834"/><stop offset="0.88" stop-color="#ad894a"/><stop offset="0.92" stop-color="#dab86a"/><stop offset="0.98" stop-color="#774e2b"/><stop offset="1" stop-color="#291e12"/></linearGradient><linearGradient id="linear-gradient-5" x1="60.35" y1="-1292.68" x2="35.49" y2="-1287.16" gradientTransform="matrix(1, 0.07, 0.07, -1, 73.54, -1243.16)" xlink:href="#linear-gradient-4"/><linearGradient id="linear-gradient-6" x1="60.58" y1="-1293.07" x2="84.7" y2="-1286.63" gradientTransform="matrix(1, 0.07, 0.07, -1, 73.54, -1243.16)" xlink:href="#linear-gradient-4"/></defs><title>iconos terminados</title><g class="cls-2"><g id="Capa_1" data-name="Capa 1"><path class="cls-3" d="M25.21,82.83c4.88,0.43,9.15-.12,12.17-3.91a81.93,81.93,0,0,0,4.7-7.34c2-3.19,3.77-6.63,6.19-9.5,4.25-5,10.07-7.25,16.55-7.87a36.61,36.61,0,0,1,21.37,4.19,40.6,40.6,0,0,1,4,2.83,47.7,47.7,0,0,0-4.86,1.59c-3.93,1.77-6.47,5.08-9,8.37-2.68,3.44-5.26,7-8.16,10.24-5.49,6.16-12.7,8-20.64,7.41a62.41,62.41,0,0,1-6.76-1.17,5.65,5.65,0,0,1-.94-0.38c2.36-.47,4.57-0.86,6.76-1.34A30.67,30.67,0,0,0,63.7,75.59c2-2.31,4-4.57,6-6.86a27.22,27.22,0,0,1,9.48-7.28l-0.14-.32c-1.07.35-2.16,0.63-3.19,1.07a25.2,25.2,0,0,0-7.9,5.7c-1.64,1.67-3.34,3.28-4.89,5-5.24,5.92-12,9-19.59,10.46a68.82,68.82,0,0,1-17.93.7C24.79,84,24,83.94,24,82.9"/><path class="cls-4" d="M47.14,4.21l3.19,0.15c0.52,0,1.1,0,1.74.11l2.07,0.31c0.75,0.12,1.56.2,2.4,0.39l2.68,0.68A45.4,45.4,0,0,1,72,11.53,47.16,47.16,0,0,1,85.08,24.16,46.87,46.87,0,0,1,92.8,44.3c0.17,1,.16,1.94.24,2.92l0.1,1.48,0,0.74c0,0.32,0,.51,0,0.77a47.51,47.51,0,0,1-3.67,18.07l-1.35,2.92c-0.46,1-1.07,1.87-1.6,2.82l-0.83,1.41c-0.31.45-.63,0.89-1,1.33-0.65.88-1.26,1.8-2,2.64a49.57,49.57,0,0,1-9.85,9A48.2,48.2,0,0,1,60.7,94.25l-3.32.87-0.83.21-0.85.13-1.7.27a23.86,23.86,0,0,1-3.41.39l-3.51.18a51.42,51.42,0,0,1-13.48-2.05,48.25,48.25,0,0,1-12.25-5.86,49.84,49.84,0,0,1-9.86-9c-0.7-.85-1.31-1.77-2-2.65-0.32-.44-0.65-0.88-1-1.33L7.74,74c-0.53-.95-1.14-1.85-1.6-2.82L4.79,68.28a47.54,47.54,0,0,1-3.67-18.1c0-.27,0-0.46,0-0.78l0-.73,0.1-1.45c0.09-1,.08-1.92.24-2.89A46.83,46.83,0,0,1,9.2,24.16,47.19,47.19,0,0,1,22.27,11.53,45.42,45.42,0,0,1,35.06,5.85l2.68-.68c0.85-.18,1.66-0.26,2.4-0.39l2.07-.31C42.85,4.38,43.43,4.4,44,4.36Zm0,0L44,4.38c-0.52,0-1.1,0-1.74.12l-2.07.32C39.4,5,38.59,5,37.75,5.23l-2.67.7A42.72,42.72,0,0,0,22.4,11.73,44.8,44.8,0,0,0,9.76,24.53,45.9,45.9,0,0,0,2.83,44.42c-0.13.92-.09,1.91-0.15,2.87L2.62,48.75l0,0.73,0,0.68A43.45,43.45,0,0,0,3.23,56,43.21,43.21,0,0,0,6.71,67.43l1.37,2.74c0.47,0.91,1.08,1.75,1.61,2.63l0.82,1.31c0.3,0.42.63,0.82,0.95,1.23,0.65,0.81,1.24,1.67,1.93,2.45a48,48,0,0,0,9.47,8.3,48.9,48.9,0,0,0,11.57,5.37,48.51,48.51,0,0,0,12.79,1.85l3.15-.16a21.63,21.63,0,0,0,3.2-.35l1.59-.24,0.8-.12,0.78-.2,3.12-.79c1-.3,2-0.71,3-1.06,0.5-.19,1-0.35,1.5-0.56l1.44-.69,1.45-.68a10.15,10.15,0,0,0,1.41-.74l2.74-1.63a48.32,48.32,0,0,0,9.47-8.3c0.69-.78,1.29-1.64,1.93-2.45,0.31-.41.64-0.82,0.95-1.23l0.82-1.31c0.53-.88,1.14-1.72,1.61-2.63l1.37-2.74a45.72,45.72,0,0,0,4.07-17.3c0-.23,0-0.53,0-0.69l0-.72,0-1.43c-0.06-1,0-1.91-.15-2.84a45.88,45.88,0,0,0-6.94-19.93,44.83,44.83,0,0,0-12.65-12.8A42.75,42.75,0,0,0,59.21,5.92l-2.67-.7C55.69,5,54.89,5,54.14,4.83L52.07,4.5c-0.63-.09-1.22-0.08-1.74-0.12Z"/><path class="cls-5" d="M34.73,79.3c-1.74.15-3.26,0-4.34-1.39a29.19,29.19,0,0,1-1.68-2.62,30.71,30.71,0,0,0-2.21-3.38,8.39,8.39,0,0,0-5.9-2.8A13,13,0,0,0,13,70.59a14.46,14.46,0,0,0-1.43,1,17,17,0,0,1,1.73.57,9,9,0,0,1,3.22,3c1,1.23,1.87,2.49,2.91,3.65a8.45,8.45,0,0,0,7.35,2.64A22.23,22.23,0,0,0,29.2,81a2,2,0,0,0,.34-0.14c-0.84-.17-1.63-0.31-2.41-0.48A10.93,10.93,0,0,1,21,76.72c-0.71-.82-1.43-1.63-2.15-2.45a9.7,9.7,0,0,0-3.38-2.59l0.05-.12c0.38,0.13.77,0.22,1.14,0.38a9,9,0,0,1,2.81,2c0.58,0.59,1.19,1.17,1.74,1.79a12,12,0,0,0,7,3.73,24.52,24.52,0,0,0,6.39.25c0.28,0,.55,0,0.57-0.42"/><polygon class="cls-6" points="22.71 65.81 22.23 66.88 60.64 78.07 71.13 69.94 69.92 68.24 22.71 65.81"/><g class="cls-7"><path class="cls-8" d="M23.26,64l-4,3.4L39.86,73.6l20.61,6.21S67,76.86,73,73.32s11.47-7.7,9.37-10.1c-4.53-5.2-14.13-7.47-22.6-8.45A111.79,111.79,0,0,0,44,54.11l-9.54,2.23Z"/><path class="cls-9" d="M34.43,56.39L23.34,64l-4,3.38,13.48,4.06,7.06,2.13,20.54,6.19s1.41-.63,3.52-1.67c2.42-1.19,5.76-2.92,9-4.8,6-3.53,11.42-7.67,9.33-10.07-4.51-5.17-14.09-7.44-22.52-8.41A112,112,0,0,0,44,54.17l-6.84,1.58Z"/><path class="cls-10" d="M34.43,56.44L23.42,64l-3.95,3.37L32.9,71.44l7,2.12L60.4,79.74s1.41-.63,3.51-1.66c2.4-1.18,5.74-2.92,8.92-4.79,5.94-3.51,11.37-7.65,9.3-10-4.48-5.15-14.05-7.41-22.43-8.38A112.14,112.14,0,0,0,44,54.23l-6.85,1.56Z"/><path class="cls-11" d="M34.43,56.48L23.5,64l-3.92,3.36,13.38,4,7,2.12L60.37,79.7s1.41-.62,3.49-1.65c2.39-1.18,5.72-2.91,8.88-4.78,5.91-3.49,11.33-7.62,9.26-10-4.46-5.12-14-7.38-22.35-8.34A112.32,112.32,0,0,0,44,54.28l-6.87,1.54Z"/><path class="cls-12" d="M34.44,56.53L23.58,64.05,19.68,67.4l13.33,4,7,2.11,20.32,6.14s1.41-.62,3.48-1.64c2.38-1.17,5.7-2.91,8.84-4.77,5.88-3.48,11.28-7.59,9.22-10C77.44,58.22,67.91,56,59.61,55A112.51,112.51,0,0,0,44,54.34l-6.89,1.52Z"/><path class="cls-13" d="M34.44,56.57L23.66,64.07,19.79,67.4l13.29,4,7,2.1,20.25,6.12S61.7,79,63.76,78c2.37-1.16,5.68-2.91,8.81-4.76,5.85-3.46,11.23-7.57,9.18-9.92C77.34,58.27,67.83,56,59.57,55.06a112.71,112.71,0,0,0-15.5-.66l-6.9,1.49Z"/><path class="cls-14" d="M34.44,56.62L23.74,64.08,19.9,67.4l13.24,4,6.94,2.1,20.18,6.1S61.66,79,63.72,78c2.36-1.16,5.66-2.91,8.77-4.75,5.82-3.44,11.18-7.54,9.14-9.88-4.39-5-13.89-7.29-22.1-8.24a112.91,112.91,0,0,0-15.44-.66l-6.92,1.47Z"/><path class="cls-15" d="M34.44,56.66L23.82,64.1,20,67.4l13.19,4,6.91,2.09,20.11,6.08s1.41-.6,3.45-1.6c2.34-1.15,5.64-2.91,8.74-4.74,5.79-3.42,11.13-7.52,9.11-9.84-4.37-5-13.85-7.26-22-8.21a113.12,113.12,0,0,0-15.38-.66L37.18,56Z"/><path class="cls-16" d="M34.45,56.71L23.9,64.11,20.12,67.4l13.15,4,6.89,2.09,20,6.06s1.4-.59,3.44-1.59c2.33-1.15,5.62-2.91,8.7-4.73,5.76-3.4,11.08-7.49,9.07-9.8-4.35-5-13.8-7.23-21.93-8.17a113.33,113.33,0,0,0-15.32-.67L37.18,56Z"/><path class="cls-17" d="M34.45,56.76L24,64.13,20.22,67.4l13.1,4,6.87,2.08,20,6s1.4-.59,3.42-1.58c2.32-1.14,5.6-2.91,8.66-4.72,5.73-3.39,11-7.47,9-9.77-4.32-5-13.76-7.2-21.85-8.14a113.55,113.55,0,0,0-15.26-.67l-7,1.41Z"/><path class="cls-18" d="M34.45,56.8l-10.4,7.34L20.33,67.4l13.05,4,6.84,2.07,19.89,6s1.4-.58,3.41-1.57c2.31-1.13,5.58-2.91,8.63-4.7,5.7-3.37,11-7.44,9-9.73-4.3-4.94-13.72-7.17-21.76-8.1a113.77,113.77,0,0,0-15.2-.67l-7,1.39Z"/><path class="cls-19" d="M34.46,56.85L24.13,64.16l-3.7,3.24,13,3.94,6.82,2.07,19.82,6s1.4-.58,3.4-1.56c2.29-1.13,5.56-2.9,8.59-4.69,5.66-3.35,10.94-7.42,9-9.69-4.28-4.91-13.68-7.14-21.68-8.07a114,114,0,0,0-15.14-.67l-7,1.37Z"/><path class="cls-20" d="M34.46,56.89L24.21,64.17,20.55,67.4l13,3.93,6.79,2.06,19.74,6s1.4-.57,3.39-1.55c2.28-1.12,5.54-2.9,8.56-4.68,5.63-3.33,10.89-7.39,8.92-9.65-4.26-4.88-13.64-7.11-21.6-8a114.23,114.23,0,0,0-15.08-.67l-7,1.35Z"/><path class="cls-21" d="M34.46,56.94L24.29,64.19l-3.64,3.22,12.91,3.92,6.77,2.06,19.67,6s1.4-.57,3.38-1.54c2.27-1.12,5.52-2.9,8.52-4.67,5.6-3.31,10.84-7.37,8.88-9.62-4.23-4.86-13.6-7.08-21.51-8a114.48,114.48,0,0,0-15-.67l-7,1.33Z"/><path class="cls-22" d="M34.47,57L24.37,64.2l-3.61,3.2,12.86,3.91,6.74,2,19.6,6s1.4-.56,3.36-1.53c2.26-1.11,5.5-2.9,8.48-4.66,5.57-3.3,10.79-7.34,8.84-9.58-4.21-4.83-13.56-7.05-21.43-8a114.72,114.72,0,0,0-15-.68l-7,1.31Z"/><path class="cls-23" d="M34.47,57l-10,7.19-3.58,3.19,12.81,3.9,6.72,2,19.53,5.94s1.39-.55,3.35-1.52c2.25-1.1,5.48-2.9,8.45-4.65,5.54-3.28,10.74-7.32,8.8-9.54-4.19-4.8-13.52-7-21.34-7.93A115,115,0,0,0,44.28,55l-7.06,1.28Z"/><path class="cls-24" d="M34.47,57.07l-9.94,7.16L21,67.41l12.77,3.88,6.69,2,19.46,5.92s1.39-.55,3.34-1.5c2.23-1.1,5.46-2.9,8.41-4.64,5.51-3.26,10.69-7.29,8.76-9.5-4.16-4.78-13.48-7-21.26-7.89A115.24,115.24,0,0,0,44.3,55l-7.07,1.26Z"/><path class="cls-25" d="M34.48,57.12l-9.86,7.13-3.53,3.16L33.8,71.28l6.67,2,19.38,5.9s1.39-.54,3.33-1.49c2.22-1.09,5.44-2.9,8.37-4.63,5.48-3.24,10.64-7.26,8.72-9.47-4.14-4.75-13.44-7-21.18-7.86a115.51,115.51,0,0,0-14.78-.68l-7.09,1.24Z"/><path class="cls-26" d="M34.48,57.16l-9.79,7.1-3.5,3.15,12.67,3.86,6.64,2,19.31,5.88s1.39-.54,3.32-1.48c2.21-1.09,5.42-2.9,8.34-4.62,5.45-3.22,10.59-7.24,8.69-9.43C76,58.92,66.77,56.71,59.07,55.83a115.79,115.79,0,0,0-14.72-.68l-7.1,1.22Z"/><path class="cls-27" d="M34.48,57.21l-9.71,7.07L21.3,67.41l12.63,3.85,6.62,2,19.24,5.86s1.39-.53,3.3-1.47c2.2-1.08,5.4-2.89,8.3-4.61,5.42-3.21,10.55-7.21,8.65-9.39-4.1-4.7-13.35-6.9-21-7.79a116.07,116.07,0,0,0-14.66-.69l-7.12,1.2Z"/><path class="cls-28" d="M34.48,57.25l-9.63,7-3.44,3.12L34,71.25l6.6,2,19.17,5.85s1.39-.53,3.29-1.46c2.18-1.07,5.38-2.89,8.27-4.6,5.39-3.19,10.5-7.19,8.61-9.35C75.84,59,66.6,56.82,59,55.94a116.36,116.36,0,0,0-14.6-.69l-7.13,1.18Z"/><path class="cls-29" d="M34.49,57.3l-9.56,7-3.42,3.11L34,71.24l6.57,2,19.1,5.83s1.39-.52,3.28-1.45c2.17-1.07,5.36-2.89,8.23-4.59,5.36-3.17,10.45-7.16,8.57-9.31C75.74,59.07,66.52,56.88,59,56a116.66,116.66,0,0,0-14.54-.69l-7.15,1.16Z"/><path class="cls-30" d="M34.49,57.35l-9.48,7-3.39,3.09,12.48,3.81,6.55,2,19,5.81s1.39-.51,3.27-1.44c2.16-1.06,5.34-2.89,8.19-4.58,5.33-3.15,10.4-7.14,8.53-9.28-4-4.62-13.23-6.82-20.76-7.68a117,117,0,0,0-14.48-.69l-7.16,1.14Z"/><path class="cls-31" d="M34.49,57.39l-9.4,6.95-3.36,3.08,12.44,3.8,6.52,2,19,5.79s1.38-.51,3.26-1.43C65,76.52,68.22,74.68,71.05,73c5.3-3.14,10.35-7.11,8.5-9.24-4-4.59-13.19-6.79-20.67-7.65a117.29,117.29,0,0,0-14.42-.69l-7.18,1.12Z"/><path class="cls-32" d="M34.5,57.44l-9.33,6.92-3.33,3.06,12.39,3.79,6.5,2L59.6,79s1.38-.5,3.24-1.42C65,76.5,68.15,74.66,71,73c5.27-3.12,10.3-7.09,8.46-9.2-4-4.57-13.15-6.76-20.59-7.61a117.61,117.61,0,0,0-14.36-.69l-7.2,1.1Z"/><path class="cls-33" d="M34.5,57.48l-9.25,6.89-3.3,3L34.29,71.2l6.47,2,18.81,5.75a35.12,35.12,0,0,0,3.23-1.41c2.12-1,5.28-2.89,8.08-4.54,5.24-3.1,10.25-7.06,8.42-9.16-4-4.54-13.11-6.73-20.51-7.58a117.94,117.94,0,0,0-14.3-.7l-7.21,1.08Z"/><path class="cls-34" d="M34.5,57.53l-9.17,6.86-3.28,3,12.29,3.76,6.45,2L59.53,78.9a34,34,0,0,0,3.22-1.4c2.11-1,5.26-2.89,8-4.53,5.21-3.08,10.2-7,8.38-9.13-3.94-4.52-13.07-6.7-20.42-7.54a118.28,118.28,0,0,0-14.24-.7l-7.23,1.05Z"/><path class="cls-35" d="M34.51,57.57l-9.1,6.83-3.25,3,12.25,3.75,6.42,2,18.66,5.72a32.86,32.86,0,0,0,3.21-1.38c2.1-1,5.24-2.88,8-4.52,5.18-3.06,10.16-7,8.34-9.09-3.91-4.49-13-6.67-20.34-7.51a118.64,118.64,0,0,0-14.18-.7l-7.24,1Z"/><path class="cls-36" d="M34.51,57.62l-9,6.8-3.22,3,12.2,3.74,6.4,2,18.59,5.7a31.81,31.81,0,0,0,3.2-1.37c2.09-1,5.22-2.88,8-4.51,5.15-3,10.11-7,8.31-9.05-3.89-4.46-13-6.64-20.26-7.47a119,119,0,0,0-14.12-.7l-7.26,1Z"/><path class="cls-37" d="M34.51,57.66l-8.94,6.77-3.19,3,12.15,3.73,6.37,2,18.52,5.68a30.82,30.82,0,0,0,3.18-1.36c2.07-1,5.2-2.88,7.94-4.5,5.12-3,10.06-7,8.27-9-3.87-4.44-12.94-6.61-20.17-7.44a119.37,119.37,0,0,0-14.06-.7l-7.27,1Z"/><path class="cls-38" d="M34.51,57.71l-8.87,6.74-3.16,3,12.11,3.72,6.35,2,18.45,5.66a29.88,29.88,0,0,0,3.17-1.35c2.06-1,5.18-2.88,7.9-4.49,5.09-3,10-6.93,8.23-9-3.84-4.41-12.9-6.58-20.09-7.4a119.75,119.75,0,0,0-14-.7l-7.29,1Z"/><path class="cls-39" d="M34.52,57.75l-8.79,6.71-3.14,3,12.06,3.71L41,73.08l18.37,5.65a29,29,0,0,0,3.16-1.34c2-1,5.16-2.88,7.87-4.48,5.06-3,10-6.91,8.19-8.94-3.82-4.38-12.86-6.55-20-7.37a120.14,120.14,0,0,0-13.94-.71l-7.3.95Z"/><path class="cls-40" d="M34.52,57.8l-8.71,6.68-3.11,3,12,3.69L41,73.06l18.3,5.63a28.13,28.13,0,0,0,3.15-1.33c2-1,5.14-2.88,7.83-4.47,5-3,9.91-6.88,8.15-8.9-3.8-4.36-12.82-6.52-19.92-7.33a120.54,120.54,0,0,0-13.88-.71l-7.32.93Z"/><path class="cls-41" d="M34.52,57.84l-8.64,6.65-3.08,2.94,12,3.68L41,73l18.23,5.61a27.31,27.31,0,0,0,3.14-1.32c2-1,5.12-2.88,7.79-4.46,5-3,9.86-6.86,8.11-8.86-3.78-4.33-12.78-6.49-19.84-7.3A121,121,0,0,0,44.67,56l-7.33.91Z"/><path class="cls-42" d="M34.53,57.89L26,64.51l-3.05,2.92L34.83,71.1,41.08,73l18.16,5.59a26.53,26.53,0,0,0,3.12-1.31c2-1,5.1-2.88,7.76-4.45,5-2.94,9.81-6.83,8.08-8.83-3.75-4.31-12.74-6.46-19.75-7.26a121.38,121.38,0,0,0-13.76-.71l-7.35.89Z"/><path class="cls-43" d="M34.53,57.93L26,64.52l-3,2.91,11.87,3.66L41.12,73,59.2,78.58a25.79,25.79,0,0,0,3.11-1.3c2-1,5.08-2.87,7.72-4.43,4.94-2.92,9.77-6.81,8-8.79-3.73-4.28-12.7-6.43-19.67-7.23a121.81,121.81,0,0,0-13.7-.71L37.34,57Z"/><path class="cls-44" d="M34.53,58l-8.41,6.56-3,2.9L35,71.08,41.15,73l18,5.55a25.08,25.08,0,0,0,3.1-1.29c2-1,5.06-2.87,7.69-4.42,4.91-2.9,9.72-6.78,8-8.75-3.71-4.25-12.66-6.4-19.59-7.19a122.26,122.26,0,0,0-13.64-.72L37.35,57Z"/><path class="cls-45" d="M34.54,58l-8.33,6.53-3,2.88L35,71.07,41.19,73l17.94,5.54a24.4,24.4,0,0,0,3.09-1.28c2-1,5-2.87,7.65-4.41,4.88-2.88,9.67-6.76,8-8.71-3.68-4.23-12.62-6.37-19.5-7.16a122.72,122.72,0,0,0-13.58-.72l-7.4.82Z"/><path class="cls-46" d="M34.54,58.07l-8.25,6.49-2.94,2.87,11.73,3.62L41.23,73l17.87,5.52a23.75,23.75,0,0,0,3.08-1.27c2-1,5-2.87,7.61-4.4,4.85-2.87,9.62-6.73,7.92-8.68C74,59.93,65.13,57.8,58.29,57a123.19,123.19,0,0,0-13.52-.72l-7.41.8Z"/><path class="cls-47" d="M34.54,58.12l-8.18,6.46-2.91,2.85L35.13,71l6.13,1.9,17.8,5.5a23.12,23.12,0,0,0,3.06-1.25c2-1,5-2.87,7.58-4.39,4.82-2.85,9.57-6.71,7.89-8.64C73.95,60,65.05,57.85,58.25,57.07a123.68,123.68,0,0,0-13.46-.72l-7.43.78Z"/><path class="cls-48" d="M34.55,58.16l-8.1,6.43-2.88,2.84L35.19,71l6.1,1.89L59,78.41a22.52,22.52,0,0,0,3.05-1.24c1.94-1,5-2.87,7.54-4.38,4.79-2.83,9.52-6.68,7.85-8.6C73.85,60,65,57.9,58.21,57.12a124.17,124.17,0,0,0-13.4-.72l-7.44.76Z"/><path class="cls-49" d="M34.55,58.21l-8,6.4-2.86,2.83L35.25,71l6.08,1.88L59,78.37a21.94,21.94,0,0,0,3-1.23c1.93-.95,5-2.87,7.51-4.37C74.29,70,79,66.11,77.34,64.2c-3.59-4.12-12.45-6.25-19.17-7a124.69,124.69,0,0,0-13.33-.72l-7.46.74Z"/><path class="cls-50" d="M34.55,58.25L26.6,64.63l-2.83,2.81L35.31,71l6.05,1.88,17.58,5.45a21.39,21.39,0,0,0,3-1.22c1.91-.94,4.94-2.87,7.47-4.36,4.73-2.79,9.42-6.63,7.77-8.53-3.57-4.1-12.41-6.22-19.08-7a125.22,125.22,0,0,0-13.27-.73l-7.47.72Z"/><path class="cls-51" d="M34.55,58.3l-7.87,6.34-2.8,2.8L35.37,71l6,1.87L58.91,78.3a20.86,20.86,0,0,0,3-1.21c1.9-.93,4.92-2.86,7.43-4.35,4.7-2.78,9.38-6.6,7.73-8.49-3.55-4.07-12.37-6.19-19-7a125.76,125.76,0,0,0-13.21-.73l-7.49.7Z"/><path class="cls-52" d="M34.56,58.34l-7.79,6.31L24,67.44,35.44,71l6,1.86,17.44,5.41a20.34,20.34,0,0,0,3-1.2c1.89-.93,4.9-2.86,7.4-4.34C73.94,70,78.6,66.15,77,64.28c-3.52-4-12.33-6.16-18.92-6.92a126.32,126.32,0,0,0-13.15-.73l-7.5.68Z"/><path class="cls-53" d="M34.56,58.39l-7.72,6.28L24.1,67.44,35.5,71l6,1.86,17.36,5.39a19.85,19.85,0,0,0,3-1.19c1.88-.92,4.88-2.86,7.36-4.33,4.63-2.74,9.28-6.55,7.66-8.41-3.5-4-12.29-6.13-18.83-6.88a126.89,126.89,0,0,0-13.09-.73l-7.52.66Z"/><path class="cls-54" d="M34.56,58.43l-7.64,6.25-2.72,2.76L35.56,71l6,1.85L58.8,78.19a19.37,19.37,0,0,0,3-1.18c1.87-.92,4.86-2.86,7.32-4.32,4.6-2.72,9.23-6.53,7.62-8.38-3.48-4-12.25-6.1-18.75-6.85a127.48,127.48,0,0,0-13-.73l-7.54.64Z"/><path class="cls-55" d="M34.57,58.48L27,64.7l-2.69,2.74L35.62,71l5.93,1.85,17.22,5.35a18.92,18.92,0,0,0,3-1.17c1.85-.91,4.84-2.86,7.29-4.3,4.57-2.71,9.18-6.5,7.58-8.34-3.46-4-12.21-6.07-18.66-6.81a128.09,128.09,0,0,0-13-.73l-7.55.61Z"/><path class="cls-56" d="M34.57,58.52l-7.49,6.19-2.66,2.73,11.25,3.5,5.91,1.84,17.15,5.34a18.47,18.47,0,0,0,3-1.16c1.84-.9,4.82-2.86,7.25-4.29,4.54-2.69,9.13-6.48,7.54-8.3-3.43-3.94-12.16-6-18.58-6.78A128.72,128.72,0,0,0,45,56.86l-7.57.59Z"/><path class="cls-57" d="M34.57,58.57l-7.41,6.16-2.63,2.71,11.21,3.49,5.88,1.83L58.7,78.09a18,18,0,0,0,2.94-1.15c1.83-.9,4.8-2.86,7.22-4.28,4.51-2.67,9.08-6.45,7.5-8.26-3.41-3.91-12.12-6-18.5-6.74S45,56.92,45,56.92l-7.58.57Z"/><path class="cls-58" d="M34.58,58.62l-7.33,6.13-2.6,2.7L35.8,70.93l5.86,1.83,17,5.3a17.63,17.63,0,0,0,2.93-1.13c1.82-.89,4.78-2.86,7.18-4.27,4.48-2.65,9-6.43,7.47-8.23-3.39-3.89-12.08-6-18.41-6.71S45,57,45,57l-7.6.55Z"/><path class="cls-59" d="M34.58,58.66l-7.26,6.1-2.58,2.69,11.11,3.47,5.83,1.82L58.62,78a17.23,17.23,0,0,0,2.92-1.12c1.8-.89,4.76-2.85,7.14-4.26,4.45-2.63,9-6.4,7.43-8.19-3.36-3.86-12-5.95-18.33-6.67S45.05,57,45.05,57l-7.61.53Z"/><path class="cls-60" d="M34.58,58.71L27.4,64.78l-2.55,2.67L35.92,70.9l5.81,1.82L58.59,78a16.85,16.85,0,0,0,2.91-1.11C63.29,76,66.24,74,68.6,72.62,73,70,77.54,66.25,76,64.47c-3.34-3.83-12-5.92-18.25-6.64s-12.67-.74-12.67-0.74l-7.63.51Z"/><path class="cls-61" d="M34.59,58.75l-7.1,6L25,67.45l11,3.44,5.78,1.81,16.79,5.25a16.48,16.48,0,0,0,2.9-1.1c1.78-.87,4.72-2.85,7.07-4.24,4.39-2.6,8.89-6.35,7.35-8.11-3.32-3.81-12-5.89-18.16-6.6s-12.61-.74-12.61-0.74l-7.64.49Z"/><path class="cls-62" d="M34.59,58.8l-7,6-2.49,2.64,11,3.43,5.76,1.8,16.71,5.23a16.12,16.12,0,0,0,2.88-1.09c1.77-.87,4.7-2.85,7-4.23,4.36-2.58,8.84-6.33,7.31-8.08C72.45,60.74,63.83,58.66,57.67,58S45.12,57.2,45.12,57.2l-7.66.47Z"/><path class="cls-63" d="M34.59,58.84l-7,6-2.46,2.63L36.1,70.87l5.74,1.8,16.64,5.21a15.77,15.77,0,0,0,2.87-1.08c1.75-.86,4.68-2.85,7-4.22,4.33-2.56,8.79-6.3,7.28-8-3.27-3.75-11.88-5.83-18-6.53s-12.49-.75-12.49-0.75l-7.68.45Z"/><path class="cls-64" d="M34.59,58.89l-6.88,5.95-2.44,2.62,10.88,3.41,5.71,1.79,16.57,5.19a15.43,15.43,0,0,0,2.86-1.07c1.74-.86,4.66-2.85,7-4.21,4.3-2.54,8.74-6.27,7.24-8-3.25-3.73-11.84-5.8-17.91-6.5s-12.43-.75-12.43-0.75l-7.69.43Z"/><path class="cls-65" d="M34.6,58.93l-6.8,5.92-2.41,2.6,10.83,3.4,5.69,1.78,16.5,5.17a15.1,15.1,0,0,0,2.85-1.06c1.73-.85,4.64-2.85,6.93-4.2,4.27-2.53,8.69-6.25,7.2-8-3.23-3.7-11.8-5.77-17.83-6.46s-12.37-.75-12.37-0.75l-7.71.4Z"/><path class="cls-66" d="M34.6,59l-6.72,5.89L25.5,67.46l10.78,3.38,5.66,1.78,16.43,5.15a14.79,14.79,0,0,0,2.84-1c1.72-.84,4.62-2.85,6.89-4.19,4.24-2.51,8.64-6.22,7.16-7.93-3.2-3.68-11.75-5.74-17.74-6.43S45.2,57.43,45.2,57.43l-7.72.38Z"/><path class="cls-67" d="M34.6,59L28,64.88l-2.35,2.58,10.73,3.37L42,72.6l16.35,5.14a14.48,14.48,0,0,0,2.82-1c1.71-.84,4.6-2.84,6.85-4.17,4.21-2.49,8.6-6.2,7.12-7.89C72,61,63.42,58.93,57.47,58.25s-12.25-.76-12.25-0.76l-7.74.36Z"/><path class="cls-68" d="M34.61,59.07L28,64.9l-2.32,2.56L36.4,70.82,42,72.58,58.3,77.7a14.18,14.18,0,0,0,2.81-1c1.69-.83,4.58-2.84,6.82-4.16C72.11,70,76.47,66.34,75,64.66,71.85,61,63.34,59,57.43,58.3s-12.19-.76-12.19-0.76l-7.75.34Z"/><path class="cls-69" d="M34.61,59.11l-6.49,5.8-2.3,2.55,10.64,3.35,5.59,1.76,16.21,5.1a13.89,13.89,0,0,0,2.8-1c1.68-.83,4.56-2.84,6.78-4.15,4.15-2.45,8.5-6.15,7-7.81C71.75,61.09,63.26,59,57.4,58.36s-12.13-.76-12.13-0.76l-7.77.32Z"/><path class="cls-70" d="M34.61,59.16L28.2,64.93l-2.27,2.53L36.52,70.8l5.56,1.75,16.14,5.08a13.61,13.61,0,0,0,2.79-1c1.67-.82,4.54-2.84,6.74-4.14,4.12-2.44,8.45-6.12,7-7.78-3.11-3.57-11.59-5.62-17.41-6.29s-12.07-.76-12.07-0.76L37.5,58Z"/><path class="cls-71" d="M34.62,59.2l-6.34,5.74L26,67.46l10.54,3.32,5.54,1.75L58.19,77.6a13.34,13.34,0,0,0,2.78-1c1.66-.81,4.52-2.84,6.71-4.13,4.09-2.42,8.4-6.1,7-7.74-3.09-3.54-11.55-5.59-17.32-6.25s-12-.76-12-0.76l-7.8.28Z"/><path class="cls-72" d="M34.62,59.25L28.36,65l-2.21,2.51,10.5,3.31,5.51,1.74,16,5a13.07,13.07,0,0,0,2.76-1c1.64-.81,4.5-2.84,6.67-4.12,4.06-2.4,8.35-6.07,6.93-7.7C71.45,61.24,63,59.2,57.28,58.54s-11.95-.76-11.95-0.76L37.52,58Z"/><path class="cls-73" d="M34.62,59.3L28.44,65l-2.18,2.49,10.45,3.3,5.49,1.74,15.92,5a12.82,12.82,0,0,0,2.75-1c1.63-.8,4.48-2.84,6.64-4.11,4-2.38,8.3-6,6.89-7.66-3-3.49-11.47-5.53-17.16-6.18s-11.89-.77-11.89-0.77l-7.83.24Z"/><path class="cls-74" d="M34.63,59.34L28.52,65l-2.16,2.48,10.4,3.29,5.47,1.73,15.85,5a12.57,12.57,0,0,0,2.74-1c1.62-.8,4.46-2.84,6.6-4.1,4-2.36,8.25-6,6.86-7.63-3-3.47-11.43-5.5-17.07-6.15s-11.83-.77-11.83-0.77l-7.85.22Z"/><path class="cls-75" d="M34.63,59.39L28.6,65l-2.13,2.46,10.36,3.28,5.44,1.72,15.78,5a12.32,12.32,0,0,0,2.73-.95c1.61-.79,4.44-2.83,6.56-4.09,4-2.35,8.21-6,6.82-7.59-3-3.44-11.39-5.47-17-6.11s-11.77-.77-11.77-0.77l-7.86.2Z"/><path class="cls-76" d="M34.63,59.43l-6,5.59-2.1,2.45,10.31,3.26,5.42,1.72,15.7,5a12.09,12.09,0,0,0,2.72-.94c1.6-.78,4.42-2.83,6.53-4.08,3.94-2.33,8.16-6,6.78-7.55-3-3.41-11.34-5.44-16.91-6.08S45.42,58,45.42,58l-7.88.17Z"/><path class="cls-77" d="M34.63,59.48L28.76,65l-2.07,2.44,10.26,3.25,5.39,1.71,15.63,5a11.86,11.86,0,0,0,2.7-.93c1.58-.78,4.4-2.83,6.49-4.07,3.91-2.31,8.11-5.94,6.74-7.51-3-3.39-11.3-5.41-16.82-6s-11.65-.77-11.65-0.77l-7.89.15Z"/><path class="cls-78" d="M34.64,59.52L28.83,65l-2,2.42L37,70.71l5.37,1.7,15.56,4.94a11.63,11.63,0,0,0,2.69-.92c1.57-.77,4.38-2.83,6.46-4.06,3.88-2.29,8.06-5.92,6.7-7.48-2.93-3.36-11.26-5.38-16.74-6s-11.59-.77-11.59-0.77l-7.91.13Z"/><path class="cls-79" d="M34.64,59.57l-5.73,5.5-2,2.41L37.07,70.7l5.34,1.7L57.9,77.32a11.42,11.42,0,0,0,2.68-.91c1.56-.77,4.36-2.83,6.42-4,3.85-2.28,8-5.89,6.66-7.44C70.76,61.6,62.44,59.58,57,59s-11.53-.78-11.53-0.78l-7.92.11Z"/><path class="cls-80" d="M34.64,59.61L29,65.08l-2,2.39,10.12,3.22,5.32,1.69,15.42,4.9a11.2,11.2,0,0,0,2.67-.89c1.55-.76,4.34-2.83,6.38-4,3.82-2.26,8-5.87,6.63-7.4C70.66,61.65,62.36,59.63,57,59S45.5,58.23,45.5,58.23l-7.94.09Z"/><path class="cls-81" d="M34.65,59.66l-5.57,5.44-2,2.38,10.07,3.21,5.29,1.69,15.34,4.88a11,11,0,0,0,2.66-.88c1.53-.75,4.32-2.83,6.35-4,3.79-2.24,7.91-5.84,6.59-7.36-2.86-3.28-11.14-5.29-16.49-5.91s-11.41-.78-11.41-0.78l-8,.07Z"/><path class="cls-82" d="M34.65,59.7l-5.5,5.41-1.93,2.37,10,3.19,5.27,1.68,15.27,4.86a10.8,10.8,0,0,0,2.64-.87c1.52-.75,4.3-2.83,6.31-4,3.76-2.22,7.86-5.82,6.55-7.33-2.84-3.26-11.1-5.26-16.4-5.87s-11.35-.78-11.35-0.78l-8,0Z"/><path class="cls-83" d="M34.65,59.75l-5.42,5.37-1.9,2.35,10,3.18,5.24,1.67,15.2,4.85a10.6,10.6,0,0,0,2.63-.86c1.51-.74,4.28-2.82,6.27-4,3.73-2.2,7.82-5.79,6.51-7.29-2.81-3.23-11.06-5.23-16.32-5.84s-11.29-.78-11.29-0.78l-8,0Z"/><path class="cls-84" d="M34.66,59.79l-5.34,5.34-1.87,2.34,9.93,3.17,5.22,1.67,15.13,4.83a10.41,10.41,0,0,0,2.62-.85c1.5-.74,4.26-2.82,6.24-4,3.7-2.19,7.77-5.77,6.47-7.25-2.79-3.2-11-5.2-16.24-5.8s-11.23-.78-11.23-0.78h-8Z"/><path class="cls-85" d="M34.66,59.84l-5.27,5.31-1.85,2.32,9.88,3.16,5.2,1.66,15.06,4.81a10.23,10.23,0,0,0,2.61-.84c1.48-.73,4.24-2.82,6.2-4,3.67-2.17,7.72-5.74,6.44-7.21-2.77-3.18-11-5.17-16.15-5.77s-11.17-.79-11.17-0.79h-8Z"/><path class="cls-86" d="M34.66,59.89l-5.19,5.28-1.82,2.31,9.84,3.15,5.17,1.66,15,4.79a10,10,0,0,0,2.6-.83c1.47-.72,4.22-2.82,6.17-4,3.64-2.15,7.67-5.72,6.4-7.17C70.06,61.95,61.87,60,56.73,59.37s-11.11-.79-11.11-0.79l-8,0Z"/><path class="cls-87" d="M34.67,59.93l-5.11,5.25-1.79,2.3,9.79,3.13,5.15,1.65L57.61,77a9.87,9.87,0,0,0,2.58-.82c1.46-.72,4.2-2.82,6.13-4,3.6-2.13,7.62-5.69,6.36-7.14C70,62,61.79,60,56.7,59.43s-11-.79-11-0.79l-8-.06Z"/><path class="cls-88" d="M34.67,60l-5,5.22-1.76,2.28,9.74,3.12,5.12,1.64L57.57,77a9.7,9.7,0,0,0,2.57-.81c1.45-.71,4.18-2.82,6.09-3.95,3.57-2.11,7.57-5.67,6.32-7.1-2.7-3.1-10.85-5.08-15.9-5.66s-11-.79-11-0.79l-8.06-.08Z"/><path class="cls-89" d="M34.67,60l-5,5.19L28,67.48l9.69,3.11,5.1,1.64L57.53,77a9.53,9.53,0,0,0,2.56-.8c1.44-.71,4.16-2.82,6.06-3.94,3.54-2.1,7.52-5.64,6.28-7.06-2.68-3.07-10.81-5.05-15.82-5.63s-10.92-.79-10.92-0.79l-8.08-.1Z"/><path class="cls-90" d="M34.67,60.07l-4.88,5.16-1.71,2.25,9.65,3.1,5.07,1.63L57.5,76.93A9.37,9.37,0,0,0,60,76.15c1.42-.7,4.14-2.82,6-3.93,3.51-2.08,7.47-5.61,6.25-7-2.65-3-10.77-5-15.73-5.59s-10.86-.8-10.86-0.8l-8.09-.12Z"/><path class="cls-91" d="M34.68,60.11l-4.81,5.13-1.68,2.24,9.6,3.09,5,1.62,14.62,4.7A9.21,9.21,0,0,0,60,76.12c1.41-.69,4.12-2.81,6-3.91,3.48-2.06,7.43-5.59,6.21-7-2.63-3-10.73-5-15.65-5.56s-10.8-.8-10.8-0.8l-8.11-.14Z"/><path class="cls-92" d="M34.68,60.16L30,65.26,28.3,67.49l9.55,3.07,5,1.62,14.55,4.68a9.05,9.05,0,0,0,2.52-.76c1.4-.69,4.1-2.81,5.95-3.9,3.45-2,7.38-5.56,6.17-6.95-2.61-3-10.69-5-15.57-5.52s-10.74-.8-10.74-0.8l-8.12-.16Z"/><path class="cls-93" d="M34.68,60.2L30,65.27l-1.62,2.21,9.5,3.06,5,1.61,14.48,4.66a8.9,8.9,0,0,0,2.51-.75c1.39-.68,4.08-2.81,5.91-3.89,3.42-2,7.33-5.54,6.13-6.91-2.59-3-10.65-4.93-15.48-5.49S45.78,59,45.78,59l-8.14-.18Z"/><path class="cls-94" d="M34.69,60.25l-4.58,5-1.59,2.2L38,70.54l5,1.61,14.41,4.65a8.75,8.75,0,0,0,2.5-.74c1.37-.68,4.06-2.81,5.88-3.88,3.39-2,7.28-5.51,6.09-6.87-2.56-2.94-10.61-4.9-15.4-5.45S45.8,59,45.8,59l-8.16-.2Z"/><path class="cls-95" d="M34.69,60.29l-4.5,5-1.57,2.18,9.41,3L43,72.13l14.33,4.63A8.61,8.61,0,0,0,59.81,76c1.36-.67,4-2.81,5.84-3.87,3.36-2,7.23-5.49,6.05-6.84-2.54-2.91-10.57-4.87-15.31-5.42s-10.56-.8-10.56-0.8l-8.17-.22Z"/><path class="cls-96" d="M34.69,60.34l-4.42,5-1.54,2.17,9.36,3L43,72.11l14.26,4.61A8.47,8.47,0,0,0,59.76,76c1.35-.66,4-2.81,5.8-3.86,3.33-2,7.18-5.46,6-6.8C69.06,62.45,61.05,60.5,56.35,60s-10.5-.81-10.5-0.81l-8.19-.24Z"/><path class="cls-97" d="M34.7,60.38l-4.35,5-1.51,2.16,9.32,3,4.9,1.59,14.19,4.59A8.33,8.33,0,0,0,59.71,76c1.34-.66,4-2.81,5.77-3.85,3.3-2,7.13-5.44,6-6.76C69,62.5,61,60.55,56.31,60s-10.44-.81-10.44-0.81l-8.2-.27Z"/><path class="cls-98" d="M34.7,60.43l-4.27,4.92-1.48,2.14,9.27,3,4.88,1.58,14.12,4.57a8.19,8.19,0,0,0,2.45-.7c1.33-.65,4-2.81,5.73-3.84,3.27-1.93,7.08-5.41,5.94-6.72-2.47-2.84-10.44-4.78-15.06-5.31s-10.38-.81-10.38-0.81L37.67,59Z"/><path class="cls-99" d="M34.7,60.47l-4.19,4.89-1.45,2.13,9.22,3,4.85,1.58,14,4.56a8.06,8.06,0,0,0,2.44-.69c1.31-.65,4-2.8,5.69-3.83,3.24-1.92,7-5.39,5.9-6.69-2.45-2.81-10.4-4.75-15-5.28s-10.32-.81-10.32-0.81L37.67,59Z"/><path class="cls-100" d="M34.7,60.52l-4.12,4.86L29.16,67.5l9.17,3L43.16,72l14,4.54a7.93,7.93,0,0,0,2.43-.68c1.3-.64,3.94-2.8,5.66-3.82,3.21-1.9,7-5.36,5.86-6.65-2.43-2.78-10.36-4.72-14.9-5.24s-10.26-.81-10.26-0.81l-8.25-.33Z"/><path class="cls-101" d="M34.71,60.57l-4,4.83-1.4,2.1,9.13,3L43.2,72l13.9,4.52a7.81,7.81,0,0,0,2.42-.67c1.29-.63,3.92-2.8,5.62-3.81,3.18-1.88,6.94-5.34,5.83-6.61-2.4-2.76-10.32-4.69-14.81-5.21S46,59.44,46,59.44l-8.26-.35Z"/><path class="cls-102" d="M34.71,60.61l-4,4.8L29.38,67.5l9.08,3L43.23,72l13.83,4.5a7.69,7.69,0,0,0,2.4-.66c1.28-.63,3.9-2.8,5.59-3.8,3.15-1.86,6.89-5.31,5.79-6.57-2.38-2.73-10.28-4.66-14.73-5.17S46,59.49,46,59.49l-8.28-.37Z"/><path class="cls-103" d="M34.71,60.66l-3.89,4.77L29.48,67.5l9,2.94L43.27,72,57,76.47a7.57,7.57,0,0,0,2.39-.64C60.68,75.21,63.3,73,65,72c3.12-1.85,6.84-5.28,5.75-6.54-2.36-2.7-10.24-4.63-14.64-5.14S46,59.55,46,59.55l-8.29-.39Z"/><path class="cls-104" d="M34.72,60.7l-3.81,4.74L29.59,67.5l9,2.93L43.31,72,57,76.44a7.45,7.45,0,0,0,2.38-.63c1.25-.62,3.86-2.8,5.51-3.77,3.09-1.83,6.79-5.26,5.71-6.5-2.33-2.68-10.2-4.6-14.56-5.1s-10-.82-10-0.82L37.7,59.2Z"/><path class="cls-105" d="M34.72,60.75L31,65.46l-1.29,2,8.94,2.92L43.34,72,57,76.4a7.33,7.33,0,0,0,2.37-.62c1.24-.61,3.84-2.8,5.48-3.76,3.06-1.81,6.74-5.23,5.67-6.46C68.16,62.91,60.32,61,56,60.49s-10-.82-10-0.82l-8.33-.43Z"/><path class="cls-106" d="M34.72,60.79l-3.66,4.68-1.26,2,8.89,2.91,4.68,1.53,13.54,4.43a7.22,7.22,0,0,0,2.36-.61c1.23-.6,3.82-2.8,5.44-3.75,3-1.79,6.69-5.21,5.63-6.42C68.06,63,60.23,61,56,60.55s-9.9-.82-9.9-0.82l-8.34-.45Z"/><path class="cls-107" d="M34.73,60.84l-3.58,4.65-1.23,2,8.84,2.9,4.65,1.53,13.47,4.41a7.11,7.11,0,0,0,2.34-.6c1.21-.6,3.8-2.79,5.4-3.74,3-1.77,6.65-5.18,5.6-6.39-2.27-2.6-10.07-4.51-14.31-5s-9.84-.83-9.84-0.83l-8.36-.47Z"/><path class="cls-108" d="M34.73,60.88l-3.5,4.62-1.2,2,8.8,2.88,4.63,1.52,13.4,4.39a7,7,0,0,0,2.33-.59c1.2-.59,3.78-2.79,5.37-3.73,3-1.76,6.6-5.16,5.56-6.35-2.24-2.57-10-4.48-14.23-5s-9.78-.83-9.78-0.83l-8.37-.5Z"/><path class="cls-109" d="M34.73,60.93L31.3,65.52l-1.17,2,8.75,2.87,4.61,1.51,13.32,4.37a6.9,6.9,0,0,0,2.32-.58c1.19-.59,3.76-2.79,5.33-3.72C67.4,70.23,71,66.83,70,65.65c-2.22-2.55-10-4.45-14.14-4.93s-9.72-.83-9.72-0.83l-8.39-.52Z"/><path class="cls-110" d="M34.74,61l-3.35,4.56-1.15,2,8.7,2.86,4.58,1.51,13.25,4.36a6.8,6.8,0,0,0,2.31-.57c1.18-.58,3.74-2.79,5.3-3.71,2.91-1.72,6.5-5.11,5.48-6.27-2.2-2.52-10-4.42-14.06-4.9S46.14,60,46.14,60l-8.4-.54Z"/><path class="cls-111" d="M34.74,61l-3.27,4.53-1.12,2L39,70.36l4.56,1.5,13.18,4.34a6.7,6.7,0,0,0,2.3-.56c1.17-.57,3.72-2.79,5.26-3.7,2.88-1.7,6.45-5.08,5.44-6.24-2.17-2.49-9.91-4.39-14-4.86S46.16,60,46.16,60l-8.42-.56Z"/><path class="cls-112" d="M34.74,61.06l-3.2,4.5-1.09,1.95,8.61,2.84,4.53,1.5L56.7,76.16A6.61,6.61,0,0,0,59,75.61c1.15-.57,3.7-2.79,5.22-3.69,2.85-1.68,6.4-5.06,5.41-6.2-2.15-2.47-9.87-4.36-13.89-4.83s-9.54-.83-9.54-0.83l-8.43-.58Z"/><path class="cls-113" d="M34.74,61.11l-3.12,4.47-1.06,1.93,8.56,2.82,4.51,1.49,13,4.3a6.51,6.51,0,0,0,2.27-.54c1.14-.56,3.68-2.79,5.19-3.68,2.82-1.67,6.35-5,5.37-6.16-2.13-2.44-9.83-4.33-13.81-4.79s-9.48-.84-9.48-0.84l-8.45-.6Z"/><path class="cls-114" d="M34.75,61.16l-3,4.44-1,1.92,8.51,2.81,4.48,1.48,13,4.28a6.42,6.42,0,0,0,2.26-.52C60,75,62.55,72.78,64,71.9c2.79-1.65,6.3-5,5.33-6.12-2.11-2.42-9.79-4.3-13.72-4.76s-9.42-.84-9.42-0.84l-8.47-.62Z"/><path class="cls-115" d="M34.75,61.2l-3,4.41-1,1.91,8.46,2.8,4.46,1.48,12.89,4.26a6.33,6.33,0,0,0,2.25-.51C60,75,62.48,72.76,64,71.89c2.76-1.63,6.26-5,5.29-6.09-2.08-2.39-9.75-4.27-13.64-4.72s-9.36-.84-9.36-0.84l-8.48-.64Z"/><path class="cls-116" d="M34.75,61.25l-2.89,4.38-1,1.89L39.3,70.3l4.43,1.47L56.55,76a6.24,6.24,0,0,0,2.24-.5c1.1-.54,3.62-2.78,5.08-3.64,2.73-1.61,6.21-5,5.25-6-2.06-2.36-9.71-4.24-13.55-4.69s-9.3-.84-9.3-0.84l-8.5-.66Z"/><path class="cls-117" d="M34.76,61.29l-2.82,4.35-1,1.88,8.37,2.78,4.41,1.46L56.52,76a6.15,6.15,0,0,0,2.22-.49c1.09-.54,3.6-2.78,5-3.63,2.7-1.59,6.16-4.93,5.22-6-2-2.34-9.66-4.21-13.47-4.65s-9.24-.84-9.24-0.84l-8.51-.68Z"/><path class="cls-118" d="M34.76,61.34L32,65.65,31.1,67.52l8.32,2.76,4.38,1.46,12.68,4.21a6.07,6.07,0,0,0,2.21-.48c1.08-.53,3.58-2.78,5-3.62,2.67-1.58,6.11-4.9,5.18-6-2-2.31-9.62-4.18-13.39-4.62s-9.18-.84-9.18-0.84l-8.53-.71Z"/><path class="cls-119" d="M34.76,61.38L32.1,65.67l-0.89,1.85,8.28,2.75,4.36,1.45,12.6,4.19a6,6,0,0,0,2.2-.47c1.07-.52,3.56-2.78,5-3.61,2.64-1.56,6.06-4.88,5.14-5.94-2-2.28-9.58-4.15-13.3-4.58s-9.12-.85-9.12-0.85l-8.54-.73Z"/><path class="cls-120" d="M34.77,61.43l-2.59,4.25-0.87,1.84,8.23,2.74,4.34,1.45,12.53,4.17a5.9,5.9,0,0,0,2.19-.46c1.06-.52,3.54-2.78,4.93-3.6,2.61-1.54,6-4.85,5.1-5.9-2-2.26-9.54-4.12-13.22-4.55s-9.06-.85-9.06-0.85l-8.56-.75Z"/><path class="cls-121" d="M34.77,61.47L32.26,65.7l-0.84,1.82,8.18,2.73,4.31,1.44,12.46,4.16a5.83,5.83,0,0,0,2.18-.45c1-.51,3.52-2.78,4.9-3.59,2.57-1.52,6-4.83,5.06-5.86-1.94-2.23-9.5-4.09-13.14-4.51s-9-.85-9-0.85l-8.57-.77Z"/><path class="cls-122" d="M34.77,61.52l-2.43,4.19-0.81,1.81,8.13,2.72L44,71.67l12.39,4.14a5.75,5.75,0,0,0,2.16-.44c1-.51,3.5-2.77,4.86-3.58,2.54-1.5,5.91-4.8,5-5.82-1.92-2.21-9.46-4.06-13.05-4.48s-8.94-.85-8.94-0.85l-8.59-.79Z"/><path class="cls-123" d="M34.78,61.56l-2.36,4.16-0.78,1.79,8.09,2.71L44,71.65,56.3,75.77a5.67,5.67,0,0,0,2.15-.43c1-.5,3.48-2.77,4.83-3.57,2.51-1.49,5.87-4.78,5-5.79-1.9-2.18-9.42-4-13-4.44s-8.88-.85-8.88-0.85l-8.6-.81Z"/><path class="cls-124" d="M34.78,61.61L32.5,65.74l-0.75,1.78,8,2.69L44,71.64l12.24,4.1a5.6,5.6,0,0,0,2.14-.42c1-.49,3.46-2.77,4.79-3.56C65.68,70.3,69,67,68.14,66c-1.88-2.15-9.38-4-12.88-4.41s-8.82-.85-8.82-0.85l-8.62-.83Z"/><path class="cls-125" d="M34.78,61.65l-2.2,4.1-0.73,1.77,8,2.68,4.21,1.42L56.23,75.7a5.53,5.53,0,0,0,2.13-.4c1-.49,3.44-2.77,4.75-3.55C65.56,70.3,68.88,67,68,66c-1.85-2.13-9.34-4-12.8-4.37s-8.76-.86-8.76-0.86L37.83,60Z"/><path class="cls-126" d="M34.78,61.7l-2.13,4.07L32,67.52l7.94,2.67,4.19,1.41,12.1,4.06a5.46,5.46,0,0,0,2.12-.39c1-.48,3.42-2.77,4.72-3.54,2.42-1.43,5.72-4.7,4.87-5.67-1.83-2.1-9.3-3.94-12.72-4.34s-8.7-.86-8.7-0.86L37.83,60Z"/><path class="cls-127" d="M34.79,61.74l-2,4-0.67,1.74L40,70.18l4.16,1.4,12,4a5.39,5.39,0,0,0,2.1-.38c1-.48,3.4-2.77,4.68-3.53,2.39-1.42,5.67-4.68,4.83-5.64C66,64,58.52,62.18,55.14,61.79s-8.63-.86-8.63-0.86L37.84,60Z"/><path class="cls-128" d="M34.79,61.79l-2,4-0.64,1.72L40,70.17l4.14,1.4,12,4a5.32,5.32,0,0,0,2.09-.37c1-.47,3.38-2.77,4.64-3.51,2.36-1.4,5.62-4.65,4.8-5.6-1.78-2-9.21-3.88-12.55-4.27S46.53,61,46.53,61l-8.68-.91Z"/><path class="cls-129" d="M34.79,61.84l-1.9,4-0.61,1.71,7.8,2.63,4.11,1.39,11.88,4a5.26,5.26,0,0,0,2.08-.36c0.94-.46,3.36-2.77,4.61-3.5,2.33-1.38,5.57-4.62,4.76-5.56-1.76-2-9.17-3.85-12.47-4.23S46.55,61,46.55,61l-8.7-.94Z"/><path class="cls-130" d="M34.8,61.88l-1.82,4-0.59,1.7,7.76,2.62,4.09,1.38,11.81,4a5.2,5.2,0,0,0,2.07-.35c0.93-.46,3.34-2.76,4.57-3.49,2.3-1.36,5.52-4.6,4.72-5.52-1.74-2-9.13-3.82-12.38-4.2s-8.45-.87-8.45-0.87l-8.71-1Z"/><path class="cls-131" d="M34.8,61.93l-1.74,3.92L32.5,67.53l7.71,2.61,4.07,1.38,11.74,4a5.13,5.13,0,0,0,2.06-.34c0.92-.45,3.32-2.76,4.54-3.48,2.27-1.34,5.48-4.57,4.68-5.49-1.72-2-9.09-3.79-12.3-4.16s-8.39-.87-8.39-0.87l-8.73-1Z"/><path class="cls-132" d="M34.8,62l-1.67,3.89-0.53,1.67,7.66,2.6,4,1.37,11.67,4a5.07,5.07,0,0,0,2-.33c0.91-.45,3.3-2.76,4.5-3.47,2.24-1.33,5.43-4.55,4.64-5.45-1.69-1.94-9-3.76-12.21-4.13s-8.33-.87-8.33-0.87l-8.74-1Z"/><path class="cls-133" d="M34.81,62l-1.59,3.86-0.5,1.65,7.61,2.59,4,1.37,11.59,3.94a5,5,0,0,0,2-.32c0.9-.44,3.28-2.76,4.46-3.46,2.21-1.31,5.38-4.52,4.6-5.41-1.67-1.92-9-3.73-12.13-4.09s-8.27-.87-8.27-0.87l-8.76-1Z"/><path class="cls-134" d="M34.81,62.06L33.3,65.89l-0.47,1.64,7.57,2.57,4,1.36L55.9,75.39a5,5,0,0,0,2-.31c0.88-.43,3.26-2.76,4.43-3.45,2.18-1.29,5.33-4.5,4.57-5.37-1.65-1.89-9-3.7-12-4.06s-8.21-.87-8.21-0.87l-8.78-1Z"/><path class="cls-135" d="M34.81,62.11l-1.44,3.8-0.45,1.63,7.52,2.56,4,1.35,11.45,3.9a4.9,4.9,0,0,0,2-.3c0.87-.43,3.24-2.76,4.39-3.44,2.15-1.27,5.28-4.47,4.53-5.34-1.62-1.86-8.93-3.67-12-4s-8.15-.87-8.15-0.87l-8.79-1.06Z"/><path class="cls-136" d="M34.82,62.15l-1.36,3.77L33,67.54l7.47,2.55,3.94,1.35,11.38,3.88a4.85,4.85,0,0,0,2-.28c0.86-.42,3.22-2.76,4.35-3.43,2.12-1.25,5.23-4.45,4.49-5.3-1.6-1.84-8.89-3.64-11.88-4s-8.09-.88-8.09-0.88l-8.81-1.08Z"/><path class="cls-137" d="M34.82,62.2l-1.28,3.74-0.39,1.6,7.42,2.54,3.92,1.34,11.3,3.86a4.8,4.8,0,0,0,2-.27c0.85-.42,3.2-2.76,4.32-3.42,2.09-1.24,5.18-4.42,4.45-5.26-1.58-1.81-8.84-3.61-11.8-4s-8-.88-8-0.88L37.9,60.4Z"/><path class="cls-138" d="M34.82,62.24L33.61,66l-0.36,1.59,7.38,2.53,3.89,1.34,11.23,3.85a4.74,4.74,0,0,0,2-.26c0.83-.41,3.18-2.75,4.28-3.41,2.06-1.22,5.13-4.4,4.41-5.22-1.56-1.79-8.8-3.58-11.71-3.92s-8-.88-8-0.88L37.9,60.43Z"/><path class="cls-139" d="M34.82,62.29L33.69,66l-0.33,1.57,7.33,2.51,3.87,1.33,11.16,3.83a4.7,4.7,0,0,0,2-.25c0.82-.4,3.16-2.75,4.25-3.4,2-1.2,5.09-4.37,4.38-5.19-1.53-1.76-8.76-3.55-11.63-3.88s-7.91-.88-7.91-0.88l-8.85-1.15Z"/><path class="cls-140" d="M34.83,62.33L33.77,66l-0.31,1.56L40.75,70l3.84,1.32,11.09,3.81a4.65,4.65,0,0,0,1.95-.24c0.81-.4,3.14-2.75,4.21-3.38,2-1.18,5-4.35,4.34-5.15-1.51-1.73-8.72-3.52-11.54-3.85l-7.85-.88L37.92,60.5Z"/><path class="cls-141" d="M34.83,62.38l-1,3.62-0.28,1.54L40.81,70l3.82,1.32,11,3.79a4.6,4.6,0,0,0,1.94-.23c0.8-.39,3.12-2.75,4.17-3.37,2-1.16,5-4.32,4.3-5.11-1.49-1.71-8.68-3.49-11.46-3.81l-7.79-.88-8.88-1.19Z"/><path class="cls-142" d="M34.83,62.42L33.93,66l-0.25,1.53L40.87,70l3.8,1.31,10.94,3.77a4.55,4.55,0,0,0,1.93-.22c0.79-.39,3.1-2.75,4.14-3.36,1.94-1.15,4.94-4.29,4.26-5.07C64.47,64.77,57.3,63,54.56,62.67l-7.73-.89-8.9-1.21Z"/><path class="cls-143" d="M34.84,62.47L34,66l-0.22,1.52L40.93,70l3.77,1.3,10.87,3.76a4.51,4.51,0,0,0,1.91-.21c0.77-.38,3.08-2.75,4.1-3.35,1.91-1.13,4.89-4.27,4.22-5-1.44-1.65-8.6-3.43-11.29-3.75l-7.67-.89-8.91-1.23Z"/><path class="cls-144" d="M34.84,62.52L34.09,66l-0.19,1.5L41,70l3.75,1.3L55.54,75a4.47,4.47,0,0,0,1.9-.2c0.76-.37,3.06-2.75,4.07-3.34,1.88-1.11,4.84-4.24,4.19-5-1.42-1.63-8.56-3.4-11.21-3.71l-7.61-.89-8.93-1.25Z"/><path class="cls-145" d="M34.84,62.56l-0.67,3.5L34,67.55l7,2.44,3.72,1.29L55.5,75a4.43,4.43,0,0,0,1.89-.19c0.75-.37,3-2.75,4-3.33,1.85-1.09,4.79-4.22,4.15-5-1.4-1.6-8.52-3.37-11.13-3.68L46.89,62l-8.95-1.27Z"/><path class="cls-146" d="M34.85,62.61l-0.59,3.47-0.14,1.47,7,2.43,3.7,1.29L55.47,75a4.39,4.39,0,0,0,1.88-.18c0.74-.36,3-2.74,4-3.32,1.82-1.07,4.74-4.19,4.11-4.92C64.07,65,57,63.2,54.4,62.91S46.91,62,46.91,62l-9-1.29Z"/><path class="cls-147" d="M34.85,62.65l-0.52,3.44-0.11,1.46,7,2.42,3.67,1.28,10.58,3.68a4.35,4.35,0,0,0,1.87-.16c0.72-.36,3-2.74,4-3.31,1.79-1.06,4.7-4.17,4.07-4.88C64,65,56.89,63.26,54.36,63s-7.43-.9-7.43-0.9l-9-1.31Z"/><path class="cls-148" d="M34.85,62.7L34.41,66.1l-0.08,1.45L41.23,70l3.65,1.27L55.39,74.9a4.31,4.31,0,0,0,1.85-.15c0.71-.35,3-2.74,3.92-3.3,1.76-1,4.65-4.14,4-4.85-1.33-1.52-8.39-3.29-10.87-3.57S47,62.13,47,62.13l-9-1.33Z"/><path class="cls-149" d="M34.86,62.74l-0.36,3.38-0.05,1.43,6.86,2.4,3.62,1.27,10.44,3.65a4.28,4.28,0,0,0,1.84-.14c0.7-.34,3-2.74,3.88-3.29,1.73-1,4.6-4.12,4-4.81-1.3-1.5-8.35-3.26-10.79-3.54S47,62.19,47,62.19l-9-1.35Z"/><path class="cls-150" d="M34.86,62.79l-0.29,3.35,0,1.42,6.81,2.38L45,71.2l10.37,3.63a4.25,4.25,0,0,0,1.83-.13c0.69-.34,2.94-2.74,3.85-3.28,1.7-1,4.55-4.09,4-4.77-1.28-1.47-8.31-3.23-10.71-3.5S47,62.24,47,62.24l-9-1.38Z"/><path class="cls-151" d="M34.86,62.83l-0.21,3.32v1.4l6.76,2.37L45,71.18l10.29,3.61a4.21,4.21,0,0,0,1.82-.12c0.67-.33,2.92-2.74,3.81-3.27,1.67-1,4.5-4.07,3.92-4.73-1.26-1.44-8.27-3.2-10.62-3.47S47,62.3,47,62.3l-9-1.4Z"/><path class="cls-152" d="M34.86,62.88l-0.13,3.29,0,1.39,6.72,2.36L45,71.16l10.22,3.59a4.18,4.18,0,0,0,1.81-.11c0.66-.33,2.9-2.74,3.78-3.25,1.64-1,4.45-4,3.88-4.7-1.24-1.42-8.23-3.17-10.54-3.43S47,62.36,47,62.36L38,60.94Z"/><path class="cls-153" d="M34.87,62.92l-0.06,3.26,0.06,1.38,6.67,2.35,3.53,1.24,10.15,3.57a4.15,4.15,0,0,0,1.79-.1c0.65-.32,2.88-2.74,3.74-3.24,1.61-.95,4.4-4,3.84-4.66-1.21-1.39-8.19-3.14-10.46-3.4s-7.07-.91-7.07-0.91L38,61Z"/><path class="cls-154" d="M34.87,63l0,3.23L35,67.56l6.62,2.34,3.5,1.24,10.08,3.56A4.13,4.13,0,0,0,57,74.6c0.64-.31,2.86-2.73,3.7-3.23,1.58-.93,4.35-4,3.8-4.62-1.19-1.37-8.15-3.11-10.37-3.36s-7-.91-7-0.91L38,61Z"/><path class="cls-155" d="M34.87,63L35,66.21l0.11,1.35,6.57,2.32,3.48,1.23,10,3.54a4.1,4.1,0,0,0,1.77-.08c0.63-.31,2.84-2.73,3.67-3.22,1.54-.91,4.31-4,3.77-4.58-1.17-1.34-8.11-3.08-10.29-3.33s-6.95-.91-6.95-0.91L38,61Z"/><path class="cls-156" d="M34.88,63.06L35,66.22l0.14,1.33,6.53,2.31,3.45,1.22,9.93,3.52a4.08,4.08,0,0,0,1.76-.07c0.61-.3,2.82-2.73,3.63-3.21,1.51-.9,4.26-3.94,3.73-4.55-1.14-1.31-8.07-3-10.2-3.29s-6.89-.91-6.89-0.91L38,61.09Z"/><path class="cls-157" d="M34.88,63.11l0.25,3.13,0.17,1.32,6.48,2.3,3.43,1.22,9.86,3.5a4.06,4.06,0,0,0,1.75-.06c0.6-.3,2.8-2.73,3.59-3.2,1.48-.88,4.21-3.91,3.69-4.51-1.12-1.29-8-3-10.12-3.26s-6.83-.91-6.83-0.91L38,61.12Z"/><path class="cls-158" d="M34.88,63.15l0.33,3.1,0.2,1.31,6.43,2.29,3.4,1.21L55,74.54a4,4,0,0,0,1.73,0c0.59-.29,2.78-2.73,3.56-3.19,1.45-.86,4.16-3.89,3.65-4.47-1.1-1.26-8-3-10-3.22s-6.77-.91-6.77-0.91L38,61.16Z"/><path class="cls-159" d="M34.89,63.2l0.4,3.07,0.23,1.29,6.38,2.28L45.28,71,55,74.51a4,4,0,0,0,1.72,0c0.58-.28,2.76-2.73,3.52-3.18,1.42-.84,4.11-3.86,3.61-4.43-1.08-1.23-7.94-3-10-3.19s-6.71-.92-6.71-0.92L38,61.19Z"/><path class="cls-160" d="M34.89,63.24l0.48,3,0.25,1.28L42,69.83,45.31,71,55,74.47a4,4,0,0,0,1.71,0c0.56-.28,2.74-2.73,3.49-3.17,1.39-.82,4.06-3.84,3.58-4.4-1.05-1.21-7.9-2.93-9.87-3.15s-6.65-.92-6.65-0.92L38,61.23Z"/><path class="cls-161" d="M34.89,63.29l0.56,3,0.28,1.26L42,69.82,45.35,71l9.57,3.43a4,4,0,0,0,1.7,0c0.55-.27,2.72-2.73,3.45-3.16,1.36-.81,4-3.81,3.54-4.36-1-1.18-7.86-2.9-9.79-3.12s-6.59-.92-6.59-0.92L38,61.27Z"/><path class="cls-162" d="M34.89,63.33l0.63,3,0.31,1.25,6.24,2.24L45.38,71l9.5,3.41a4,4,0,0,0,1.69,0c0.54-.27,2.7-2.72,3.41-3.15,1.33-.79,4-3.79,3.5-4.32-1-1.16-7.82-2.87-9.7-3.08s-6.53-.92-6.53-0.92L38,61.3Z"/><path class="cls-163" d="M34.9,63.38l0.71,3,0.34,1.24,6.2,2.23L45.42,71l9.43,3.39a4,4,0,0,0,1.67,0c0.53-.26,2.68-2.72,3.38-3.14,1.3-.77,3.92-3.76,3.46-4.28-1-1.13-7.78-2.84-9.62-3S47.28,63,47.28,63l-9.22-1.65Z"/><path class="cls-164" d="M34.9,63.42l0.78,2.92,0.37,1.22,6.15,2.22L45.46,71l9.36,3.37a4,4,0,0,0,1.66,0c0.52-.25,2.66-2.72,3.34-3.12,1.27-.75,3.87-3.74,3.42-4.25-1-1.1-7.74-2.81-9.53-3S47.3,63,47.3,63l-9.24-1.67Z"/><path class="cls-165" d="M34.9,63.47l0.86,2.89,0.4,1.21,6.1,2.21,3.23,1.17,9.28,3.36a3.94,3.94,0,0,0,1.65,0c0.5-.25,2.64-2.72,3.3-3.11,1.24-.73,3.82-3.71,3.38-4.21-0.94-1.08-7.7-2.78-9.45-3s-6.34-.93-6.34-0.93l-9.26-1.69Z"/><path class="cls-166" d="M34.91,63.51l0.94,2.86,0.42,1.19,6.05,2.19,3.21,1.16,9.21,3.34a3.94,3.94,0,0,0,1.64,0c0.49-.24,2.62-2.72,3.27-3.1,1.21-.72,3.77-3.69,3.35-4.17-0.92-1.05-7.66-2.75-9.37-2.94s-6.28-.93-6.28-0.93l-9.27-1.71Z"/><path class="cls-167" d="M34.91,63.56l1,2.83,0.45,1.18,6,2.18,3.18,1.16,9.14,3.32a3.94,3.94,0,0,0,1.63.05c0.48-.24,2.6-2.72,3.23-3.09,1.18-.7,3.72-3.66,3.31-4.13-0.89-1-7.61-2.72-9.28-2.91s-6.22-.93-6.22-0.93l-9.29-1.73Z"/><path class="cls-168" d="M34.91,63.6L36,66.41l0.48,1.17,6,2.17,3.16,1.15,9.07,3.3a3.94,3.94,0,0,0,1.61.06c0.47-.23,2.58-2.72,3.2-3.08,1.15-.68,3.67-3.63,3.27-4.1-0.87-1-7.57-2.69-9.2-2.87s-6.16-.93-6.16-0.93l-9.3-1.75Z"/><path class="cls-169" d="M34.92,63.65l1.17,2.77,0.51,1.15,5.91,2.16,3.13,1.14,9,3.28a3.94,3.94,0,0,0,1.6.07c0.45-.22,2.56-2.72,3.16-3.07,1.12-.66,3.62-3.61,3.23-4.06-0.85-1-7.53-2.66-9.12-2.84s-6.1-.93-6.1-0.93l-9.32-1.77Z"/><path class="cls-170" d="M34.92,63.69l1.24,2.74,0.54,1.14,5.86,2.15,3.11,1.14,8.92,3.26a4,4,0,0,0,1.59.09c0.44-.22,2.54-2.71,3.12-3.06,1.09-.64,3.58-3.58,3.19-4-0.82-.95-7.49-2.63-9-2.8s-6-.94-6-0.94l-9.33-1.79Z"/><path class="cls-171" d="M34.92,63.74l1.32,2.71,0.56,1.13,5.82,2.13,3.08,1.13,8.85,3.25a4,4,0,0,0,1.58.1c0.43-.21,2.52-2.71,3.09-3,1.06-.63,3.53-3.56,3.16-4-0.8-.92-7.45-2.6-8.95-2.77s-6-.94-6-0.94L38.1,61.63Z"/><path class="cls-172" d="M34.93,63.79l1.4,2.68,0.59,1.11,5.77,2.12,3.06,1.13,8.78,3.23a4,4,0,0,0,1.57.11c0.42-.21,2.5-2.71,3.05-3,1-.61,3.48-3.53,3.12-3.95-0.78-.89-7.41-2.57-8.86-2.73s-5.92-.94-5.92-0.94l-9.36-1.84Z"/><path class="cls-173" d="M34.93,63.83l1.47,2.65L37,67.58l5.72,2.11,3,1.12L54.49,74a4,4,0,0,0,1.55.12c0.4-.2,2.48-2.71,3-3,1-.59,3.43-3.51,3.08-3.91-0.76-.87-7.37-2.54-8.78-2.7s-5.86-.94-5.86-0.94L38.11,61.7Z"/><path class="cls-174" d="M34.93,63.88l1.55,2.62,0.65,1.08,5.68,2.1,3,1.11L54.45,74a4,4,0,0,0,1.54.13c0.39-.19,2.46-2.71,3-3,1-.57,3.38-3.48,3-3.87-0.73-.84-7.33-2.51-8.7-2.67s-5.8-.94-5.8-0.94l-9.39-1.88Z"/><path class="cls-175" d="M34.93,63.92l1.63,2.59,0.68,1.07,5.63,2.09,3,1.11,8.56,3.17a4,4,0,0,0,1.53.14c0.38-.19,2.44-2.71,2.94-3,0.94-.56,3.33-3.46,3-3.83-0.71-.81-7.29-2.48-8.61-2.63s-5.74-.94-5.74-0.94l-9.41-1.9Z"/><path class="cls-176" d="M34.94,64l1.7,2.56,0.7,1.06,5.58,2.07,3,1.1,8.49,3.16a4.06,4.06,0,0,0,1.52.15c0.37-.18,2.42-2.71,2.91-3,0.91-.54,3.28-3.43,3-3.8-0.69-.79-7.25-2.45-8.53-2.6s-5.68-.95-5.68-0.95l-9.43-1.92Z"/><path class="cls-177" d="M34.94,64l1.78,2.53,0.73,1L43,69.64l2.94,1.1,8.42,3.14a4.09,4.09,0,0,0,1.51.16c0.36-.17,2.4-2.71,2.87-3,0.88-.52,3.23-3.41,2.93-3.76-0.66-.76-7.2-2.42-8.45-2.56s-5.62-.95-5.62-0.95l-9.44-1.94Z"/><path class="cls-178" d="M34.94,64.06l1.86,2.5,0.76,1L43,69.63,46,70.72l8.35,3.12A4.13,4.13,0,0,0,55.8,74c0.34-.17,2.38-2.7,2.83-3,0.85-.5,3.19-3.38,2.89-3.72-0.64-.74-7.16-2.39-8.36-2.53s-5.56-.95-5.56-0.95l-9.46-2Z"/><path class="cls-179" d="M34.95,64.1l1.93,2.47,0.79,1,5.44,2L46,70.71l8.27,3.1a4.17,4.17,0,0,0,1.48.18c0.33-.16,2.36-2.7,2.8-3,0.82-.48,3.14-3.36,2.85-3.68-0.62-.71-7.12-2.36-8.28-2.49s-5.5-1-5.5-1l-9.47-2Z"/><path class="cls-180" d="M35,64.15l2,2.44,0.82,1,5.39,2L46,70.69l8.2,3.08A4.22,4.22,0,0,0,55.7,74c0.32-.16,2.34-2.7,2.76-3,0.79-.47,3.09-3.33,2.81-3.65-0.59-.68-7.08-2.33-8.19-2.46s-5.44-1-5.44-1l-9.49-2Z"/><path class="cls-181" d="M35,64.19L37,66.6l0.84,1,5.34,2,2.84,1.07,8.13,3.06a4.28,4.28,0,0,0,1.46.21C56,73.79,58,71.24,58.38,71c0.76-.45,3-3.3,2.77-3.61-0.57-.66-7-2.3-8.11-2.42s-5.38-1-5.38-1l-9.5-2Z"/><path class="cls-182" d="M35,64.24l2.16,2.38,0.87,1,5.3,2,2.81,1.06,8.06,3a4.35,4.35,0,0,0,1.45.22c0.29-.14,2.3-2.7,2.69-2.93,0.73-.43,3-3.28,2.74-3.57-0.55-.63-7-2.27-8-2.39s-5.32-1-5.32-1l-9.52-2Z"/><path class="cls-183" d="M35,64.28l2.24,2.35,0.9,1,5.25,2,2.79,1.06,8,3a4.42,4.42,0,0,0,1.43.23c0.28-.14,2.28-2.7,2.65-2.92,0.7-.41,2.94-3.25,2.7-3.53-0.53-.6-7-2.24-7.94-2.35s-5.26-1-5.26-1l-9.53-2.07Z"/><path class="cls-184" d="M35,64.33l2.32,2.32,0.93,0.94,5.2,2,2.76,1.05,7.91,3a4.51,4.51,0,0,0,1.42.24c0.27-.13,2.26-2.7,2.62-2.91,0.67-.39,2.89-3.23,2.66-3.5-0.5-.58-6.92-2.21-7.86-2.32s-5.2-1-5.2-1L38.18,62.1Z"/><path class="cls-185" d="M35,64.38l2.39,2.29,1,0.93,5.15,2,2.74,1,7.84,3a4.6,4.6,0,0,0,1.41.25c0.26-.13,2.24-2.7,2.58-2.9,0.64-.38,2.84-3.2,2.62-3.46-0.48-.55-6.88-2.18-7.78-2.28s-5.14-1-5.14-1l-9.57-2.11Z"/><path class="cls-186" d="M35,64.42l2.47,2.26,1,0.92,5.11,2,2.71,1,7.77,3a4.71,4.71,0,0,0,1.4.26c0.25-.12,2.22-2.69,2.54-2.89,0.61-.36,2.8-3.18,2.58-3.42-0.46-.53-6.84-2.15-7.69-2.25s-5.08-1-5.08-1l-9.58-2.13Z"/><path class="cls-187" d="M35,64.47l2.55,2.23,1,0.9,5.06,1.94,2.69,1,7.7,3a4.84,4.84,0,0,0,1.39.27c0.23-.11,2.2-2.69,2.51-2.88,0.58-.34,2.75-3.15,2.55-3.38-0.43-.5-6.79-2.12-7.61-2.21s-5-1-5-1l-9.6-2.15Z"/><path class="cls-188" d="M35,64.51l2.62,2.2,1,0.89,5,1.93,2.67,1,7.63,2.94a5,5,0,0,0,1.37.28c0.22-.11,2.18-2.69,2.47-2.86,0.55-.32,2.7-3.13,2.51-3.35-0.41-.47-6.75-2.09-7.52-2.18s-5-1-5-1L38.2,62.25Z"/><path class="cls-189" d="M35,64.56l2.7,2.17,1.07,0.87,5,1.92,2.64,1,7.55,2.92a5.14,5.14,0,0,0,1.36.29c0.21-.1,2.16-2.69,2.44-2.85,0.51-.3,2.65-3.1,2.47-3.31-0.39-.45-6.71-2.06-7.44-2.14s-4.9-1-4.9-1l-9.63-2.19Z"/><path class="cls-190" d="M35,64.6l2.78,2.14,1.1,0.86,4.92,1.91,2.62,1,7.48,2.9a5.33,5.33,0,0,0,1.35.3c0.2-.1,2.14-2.69,2.4-2.84,0.48-.29,2.6-3.08,2.43-3.27-0.37-.42-6.67-2-7.36-2.11s-4.84-1-4.84-1l-9.64-2.21Z"/><path class="cls-191" d="M35,64.65l2.85,2.11L39,67.6l4.87,1.9,2.59,1,7.41,2.88a5.54,5.54,0,0,0,1.34.31c0.18-.09,2.12-2.69,2.36-2.83,0.45-.27,2.55-3.05,2.39-3.23-0.34-.39-6.63-2-7.27-2.07s-4.78-1-4.78-1l-9.66-2.23Z"/><path class="cls-192" d="M35,64.69l2.93,2.07,1.15,0.83,4.82,1.88,2.57,1,7.34,2.86a5.79,5.79,0,0,0,1.33.33c0.17-.08,2.1-2.69,2.33-2.82a12.72,12.72,0,0,0,2.35-3.2c-0.32-.37-6.59-2-7.19-2s-4.72-1-4.72-1l-9.67-2.26Z"/><path class="cls-193" d="M35,64.74l3,2,1.18,0.82L44,69.47l2.54,1,7.26,2.85a6.09,6.09,0,0,0,1.31.34c0.16-.08,2.08-2.69,2.29-2.81a13.3,13.3,0,0,0,2.32-3.16c-0.3-.34-6.55-1.94-7.11-2s-4.66-1-4.66-1l-9.69-2.28Z"/><path class="cls-194" d="M35,64.78l3.08,2,1.21,0.8L44,69.46l2.52,1,7.19,2.83a6.43,6.43,0,0,0,1.3.35c0.15-.07,2.06-2.68,2.25-2.8a14,14,0,0,0,2.28-3.12,57.06,57.06,0,0,0-7-2c-0.51-.06-4.6-1-4.6-1l-9.7-2.3Z"/><path class="cls-195" d="M35,64.83l3.16,2,1.24,0.79,4.68,1.85,2.49,1,7.12,2.81A6.85,6.85,0,0,0,55,73.6c0.13-.07,2-2.68,2.22-2.79a14.82,14.82,0,0,0,2.24-3.08A60.77,60.77,0,0,0,52.5,65.8c-0.47-.05-4.54-1-4.54-1L38.24,62.5Z"/><path class="cls-196" d="M35,64.87l3.24,2L39.5,67.6l4.63,1.84,2.47,1,7,2.79a7.36,7.36,0,0,0,1.28.37c0.12-.06,2-2.68,2.18-2.78a15.82,15.82,0,0,0,2.2-3,65.23,65.23,0,0,0-6.85-1.9c-0.43,0-4.48-1-4.48-1l-9.74-2.34Z"/><path class="cls-197" d="M35,64.92l3.31,1.92,1.29,0.76,4.59,1.82,2.44,1,7,2.77a8,8,0,0,0,1.27.38c0.11-.05,2-2.68,2.15-2.77a17,17,0,0,0,2.16-3C59,67.54,52.81,66,52.42,65.92s-4.42-1-4.42-1l-9.75-2.36Z"/><path class="cls-198" d="M35,65l3.39,1.89,1.32,0.75,4.54,1.81,2.42,1,6.9,2.76a8.77,8.77,0,0,0,1.25.39c0.1,0,2-2.68,2.11-2.76a18.59,18.59,0,0,0,2.13-3C58.89,67.59,52.72,66,52.38,66S48,65,48,65l-9.77-2.38Z"/><path class="cls-199" d="M35,65l3.47,1.86,1.35,0.73,4.49,1.8,2.4,1,6.83,2.74a9.79,9.79,0,0,0,1.24.4c0.09,0,2-2.68,2.07-2.75a20.59,20.59,0,0,0,2.09-2.93c-0.16-.18-6.3-1.76-6.6-1.79S48,65,48,65l-9.78-2.4Z"/><path class="cls-200" d="M35,65.06l3.54,1.83,1.38,0.72,4.45,1.79,2.37,1,6.76,2.72a11.16,11.16,0,0,0,1.23.41c0.07,0,1.94-2.68,2-2.73a23.26,23.26,0,0,0,2-2.9c-0.14-.16-6.26-1.73-6.52-1.76s-4.24-1-4.24-1l-9.8-2.42Z"/><path class="cls-201" d="M35,65.1l3.62,1.8L40,67.61l4.4,1.78,2.35,0.95L53.47,73s1.16,0.45,1.22.42,1.92-2.68,2-2.72a27,27,0,0,0,2-2.86c-0.11-.13-6.22-1.7-6.43-1.72s-4.18-1-4.18-1l-9.81-2.44Z"/><path class="cls-202" d="M35,65.15l3.7,1.77,1.43,0.69,4.35,1.76,2.32,0.94L53.43,73s1.16,0.46,1.21.43,1.9-2.67,2-2.71a32.68,32.68,0,0,0,2-2.82c-0.09-.11-6.18-1.67-6.35-1.69s-4.12-1-4.12-1l-9.83-2.46Z"/><path class="cls-203" d="M35,65.19l3.77,1.74,1.46,0.68,4.3,1.75,2.3,0.94L53.4,73s1.16,0.46,1.19.45,1.88-2.67,1.93-2.7,2-2.75,1.93-2.78-6.14-1.64-6.27-1.65-4.06-1-4.06-1l-9.84-2.49Z"/><path class="cls-204" d="M35,65.24l3.85,1.71,1.49,0.66,4.26,1.74,2.27,0.93,6.47,2.65s1.16,0.47,1.18.46,1.86-2.67,1.89-2.69,1.92-2.72,1.9-2.74-6.1-1.61-6.18-1.62-4-1-4-1l-9.86-2.51Z"/><path class="cls-205" d="M35,65.28L39,67l1.52,0.65,4.21,1.73,2.25,0.92,6.4,2.63,1.17,0.47s1.84-2.67,1.86-2.68S58.22,68,58.21,68s-6.06-1.58-6.1-1.58l-3.93-1L38.3,62.86Z"/><polygon class="cls-206" points="35.03 65.33 44.74 69.33 54.45 73.34 56.27 70.67 58.09 68 48.2 65.45 38.31 62.9 35.03 65.33"/></g><path class="cls-207" d="M40.06,15.62C40.3,7.6,43.35,2,46.49,1.75a3.6,3.6,0,0,1,2.85,1c2,1.87,3.24,6.11,3.57,12l0.9-.06C53.48,8.54,52.18,4.18,50,2.12A4.53,4.53,0,0,0,46.41.84c-3.62.33-7,6.19-7.21,14.84Z"/><path class="cls-208" d="M70,63.41c-0.86-13-2.54-48.18-2.54-48.18l-6-.12,2,51.65,7.45,3Z"/><polygon class="cls-209" points="60.59 77.64 60.59 77.64 70.94 69.73 63.48 66.77 60.59 77.64"/><path class="cls-210" d="M24.35,34.55c0.36-9.09.8-18.36,0.8-18.36l37.21-2.54L61.65,68,60.6,77.64l-38.3-11a5.72,5.72,0,0,0,.44-2c0.1-1.32.63-5.2,0.63-5.43S23.9,45.87,24.35,34.55Z"/><polygon class="cls-211" points="62.39 15.16 61.65 68.02 60.59 77.64 63.48 66.77 62.39 15.16"/><path class="cls-212" d="M22.73,64.67a5.72,5.72,0,0,1-.44,2l38.3,11L61.65,68,23.36,59.33C23.29,60,22.83,63.44,22.73,64.67Z"/><polygon class="cls-213" points="70.02 63.41 63.48 66.77 70.94 69.73 70.02 63.41"/><polygon class="cls-214" points="61.65 68.02 60.59 77.64 63.48 66.77 61.65 68.02"/><polygon class="cls-215" points="25.22 16.19 62.43 13.66 63.55 15.16 67.55 15.24 70.09 63.41 71 69.73 60.66 77.64 22.36 66.65 23.42 59.33 25.22 16.19"/><path class="cls-216" d="M50.41,17.71a1.2,1.2,0,0,1-1.2,1.19,1.22,1.22,0,0,1,0-2.43A1.19,1.19,0,0,1,50.41,17.71Z"/><ellipse class="cls-217" cx="49.05" cy="17.63" rx="0.88" ry="0.79" transform="translate(30.46 66.32) rotate(-88.87)"/><path class="cls-218" d="M49.19,16.53a1.1,1.1,0,1,0,1,1.12A1.07,1.07,0,0,0,49.19,16.53ZM49,18.39a0.77,0.77,0,1,1,.7-0.75A0.73,0.73,0,0,1,49,18.39Z"/><path class="cls-216" d="M36.5,18.38a1.11,1.11,0,0,1-1.11,1.1,1.13,1.13,0,0,1,0-2.25A1.1,1.1,0,0,1,36.5,18.38Z"/><ellipse class="cls-217" cx="35.24" cy="18.3" rx="0.82" ry="0.73" transform="translate(16.24 53.17) rotate(-88.87)"/><path class="cls-219" d="M35.37,17.29a1,1,0,1,0,.94,1A1,1,0,0,0,35.37,17.29ZM35.22,19a0.71,0.71,0,1,1,.65-0.7A0.67,0.67,0,0,1,35.22,19Z"/><path class="cls-220" d="M35.23,18.79a0.44,0.44,0,0,0,.45-0.45c0-10.27,4.24-17.44,7.93-17.44a3.6,3.6,0,0,1,2.74,1.3c2.17,2.4,2.92,7.93,2.28,15.36a0.46,0.46,0,0,0,.38.56,0.48,0.48,0,0,0,.52-0.44C50.21,9.86,49.39,4.22,47,1.59A4.53,4.53,0,0,0,43.61,0c-4.2,0-8.74,7.39-8.79,18.36A0.43,0.43,0,0,0,35.23,18.79Z"/><path class="cls-221" d="M47,1.59A4.54,4.54,0,0,0,43.73,0c-4.17.14-8.62,7.49-8.67,18.35a0.45,0.45,0,0,0,.29.42,0.45,0.45,0,0,0,.32-0.43c0-10.27,4.24-17.44,7.93-17.44h0.24a3.6,3.6,0,0,1,2.74,1.3c2.17,2.4,2.92,7.93,2.28,15.36a0.48,0.48,0,0,0,.31.54,0.5,0.5,0,0,0,.35-0.43C50.21,9.86,49.39,4.22,47,1.59Z"/><path class="cls-222" d="M42.71,48c-0.66-1.39-1-2.7-.17-4a25.65,25.65,0,0,1,1.65-2.18A27,27,0,0,0,46.31,39a7.37,7.37,0,0,0,.52-5.71,11.46,11.46,0,0,0-3.54-5.82A12.71,12.71,0,0,0,42,26.57a14.94,14.94,0,0,1,.06,1.6,7.87,7.87,0,0,1-1.48,3.56c-0.72,1.16-1.48,2.3-2.13,3.51a7.43,7.43,0,0,0,.06,6.87A19.54,19.54,0,0,0,39.61,44a1.77,1.77,0,0,0,.21.24c-0.12-.75-0.24-1.44-0.34-2.13a9.6,9.6,0,0,1,1.18-6.15c0.46-.83.91-1.68,1.36-2.51a8.52,8.52,0,0,0,1.11-3.57h0.11c0,0.35,0,.7,0,1.05a7.89,7.89,0,0,1-.82,2.94c-0.31.66-.6,1.34-1,2a10.57,10.57,0,0,0-1,6.89A21.55,21.55,0,0,0,42.3,48c0.1,0.22.21,0.44,0.52,0.34"/><g class="cls-223"><path class="cls-224" d="M73.83,48.1a24.68,24.68,0,0,0-13.65-.94c-1.11.24-.68-0.23-1.06-1.62l-0.27-1c-0.11-.43-0.14-3.42-0.15-3.76a1.83,1.83,0,0,1,1.43-2.17c4.58-1,7.83-.68,12.35.33a32.21,32.21,0,0,1,4,1.16q1.37,0.5,2.7,1.12a27.85,27.85,0,0,0-6.53,2.1A28.49,28.49,0,0,1,75.9,49Q74.88,48.48,73.83,48.1Z"/><path class="cls-225" d="M10.26,43.27a24.69,24.69,0,0,1,13.64,1c1.06,0.39.7-.13,1.28-1.45l0.41-1c0.17-.41.62-3.37,0.68-3.7a1.83,1.83,0,0,0-1.11-2.35c-4.39-1.63-7.65-1.79-12.28-1.42A32.41,32.41,0,0,0,8.8,35q-1.42.3-2.83,0.73a27.84,27.84,0,0,1,6.17,3,28.48,28.48,0,0,0-4.05,5.13Q9.16,43.5,10.26,43.27Z"/><path class="cls-226" d="M65.37,41.39s-7.41.9-6.6-1.53c0,0-.65,3.26-0.29,4s7.18,0.59,7.18.59Z"/><path class="cls-227" d="M26.31,37.79s-8.26-.7-6.78.21c0.32,1.1-.83,2.8-0.83,2.8l4.19,1L26,41.48S26.29,38.24,26.31,37.79Z"/><path class="cls-228" d="M40,54.43a92.42,92.42,0,0,1-16.09-2.84q-2.45-.66-4.86-1.45c-1.85-.61-3.07-2-2.74-2.94l2.79-8.36A1.86,1.86,0,0,1,19.53,38,3.94,3.94,0,0,0,22,40.3q2.18,0.72,4.39,1.31h0A83.37,83.37,0,0,0,42.1,44.26L41.37,54.53Z"/><path class="cls-229" d="M64.08,53.35q-2.5.44-5,.75a92.43,92.43,0,0,1-16.33.52l-1.36-.09L42.1,44.26h0a83.36,83.36,0,0,0,16-.41h0q2.27-.27,4.53-0.67a3.91,3.91,0,0,0,2.78-1.81,1.4,1.4,0,0,1,.26.77l1.57,8.67C67.4,51.84,66,53,64.08,53.35Z"/></g></g></g></svg>