<svg xmlns="http://www.w3.org/2000/svg" xmlns:xlink="http://www.w3.org/1999/xlink" viewBox="0 0 94 100.44"><defs><style>.cls-1{fill:none;}.cls-2{isolation:isolate;}.cls-3{fill:#a9abae;}.cls-4,.cls-5{fill:#c0d24c;}.cls-215,.cls-5{stroke:#fff;stroke-miterlimit:10;stroke-width:0.25px;}.cls-6,.cls-91{fill:#adadad;}.cls-207,.cls-7{fill:#393939;}.cls-7{opacity:0.1;}.cls-215,.cls-7,.cls-8{mix-blend-mode:multiply;}.cls-222,.cls-9{fill:#fff;}.cls-9{opacity:0.42;}.cls-10{fill:#fefefe;opacity:0.42;}.cls-11{fill:#fdfdfd;opacity:0.43;}.cls-12{fill:#fcfcfc;opacity:0.43;}.cls-13{fill:#fbfbfb;opacity:0.43;}.cls-14{fill:#fafafa;opacity:0.43;}.cls-15{fill:#f9f9f9;opacity:0.44;}.cls-16{fill:#f8f8f8;opacity:0.44;}.cls-17{fill:#f7f7f7;opacity:0.44;}.cls-18{fill:#f6f6f6;opacity:0.45;}.cls-19{fill:#f5f5f5;opacity:0.45;}.cls-20{fill:#f4f4f4;opacity:0.45;}.cls-21{fill:#f3f3f3;opacity:0.46;}.cls-22{fill:#f2f2f2;opacity:0.46;}.cls-23{fill:#f1f1f1;opacity:0.46;}.cls-24{fill:#f0f0f0;opacity:0.46;}.cls-25{fill:#efefef;opacity:0.47;}.cls-26{fill:#eee;opacity:0.47;}.cls-27{fill:#ededed;opacity:0.47;}.cls-28{fill:#ececec;opacity:0.48;}.cls-29{fill:#ebebeb;opacity:0.48;}.cls-30{fill:#eaeaea;opacity:0.48;}.cls-31{fill:#e9e9e9;opacity:0.48;}.cls-32{fill:#e8e8e8;opacity:0.49;}.cls-33{fill:#e7e7e7;opacity:0.49;}.cls-34{fill:#e6e6e6;opacity:0.49;}.cls-35{fill:#e5e5e5;opacity:0.5;}.cls-220,.cls-36{fill:#e4e4e4;}.cls-36{opacity:0.5;}.cls-37{fill:#e3e3e3;opacity:0.5;}.cls-38{fill:#e2e2e2;opacity:0.5;}.cls-39{fill:#e1e1e1;opacity:0.51;}.cls-40{fill:#e0e0e0;opacity:0.51;}.cls-41{fill:#dfdfdf;opacity:0.51;}.cls-42{fill:#dedede;opacity:0.52;}.cls-43{fill:#ddd;opacity:0.52;}.cls-44{fill:#dcdcdc;opacity:0.52;}.cls-45{fill:#dbdbdb;opacity:0.53;}.cls-46{fill:#dadada;opacity:0.53;}.cls-47{fill:#d9d9d9;opacity:0.53;}.cls-48{fill:#d8d8d8;opacity:0.53;}.cls-49{fill:#d7d7d7;opacity:0.54;}.cls-50{fill:#d6d6d6;opacity:0.54;}.cls-51{fill:#d5d5d5;opacity:0.54;}.cls-52{fill:#d4d4d4;opacity:0.55;}.cls-53{fill:#d3d3d3;opacity:0.55;}.cls-54{fill:#d2d2d2;opacity:0.55;}.cls-55{fill:#d1d1d1;opacity:0.55;}.cls-56{fill:#d0d0d0;opacity:0.56;}.cls-57{fill:#cfcfcf;opacity:0.56;}.cls-58{fill:#cecece;opacity:0.56;}.cls-59{fill:#cdcdcd;opacity:0.57;}.cls-60{fill:#ccc;opacity:0.57;}.cls-61{fill:#cbcbcb;opacity:0.57;}.cls-62{fill:#cacaca;opacity:0.58;}.cls-63{fill:#c9c9c9;opacity:0.58;}.cls-64{fill:#c8c8c8;opacity:0.58;}.cls-65{fill:#c7c7c7;opacity:0.58;}.cls-216,.cls-66{fill:#c6c6c6;}.cls-66{opacity:0.59;}.cls-67{fill:#c5c5c5;opacity:0.59;}.cls-68{fill:#c4c4c4;opacity:0.59;}.cls-69{fill:#c3c3c3;opacity:0.6;}.cls-70{fill:#c2c2c2;opacity:0.6;}.cls-71{fill:#c1c1c1;opacity:0.6;}.cls-72{fill:silver;opacity:0.6;}.cls-73{fill:#bfbfbf;opacity:0.61;}.cls-74{fill:#bebebe;opacity:0.61;}.cls-75{fill:#bdbdbd;opacity:0.61;}.cls-76{fill:#bcbcbc;opacity:0.62;}.cls-77{fill:#bbb;opacity:0.62;}.cls-78{fill:#bababa;opacity:0.62;}.cls-79{fill:#b9b9b9;opacity:0.63;}.cls-80{fill:#b8b8b8;opacity:0.63;}.cls-81{fill:#b7b7b7;opacity:0.63;}.cls-82{fill:#b6b6b6;opacity:0.63;}.cls-83{fill:#b5b5b5;opacity:0.64;}.cls-84{fill:#b4b4b4;opacity:0.64;}.cls-85{fill:#b3b3b3;opacity:0.64;}.cls-86{fill:#b2b2b2;opacity:0.65;}.cls-87{fill:#b1b1b1;opacity:0.65;}.cls-88{fill:#b0b0b0;opacity:0.65;}.cls-89{fill:#afafaf;opacity:0.65;}.cls-90{fill:#aeaeae;opacity:0.66;}.cls-91{opacity:0.66;}.cls-92{fill:#acacac;opacity:0.66;}.cls-93{fill:#ababab;opacity:0.67;}.cls-94{fill:#aaa;opacity:0.67;}.cls-95{fill:#a9a9a9;opacity:0.67;}.cls-96{fill:#a8a8a8;opacity:0.67;}.cls-97{fill:#a7a7a7;opacity:0.68;}.cls-98{fill:#a6a6a6;opacity:0.68;}.cls-99{fill:#a5a5a5;opacity:0.68;}.cls-100{fill:#a4a4a4;opacity:0.69;}.cls-101{fill:#a3a3a3;opacity:0.69;}.cls-102{fill:#a2a2a2;opacity:0.69;}.cls-103{fill:#a1a1a1;opacity:0.7;}.cls-104{fill:#a0a0a0;opacity:0.7;}.cls-105{fill:#9f9f9f;opacity:0.7;}.cls-106,.cls-221{fill:#9e9e9e;}.cls-106{opacity:0.7;}.cls-107{fill:#9d9d9d;opacity:0.71;}.cls-108{fill:#9c9c9c;opacity:0.71;}.cls-109{fill:#9b9b9b;opacity:0.71;}.cls-110{fill:#9a9a9a;opacity:0.72;}.cls-111{fill:#999;opacity:0.72;}.cls-112{fill:#989898;opacity:0.72;}.cls-113{fill:#979797;opacity:0.72;}.cls-114{fill:#969696;opacity:0.73;}.cls-115{fill:#959595;opacity:0.73;}.cls-116{fill:#949494;opacity:0.73;}.cls-117{fill:#939393;opacity:0.74;}.cls-118{fill:#929292;opacity:0.74;}.cls-119{fill:#919191;opacity:0.74;}.cls-120{fill:#909090;opacity:0.75;}.cls-121{fill:#8f8f8f;opacity:0.75;}.cls-122{fill:#8e8e8e;opacity:0.75;}.cls-123{fill:#8d8d8d;opacity:0.75;}.cls-124{fill:#8c8c8c;opacity:0.76;}.cls-125{fill:#8b8b8b;opacity:0.76;}.cls-126{fill:#8a8a8a;opacity:0.76;}.cls-127{fill:#898989;opacity:0.77;}.cls-128{fill:#888;opacity:0.77;}.cls-129{fill:#878787;opacity:0.77;}.cls-130{fill:#868686;opacity:0.77;}.cls-131{fill:#858585;opacity:0.78;}.cls-132{fill:#848484;opacity:0.78;}.cls-133{fill:#838383;opacity:0.78;}.cls-134{fill:#828282;opacity:0.79;}.cls-135{fill:#818181;opacity:0.79;}.cls-136{fill:gray;opacity:0.79;}.cls-137{fill:#7f7f7f;opacity:0.79;}.cls-138{fill:#7e7e7e;opacity:0.8;}.cls-139{fill:#7d7d7d;opacity:0.8;}.cls-140{fill:#7c7c7c;opacity:0.8;}.cls-141{fill:#7b7b7b;opacity:0.81;}.cls-142{fill:#7a7a7a;opacity:0.81;}.cls-143{fill:#797979;opacity:0.81;}.cls-144{fill:#787878;opacity:0.82;}.cls-145{fill:#777;opacity:0.82;}.cls-146{fill:#767676;opacity:0.82;}.cls-147{fill:#757575;opacity:0.82;}.cls-148{fill:#747474;opacity:0.83;}.cls-149{fill:#737373;opacity:0.83;}.cls-150{fill:#727272;opacity:0.83;}.cls-151{fill:#717171;opacity:0.84;}.cls-152{fill:#707070;opacity:0.84;}.cls-153{fill:#6f6f6f;opacity:0.84;}.cls-154{fill:#6e6e6e;opacity:0.84;}.cls-155{fill:#6d6d6d;opacity:0.85;}.cls-156{fill:#6c6c6c;opacity:0.85;}.cls-157{fill:#6b6b6b;opacity:0.85;}.cls-158{fill:#6a6a6a;opacity:0.86;}.cls-159{fill:#696969;opacity:0.86;}.cls-160{fill:#686868;opacity:0.86;}.cls-161{fill:#676767;opacity:0.87;}.cls-162{fill:#666;opacity:0.87;}.cls-163{fill:#656565;opacity:0.87;}.cls-164{fill:#646464;opacity:0.87;}.cls-165{fill:#636363;opacity:0.88;}.cls-166{fill:#626262;opacity:0.88;}.cls-167{fill:#616161;opacity:0.88;}.cls-168{fill:#606060;opacity:0.89;}.cls-169{fill:#5f5f5f;opacity:0.89;}.cls-170{fill:#5e5e5e;opacity:0.89;}.cls-171{fill:#5d5d5d;opacity:0.89;}.cls-172{fill:#5c5c5c;opacity:0.9;}.cls-173{fill:#5b5b5b;opacity:0.9;}.cls-174{fill:#5a5a5a;opacity:0.9;}.cls-175{fill:#595959;opacity:0.91;}.cls-176{fill:#585858;opacity:0.91;}.cls-177{fill:#575757;opacity:0.91;}.cls-178{fill:#565656;opacity:0.92;}.cls-179{fill:#555;opacity:0.92;}.cls-180{fill:#545454;opacity:0.92;}.cls-181{fill:#535353;opacity:0.92;}.cls-182{fill:#525252;opacity:0.93;}.cls-183{fill:#515151;opacity:0.93;}.cls-184{fill:#505050;opacity:0.93;}.cls-185{fill:#4f4f4f;opacity:0.94;}.cls-186{fill:#4e4e4e;opacity:0.94;}.cls-187{fill:#4d4d4d;opacity:0.94;}.cls-188{fill:#4c4c4c;opacity:0.94;}.cls-189{fill:#4b4b4b;opacity:0.95;}.cls-190{fill:#4a4a4a;opacity:0.95;}.cls-191{fill:#494949;opacity:0.95;}.cls-192{fill:#484848;opacity:0.96;}.cls-193{fill:#474747;opacity:0.96;}.cls-194{fill:#464646;opacity:0.96;}.cls-195{fill:#454545;opacity:0.96;}.cls-196{fill:#444;opacity:0.97;}.cls-197{fill:#434343;opacity:0.97;}.cls-198{fill:#424242;opacity:0.97;}.cls-199{fill:#414141;opacity:0.98;}.cls-200{fill:#404040;opacity:0.98;}.cls-201{fill:#3f3f3f;opacity:0.98;}.cls-202{fill:#3e3e3e;opacity:0.99;}.cls-203{fill:#3d3d3d;opacity:0.99;}.cls-204{fill:#3c3c3c;opacity:0.99;}.cls-205{fill:#3b3b3b;opacity:0.99;}.cls-206{fill:#3a3a3a;opacity:1;}.cls-208{fill:url(#Degradado_sin_nombre_111);}.cls-209{fill:url(#Degradado_sin_nombre_56);}.cls-210{fill:url(#Degradado_sin_nombre_58);}.cls-211{fill:url(#Degradado_sin_nombre_103);}.cls-212{fill:url(#Degradado_sin_nombre_131);}.cls-213{fill:url(#Degradado_sin_nombre_95);}.cls-214{fill:url(#Degradado_sin_nombre_109);}.cls-215{fill:#98a23b;}.cls-217{fill:#31240f;}.cls-218{fill:url(#radial-gradient);}.cls-219{fill:url(#radial-gradient-2);}.cls-223{clip-path:url(#clip-path);}.cls-224{fill:url(#linear-gradient);}.cls-225{fill:url(#linear-gradient-2);}.cls-226{fill:url(#linear-gradient-3);}.cls-227{fill:url(#linear-gradient-4);}.cls-228{fill:url(#linear-gradient-5);}.cls-229{fill:url(#linear-gradient-6);}</style><linearGradient id="Degradado_sin_nombre_111" x1="76.32" y1="45.56" x2="59.12" y2="46.22" gradientUnits="userSpaceOnUse"><stop offset="0" stop-color="silver"/><stop offset="0.21" stop-color="#cacaca"/><stop offset="0.64" stop-color="#d9d9d9"/><stop offset="1" stop-color="#dedede"/></linearGradient><linearGradient id="Degradado_sin_nombre_56" x1="68.83" y1="82.63" x2="60.42" y2="70.68" gradientUnits="userSpaceOnUse"><stop offset="0" stop-color="#bcbcbc"/><stop offset="1" stop-color="#e2e2e2"/></linearGradient><linearGradient id="Degradado_sin_nombre_58" x1="41.56" y1="42.54" x2="53.02" y2="99.05" gradientTransform="translate(-4.97 -31.07) rotate(1.13)" gradientUnits="userSpaceOnUse"><stop offset="0" stop-color="#fff"/><stop offset="0.5" stop-color="#f1f1f1"/><stop offset="1" stop-color="#e8e8e8"/></linearGradient><linearGradient id="Degradado_sin_nombre_103" x1="57.23" y1="51.98" x2="77.55" y2="44.68" gradientUnits="userSpaceOnUse"><stop offset="0" stop-color="#d4d4d4"/><stop offset="1" stop-color="#ababab"/></linearGradient><linearGradient id="Degradado_sin_nombre_131" x1="37.93" y1="88.26" x2="43.7" y2="62" gradientUnits="userSpaceOnUse"><stop offset="0.01" stop-color="#dadada"/><stop offset="1" stop-color="#e4e4e4"/></linearGradient><linearGradient id="Degradado_sin_nombre_95" x1="79.42" y1="104.95" x2="69.78" y2="94.69" gradientTransform="translate(-4.97 -31.07) rotate(1.13)" gradientUnits="userSpaceOnUse"><stop offset="0.01" stop-color="#dedede"/><stop offset="0.09" stop-color="#dbdbdb"/><stop offset="0.63" stop-color="#c7c7c7"/><stop offset="1" stop-color="silver"/></linearGradient><linearGradient id="Degradado_sin_nombre_109" x1="69.86" y1="110.76" x2="69.86" y2="98.33" gradientTransform="translate(-4.97 -31.07) rotate(1.13)" gradientUnits="userSpaceOnUse"><stop offset="0" stop-color="#d4d4d4"/><stop offset="0.99" stop-color="silver"/></linearGradient><radialGradient id="radial-gradient" cx="48.69" cy="19.07" r="1.2" gradientUnits="userSpaceOnUse"><stop offset="0.21"/><stop offset="0.32" stop-color="#030303"/><stop offset="0.4" stop-color="#0c0c0c"/><stop offset="0.47" stop-color="#1c1c1c"/><stop offset="0.54" stop-color="#323232"/><stop offset="0.6" stop-color="#4f4f4f"/><stop offset="0.66" stop-color="#727272"/><stop offset="0.71" stop-color="#9c9c9c"/><stop offset="0.77" stop-color="#ccc"/><stop offset="0.81" stop-color="#fff"/><stop offset="0.83" stop-color="#f5f5f5"/><stop offset="0.87" stop-color="#d9d9d9"/><stop offset="0.91" stop-color="#acacac"/><stop offset="0.96" stop-color="#6f6f6f"/><stop offset="1" stop-color="#393939"/></radialGradient><radialGradient id="radial-gradient-2" cx="33.75" cy="19.8" r="1.11" xlink:href="#radial-gradient"/><clipPath id="clip-path"><path class="cls-1" d="M21.47,45l0.38-3.28L22,38.3,5.91,30.87-2.36,41.69,6.26,55.31l6.79,2.53,24,6.54,33-3.24,10.14-4,1.92-12.9-5.39-5.43L63,38.18l-0.35,9.25C64.79,46.75,53,49,41,48.5A87.83,87.83,0,0,1,21.47,45Z"/></clipPath><linearGradient id="linear-gradient" x1="77.48" y1="-1298.67" x2="99.61" y2="-1298.67" gradientTransform="matrix(1, 0.07, 0.07, -1, 73.94, -1254.22)" gradientUnits="userSpaceOnUse"><stop offset="0.03" stop-color="#343434"/><stop offset="0.23" stop-color="#adadad"/><stop offset="0.3" stop-color="#888"/><stop offset="0.33" stop-color="#686868"/><stop offset="0.61" stop-color="#c3c3c3"/><stop offset="0.67" stop-color="#e2e2e2"/><stop offset="0.67" stop-color="#d9d9d9"/><stop offset="0.69" stop-color="#bbb"/><stop offset="0.72" stop-color="#a4a4a4"/><stop offset="0.74" stop-color="#949494"/><stop offset="0.76" stop-color="#8a8a8a"/><stop offset="0.8" stop-color="#878787"/><stop offset="0.96" stop-color="#1f1f1f"/></linearGradient><linearGradient id="linear-gradient-2" x1="42.73" y1="-1298.01" x2="19.7" y2="-1298.56" xlink:href="#linear-gradient"/><linearGradient id="linear-gradient-3" x1="58.61" y1="46.2" x2="66.5" y2="46.2" gradientTransform="matrix(1, 0, 0, 1, 0, 0)" xlink:href="#linear-gradient"/><linearGradient id="linear-gradient-4" x1="15.69" y1="43.53" x2="23.92" y2="43.53" gradientTransform="matrix(1, 0, 0, 1, 0, 0)" xlink:href="#linear-gradient"/><linearGradient id="linear-gradient-5" x1="59.95" y1="-1308.57" x2="33.06" y2="-1302.59" xlink:href="#linear-gradient"/><linearGradient id="linear-gradient-6" x1="60.21" y1="-1308.99" x2="86.3" y2="-1302.01" xlink:href="#linear-gradient"/></defs><title>iconos terminados</title><g class="cls-2"><g id="Capa_1" data-name="Capa 1"><path class="cls-3" d="M47.36,7.61l3.19,0.15c0.52,0,1.1,0,1.74.11l2.07,0.31c0.75,0.12,1.56.2,2.4,0.39l2.68,0.68a45.4,45.4,0,0,1,12.79,5.68A47.16,47.16,0,0,1,85.3,27.56,46.87,46.87,0,0,1,93,47.7c0.17,1,.16,1.94.24,2.92l0.1,1.48,0,0.74c0,0.32,0,.51,0,0.77a47.51,47.51,0,0,1-3.67,18.07L88.36,74.6c-0.46,1-1.07,1.87-1.6,2.82l-0.83,1.41c-0.31.45-.63,0.89-1,1.33-0.65.88-1.26,1.8-2,2.64a49.57,49.57,0,0,1-9.85,9,48.2,48.2,0,0,1-12.25,5.87l-3.32.87-0.83.21-0.85.13-1.7.27a23.86,23.86,0,0,1-3.41.39l-3.51.18A51.42,51.42,0,0,1,33.8,97.66a48.25,48.25,0,0,1-12.25-5.86,49.84,49.84,0,0,1-9.86-9C11,82,10.39,81,9.73,80.16c-0.32-.44-0.65-0.88-1-1.33L8,77.42c-0.53-.95-1.14-1.85-1.6-2.82L5,71.68a47.54,47.54,0,0,1-3.67-18.1c0-.27,0-0.46,0-0.78l0-.73,0.1-1.45c0.09-1,.08-1.92.24-2.89A46.83,46.83,0,0,1,9.42,27.56,47.19,47.19,0,0,1,22.48,14.93,45.42,45.42,0,0,1,35.28,9.25L38,8.57c0.85-.18,1.66-0.26,2.4-0.39l2.07-.31c0.63-.09,1.22-0.07,1.74-0.11Zm0,0-3.19.17c-0.52,0-1.1,0-1.74.12l-2.07.32c-0.74.13-1.55,0.21-2.4,0.4l-2.67.7a42.72,42.72,0,0,0-12.68,5.81A44.8,44.8,0,0,0,10,27.93,45.9,45.9,0,0,0,3,47.82c-0.13.92-.09,1.91-0.15,2.87L2.84,52.15l0,0.73,0,0.68A45.76,45.76,0,0,0,6.92,70.83L8.3,73.57c0.47,0.91,1.08,1.75,1.61,2.63l0.82,1.31c0.3,0.42.63,0.82,0.95,1.23,0.65,0.81,1.24,1.67,1.93,2.45a48,48,0,0,0,9.47,8.3,48.9,48.9,0,0,0,11.57,5.37,48.51,48.51,0,0,0,12.79,1.85l3.15-.16a21.63,21.63,0,0,0,3.2-.35L55.38,96l0.8-.12,0.78-.2,3.12-.79c1-.3,2-0.71,3-1.06,0.5-.19,1-0.35,1.5-0.56L66,92.55l1.45-.68a10.15,10.15,0,0,0,1.41-.74l2.74-1.63a48.32,48.32,0,0,0,9.47-8.3c0.69-.78,1.29-1.64,1.93-2.45,0.31-.41.64-0.82,0.95-1.23l0.82-1.31c0.53-.88,1.14-1.72,1.61-2.63l1.37-2.74a45.72,45.72,0,0,0,4.07-17.3c0-.23,0-0.53,0-0.69l0-.72,0-1.43c-0.06-1,0-1.91-.15-2.84a45.88,45.88,0,0,0-6.94-19.93A44.83,44.83,0,0,0,72.1,15.13,42.75,42.75,0,0,0,59.42,9.32l-2.67-.7c-0.84-.19-1.65-0.27-2.4-0.4L52.29,7.9c-0.63-.09-1.22-0.08-1.74-0.12Z"/><path class="cls-4" d="M25.43,86.23c4.88,0.43,9.15-.12,12.17-3.91A81.93,81.93,0,0,0,42.3,75c2-3.19,3.77-6.63,6.19-9.5,4.25-5,10.07-7.25,16.55-7.87a36.61,36.61,0,0,1,21.37,4.19,40.6,40.6,0,0,1,4,2.83,47.7,47.7,0,0,0-4.86,1.59c-3.93,1.77-6.47,5.08-9,8.37-2.68,3.44-5.26,7-8.16,10.24-5.49,6.16-12.7,8-20.64,7.41A62.41,62.41,0,0,1,41,91.05,5.65,5.65,0,0,1,40,90.67c2.36-.47,4.57-0.86,6.76-1.34A30.67,30.67,0,0,0,63.92,79c2-2.31,4-4.57,6-6.86a27.22,27.22,0,0,1,9.48-7.28l-0.14-.32c-1.07.35-2.16,0.63-3.19,1.07a25.2,25.2,0,0,0-7.9,5.7c-1.64,1.67-3.34,3.28-4.89,5-5.24,5.92-12,9-19.59,10.46a68.82,68.82,0,0,1-17.93.7c-0.77-.05-1.54-0.14-1.59-1.18"/><path class="cls-5" d="M34.95,82.7c-1.74.15-3.26,0-4.34-1.39a29.19,29.19,0,0,1-1.68-2.62,30.71,30.71,0,0,0-2.21-3.38,8.39,8.39,0,0,0-5.9-2.8A13,13,0,0,0,13.22,74a14.46,14.46,0,0,0-1.43,1,17,17,0,0,1,1.73.57,9,9,0,0,1,3.22,3c1,1.23,1.87,2.49,2.91,3.65A8.45,8.45,0,0,0,27,84.83a22.23,22.23,0,0,0,2.41-.42,2,2,0,0,0,.34-0.14c-0.84-.17-1.63-0.31-2.41-0.48a10.93,10.93,0,0,1-6.11-3.68c-0.71-.82-1.43-1.63-2.15-2.45a9.7,9.7,0,0,0-3.38-2.59L15.76,75c0.38,0.13.77,0.22,1.14,0.38a9,9,0,0,1,2.81,2c0.58,0.59,1.19,1.17,1.74,1.79a12,12,0,0,0,7,3.73,24.52,24.52,0,0,0,6.39.25c0.28,0,.55,0,0.57-0.42"/><path class="cls-6" d="M45.41,84.36a3.91,3.91,0,0,0-1,.44A5.83,5.83,0,0,1,45.41,84.36Zm0,0,0.17,0H45.52Z"/><polygon class="cls-7" points="20.2 71.21 19.67 72.36 61.23 84.47 72.59 75.67 71.28 73.83 20.2 71.21"/><g class="cls-8"><path class="cls-9" d="M20.79,69.24l-4.33,3.68,22.3,6.72,22.3,6.72s7.06-3.19,13.55-7S87,71,84.74,68.4c-4.9-5.62-15.29-8.09-24.45-9.14a121,121,0,0,0-17.1-.71L32.87,61Z"/><path class="cls-10" d="M32.87,61l-12,8.24-4.3,3.66,14.58,4.4,7.64,2.3L61,86.32s1.53-.68,3.81-1.8c2.62-1.29,6.24-3.16,9.69-5.2C81,75.5,86.87,71,84.61,68.42c-4.88-5.6-15.25-8.05-24.36-9.1a121.14,121.14,0,0,0-17-.71l-7.4,1.71Z"/><path class="cls-11" d="M32.88,61.07L21,69.27l-4.27,3.65L31.22,77.3l7.61,2.3L61,86.28s1.53-.68,3.79-1.79c2.6-1.28,6.22-3.15,9.65-5.18C80.84,75.5,86.73,71,84.48,68.45c-4.85-5.57-15.2-8-24.27-9.07a121.33,121.33,0,0,0-17-.71l-7.42,1.68Z"/><path class="cls-12" d="M32.88,61.11L21,69.29l-4.24,3.63,14.48,4.37,7.59,2.29,22.07,6.66s1.53-.67,3.78-1.78c2.59-1.27,6.19-3.15,9.61-5.17,6.39-3.78,12.25-8.24,10-10.81-4.83-5.54-15.16-8-24.18-9a121.53,121.53,0,0,0-16.91-.71L35.82,60.4Z"/><path class="cls-13" d="M32.88,61.16L21.13,69.3l-4.21,3.62,14.43,4.36,7.56,2.28,22,6.64s1.52-.67,3.77-1.77c2.58-1.27,6.17-3.15,9.57-5.16,6.36-3.76,12.2-8.22,10-10.77-4.8-5.51-15.11-8-24.09-9a121.74,121.74,0,0,0-16.84-.71l-7.45,1.64Z"/><path class="cls-14" d="M32.89,61.21L21.22,69.32,17,72.92l14.38,4.34,7.53,2.28,21.91,6.62s1.52-.66,3.76-1.76c2.56-1.26,6.15-3.15,9.53-5.15,6.33-3.74,12.15-8.19,9.94-10.73-4.78-5.48-15.07-7.92-24-9a122,122,0,0,0-16.78-.71l-7.47,1.62Z"/><path class="cls-15" d="M32.89,61.26L21.31,69.34l-4.15,3.59,14.33,4.33L39,79.52l21.83,6.6s1.52-.65,3.74-1.75c2.55-1.25,6.13-3.15,9.49-5.14,6.29-3.72,12.1-8.16,9.89-10.69-4.75-5.45-15-7.89-23.91-8.92a122.17,122.17,0,0,0-16.71-.72l-7.48,1.59Z"/><path class="cls-16" d="M32.89,61.31l-11.5,8-4.12,3.57,14.27,4.32L39,79.51l21.75,6.58s1.52-.65,3.73-1.73C67,83.11,70.62,81.21,74,79.23c6.26-3.7,12-8.13,9.85-10.65-4.73-5.43-15-7.86-23.82-8.88A122.39,122.39,0,0,0,43.35,59l-7.5,1.57Z"/><path class="cls-17" d="M32.9,61.36l-11.42,8-4.09,3.56,14.22,4.31,7.45,2.26L60.74,86s1.52-.64,3.72-1.72c2.52-1.24,6.09-3.15,9.41-5.11,6.23-3.68,12-8.11,9.81-10.61C79,63.21,68.75,60.78,60,59.77A122.62,122.62,0,0,0,43.37,59l-7.52,1.55Z"/><path class="cls-18" d="M32.9,61.41l-11.33,8L17.5,72.93l14.17,4.29,7.43,2.25L60.7,86s1.52-.64,3.7-1.71c2.51-1.23,6.06-3.14,9.37-5.1,6.19-3.66,11.94-8.08,9.77-10.57-4.68-5.37-14.89-7.79-23.64-8.8a122.85,122.85,0,0,0-16.51-.72l-7.53,1.53Z"/><path class="cls-19" d="M32.9,61.46L21.65,69.4l-4,3.53,14.12,4.28,7.4,2.24L60.66,86s1.52-.63,3.69-1.7c2.5-1.23,6-3.14,9.33-5.09,6.16-3.64,11.88-8.05,9.73-10.53-4.65-5.34-14.85-7.76-23.55-8.76a123.09,123.09,0,0,0-16.45-.72l-7.55,1.5Z"/><path class="cls-20" d="M32.91,61.51L21.74,69.42l-4,3.51L31.81,77.2l7.38,2.24,21.44,6.5s1.51-.62,3.68-1.69c2.48-1.22,6-3.14,9.3-5.08,6.13-3.62,11.83-8,9.69-10.48C78.66,63.37,68.48,61,59.83,60a123.34,123.34,0,0,0-16.38-.73l-7.57,1.48Z"/><path class="cls-21" d="M32.91,61.56L21.82,69.44l-4,3.5,14,4.25,7.35,2.23L60.58,85.9s1.51-.62,3.66-1.68c2.47-1.21,6-3.14,9.26-5.07,6.1-3.61,11.78-8,9.65-10.44C78.55,63.43,68.39,61,59.79,60a123.6,123.6,0,0,0-16.32-.73l-7.58,1.46Z"/><path class="cls-22" d="M32.91,61.61l-11,7.85L18,72.93l14,4.24,7.32,2.22,21.29,6.46s1.51-.61,3.65-1.66c2.46-1.21,6-3.14,9.22-5.06,6.06-3.59,11.73-8,9.61-10.4-4.58-5.25-14.71-7.67-23.28-8.65a123.86,123.86,0,0,0-16.25-.73l-7.6,1.44Z"/><path class="cls-23" d="M32.92,61.65L22,69.47l-3.91,3.47L32,77.16l7.3,2.22,21.21,6.44s1.51-.61,3.64-1.65c2.44-1.2,6-3.14,9.18-5,6-3.57,11.67-7.94,9.56-10.36-4.56-5.23-14.67-7.63-23.19-8.61a124.13,124.13,0,0,0-16.19-.73l-7.62,1.41Z"/><path class="cls-24" d="M32.92,61.7L22.08,69.48,18.2,72.93l13.87,4.22,7.27,2.21,21.13,6.42s1.51-.6,3.63-1.64c2.43-1.19,5.93-3.14,9.14-5,6-3.55,11.62-7.91,9.52-10.32-4.53-5.2-14.63-7.6-23.1-8.58a124.4,124.4,0,0,0-16.12-.73L35.9,60.87Z"/><path class="cls-25" d="M32.92,61.75L22.17,69.5l-3.85,3.44,13.81,4.2,7.24,2.2,21.05,6.4s1.51-.59,3.61-1.63c2.42-1.19,5.91-3.14,9.1-5,6-3.53,11.57-7.89,9.48-10.28-4.51-5.17-14.58-7.57-23-8.54a124.68,124.68,0,0,0-16.06-.74l-7.65,1.37Z"/><path class="cls-26" d="M32.93,61.8L22.25,69.52l-3.82,3.42L32.2,77.13l7.22,2.2,21,6.38s1.51-.59,3.6-1.62c2.4-1.18,5.89-3.13,9.06-5,5.93-3.51,11.52-7.86,9.44-10.24C78,63.7,68,61.31,59.57,60.34a125,125,0,0,0-16-.74l-7.67,1.34Z"/><path class="cls-27" d="M32.93,61.85L22.34,69.53l-3.79,3.4,13.71,4.18,7.19,2.19,20.9,6.36s1.5-.58,3.59-1.6c2.39-1.17,5.87-3.13,9-5,5.9-3.49,11.46-7.83,9.4-10.2-4.46-5.11-14.49-7.5-22.82-8.46a125.27,125.27,0,0,0-15.93-.74L35.92,61Z"/><path class="cls-28" d="M32.93,61.9L22.43,69.55l-3.76,3.39L32.33,77.1l7.16,2.18,20.82,6.34s1.5-.57,3.57-1.59c2.38-1.17,5.85-3.13,9-5,5.87-3.47,11.41-7.81,9.36-10.16-4.43-5.08-14.45-7.47-22.73-8.43a125.58,125.58,0,0,0-15.86-.74L35.93,61Z"/><path class="cls-29" d="M32.94,61.95L22.51,69.57l-3.73,3.37L32.4,77.09l7.14,2.18,20.74,6.33S61.77,85,63.83,84c2.36-1.16,5.83-3.13,8.94-5,5.83-3.45,11.36-7.78,9.32-10.12-4.41-5.06-14.4-7.44-22.64-8.39a125.9,125.9,0,0,0-15.8-.74l-7.72,1.28Z"/><path class="cls-30" d="M32.94,62L22.6,69.58l-3.7,3.36,13.56,4.14,7.11,2.17,20.66,6.31S61.73,85,63.78,84c2.35-1.16,5.8-3.13,8.9-5C78.48,75.59,84,71.27,82,68.95c-4.38-5-14.36-7.41-22.55-8.35a126.22,126.22,0,0,0-15.73-.75L35.94,61.1Z"/><path class="cls-31" d="M32.94,62L22.68,69.6,19,72.94l13.51,4.12,7.08,2.16,20.58,6.29S61.69,85,63.73,84c2.34-1.15,5.78-3.13,8.86-5,5.77-3.41,11.25-7.72,9.23-10-4.36-5-14.32-7.37-22.46-8.31a126.55,126.55,0,0,0-15.67-.75l-7.75,1.23Z"/><path class="cls-32" d="M32.94,62.1L22.77,69.61l-3.64,3.33,13.46,4.11,7.06,2.16,20.5,6.27s1.5-.55,3.52-1.55C66,82.79,69.44,80.81,72.5,79c5.74-3.39,11.2-7.7,9.19-10-4.33-5-14.27-7.34-22.37-8.27A126.89,126.89,0,0,0,43.72,60L36,61.18Z"/><path class="cls-33" d="M32.95,62.15L22.86,69.63l-3.61,3.31L32.66,77l7,2.15,20.43,6.25s1.5-.54,3.51-1.53c2.31-1.14,5.74-3.12,8.79-4.93,5.7-3.37,11.15-7.67,9.15-10-4.31-4.94-14.23-7.31-22.28-8.24A127.24,127.24,0,0,0,43.74,60L36,61.22Z"/><path class="cls-34" d="M33,62.19l-10,7.45-3.58,3.3L32.72,77l7,2.14L60.07,85.4a38,38,0,0,0,3.5-1.52c2.3-1.13,5.72-3.12,8.75-4.92,5.67-3.35,11.09-7.64,9.11-9.92-4.28-4.91-14.18-7.28-22.19-8.2a127.6,127.6,0,0,0-15.47-.75L36,61.26Z"/><path class="cls-35" d="M33,62.24L23,69.66l-3.54,3.28L32.79,77l7,2.14L60,85.37a36.74,36.74,0,0,0,3.48-1.51c2.28-1.12,5.7-3.12,8.71-4.9,5.64-3.33,11-7.61,9.07-9.88C77,64.19,67.16,61.83,59.2,60.91a128,128,0,0,0-15.41-.75L36,61.3Z"/><path class="cls-36" d="M33,62.29l-9.84,7.39L19.6,72.95,32.85,77l7,2.13L60,85.33a35.55,35.55,0,0,0,3.47-1.5c2.27-1.12,5.67-3.12,8.67-4.89,5.6-3.31,11-7.59,9-9.83-4.23-4.86-14.09-7.21-22-8.12a128.35,128.35,0,0,0-15.34-.76L36,61.34Z"/><path class="cls-37" d="M33,62.34L23.2,69.7,19.72,73l13.2,4,6.92,2.12L60,85.29a34.42,34.42,0,0,0,3.46-1.49c2.26-1.11,5.65-3.12,8.63-4.88,5.57-3.3,10.94-7.56,9-9.79C76.82,64.3,67,61.95,59.11,61a128.74,128.74,0,0,0-15.28-.76L36,61.38Z"/><path class="cls-38" d="M33,62.39l-9.68,7.32L19.83,73,33,77l6.9,2.12,20,6.15a33.35,33.35,0,0,0,3.44-1.47C65.6,82.67,69,80.66,72,78.91c5.54-3.28,10.88-7.53,8.94-9.75-4.18-4.8-14-7.15-21.83-8a129.14,129.14,0,0,0-15.21-.76L36,61.42Z"/><path class="cls-39" d="M33,62.44l-9.59,7.29L20,73,33,77l6.87,2.11,20,6.13a32.33,32.33,0,0,0,3.43-1.46c2.23-1.1,5.61-3.12,8.55-4.86,5.51-3.26,10.83-7.5,8.9-9.71-4.16-4.77-14-7.12-21.74-8a129.55,129.55,0,0,0-15.15-.76l-7.89,1Z"/><path class="cls-40" d="M33,62.49l-9.51,7.26L20.07,73l13,4L40,79.07l19.88,6.11a31.36,31.36,0,0,0,3.42-1.45c2.22-1.09,5.59-3.11,8.51-4.84,5.47-3.24,10.78-7.48,8.86-9.67-4.13-4.74-13.92-7.08-21.65-8a130,130,0,0,0-15.08-.76l-7.9,1Z"/><path class="cls-41" d="M33,62.54l-9.43,7.22L20.18,73l13,4L40,79l19.8,6.09A30.43,30.43,0,0,0,63.2,83.7c2.2-1.08,5.57-3.11,8.47-4.83,5.44-3.22,10.72-7.45,8.82-9.63-4.11-4.72-13.87-7.05-21.55-7.94a130.41,130.41,0,0,0-15-.77l-7.92,1Z"/><path class="cls-42" d="M33,62.59l-9.35,7.19L20.3,73l12.94,4L40,79,59.76,85.1a29.55,29.55,0,0,0,3.39-1.43c2.19-1.08,5.54-3.11,8.43-4.82,5.41-3.2,10.67-7.42,8.78-9.59-4.09-4.69-13.83-7-21.46-7.9A130.85,130.85,0,0,0,44,60.59l-7.94,1Z"/><path class="cls-43" d="M33,62.64l-9.26,7.16L20.42,73l12.89,4L40.07,79l19.65,6a28.71,28.71,0,0,0,3.38-1.42c2.18-1.07,5.52-3.11,8.39-4.81,5.38-3.18,10.62-7.39,8.74-9.55-4.06-4.66-13.78-7-21.37-7.86A131.31,131.31,0,0,0,44,60.66l-8,1Z"/><path class="cls-44" d="M33,62.68l-9.18,7.13L20.53,73l12.84,4L40.11,79l19.57,6A27.91,27.91,0,0,0,63,83.62c2.16-1.06,5.5-3.11,8.36-4.8,5.34-3.16,10.57-7.37,8.7-9.51-4-4.63-13.74-7-21.28-7.82A131.78,131.78,0,0,0,44,60.72l-8,.94Z"/><path class="cls-45" d="M33,62.73l-9.1,7.09L20.65,73l12.79,3.94L40.15,79l19.49,6A27.14,27.14,0,0,0,63,83.59c2.15-1.06,5.48-3.11,8.32-4.79,5.31-3.14,10.51-7.34,8.66-9.47-4-4.6-13.69-6.92-21.19-7.78A132.27,132.27,0,0,0,44,60.78l-8,.91Z"/><path class="cls-46" d="M33,62.78l-9,7.06L20.77,73l12.74,3.93L40.19,79l19.41,6a26.4,26.4,0,0,0,3.34-1.38c2.14-1.05,5.46-3.11,8.28-4.77,5.28-3.12,10.46-7.31,8.61-9.43-4-4.57-13.65-6.89-21.1-7.75A132.76,132.76,0,0,0,44,60.84l-8,.89Z"/><path class="cls-47" d="M33,62.83l-8.93,7L20.88,73l12.69,3.92,6.66,2.06,19.33,6a25.69,25.69,0,0,0,3.33-1.37c2.12-1,5.44-3.11,8.24-4.76,5.24-3.1,10.41-7.28,8.57-9.39-4-4.54-13.61-6.86-21-7.71a133.27,133.27,0,0,0-14.62-.78l-8,.87Z"/><path class="cls-48" d="M33,62.88l-8.85,7L21,73l12.64,3.91,6.63,2.05,19.26,6a25,25,0,0,0,3.31-1.36c2.11-1,5.41-3.1,8.2-4.75,5.21-3.08,10.36-7.26,8.53-9.35C75.63,64.9,66,62.59,58.65,61.74A133.8,133.8,0,0,0,44.09,61l-8,.85Z"/><path class="cls-49" d="M33,62.93l-8.76,7L21.12,73,33.7,76.86l6.6,2,19.18,5.93a24.37,24.37,0,0,0,3.3-1.35c2.1-1,5.39-3.1,8.16-4.74,5.18-3.06,10.3-7.23,8.49-9.31C75.53,65,65.92,62.65,58.61,61.81A134.34,134.34,0,0,0,44.11,61l-8.05.82Z"/><path class="cls-50" d="M33,63l-8.68,6.93L21.23,73l12.53,3.88,6.58,2,19.1,5.91a23.74,23.74,0,0,0,3.29-1.33c2.08-1,5.37-3.1,8.12-4.73,5.15-3,10.25-7.2,8.45-9.27-3.89-4.46-13.47-6.76-20.74-7.6a134.89,134.89,0,0,0-14.43-.78l-8.07.8Z"/><path class="cls-51" d="M33,63l-8.6,6.9-3.06,3,12.48,3.87,6.55,2,19,5.89a23.14,23.14,0,0,0,3.28-1.32c2.07-1,5.35-3.1,8.08-4.72,5.11-3,10.2-7.17,8.41-9.23-3.86-4.43-13.43-6.73-20.65-7.56a135.46,135.46,0,0,0-14.36-.78l-8.09.78Z"/><path class="cls-52" d="M33,63.08L24.5,69.94l-3,3L33.9,76.82l6.52,2,18.94,5.87a22.57,22.57,0,0,0,3.26-1.31c2.06-1,5.33-3.1,8-4.7,5.08-3,10.14-7.15,8.37-9.19C75.2,65.12,65.65,62.83,58.48,62a136.05,136.05,0,0,0-14.3-.79l-8.1.76Z"/><path class="cls-53" d="M33,63.13L24.58,70l-3,3L34,76.81l6.5,2,18.87,5.85a22,22,0,0,0,3.25-1.3c2-1,5.31-3.1,8-4.69,5-3,10.09-7.12,8.33-9.14-3.81-4.37-13.34-6.66-20.47-7.48a136.65,136.65,0,0,0-14.23-.79L36.09,62Z"/><path class="cls-54" d="M33,63.18L24.67,70l-3,3L34,76.8l6.47,2,18.79,5.83a21.48,21.48,0,0,0,3.24-1.29c2-1,5.28-3.1,8-4.68,5-3,10-7.09,8.28-9.1C75,65.23,65.48,62.94,58.4,62.13a137.27,137.27,0,0,0-14.17-.79L36.09,62Z"/><path class="cls-55" d="M33,63.22L24.75,70l-2.94,3,12.28,3.82,6.45,2,18.71,5.81a21,21,0,0,0,3.22-1.27c2-1,5.26-3.09,7.92-4.67,5-2.95,10-7.06,8.24-9.06-3.76-4.32-13.25-6.6-20.29-7.41a137.91,137.91,0,0,0-14.1-.79l-8.15.69Z"/><path class="cls-56" d="M33,63.27L24.84,70l-2.91,3,12.23,3.8,6.42,2,18.63,5.79a20.47,20.47,0,0,0,3.21-1.26c2-1,5.24-3.09,7.89-4.66,4.95-2.93,9.93-7,8.2-9-3.74-4.29-13.21-6.56-20.2-7.37a138.57,138.57,0,0,0-14-.79l-8.17.66Z"/><path class="cls-57" d="M33,63.32L24.93,70,22,73l12.18,3.79,6.39,2,18.55,5.77a20,20,0,0,0,3.2-1.25c2-1,5.22-3.09,7.85-4.65,4.92-2.91,9.88-7,8.16-9-3.71-4.26-13.16-6.53-20.1-7.33a139.25,139.25,0,0,0-14-.8l-8.19.64Z"/><path class="cls-58" d="M33,63.37L25,70,22.16,73l12.13,3.78,6.37,2,18.48,5.75a19.53,19.53,0,0,0,3.19-1.24c2-1,5.2-3.09,7.81-4.63,4.88-2.89,9.83-7,8.12-8.94-3.69-4.23-13.12-6.5-20-7.29s-13.91-.8-13.91-0.8l-8.2.62Z"/><path class="cls-59" d="M33,63.42L25.1,70.06,22.28,73l12.07,3.76,6.34,2,18.4,5.73a19.08,19.08,0,0,0,3.17-1.23c2-1,5.18-3.09,7.77-4.62,4.85-2.87,9.77-7,8.08-8.9C74.45,65.5,65,63.24,58.19,62.45s-13.84-.8-13.84-0.8l-8.22.6Z"/><path class="cls-60" d="M33,63.47l-7.85,6.6L22.4,73l12,3.75,6.31,2,18.32,5.72a18.65,18.65,0,0,0,3.16-1.22c2-1,5.15-3.09,7.73-4.61,4.82-2.85,9.72-6.93,8-8.86-3.64-4.18-13-6.44-19.83-7.22s-13.78-.8-13.78-0.8l-8.24.57Z"/><path class="cls-61" d="M33,63.52l-7.77,6.57L22.51,73l12,3.74,6.29,2L59,84.38a18.23,18.23,0,0,0,3.15-1.2c1.94-1,5.13-3.09,7.69-4.6,4.79-2.83,9.67-6.9,8-8.82-3.61-4.15-13-6.4-19.74-7.18s-13.71-.8-13.71-0.8l-8.25.55Z"/><path class="cls-62" d="M33,63.57L25.36,70.1,22.63,73l11.92,3.73,6.26,2L59,84.34a17.83,17.83,0,0,0,3.13-1.19c1.92-.95,5.11-3.09,7.65-4.59,4.75-2.81,9.62-6.87,8-8.78-3.59-4.12-12.94-6.37-19.65-7.14s-13.65-.81-13.65-0.81l-8.27.53Z"/><path class="cls-63" d="M33,63.62l-7.6,6.5L22.75,73,34.62,76.7l6.23,2L58.94,84.3a17.44,17.44,0,0,0,3.12-1.18c1.91-.94,5.09-3.08,7.61-4.58,4.72-2.79,9.56-6.84,7.91-8.74C74,65.72,64.68,63.47,58,62.7s-13.58-.81-13.58-0.81l-8.29.51Z"/><path class="cls-64" d="M33.05,63.67l-7.52,6.47L22.86,73l11.82,3.7,6.21,1.94,18,5.64A17.06,17.06,0,0,0,62,83.1c1.9-.93,5.07-3.08,7.57-4.56,4.69-2.77,9.51-6.82,7.87-8.7C73.91,65.77,64.59,63.53,58,62.77S44.46,62,44.46,62l-8.3.48Z"/><path class="cls-65" d="M33.05,63.72l-7.44,6.44L23,73l11.77,3.69,6.18,1.94,17.93,5.62A16.7,16.7,0,0,0,62,83.07c1.89-.93,5-3.08,7.53-4.55,4.65-2.75,9.46-6.79,7.83-8.66-3.52-4-12.81-6.27-19.38-7S44.48,62,44.48,62l-8.32.46Z"/><path class="cls-66" d="M33.06,63.76L25.7,70.17,23.1,73l11.72,3.67L41,78.59l17.85,5.6A16.34,16.34,0,0,0,61.9,83c1.87-.92,5-3.08,7.49-4.54,4.62-2.73,9.41-6.76,7.79-8.62-3.49-4-12.76-6.24-19.29-7s-13.38-.81-13.38-0.81l-8.34.44Z"/><path class="cls-67" d="M33.06,63.81l-7.27,6.37L23.21,73l11.67,3.66L41,78.57l17.77,5.58A16,16,0,0,0,61.85,83c1.86-.91,5-3.08,7.45-4.53,4.59-2.71,9.35-6.73,7.75-8.58-3.47-4-12.72-6.21-19.2-7s-13.32-.82-13.32-0.82l-8.35.42Z"/><path class="cls-68" d="M33.06,63.86L25.87,70.2,23.33,73l11.61,3.65L41,78.55l17.69,5.56A15.67,15.67,0,0,0,61.79,83c1.85-.91,5-3.08,7.42-4.52,4.56-2.69,9.3-6.71,7.71-8.54C73.47,66,64.24,63.76,57.81,63S44.55,62.2,44.55,62.2l-8.37.39Z"/><path class="cls-69" d="M33.07,63.91L26,70.22,23.45,73,35,76.63l6.07,1.91L58.7,84.07a15.34,15.34,0,0,0,3-1.11c1.83-.9,5-3.08,7.38-4.51,4.52-2.67,9.25-6.68,7.67-8.49-3.42-3.92-12.63-6.14-19-6.88s-13.19-.82-13.19-0.82l-8.39.37Z"/><path class="cls-70" d="M33.07,64l-7,6.27L23.56,73l11.51,3.62,6,1.9L58.66,84a15,15,0,0,0,3-1.1c1.82-.89,4.94-3.07,7.34-4.49,4.49-2.66,9.19-6.65,7.62-8.45-3.39-3.89-12.59-6.11-18.93-6.84S44.6,62.33,44.6,62.33l-8.41.35Z"/><path class="cls-71" d="M33.07,64l-6.94,6.24L23.68,73,35.14,76.6l6,1.9L58.62,84a14.73,14.73,0,0,0,3-1.09c1.81-.89,4.92-3.07,7.3-4.48,4.46-2.64,9.14-6.62,7.58-8.41-3.37-3.86-12.54-6.08-18.84-6.8s-13.06-.82-13.06-0.82l-8.42.32Z"/><path class="cls-72" d="M33.08,64.06l-6.86,6.21L23.8,73l11.41,3.6,6,1.89L58.58,84a14.43,14.43,0,0,0,3-1.07c1.79-.88,4.89-3.07,7.26-4.47,4.42-2.62,9.09-6.6,7.54-8.37-3.34-3.83-12.5-6-18.75-6.77s-13-.82-13-0.82l-8.44.3Z"/><path class="cls-73" d="M33.08,64.11l-6.78,6.18L23.91,73l11.36,3.58,6,1.88,17.3,5.46a14.14,14.14,0,0,0,3-1.06c1.78-.87,4.87-3.07,7.22-4.46,4.39-2.6,9-6.57,7.5-8.33-3.32-3.81-12.45-6-18.65-6.73s-12.93-.83-12.93-0.83l-8.46.28Z"/><path class="cls-74" d="M33.08,64.16L26.39,70.3,24,73l11.31,3.57,5.94,1.88L58.5,83.88a13.87,13.87,0,0,0,3-1.05c1.77-.87,4.85-3.07,7.18-4.45,4.36-2.58,9-6.54,7.46-8.29-3.29-3.78-12.41-6-18.56-6.69s-12.86-.83-12.86-0.83l-8.47.26Z"/><path class="cls-75" d="M33.09,64.21l-6.61,6.11L24.15,73,35.4,76.56l5.91,1.87,17.15,5.42a13.6,13.6,0,0,0,3-1c1.75-.86,4.83-3.07,7.14-4.43,4.33-2.56,8.93-6.51,7.42-8.25-3.27-3.75-12.36-5.95-18.47-6.65s-12.8-.83-12.8-0.83l-8.49.23Z"/><path class="cls-76" d="M33.09,64.26l-6.53,6.08L24.26,73l11.2,3.55,5.89,1.86,17.07,5.4a13.33,13.33,0,0,0,3-1c1.74-.85,4.81-3.07,7.1-4.42,4.29-2.54,8.88-6.49,7.38-8.21-3.24-3.72-12.32-5.92-18.38-6.62S44.74,62.7,44.74,62.7l-8.51.21Z"/><path class="cls-77" d="M33.09,64.3l-6.44,6L24.38,73l11.15,3.53,5.86,1.86,17,5.38a13.08,13.08,0,0,0,2.94-1c1.73-.85,4.79-3.06,7.06-4.41,4.26-2.52,8.83-6.46,7.34-8.17-3.22-3.69-12.28-5.89-18.29-6.58s-12.67-.83-12.67-0.83L36.24,63Z"/><path class="cls-78" d="M33.1,64.35l-6.36,6L24.5,73l11.1,3.52,5.83,1.85,16.91,5.36a12.83,12.83,0,0,0,2.93-1c1.71-.84,4.76-3.06,7-4.4,4.23-2.5,8.77-6.43,7.29-8.13-3.19-3.66-12.23-5.85-18.2-6.54s-12.6-.84-12.6-0.84L36.25,63Z"/><path class="cls-79" d="M33.1,64.4l-6.28,6L24.61,73l11.05,3.51,5.81,1.84,16.84,5.34a12.59,12.59,0,0,0,2.91-1c1.7-.84,4.74-3.06,7-4.39,4.2-2.48,8.72-6.4,7.25-8.09-3.17-3.64-12.19-5.82-18.11-6.5s-12.54-.84-12.54-0.84L36.25,63Z"/><path class="cls-80" d="M33.1,64.45l-6.2,5.95L24.73,73l11,3.49,5.78,1.84,16.76,5.32a12.35,12.35,0,0,0,2.9-1c1.69-.83,4.72-3.06,6.95-4.38,4.16-2.46,8.67-6.38,7.21-8-3.14-3.61-12.14-5.79-18-6.47s-12.47-.84-12.47-0.84l-8.57.12Z"/><path class="cls-81" d="M33.11,64.5L27,70.41,24.84,73l10.95,3.48,5.75,1.83,16.68,5.3a12.12,12.12,0,0,0,2.89-1c1.67-.82,4.7-3.06,6.91-4.36,4.13-2.44,8.61-6.35,7.17-8-3.12-3.58-12.1-5.76-17.93-6.43S44.85,63,44.85,63l-8.59.1Z"/><path class="cls-82" d="M33.11,64.55l-6,5.88L25,73l10.9,3.47,5.73,1.82,16.6,5.28a11.9,11.9,0,0,0,2.87-1c1.66-.82,4.68-3.06,6.87-4.35,4.1-2.42,8.56-6.32,7.13-8C72,66.75,63,64.58,57.22,63.92s-12.34-.84-12.34-0.84l-8.61.08Z"/><path class="cls-83" d="M33.11,64.6l-5.95,5.85L25.08,73l10.85,3.46,5.7,1.82,16.52,5.26A11.68,11.68,0,0,0,61,82.6c1.65-.81,4.66-3.06,6.83-4.34,4.06-2.4,8.51-6.29,7.09-7.93-3.07-3.52-12-5.69-17.75-6.35S44.9,63.13,44.9,63.13l-8.62.05Z"/><path class="cls-84" d="M33.12,64.65l-5.86,5.82L25.19,73,36,76.45l5.67,1.81L58.11,83.5A11.47,11.47,0,0,0,61,82.57c1.63-.8,4.63-3.06,6.79-4.33,4-2.38,8.46-6.27,7-7.89-3-3.49-12-5.66-17.66-6.31S44.92,63.2,44.92,63.2l-8.64,0Z"/><path class="cls-85" d="M33.12,64.7l-5.78,5.78-2,2.53,10.74,3.43,5.65,1.8,16.37,5.22a11.26,11.26,0,0,0,2.84-.92c1.62-.8,4.61-3.05,6.75-4.32,4-2.36,8.4-6.24,7-7.84-3-3.47-11.92-5.63-17.57-6.28s-12.15-.85-12.15-0.85H36.29Z"/><path class="cls-86" d="M33.12,64.75l-5.7,5.75-2,2.51,10.69,3.42,5.62,1.8L58,83.43a11.06,11.06,0,0,0,2.82-.91c1.61-.79,4.59-3.05,6.71-4.31,4-2.35,8.35-6.21,7-7.8-3-3.44-11.88-5.59-17.48-6.24S45,63.32,45,63.32l-8.67,0Z"/><path class="cls-87" d="M33.13,64.8l-5.62,5.72-2,2.5,10.64,3.4,5.59,1.79L58,83.39a10.87,10.87,0,0,0,2.81-.9c1.59-.78,4.57-3.05,6.67-4.29,3.93-2.33,8.3-6.18,6.92-7.76-3-3.41-11.83-5.56-17.39-6.2s-12-.85-12-0.85l-8.69,0Z"/><path class="cls-88" d="M33.13,64.84L27.6,70.53,25.66,73,36.25,76.4l5.57,1.78L58,83.35a10.68,10.68,0,0,0,2.8-.89c1.58-.78,4.55-3,6.63-4.28,3.9-2.31,8.25-6.16,6.88-7.72C71.32,67.08,62.47,64.93,57,64.3s-12-.85-12-0.85l-8.71-.06Z"/><path class="cls-89" d="M33.13,64.89l-5.45,5.65L25.78,73l10.54,3.38,5.54,1.78,16.06,5.14a10.49,10.49,0,0,0,2.78-.87c1.57-.77,4.53-3,6.59-4.27,3.87-2.29,8.19-6.13,6.84-7.68-2.92-3.35-11.74-5.5-17.2-6.13S45,63.51,45,63.51l-8.72-.08Z"/><path class="cls-90" d="M33.14,64.94l-5.37,5.62L25.89,73l10.49,3.36,5.51,1.77,16,5.13a10.31,10.31,0,0,0,2.77-.86c1.55-.76,4.5-3,6.55-4.26,3.83-2.27,8.14-6.1,6.8-7.64C71.1,67.19,62.3,65,56.88,64.43s-11.82-.86-11.82-0.86l-8.74-.11Z"/><path class="cls-91" d="M33.14,65l-5.28,5.59L26,73l10.44,3.35,5.49,1.76,15.9,5.11a10.13,10.13,0,0,0,2.76-.85c1.54-.76,4.48-3,6.51-4.25,3.8-2.25,8.09-6.07,6.76-7.6-2.87-3.3-11.65-5.43-17-6.05s-11.75-.86-11.75-0.86l-8.76-.13Z"/><path class="cls-92" d="M33.14,65l-5.2,5.55L26.13,73l10.39,3.34L42,78.11,57.8,83.2a10,10,0,0,0,2.74-.84c1.53-.75,4.46-3,6.47-4.24,3.77-2.23,8-6,6.72-7.56-2.85-3.27-11.61-5.4-16.93-6s-11.69-.86-11.69-0.86l-8.77-.15Z"/><path class="cls-93" d="M33.15,65.09L28,70.61,26.24,73l10.34,3.33L42,78.1l15.74,5.07a9.79,9.79,0,0,0,2.73-.83c1.51-.74,4.44-3,6.44-4.22,3.74-2.21,8-6,6.67-7.52-2.82-3.24-11.57-5.37-16.84-6s-11.62-.86-11.62-0.86l-8.79-.17Z"/><path class="cls-94" d="M33.15,65.14l-5,5.49L26.36,73l10.28,3.31,5.41,1.74,15.67,5a9.63,9.63,0,0,0,2.72-.81c1.5-.74,4.42-3,6.4-4.21,3.7-2.19,7.93-6,6.63-7.48-2.8-3.21-11.52-5.34-16.75-5.94s-11.56-.87-11.56-0.87l-8.81-.2Z"/><path class="cls-95" d="M33.15,65.19l-5,5.46L26.48,73l10.23,3.3,5.38,1.74,15.59,5a9.47,9.47,0,0,0,2.71-.8c1.49-.73,4.4-3,6.36-4.2,3.67-2.17,7.88-6,6.59-7.44-2.77-3.18-11.48-5.3-16.66-5.9s-11.49-.87-11.49-0.87l-8.82-.22Z"/><path class="cls-96" d="M33.16,65.24l-4.87,5.42L26.59,73l10.18,3.29L42.13,78l15.51,5a9.31,9.31,0,0,0,2.69-.79c1.47-.72,4.37-3,6.32-4.19,3.64-2.15,7.82-5.94,6.55-7.4-2.75-3.15-11.43-5.27-16.57-5.86S45.2,63.94,45.2,63.94l-8.84-.24Z"/><path class="cls-97" d="M33.16,65.29l-4.79,5.39L26.71,73,36.84,76.3,42.17,78,57.6,83a9.16,9.16,0,0,0,2.68-.78c1.46-.72,4.35-3,6.28-4.18,3.61-2.13,7.77-5.91,6.51-7.36-2.72-3.12-11.39-5.24-16.48-5.82S45.23,64,45.23,64l-8.86-.26Z"/><path class="cls-98" d="M33.16,65.33l-4.7,5.36L26.83,73l10.08,3.26L42.21,78l15.35,5a9,9,0,0,0,2.67-.77c1.45-.71,4.33-3,6.24-4.17,3.57-2.11,7.72-5.88,6.47-7.32-2.7-3.1-11.34-5.21-16.39-5.79s-11.3-.87-11.3-0.87l-8.87-.29Z"/><path class="cls-99" d="M33.17,65.38l-4.62,5.32L26.94,73l10,3.25L42.25,78l15.28,4.95a8.86,8.86,0,0,0,2.65-.76c1.43-.7,4.31-3,6.2-4.15,3.54-2.09,7.67-5.86,6.43-7.28C70.13,67.68,61.5,65.58,56.5,65s-11.23-.88-11.23-0.88l-8.89-.31Z"/><path class="cls-100" d="M33.17,65.43l-4.54,5.29L27.06,73l10,3.24L42.29,78l15.2,4.93a8.72,8.72,0,0,0,2.64-.74c1.42-.7,4.29-3,6.16-4.14,3.51-2.07,7.61-5.83,6.39-7.24-2.65-3-11.26-5.14-16.21-5.71s-11.17-.88-11.17-0.88l-8.91-.33Z"/><path class="cls-101" d="M33.17,65.48l-4.46,5.26L27.18,73l9.93,3.22L42.32,78l15.12,4.91a8.58,8.58,0,0,0,2.63-.73c1.41-.69,4.27-3,6.12-4.13,3.47-2.05,7.56-5.8,6.34-7.19-2.62-3-11.21-5.11-16.12-5.67s-11.1-.88-11.1-0.88l-8.92-.36Z"/><path class="cls-102" d="M33.18,65.53L28.8,70.76,27.29,73l9.87,3.21,5.2,1.69,15,4.89A8.45,8.45,0,0,0,60,82.1c1.39-.69,4.24-3,6.08-4.12,3.44-2,7.51-5.77,6.3-7.15-2.6-3-11.17-5.08-16-5.64s-11-.88-11-0.88l-8.94-.38Z"/><path class="cls-103" d="M33.18,65.58l-4.29,5.19L27.41,73l9.82,3.2,5.17,1.68,15,4.87a8.32,8.32,0,0,0,2.6-.71c1.38-.68,4.22-3,6-4.11,3.41-2,7.45-5.75,6.26-7.11-2.57-3-11.12-5-15.94-5.6s-11-.88-11-0.88l-9-.4Z"/><path class="cls-104" d="M33.18,65.63L29,70.79,27.52,73l9.77,3.18,5.14,1.68,14.89,4.85a8.19,8.19,0,0,0,2.59-.7c1.37-.67,4.2-3,6-4.1,3.38-2,7.4-5.72,6.22-7.07-2.55-2.93-11.08-5-15.85-5.56s-10.91-.89-10.91-0.89l-9-.42Z"/><path class="cls-105" d="M33.19,65.68l-4.12,5.13L27.64,73l9.72,3.17,5.12,1.67,14.81,4.83A8.06,8.06,0,0,0,59.86,82c1.35-.67,4.18-3,6-4.08,3.34-2,7.35-5.69,6.18-7-2.53-2.9-11-5-15.75-5.52S45.41,64.5,45.41,64.5l-9-.45Z"/><path class="cls-106" d="M33.19,65.73l-4,5.09L27.76,73l9.67,3.16,5.09,1.66,14.73,4.81A7.94,7.94,0,0,0,59.81,82c1.34-.66,4.16-3,5.93-4.07,3.31-2,7.3-5.66,6.14-7-2.5-2.87-11-4.95-15.66-5.49s-10.78-.89-10.78-0.89l-9-.47Z"/><path class="cls-107" d="M33.19,65.78l-4,5.06L27.87,73l9.62,3.15,5.06,1.66,14.65,4.79A7.82,7.82,0,0,0,59.76,82c1.33-.65,4.14-3,5.89-4.06,3.28-1.94,7.24-5.64,6.1-7C69.27,68.12,60.8,66,56.17,65.51s-10.71-.89-10.71-0.89l-9-.49Z"/><path class="cls-108" d="M33.2,65.83l-3.87,5L28,73l9.57,3.13,5,1.65,14.57,4.77a7.7,7.7,0,0,0,2.54-.65c1.31-.65,4.11-3,5.85-4C68.8,76,72.74,72.29,71.61,71c-2.45-2.81-10.9-4.88-15.48-5.41s-10.65-.89-10.65-0.89l-9-.51Z"/><path class="cls-109" d="M33.2,65.87l-3.79,5L28.11,73l9.52,3.12,5,1.64,14.49,4.75a7.58,7.58,0,0,0,2.52-.64c1.3-.64,4.09-3,5.81-4,3.21-1.9,7.14-5.58,6-6.87C69,68.23,60.62,66.16,56.08,65.64S45.5,64.74,45.5,64.74l-9.06-.54Z"/><path class="cls-110" d="M33.2,65.92l-3.71,5L28.22,73l9.47,3.11,5,1.64,14.42,4.73a7.47,7.47,0,0,0,2.51-.63c1.29-.63,4.07-3,5.77-4,3.18-1.88,7.09-5.55,6-6.83-2.4-2.76-10.81-4.82-15.3-5.33s-10.52-.9-10.52-0.9l-9.08-.56Z"/><path class="cls-111" d="M33.21,66L29.58,70.9,28.34,73l9.41,3.09,5,1.63,14.34,4.71a7.36,7.36,0,0,0,2.5-.61c1.27-.63,4-3,5.73-4,3.15-1.86,7-5.53,5.93-6.79-2.38-2.73-10.77-4.78-15.21-5.3s-10.45-.9-10.45-0.9l-9.09-.58Z"/><path class="cls-112" d="M33.21,66l-3.54,4.9L28.46,73l9.36,3.08,4.93,1.62L57,82.44a7.25,7.25,0,0,0,2.48-.6c1.26-.62,4-3,5.69-4,3.11-1.84,7-5.5,5.89-6.75-2.35-2.7-10.72-4.75-15.12-5.26s-10.39-.9-10.39-0.9l-9.11-.6Z"/><path class="cls-113" d="M33.21,66.07l-3.46,4.87L28.57,73l9.31,3.07,4.9,1.62L57,82.4a7.15,7.15,0,0,0,2.47-.59c1.25-.61,4-3,5.65-4C68.18,76,72,72.35,70.95,71.12c-2.33-2.67-10.68-4.72-15-5.22S45.6,65,45.6,65l-9.13-.63Z"/><path class="cls-114" d="M33.22,66.12L29.84,71,28.69,73,38,76.1l4.88,1.61,14.1,4.65a7,7,0,0,0,2.46-.58c1.23-.61,4-3,5.61-4,3-1.8,6.87-5.44,5.81-6.67C68.51,68.5,60.18,66.45,55.87,66s-10.25-.9-10.25-0.9l-9.14-.65Z"/><path class="cls-115" d="M33.22,66.17L29.93,71,28.81,73l9.21,3,4.85,1.6,14,4.63a6.94,6.94,0,0,0,2.45-.57c1.22-.6,4-3,5.57-4,3-1.78,6.82-5.42,5.77-6.63C68.4,68.55,60.09,66.51,55.83,66s-10.19-.91-10.19-0.91l-9.16-.67Z"/><path class="cls-116" d="M33.22,66.22L30,71,28.92,73l9.16,3,4.82,1.6,13.95,4.61a6.85,6.85,0,0,0,2.43-.56c1.21-.59,3.94-3,5.53-4,3-1.76,6.77-5.39,5.73-6.59C68.29,68.61,60,66.57,55.79,66.09s-10.12-.91-10.12-0.91l-9.18-.7Z"/><path class="cls-117" d="M33.23,66.27L30.1,71,29,73l9.11,3,4.8,1.59,13.87,4.59a6.75,6.75,0,0,0,2.42-.54c1.19-.59,3.92-3,5.5-3.94,2.95-1.74,6.72-5.36,5.68-6.54-2.23-2.56-10.5-4.59-14.67-5.07s-10.06-.91-10.06-0.91l-9.19-.72Z"/><path class="cls-118" d="M33.23,66.32l-3,4.7-1,2,9.06,3L43,77.64l13.79,4.57a6.66,6.66,0,0,0,2.41-.53c1.18-.58,3.9-3,5.46-3.93,2.92-1.73,6.66-5.33,5.64-6.5-2.2-2.53-10.46-4.56-14.58-5s-10-.91-10-0.91l-9.21-.74Z"/><path class="cls-119" d="M33.23,66.37l-3,4.67-1,2,9,3L43,77.62l13.71,4.55a6.57,6.57,0,0,0,2.39-.52c1.17-.57,3.88-3,5.42-3.92,2.88-1.71,6.61-5.31,5.6-6.46-2.18-2.5-10.41-4.53-14.49-5s-9.93-.91-9.93-0.91l-9.23-.76Z"/><path class="cls-120" d="M33.24,66.41l-2.88,4.64-1,2,9,3,4.72,1.57L56.7,82.14a6.48,6.48,0,0,0,2.38-.51c1.15-.57,3.85-3,5.38-3.91C67.31,76,71,72.44,70,71.3c-2.15-2.47-10.37-4.49-14.4-5s-9.86-.92-9.86-0.92l-9.24-.79Z"/><path class="cls-121" d="M33.24,66.46l-2.8,4.6-0.94,2,8.9,3,4.69,1.56L56.66,82.1A6.39,6.39,0,0,0,59,81.6c1.14-.56,3.83-3,5.34-3.9,2.82-1.67,6.51-5.25,5.52-6.38-2.13-2.44-10.32-4.46-14.3-4.92s-9.8-.92-9.8-0.92l-9.26-.81Z"/><path class="cls-122" d="M33.24,66.51l-2.71,4.57-0.91,2,8.85,3,4.66,1.56,13.48,4.5A6.3,6.3,0,0,0,59,81.58c1.13-.55,3.81-3,5.3-3.88,2.79-1.65,6.45-5.22,5.48-6.34-2.1-2.41-10.28-4.43-14.21-4.88s-9.73-.92-9.73-0.92l-9.28-.83Z"/><path class="cls-123" d="M33.25,66.56L30.62,71.1l-0.88,2L38.54,76l4.64,1.55L56.58,82a6.22,6.22,0,0,0,2.34-.47c1.12-.55,3.79-3,5.26-3.87,2.75-1.63,6.4-5.2,5.44-6.3C67.54,69,59.38,67,55.5,66.53s-9.67-.92-9.67-0.92l-9.29-.85Z"/><path class="cls-124" d="M33.25,66.61L30.7,71.12l-0.85,1.94L38.6,76l4.61,1.54L56.54,82a6.14,6.14,0,0,0,2.33-.46c1.1-.54,3.77-3,5.22-3.86,2.72-1.61,6.35-5.17,5.4-6.26C67.43,69,59.29,67,55.45,66.6s-9.6-.92-9.6-0.92l-9.31-.88Z"/><path class="cls-125" d="M33.25,66.66l-2.47,4.47L30,73.06,38.67,76l4.58,1.54L56.5,81.95a6.06,6.06,0,0,0,2.32-.45c1.09-.54,3.75-3,5.18-3.85,2.69-1.59,6.29-5.14,5.35-6.22-2-2.33-10.15-4.33-13.94-4.77s-9.54-.92-9.54-0.92l-9.33-.9Z"/><path class="cls-126" d="M33.26,66.71l-2.38,4.44-0.79,1.91L38.74,76l4.56,1.53,13.17,4.42a6,6,0,0,0,2.3-.44c1.08-.53,3.72-3,5.14-3.84,2.65-1.57,6.24-5.11,5.31-6.18-2-2.3-10.1-4.3-13.85-4.73S45.9,65.8,45.9,65.8l-9.34-.92Z"/><path class="cls-127" d="M33.26,66.76L31,71.16l-0.76,1.9,8.6,2.89,4.53,1.52,13.09,4.4a5.91,5.91,0,0,0,2.29-.43c1.06-.52,3.7-3,5.1-3.83,2.62-1.55,6.19-5.09,5.27-6.14-2-2.27-10.06-4.27-13.76-4.69s-9.41-.93-9.41-0.93l-9.36-.94Z"/><path class="cls-128" d="M33.26,66.81L31,71.18l-0.72,1.88,8.54,2.88,4.51,1.52,13,4.38a5.83,5.83,0,0,0,2.28-.41c1-.52,3.68-3,5.06-3.81,2.59-1.53,6.14-5.06,5.23-6.1-2-2.24-10-4.23-13.67-4.66s-9.34-.93-9.34-0.93l-9.38-1Z"/><path class="cls-129" d="M33.27,66.86L31.13,71.2l-0.69,1.87,8.49,2.86,4.48,1.51L56.34,81.8a5.76,5.76,0,0,0,2.26-.4c1-.51,3.66-3,5-3.8,2.56-1.51,6.08-5,5.19-6.06-1.93-2.22-10-4.2-13.58-4.62S46,66,46,66l-9.39-1Z"/><path class="cls-130" d="M33.27,66.91l-2.05,4.31-0.66,1.85L39,75.91l4.45,1.5L56.3,81.76a5.69,5.69,0,0,0,2.25-.39c1-.5,3.64-3,5-3.79,2.52-1.49,6-5,5.15-6C66.78,69.37,58.76,67.39,55.2,67S46,66,46,66l-9.41-1Z"/><path class="cls-131" d="M33.27,67l-2,4.28-0.63,1.84,8.39,2.84,4.43,1.5,12.78,4.32a5.62,5.62,0,0,0,2.24-.38c1-.5,3.62-3,4.95-3.78,2.49-1.47,6-5,5.11-6-1.88-2.16-9.88-4.14-13.4-4.54S46,66.11,46,66.11l-9.43-1Z"/><path class="cls-132" d="M33.28,67l-1.89,4.24-0.6,1.82,8.34,2.82,4.4,1.49,12.7,4.3a5.55,5.55,0,0,0,2.23-.37c1-.49,3.59-3,4.91-3.77,2.46-1.45,5.93-4.95,5.07-5.94-1.86-2.13-9.84-4.11-13.31-4.51S46,66.17,46,66.17l-9.44-1.06Z"/><path class="cls-133" d="M33.28,67.05l-1.8,4.21L30.9,73.07l8.29,2.81,4.37,1.48,12.62,4.28a5.49,5.49,0,0,0,2.21-.36c1-.48,3.57-3,4.87-3.76,2.43-1.43,5.87-4.92,5-5.89-1.83-2.1-9.79-4.07-13.22-4.47s-9-.94-9-0.94L36.6,65.15Z"/><path class="cls-134" d="M33.28,67.1l-1.72,4.18L31,73.07l8.24,2.8,4.35,1.48,12.54,4.26a5.43,5.43,0,0,0,2.2-.34c1-.48,3.55-3,4.83-3.74,2.39-1.41,5.82-4.89,5-5.85-1.81-2.07-9.75-4-13.13-4.43s-9-.94-9-0.94l-9.48-1.1Z"/><path class="cls-135" d="M33.29,67.15L31.65,71.3l-0.51,1.78,8.19,2.79,4.32,1.47,12.47,4.24a5.36,5.36,0,0,0,2.19-.33c1-.47,3.53-3,4.79-3.73,2.36-1.4,5.77-4.87,4.94-5.81-1.78-2-9.7-4-13-4.39s-8.89-.94-8.89-0.94l-9.49-1.13Z"/><path class="cls-136" d="M33.29,67.2l-1.55,4.11-0.48,1.76,8.14,2.77,4.29,1.46,12.39,4.22a5.3,5.3,0,0,0,2.17-.32c0.94-.46,3.51-3,4.75-3.72,2.33-1.38,5.71-4.84,4.9-5.77-1.76-2-9.66-4-12.95-4.35s-8.82-.95-8.82-0.95l-9.51-1.15Z"/><path class="cls-137" d="M33.29,67.25l-1.47,4.08-0.45,1.75,8.08,2.76,4.27,1.46L56,81.49a5.25,5.25,0,0,0,2.16-.31c0.93-.46,3.49-3,4.71-3.71,2.29-1.36,5.66-4.81,4.86-5.73-1.73-2-9.62-3.94-12.85-4.32s-8.75-.95-8.75-0.95l-9.53-1.17Z"/><path class="cls-138" d="M33.3,67.3l-1.39,4-0.42,1.73,8,2.75,4.24,1.45L56,81.45a5.19,5.19,0,0,0,2.15-.3c0.92-.45,3.46-3,4.67-3.7,2.26-1.34,5.61-4.78,4.82-5.69-1.71-2-9.57-3.91-12.76-4.28s-8.69-.95-8.69-0.95l-9.54-1.19Z"/><path class="cls-139" d="M33.3,67.35l-1.31,4L31.6,73.08l8,2.73,4.21,1.44L56,81.42a5.13,5.13,0,0,0,2.13-.28c0.9-.44,3.44-3,4.63-3.69,2.23-1.32,5.56-4.76,4.78-5.65-1.68-1.93-9.53-3.88-12.67-4.24s-8.62-1-8.62-1l-9.56-1.22Z"/><path class="cls-140" d="M33.3,67.4l-1.22,4-0.36,1.7,7.93,2.72,4.19,1.44,12.08,4.14A5.08,5.08,0,0,0,58,81.11c0.89-.44,3.42-3,4.59-3.67,2.2-1.3,5.5-4.73,4.73-5.61-1.66-1.9-9.48-3.85-12.58-4.2s-8.56-1-8.56-1l-9.58-1.24Z"/><path class="cls-141" d="M33.31,67.45l-1.14,3.95-0.33,1.68,7.88,2.71,4.16,1.43,12,4.12A5,5,0,0,0,58,81.08c0.88-.43,3.4-3,4.56-3.66,2.16-1.28,5.45-4.7,4.69-5.57C65.6,70,57.79,68,54.74,67.68l-8.49-1-9.6-1.26Z"/><path class="cls-142" d="M33.31,67.49l-1.06,3.92L32,73.08l7.83,2.7,4.13,1.42,11.92,4.1a5,5,0,0,0,2.1-.25c0.86-.42,3.38-3,4.52-3.65,2.13-1.26,5.4-4.67,4.65-5.53C65.49,70,57.7,68.09,54.7,67.75l-8.43-1L36.66,65.5Z"/><path class="cls-143" d="M33.31,67.54l-1,3.88-0.27,1.65,7.78,2.68L44,77.18l11.84,4.08A4.93,4.93,0,0,0,57.88,81c0.85-.42,3.36-3,4.48-3.64,2.1-1.24,5.34-4.65,4.61-5.49-1.58-1.82-9.35-3.75-12.31-4.09l-8.36-1-9.63-1.31Z"/><path class="cls-144" d="M33.32,67.59l-0.89,3.85-0.24,1.64,7.73,2.67L44,77.16l11.76,4.06A4.88,4.88,0,0,0,57.82,81c0.84-.41,3.33-3,4.44-3.63,2.06-1.22,5.29-4.62,4.57-5.45-1.56-1.79-9.3-3.72-12.22-4.05l-8.3-1-9.65-1.33Z"/><path class="cls-145" d="M33.32,67.64l-0.81,3.82L32.3,73.08,40,75.74,44,77.14l11.68,4A4.84,4.84,0,0,0,57.77,81c0.82-.4,3.31-3,4.4-3.61,2-1.2,5.24-4.59,4.53-5.41-1.53-1.76-9.26-3.68-12.13-4l-8.23-1-9.66-1.35Z"/><path class="cls-146" d="M33.32,67.69L32.6,71.47l-0.18,1.61L40,75.73l4,1.4,11.61,4a4.79,4.79,0,0,0,2-.2c0.81-.4,3.29-3,4.36-3.6,2-1.18,5.19-4.56,4.49-5.37-1.51-1.73-9.22-3.65-12-4l-8.17-1-9.68-1.37Z"/><path class="cls-147" d="M33.33,67.74l-0.64,3.75-0.15,1.59,7.57,2.63,4,1.39,11.53,4a4.75,4.75,0,0,0,2-.19c0.8-.39,3.27-3,4.32-3.59,2-1.16,5.13-4.54,4.45-5.33-1.49-1.7-9.17-3.62-11.95-3.94s-8.1-1-8.1-1l-9.7-1.4Z"/><path class="cls-148" d="M33.33,67.79l-0.56,3.72-0.12,1.58,7.52,2.62,4,1.38,11.45,4a4.71,4.71,0,0,0,2-.18c0.78-.39,3.25-3,4.28-3.58C63.83,76.17,67,72.81,66.3,72c-1.46-1.68-9.13-3.59-11.86-3.9s-8-1-8-1l-9.71-1.42Z"/><path class="cls-149" d="M33.33,67.84l-0.48,3.69-0.09,1.56,7.47,2.6,3.95,1.38,11.37,4a4.67,4.67,0,0,0,2-.17c0.77-.38,3.23-3,4.24-3.57,1.9-1.12,5-4.48,4.36-5.24-1.44-1.65-9.08-3.55-11.77-3.86s-8-1-8-1L36.7,65.78Z"/><path class="cls-150" d="M33.34,67.89l-0.39,3.65-0.06,1.55,7.42,2.59,3.92,1.37L55.52,81a4.63,4.63,0,0,0,2-.15c0.76-.37,3.2-3,4.2-3.56,1.87-1.1,5-4.45,4.32-5.2-1.41-1.62-9-3.52-11.68-3.83s-7.91-1-7.91-1l-9.75-1.47Z"/><path class="cls-151" d="M33.34,67.94L33,71.56l0,1.53,7.37,2.58L44.26,77,55.48,81a4.59,4.59,0,0,0,2-.14c0.74-.37,3.18-3,4.16-3.54,1.84-1.09,4.92-4.43,4.28-5.16-1.39-1.59-9-3.49-11.59-3.79s-7.84-1-7.84-1l-9.76-1.49Z"/><path class="cls-152" d="M33.34,68l-0.23,3.59v1.52l7.32,2.57L44.3,77l11.14,3.91a4.56,4.56,0,0,0,2-.13c0.73-.36,3.16-3,4.12-3.53,1.8-1.07,4.87-4.4,4.24-5.12-1.36-1.56-8.95-3.46-11.5-3.75s-7.78-1-7.78-1L36.72,65.9Z"/><path class="cls-153" d="M33.35,68L33.2,71.59l0,1.5,7.27,2.55L44.34,77,55.4,80.88a4.53,4.53,0,0,0,2-.12c0.72-.35,3.14-3,4.09-3.52,1.77-1,4.82-4.37,4.2-5.08-1.34-1.53-8.91-3.43-11.4-3.71s-7.71-1-7.71-1l-9.8-1.53Z"/><path class="cls-154" d="M33.35,68.08l-0.06,3.52,0.06,1.49,7.21,2.54L44.38,77l11,3.87a4.49,4.49,0,0,0,1.94-.11c0.7-.35,3.12-3,4-3.51,1.74-1,4.76-4.34,4.16-5-1.31-1.51-8.86-3.39-11.31-3.68s-7.65-1-7.65-1L36.73,66Z"/><path class="cls-155" d="M33.35,68.13l0,3.49,0.09,1.47,7.16,2.53L44.42,77l10.9,3.85a4.47,4.47,0,0,0,1.93-.1c0.69-.34,3.1-3,4-3.5,1.7-1,4.71-4.32,4.12-5-1.29-1.48-8.82-3.36-11.22-3.64s-7.58-1-7.58-1L36.74,66Z"/><path class="cls-156" d="M33.36,68.18l0.1,3.46,0.12,1.46,7.11,2.51,3.76,1.33,10.83,3.83a4.44,4.44,0,0,0,1.91-.08c0.68-.33,3.07-3,4-3.49,1.67-1,4.66-4.29,4.07-5-1.26-1.45-8.77-3.33-11.13-3.6s-7.52-1-7.52-1l-9.85-1.6Z"/><path class="cls-157" d="M33.36,68.23l0.19,3.42L33.7,73.1l7.06,2.5,3.73,1.33,10.75,3.81a4.41,4.41,0,0,0,1.9-.07c0.66-.33,3.05-3,3.93-3.47,1.64-1,4.61-4.26,4-4.92-1.24-1.42-8.73-3.3-11-3.56s-7.45-1-7.45-1l-9.86-1.62Z"/><path class="cls-158" d="M33.36,68.28l0.27,3.39,0.18,1.43,7,2.49,3.71,1.32L55.2,80.69a4.39,4.39,0,0,0,1.89-.06c0.65-.32,3-3,3.89-3.46,1.61-.95,4.55-4.23,4-4.88C63.76,70.9,56.29,69,54,68.77s-7.39-1-7.39-1l-9.88-1.65Z"/><path class="cls-159" d="M33.37,68.33l0.35,3.36,0.22,1.41,7,2.48,3.68,1.31,10.59,3.77a4.37,4.37,0,0,0,1.88,0c0.64-.31,3-3,3.85-3.45,1.57-.93,4.5-4.21,4-4.84C63.65,71,56.2,69.09,54,68.83s-7.32-1-7.32-1l-9.9-1.67Z"/><path class="cls-160" d="M33.37,68.38L33.8,71.7,34,73.1,41,75.56l3.65,1.31,10.51,3.75a4.34,4.34,0,0,0,1.86,0c0.62-.31,3-3,3.81-3.44,1.54-.91,4.45-4.18,3.91-4.8-1.16-1.34-8.6-3.2-10.77-3.45s-7.26-1-7.26-1l-9.91-1.69Z"/><path class="cls-161" d="M33.37,68.43l0.52,3.29,0.28,1.38L41,75.55l3.63,1.3,10.44,3.73a4.33,4.33,0,0,0,1.85,0c0.61-.3,3-3,3.77-3.43,1.51-.89,4.4-4.15,3.87-4.76C63.44,71.06,56,69.2,53.9,69s-7.19-1-7.19-1l-9.93-1.71Z"/><path class="cls-162" d="M33.38,68.48L34,71.74l0.31,1.37,6.81,2.44,3.6,1.29L55,80.54a4.31,4.31,0,0,0,1.84,0c0.6-.29,2.94-2.95,3.73-3.42C62.09,76.24,65,73,64.44,72.4c-1.11-1.28-8.51-3.13-10.59-3.37s-7.12-1-7.12-1l-9.95-1.74Z"/><path class="cls-163" d="M33.38,68.52l0.68,3.23,0.34,1.35,6.75,2.42,3.57,1.29L55,80.5a4.3,4.3,0,0,0,1.82,0c0.58-.29,2.92-2.95,3.69-3.4,1.44-.85,4.29-4.1,3.79-4.68-1.09-1.25-8.46-3.1-10.5-3.34s-7.06-1-7.06-1l-10-1.76Z"/><path class="cls-164" d="M33.38,68.57l0.77,3.19,0.37,1.34,6.7,2.41,3.55,1.28L55,80.47a4.28,4.28,0,0,0,1.81,0c0.57-.28,2.9-2.95,3.65-3.39,1.41-.83,4.24-4.07,3.74-4.64-1.06-1.22-8.42-3.07-10.41-3.3s-7-1-7-1l-10-1.78Z"/><path class="cls-165" d="M33.39,68.62l0.85,3.16,0.4,1.32,6.65,2.4,3.52,1.27,10.12,3.65a4.27,4.27,0,0,0,1.8,0c0.56-.27,2.88-2.95,3.62-3.38,1.38-.81,4.18-4,3.7-4.59-1-1.19-8.37-3-10.32-3.26s-6.93-1-6.93-1l-10-1.81Z"/><path class="cls-166" d="M33.39,68.67l0.93,3.13,0.43,1.31,6.6,2.39,3.5,1.27,10,3.63a4.27,4.27,0,0,0,1.78,0c0.54-.27,2.86-2.94,3.58-3.37,1.34-.79,4.13-4,3.66-4.55-1-1.16-8.33-3-10.23-3.22s-6.86-1-6.86-1l-10-1.83Z"/><path class="cls-167" d="M33.39,68.72l1,3.1,0.46,1.29,6.55,2.37,3.47,1.26,10,3.61a4.26,4.26,0,0,0,1.77,0c0.53-.26,2.84-2.94,3.54-3.36,1.31-.78,4.08-4,3.62-4.51-1-1.14-8.28-3-10.14-3.19s-6.8-1-6.8-1l-10-1.85Z"/><path class="cls-168" d="M33.4,68.77l1.1,3.06L35,73.11l6.5,2.36,3.44,1.25,9.89,3.59a4.26,4.26,0,0,0,1.76.06c0.52-.25,2.81-2.94,3.5-3.35,1.28-.76,4-4,3.58-4.47-1-1.11-8.24-2.94-10-3.15s-6.73-1-6.73-1l-10-1.87Z"/><path class="cls-169" d="M33.4,68.82l1.18,3,0.52,1.26,6.45,2.35L45,76.71l9.81,3.57a4.26,4.26,0,0,0,1.75.07C57,80.1,59.31,77.41,60,77c1.25-.74,4-3.93,3.54-4.43-0.94-1.08-8.2-2.91-10-3.11s-6.67-1-6.67-1l-10.06-1.9Z"/><path class="cls-170" d="M33.4,68.87l1.26,3,0.55,1.25,6.4,2.33L45,76.69l9.73,3.55a4.26,4.26,0,0,0,1.73.08c0.49-.24,2.77-2.94,3.42-3.32,1.21-.72,3.92-3.9,3.5-4.39-0.92-1.05-8.15-2.88-9.86-3.07s-6.6-1-6.6-1L36.83,66.6Z"/><path class="cls-171" d="M33.41,68.92l1.35,3,0.58,1.23,6.35,2.32L45,76.67l9.66,3.53a4.27,4.27,0,0,0,1.72.09c0.48-.23,2.75-2.94,3.38-3.31,1.18-.7,3.87-3.88,3.46-4.35-0.89-1-8.11-2.84-9.77-3s-6.54-1-6.54-1l-10.1-1.94Z"/><path class="cls-172" d="M33.41,69l1.43,2.93,0.61,1.22,6.29,2.31,3.34,1.23,9.58,3.51a4.28,4.28,0,0,0,1.71.1c0.46-.23,2.73-2.94,3.34-3.3,1.15-.68,3.82-3.85,3.41-4.31-0.87-1-8.06-2.81-9.68-3s-6.47-1-6.47-1l-10.11-2Z"/><path class="cls-173" d="M33.41,69l1.51,2.9,0.64,1.2,6.24,2.3,3.31,1.22,9.5,3.49a4.29,4.29,0,0,0,1.69.12C56.76,80,59,77.31,59.61,77c1.11-.66,3.76-3.82,3.37-4.27-0.84-1-8-2.78-9.59-3s-6.41-1-6.41-1l-10.13-2Z"/><path class="cls-174" d="M33.42,69.06L35,71.93l0.67,1.19,6.19,2.28,3.28,1.21,9.42,3.47a4.31,4.31,0,0,0,1.68.13c0.44-.22,2.68-2.93,3.26-3.28,1.08-.64,3.71-3.8,3.33-4.23-0.82-.94-8-2.75-9.5-2.92s-6.34-1-6.34-1l-10.15-2Z"/><path class="cls-175" d="M33.42,69.11l1.68,2.83,0.7,1.17,6.14,2.27,3.26,1.21L54.54,80a4.33,4.33,0,0,0,1.67.14c0.42-.21,2.66-2.93,3.22-3.26,1-.62,3.66-3.77,3.29-4.19-0.79-.91-7.93-2.71-9.41-2.88s-6.28-1-6.28-1l-10.17-2Z"/><path class="cls-176" d="M33.42,69.16L35.18,72l0.73,1.16L42,75.38l3.23,1.2L54.5,80a4.36,4.36,0,0,0,1.66.15c0.41-.2,2.64-2.93,3.18-3.25,1-.6,3.6-3.74,3.25-4.15-0.77-.88-7.89-2.68-9.32-2.85s-6.21-1-6.21-1L36.87,66.84Z"/><path class="cls-177" d="M33.43,69.21L35.27,72,36,73.12l6,2.24,3.2,1.19L54.46,80a4.39,4.39,0,0,0,1.64.16c0.4-.2,2.62-2.93,3.14-3.24,1-.58,3.55-3.71,3.21-4.11-0.74-.85-7.84-2.65-9.23-2.81s-6.15-1-6.15-1l-10.2-2.08Z"/><path class="cls-178" d="M33.43,69.26L35.36,72l0.79,1.13,6,2.23,3.18,1.19,9.11,3.39a4.42,4.42,0,0,0,1.63.18c0.38-.19,2.6-2.93,3.11-3.23,1-.56,3.5-3.69,3.17-4.07C61.6,72,54.52,70.2,53.18,70s-6.08-1-6.08-1l-10.22-2.1Z"/><path class="cls-179" d="M33.43,69.31l2,2.7,0.82,1.11,5.94,2.22,3.15,1.18,9,3.37a4.47,4.47,0,0,0,1.62.19c0.37-.18,2.58-2.93,3.07-3.22,0.92-.54,3.45-3.66,3.13-4-0.69-.8-7.75-2.58-9-2.73s-6-1-6-1L36.89,67Z"/><path class="cls-180" d="M33.44,69.36L35.53,72l0.85,1.1,5.88,2.21,3.12,1.17,9,3.35a4.51,4.51,0,0,0,1.6.2c0.36-.18,2.55-2.93,3-3.2,0.88-.52,3.39-3.63,3.08-4-0.67-.77-7.71-2.55-9-2.7s-6-1-6-1L36.9,67Z"/><path class="cls-181" d="M33.44,69.41L35.61,72l0.88,1.08,5.83,2.19,3.1,1.17,8.88,3.34a4.57,4.57,0,0,0,1.59.21c0.35-.17,2.53-2.92,3-3.19,0.85-.5,3.34-3.6,3-3.94-0.64-.74-7.66-2.52-8.87-2.66s-5.89-1-5.89-1L36.9,67Z"/><path class="cls-182" d="M33.44,69.46l2.26,2.61,0.91,1.07,5.78,2.18,3.07,1.16,8.8,3.32a4.63,4.63,0,0,0,1.58.22c0.33-.16,2.51-2.92,2.95-3.18,0.82-.48,3.29-3.58,3-3.9-0.62-.71-7.62-2.49-8.78-2.62s-5.82-1-5.82-1L36.91,67.08Z"/><path class="cls-183" d="M33.45,69.51l2.34,2.57,0.94,1.05,5.73,2.17,3,1.15,8.72,3.3a4.7,4.7,0,0,0,1.56.23c0.32-.16,2.49-2.92,2.91-3.17,0.79-.47,3.24-3.55,3-3.86-0.59-.68-7.58-2.45-8.69-2.58s-5.76-1-5.76-1l-10.3-2.21Z"/><path class="cls-184" d="M33.45,69.56l2.42,2.54,1,1,5.68,2.15,3,1.15,8.64,3.28a4.78,4.78,0,0,0,1.55.25C56,79.8,58.2,77,58.61,76.79c0.75-.45,3.18-3.52,2.92-3.82-0.57-.65-7.53-2.42-8.6-2.54s-5.69-1-5.69-1L36.92,67.15Z"/><path class="cls-185" d="M33.45,69.6L36,72.11l1,1,5.63,2.14,3,1.14,8.56,3.26a4.88,4.88,0,0,0,1.54.26c0.29-.14,2.45-2.92,2.83-3.15,0.72-.43,3.13-3.49,2.88-3.78-0.54-.62-7.49-2.39-8.5-2.51s-5.62-1-5.62-1L36.93,67.19Z"/><path class="cls-186" d="M33.46,69.65L36,72.13l1,1,5.58,2.13,3,1.13,8.48,3.24a5,5,0,0,0,1.53.27c0.28-.14,2.42-2.92,2.79-3.13,0.69-.41,3.08-3.47,2.84-3.74-0.52-.6-7.44-2.36-8.41-2.47s-5.56-1-5.56-1L36.94,67.23Z"/><path class="cls-187" d="M33.46,69.7l2.67,2.44,1.06,1,5.53,2.12,2.94,1.13,8.41,3.22a5.1,5.1,0,0,0,1.51.28c0.27-.13,2.4-2.92,2.75-3.12,0.66-.39,3-3.44,2.8-3.7-0.5-.57-7.4-2.32-8.32-2.43s-5.49-1-5.49-1l-10.37-2.3Z"/><path class="cls-188" d="M33.46,69.75l2.76,2.41,1.09,1,5.48,2.1,2.91,1.12L54,79.55a5.23,5.23,0,0,0,1.5.29c0.25-.12,2.38-2.91,2.71-3.11,0.62-.37,3-3.41,2.75-3.66-0.47-.54-7.35-2.29-8.23-2.39s-5.43-1-5.43-1L36.95,67.31Z"/><path class="cls-189" d="M33.47,69.8l2.84,2.38,1.12,1,5.42,2.09,2.88,1.11L54,79.52a5.39,5.39,0,0,0,1.49.3c0.24-.12,2.36-2.91,2.67-3.1,0.59-.35,2.92-3.38,2.71-3.62-0.45-.51-7.31-2.26-8.14-2.36s-5.36-1-5.36-1L37,67.35Z"/><path class="cls-190" d="M33.47,69.85l2.92,2.34,1.16,0.95,5.37,2.08,2.86,1.11,8.17,3.16a5.56,5.56,0,0,0,1.47.32c0.23-.11,2.34-2.91,2.64-3.09,0.56-.33,2.87-3.36,2.67-3.58-0.42-.48-7.26-2.23-8.05-2.32s-5.3-1-5.3-1L37,67.39Z"/><path class="cls-191" d="M33.47,69.9l3,2.31,1.19,0.93L43,75.2l2.83,1.1,8.09,3.14a5.76,5.76,0,0,0,1.46.33c0.21-.1,2.32-2.91,2.6-3.08,0.52-.31,2.81-3.33,2.63-3.54-0.4-.45-7.22-2.2-8-2.28s-5.23-1-5.23-1L37,67.43Z"/><path class="cls-192" d="M33.48,69.95l3.09,2.28,1.22,0.92L43,75.19l2.8,1.09,8,3.12a6,6,0,0,0,1.45.34c0.2-.1,2.29-2.91,2.56-3.06,0.49-.29,2.76-3.3,2.59-3.5-0.37-.43-7.18-2.16-7.87-2.24s-5.17-1.05-5.17-1.05L37,67.47Z"/><path class="cls-193" d="M33.48,70l3.17,2.24,1.25,0.9,5.22,2,2.78,1.09,7.94,3.1a6.27,6.27,0,0,0,1.43.35c0.19-.09,2.27-2.91,2.52-3.05,0.46-.27,2.71-3.27,2.55-3.46C60,72.81,53.2,71.08,52.55,71s-5.1-1.05-5.1-1.05L37,67.51Z"/><path class="cls-194" d="M33.48,70l3.25,2.21L38,73.14l5.17,2,2.75,1.08,7.86,3.08a6.59,6.59,0,0,0,1.42.36c0.17-.08,2.25-2.91,2.48-3a14.4,14.4,0,0,0,2.51-3.42c-0.32-.37-7.09-2.1-7.69-2.17s-5-1.06-5-1.06L37,67.55Z"/><path class="cls-195" d="M33.49,70.1l3.34,2.18,1.31,0.87,5.12,2L46,76.23l7.78,3.06a7,7,0,0,0,1.41.38c0.16-.08,2.23-2.9,2.44-3a15.14,15.14,0,0,0,2.46-3.38c-0.3-.34-7-2.07-7.6-2.13s-5-1.06-5-1.06L37,67.59Z"/><path class="cls-196" d="M33.49,70.14l3.42,2.15,1.34,0.86,5.07,2L46,76.21l7.7,3a7.41,7.41,0,0,0,1.4.39c0.15-.07,2.21-2.9,2.4-3a16,16,0,0,0,2.42-3.34,65.78,65.78,0,0,0-7.51-2.09c-0.51-.06-4.91-1.06-4.91-1.06L37,67.63Z"/><path class="cls-197" d="M33.49,70.19L37,72.31l1.37,0.84,5,2L46,76.19l7.63,3a8,8,0,0,0,1.38.4c0.13-.07,2.19-2.9,2.36-3a17.12,17.12,0,0,0,2.38-3.29,70.61,70.61,0,0,0-7.42-2.05c-0.46-.05-4.84-1.06-4.84-1.06L37,67.67Z"/><path class="cls-198" d="M33.5,70.24l3.58,2.08,1.4,0.82,5,2,2.64,1.05,7.55,3a8.64,8.64,0,0,0,1.37.41c0.12-.06,2.16-2.9,2.32-3a18.44,18.44,0,0,0,2.34-3.25c-0.22-.26-6.91-2-7.33-2s-4.78-1.06-4.78-1.06L37,67.7Z"/><path class="cls-199" d="M33.5,70.29l3.67,2,1.43,0.81,4.91,2,2.62,1,7.47,3a9.49,9.49,0,0,0,1.36.42c0.11-.05,2.14-2.9,2.28-3a20.12,20.12,0,0,0,2.3-3.21c-0.2-.23-6.87-1.94-7.24-2s-4.71-1.06-4.71-1.06L37,67.74Z"/><path class="cls-200" d="M33.5,70.34l3.75,2,1.46,0.79,4.86,1.95,2.59,1,7.39,3a10.59,10.59,0,0,0,1.34.43c0.09,0,2.12-2.9,2.24-3a22.28,22.28,0,0,0,2.26-3.17c-0.17-.2-6.82-1.9-7.15-1.94s-4.65-1.07-4.65-1.07L37,67.78Z"/><path class="cls-201" d="M33.51,70.39l3.83,2,1.49,0.78,4.81,1.93,2.56,1,7.31,2.94a12.07,12.07,0,0,0,1.33.45c0.08,0,2.1-2.9,2.2-3a25.17,25.17,0,0,0,2.22-3.13c-0.15-.17-6.78-1.87-7.05-1.9s-4.58-1.07-4.58-1.07L37,67.82Z"/><path class="cls-202" d="M33.51,70.44l3.92,2,1.52,0.76,4.76,1.92,2.54,1L53.48,79s1.26,0.49,1.32.46,2.08-2.9,2.17-2.95a29.24,29.24,0,0,0,2.18-3.09c-0.12-.14-6.73-1.84-7-1.87s-4.52-1.07-4.52-1.07L37,67.86Z"/><path class="cls-203" d="M33.51,70.49l4,1.92,1.55,0.75,4.71,1.91,2.51,1L53.44,79s1.26,0.49,1.31.47,2.06-2.89,2.13-2.94A35.36,35.36,0,0,0,59,73.47c-0.1-.11-6.69-1.81-6.87-1.83s-4.45-1.07-4.45-1.07L37,67.9Z"/><path class="cls-204" d="M33.52,70.54l4.08,1.88,1.58,0.73,4.66,1.9,2.49,1,7.08,2.88s1.26,0.5,1.29.48,2-2.89,2.09-2.92,2.13-3,2.09-3-6.64-1.77-6.78-1.79-4.39-1.07-4.39-1.07L37.05,67.94Z"/><path class="cls-205" d="M33.52,70.59l4.16,1.85,1.61,0.72L43.9,75l2.46,1,7,2.86s1.26,0.5,1.28.49,2-2.89,2-2.91,2.08-2.94,2.05-3-6.6-1.74-6.69-1.75-4.32-1.08-4.32-1.08L37.06,68Z"/><path class="cls-206" d="M33.52,70.63l4.25,1.82,1.64,0.7L44,75l2.43,1,6.92,2.84s1.25,0.51,1.27.51,2-2.89,2-2.9,2-2.92,2-2.93-6.56-1.71-6.6-1.72l-4.26-1.08L37.06,68Z"/><polygon class="cls-207" points="33.52 70.68 44.03 75.02 54.53 79.35 56.5 76.46 58.47 73.57 47.77 70.81 37.07 68.06 33.52 70.68"/></g><path class="cls-208" d="M71.38,68.61c-0.93-14.11-2.75-52.13-2.75-52.13l-6.45-.13,2.13,55.89,8.06,3.2Z"/><polygon class="cls-209" points="61.19 84 61.19 84 72.38 75.45 64.31 72.25 61.19 84"/><path class="cls-210" d="M22,37.38c0.39-9.84.87-19.86,0.87-19.86L63.1,14.78,62.33,73.59,61.19,84,19.74,72.11A6.19,6.19,0,0,0,20.22,70c0.11-1.43.68-5.63,0.68-5.88S21.48,49.64,22,37.38Z"/><polygon class="cls-211" points="63.13 16.41 62.33 73.59 61.19 84 64.31 72.25 63.13 16.41"/><path class="cls-212" d="M20.22,70a6.19,6.19,0,0,1-.48,2.14L61.19,84l1.14-10.41L20.9,64.19C20.83,64.88,20.32,68.64,20.22,70Z"/><polygon class="cls-213" points="71.39 68.61 64.31 72.25 72.38 75.45 71.39 68.61"/><polygon class="cls-214" points="62.33 73.59 61.19 84 64.31 72.25 62.33 73.59"/><polygon class="cls-215" points="22.91 17.52 63.17 14.78 64.38 16.4 68.71 16.49 71.46 68.61 72.45 75.45 61.26 84 19.82 72.11 20.97 64.19 22.91 17.52"/><path class="cls-216" d="M50.17,19.16a1.3,1.3,0,0,1-1.29,1.29,1.32,1.32,0,0,1,.05-2.63A1.28,1.28,0,0,1,50.17,19.16Z"/><ellipse class="cls-217" cx="48.69" cy="19.07" rx="0.96" ry="0.85" transform="translate(28.67 67.38) rotate(-88.87)"/><path class="cls-218" d="M48.85,17.89a1.19,1.19,0,1,0,1.1,1.21A1.16,1.16,0,0,0,48.85,17.89Zm-0.17,2a0.84,0.84,0,1,1,.75-0.81A0.79,0.79,0,0,1,48.68,19.9Z"/><path class="cls-216" d="M35.12,19.89a1.21,1.21,0,0,1-1.2,1.19,1.22,1.22,0,0,1,0-2.43A1.19,1.19,0,0,1,35.12,19.89Z"/><ellipse class="cls-217" cx="33.75" cy="19.8" rx="0.88" ry="0.79" transform="translate(13.28 53.16) rotate(-88.87)"/><path class="cls-219" d="M33.9,18.71a1.1,1.1,0,1,0,1,1.12A1.07,1.07,0,0,0,33.9,18.71Zm-0.16,1.87a0.77,0.77,0,1,1,.7-0.75A0.73,0.73,0,0,1,33.74,20.57Z"/><path class="cls-220" d="M33.75,20.33a0.47,0.47,0,0,0,.48-0.48C34.27,8.74,38.82,1,42.81,1a3.9,3.9,0,0,1,3,1.4C48.12,5,48.94,11,48.24,19a0.5,0.5,0,0,0,.41.6,0.52,0.52,0,0,0,.56-0.48C50,10.67,49.07,4.57,46.5,1.72A4.9,4.9,0,0,0,42.81,0c-4.54,0-9.46,8-9.51,19.86A0.46,0.46,0,0,0,33.75,20.33Z"/><path class="cls-6" d="M46.5,1.72A4.91,4.91,0,0,0,42.94,0c-4.51.15-9.33,8.11-9.38,19.86a0.49,0.49,0,0,0,.32.46,0.49,0.49,0,0,0,.35-0.47C34.27,8.74,38.82,1,42.81,1h0.26a3.9,3.9,0,0,1,3,1.4C48.38,5,49.2,11,48.5,19a0.52,0.52,0,0,0,.33.59,0.54,0.54,0,0,0,.38-0.46C50,10.67,49.07,4.57,46.5,1.72Z"/><path class="cls-221" d="M40.65,18.14c0.26-8.68,3.55-14.7,7-15a3.9,3.9,0,0,1,3.08,1.13c2.19,2,3.51,6.61,3.87,12.93l1-.07c-0.37-6.64-1.77-11.36-4.19-13.59a4.9,4.9,0,0,0-3.83-1.38c-3.91.36-7.56,6.7-7.8,16.05Z"/><path class="cls-222" d="M41.74,43.93a1.59,1.59,0,0,1-.07-1.59,10.21,10.21,0,0,1,.66-0.87,10.74,10.74,0,0,0,.84-1.13,2.93,2.93,0,0,0,.21-2.27A4.56,4.56,0,0,0,42,35.75a5.06,5.06,0,0,0-.5-0.35,5.94,5.94,0,0,1,0,.64,3.13,3.13,0,0,1-.59,1.42c-0.29.46-.59,0.92-0.85,1.39a3,3,0,0,0,0,2.73,7.78,7.78,0,0,0,.43.74,0.7,0.7,0,0,0,.09.09c0-.3-0.1-0.57-0.13-0.85a3.82,3.82,0,0,1,.47-2.45l0.54-1a3.39,3.39,0,0,0,.44-1.42h0c0,0.14,0,.28,0,0.42a3.14,3.14,0,0,1-.33,1.17c-0.12.26-.24,0.53-0.38,0.79a4.21,4.21,0,0,0-.38,2.74,8.58,8.58,0,0,0,.69,2.13c0,0.09.08,0.17,0.21,0.13"/><g class="cls-223"><path class="cls-224" d="M75.33,52.64a26.71,26.71,0,0,0-14.77-1c-1.2.25-.73-0.25-1.15-1.75l-0.29-1.12C59,48.3,59,45.06,59,44.69a2,2,0,0,1,1.55-2.35c5-1.07,8.47-.74,13.37.36A34.86,34.86,0,0,1,78.17,44q1.48,0.54,2.92,1.21A30.14,30.14,0,0,0,74,47.45a30.83,30.83,0,0,1,3.55,6.12Q76.47,53.05,75.33,52.64Z"/><path class="cls-225" d="M6.55,47.42a26.72,26.72,0,0,1,14.76,1.1c1.15,0.42.76-.14,1.38-1.57l0.45-1.06c0.18-.44.67-3.64,0.74-4a2,2,0,0,0-1.2-2.54C17.92,37.58,14.4,37.4,9.4,37.8A35.06,35.06,0,0,0,5,38.43q-1.54.32-3.06,0.78a30.12,30.12,0,0,1,6.67,3.26A30.81,30.81,0,0,0,4.2,48Q5.36,47.67,6.55,47.42Z"/><path class="cls-226" d="M66.18,45.38s-8,1-7.14-1.65c0,0-.71,3.53-0.31,4.28s7.77,0.64,7.77.64Z"/><path class="cls-227" d="M23.92,41.49s-8.93-.76-7.34.23c0.35,1.19-.9,3-0.9,3l4.54,1.1,3.38-.36S23.9,42,23.92,41.49Z"/><path class="cls-228" d="M38.74,59.49a100,100,0,0,1-17.41-3.07q-2.65-.71-5.26-1.57c-2-.66-3.32-2.13-3-3.18l3-9a2,2,0,0,1,.45-0.9,4.27,4.27,0,0,0,2.65,2.49Q21.59,45,24,45.62h0A90.2,90.2,0,0,0,41,48.5L40.21,59.61Z"/><path class="cls-229" d="M64.78,58.32q-2.71.48-5.43,0.81a100,100,0,0,1-17.67.57l-1.47-.09L41,48.5h0a90.2,90.2,0,0,0,17.26-.44h0q2.45-.3,4.9-0.73a4.23,4.23,0,0,0,3-2,1.52,1.52,0,0,1,.29.83l1.7,9.38C68.37,56.69,66.86,58,64.78,58.32Z"/></g></g></g></svg>