<?xml version="1.0" encoding="UTF-8" standalone="no"?>
<svg width="18px" height="16px" viewBox="0 0 18 16" version="1.1" xmlns="http://www.w3.org/2000/svg" xmlns:xlink="http://www.w3.org/1999/xlink" xmlns:sketch="http://www.bohemiancoding.com/sketch/ns">
    <!-- Generator: Sketch 3.5.2 (25235) - http://www.bohemiancoding.com/sketch -->
    <title>Group</title>
    <desc>Created with Sketch.</desc>
    <defs></defs>
    <g id="Page-1" stroke="none" stroke-width="1" fill="none" fill-rule="evenodd" sketch:type="MSPage">
        <g id="Dashboard" sketch:type="MSArtboardGroup" transform="translate(-89.000000, -278.000000)" fill="#253A1B">
            <g id="menu" sketch:type="MSLayerGroup" transform="translate(0.000000, 68.000000)">
                <g id="productos" transform="translate(0.000000, 195.000000)" sketch:type="MSShapeGroup">
                    <g id="noun_106900_cc" transform="translate(65.000000, 15.000000)">
                        <g id="Group" transform="translate(24.000000, 0.000000)">
                            <path d="M5.525,6.6244 L8.7726,7.707 L8.7726,3.6608 L2.7034,5.684 L5.525,6.6244 Z" id="Shape"></path>
                            <path d="M15.2968,5.684 L9.2276,3.6608 L9.2276,7.707 L12.5078,6.6134 L15.2968,5.684 Z" id="Shape"></path>
                            <path d="M2.2118,10.2868 L2.2118,13.705 L8.7726,15.892 L8.7726,8.7734 L6.7542,11.801 L2.2118,10.2868 Z" id="Shape"></path>
                            <path d="M9.2276,8.7734 L9.2276,15.892 L15.7882,13.705 L15.7882,10.2868 L11.2458,11.801 L9.2276,8.7734 Z" id="Shape"></path>
                            <path d="M16.0156,6.0938 L15.9228,5.9544 L13.8596,6.6424 L12.5732,7.071 L9.3542,8.144 L11.4314,11.2598 L15.7882,9.8074 L16.0156,9.7316 L16.2432,9.6558 L18,9.0702 L16.2432,6.4348 L16.0156,6.0938 Z" id="Shape"></path>
                            <path d="M6.5688,11.2598 L8.6458,8.144 L5.4596,7.082 L2.0772,5.9544 L1.9844,6.0938 L1.757,6.4348 L0,9.0702 L1.757,9.6558 L1.9844,9.7316 L2.2118,9.8074 L6.5688,11.2598 Z" id="Shape"></path>
                            <path d="M18,2.2976 L11.4314,0.108 L9.3542,3.2238 L15.9228,5.4132 L18,2.2976 Z" id="Shape"></path>
                            <path d="M8.6458,3.2238 L6.5688,0.108 L0,2.2976 L2.0772,5.4132 L8.6458,3.2238 Z" id="Shape"></path>
                        </g>
                    </g>
                </g>
            </g>
        </g>
    </g>
</svg>