<svg id="Capa_1" data-name="Capa 1" xmlns="http://www.w3.org/2000/svg" viewBox="0 0 93.23 92.15"><defs><style>.cls-1,.cls-5{fill:#c0d24c;}.cls-2{fill:#a9abae;}.cls-3{fill:#7b7f2a;}.cls-4{fill:#aab541;}.cls-5{stroke:#fff;stroke-miterlimit:10;stroke-width:0.25px;}.cls-6{fill:#fff;}</style></defs><title>iconos terminados</title><path class="cls-1" d="M25.1,78.62c4.88,0.43,9.15-.12,12.17-3.91A81.93,81.93,0,0,0,42,67.37c2-3.19,3.77-6.63,6.19-9.5,4.25-5,10.07-7.25,16.55-7.87a36.61,36.61,0,0,1,21.37,4.19,40.6,40.6,0,0,1,4,2.83,47.7,47.7,0,0,0-4.86,1.59c-3.93,1.77-6.47,5.08-9,8.37C73.52,70.41,70.94,74,68,77.2c-5.49,6.16-12.7,8-20.64,7.41a62.41,62.41,0,0,1-6.76-1.17,5.65,5.65,0,0,1-.94-0.38c2.36-.47,4.57-0.86,6.76-1.34A30.67,30.67,0,0,0,63.59,71.38c2-2.31,4-4.57,6-6.86a27.22,27.22,0,0,1,9.48-7.28L79,56.91c-1.07.35-2.16,0.63-3.19,1.07a25.2,25.2,0,0,0-7.9,5.7c-1.64,1.67-3.34,3.28-4.89,5-5.24,5.92-12,9-19.59,10.46a68.82,68.82,0,0,1-17.93.7c-0.77-.05-1.54-0.14-1.59-1.18"/><path class="cls-2" d="M47,0l3.19,0.15c0.52,0,1.1,0,1.74.11L54,0.57C54.78,0.7,55.6.78,56.44,1l2.68,0.68A45.4,45.4,0,0,1,71.91,7.32,47.16,47.16,0,0,1,85,20,46.87,46.87,0,0,1,92.69,40.1c0.17,1,.16,1.94.24,2.92L93,44.49l0,0.74c0,0.32,0,.51,0,0.77a47.51,47.51,0,0,1-3.67,18.07L88,67c-0.46,1-1.07,1.87-1.6,2.82l-0.83,1.41c-0.31.45-.63,0.89-1,1.33-0.65.88-1.26,1.8-2,2.64a49.57,49.57,0,0,1-9.85,9A48.2,48.2,0,0,1,60.59,90l-3.32.87-0.83.21-0.85.13-1.7.27a23.86,23.86,0,0,1-3.41.39L47,92.1A51.42,51.42,0,0,1,33.48,90a48.25,48.25,0,0,1-12.25-5.86,49.84,49.84,0,0,1-9.86-9c-0.7-.85-1.31-1.77-2-2.65-0.32-.44-0.65-0.88-1-1.33L7.63,69.81C7.1,68.86,6.49,68,6,67L4.68,64.07A45.11,45.11,0,0,1,1.42,52,45.09,45.09,0,0,1,1,46c0-.27,0-0.46,0-0.78l0-.73L1.13,43c0.09-1,.08-1.92.24-2.89A46.83,46.83,0,0,1,9.1,19.95,47.19,47.19,0,0,1,22.16,7.32,45.42,45.42,0,0,1,35,1.64L37.63,1C38.47,0.78,39.29.7,40,.57l2.07-.31c0.63-.09,1.22-0.07,1.74-0.11Zm0,0-3.19.17c-0.52,0-1.1,0-1.74.12L40,0.62C39.3,0.75,38.49.83,37.64,1L35,1.72A42.72,42.72,0,0,0,22.29,7.52,44.8,44.8,0,0,0,9.65,20.32,45.9,45.9,0,0,0,2.72,40.22c-0.13.92-.09,1.91-0.15,2.87L2.52,44.54l0,0.73,0,0.68a43.45,43.45,0,0,0,.58,5.81A43.21,43.21,0,0,0,6.6,63.22L8,66C8.44,66.87,9,67.71,9.58,68.59l0.82,1.31c0.3,0.42.63,0.82,0.95,1.23,0.65,0.81,1.24,1.67,1.93,2.45a48,48,0,0,0,9.47,8.3,48.9,48.9,0,0,0,11.57,5.37A48.51,48.51,0,0,0,47.11,89.1l3.15-.16a21.63,21.63,0,0,0,3.2-.35l1.59-.24,0.8-.12,0.78-.2,3.12-.79c1-.3,2-0.71,3-1.06,0.5-.19,1-0.35,1.5-0.56l1.44-.69,1.45-.68a10.15,10.15,0,0,0,1.41-.74l2.74-1.63a48.32,48.32,0,0,0,9.47-8.3c0.69-.78,1.29-1.64,1.93-2.45,0.31-.41.64-0.82,0.95-1.23L84.5,68.6c0.53-.88,1.14-1.72,1.61-2.63l1.37-2.74A43.29,43.29,0,0,0,91,51.79a43.35,43.35,0,0,0,.59-5.86c0-.23,0-0.53,0-0.69l0-.72,0-1.43c-0.06-1,0-1.91-.15-2.84a45.88,45.88,0,0,0-6.94-19.93A44.83,44.83,0,0,0,71.78,7.52,42.75,42.75,0,0,0,59.1,1.71L56.43,1C55.59,0.83,54.78.75,54,.62L52,0.3C51.33,0.2,50.75.21,50.23,0.17Z"/><path class="cls-3" d="M47,63.88v5.61c-2.37,0-4.74.12-7.1,0.29-3.37.24-6.73,0.62-10.1,0.94a16.43,16.43,0,0,0-2.71.31H23.31a1.71,1.71,0,0,0-.81-0.21c-1.8-.35-2.5-1.26-2.37-2.84a23.83,23.83,0,0,1,.47-3.27A31,31,0,0,1,22.43,59a1.79,1.79,0,0,0,.79-1,30.94,30.94,0,0,0,3.23-13.41,37.1,37.1,0,0,0-.51-7.68,27.67,27.67,0,0,0-2.84-8.63,1.42,1.42,0,0,0-.68-0.81,9.4,9.4,0,0,1-.68-1.75,25.94,25.94,0,0,1-1.6-7.43,2.14,2.14,0,0,1,.25-1.36c0.84,0.2,1.68.42,2.53,0.6a72.84,72.84,0,0,0,8.68,1.23c2.1,0.2,4.21.35,6.32,0.43,3,0.12,6.07.15,9.1,0.22l0,0q0,3.14,0,6.28c2-.55-0.33,7-0.33,7.18,0,0.87,0,1.75,0,2.76"/><path class="cls-4" d="M47,16.88q0,1.24,0,2.47c-3-.07-6.07-0.11-9.1-0.22-2.11-.08-4.22-0.24-6.32-0.43a72.84,72.84,0,0,1-8.68-1.23c-0.85-.18-1.69-0.4-2.53-0.6a2.57,2.57,0,0,1,2-1.31,4.73,4.73,0,0,0,1-.22h3.7a7.71,7.71,0,0,0,1.8.21c2,0.22,4.1.41,6.15,0.59s3.89,0.36,5.83.5S45,16.86,47,16.88Z"/><path class="cls-3" d="M47,63.88v5.61c2.37,0,4.74.12,7.1,0.29,3.37,0.24,6.73.62,10.1,0.94A16.43,16.43,0,0,1,67,71h3.81a1.71,1.71,0,0,1,.81-0.21c1.8-.35,2.5-1.26,2.37-2.84a23.83,23.83,0,0,0-.47-3.27A31,31,0,0,0,71.64,59a1.79,1.79,0,0,1-.79-1,30.94,30.94,0,0,1-3.23-13.41,37.1,37.1,0,0,1,.51-7.68A27.67,27.67,0,0,1,71,28.21a1.42,1.42,0,0,1,.68-0.81,9.4,9.4,0,0,0,.68-1.75,25.94,25.94,0,0,0,1.6-7.43,2.14,2.14,0,0,0-.25-1.36c-0.84.2-1.68,0.42-2.53,0.6a72.84,72.84,0,0,1-8.68,1.23c-2.1.2-4.21,0.35-6.32,0.43-3,.12-6.07.15-9.1,0.22l0,0q0,3.14,0,6.28c0.29,0.16-1.61,9.5-1.61,10.51"/><path class="cls-4" d="M47,16.88q0,1.24,0,2.47c3-.07,6.07-0.11,9.1-0.22,2.11-.08,4.22-0.24,6.32-0.43a72.84,72.84,0,0,0,8.68-1.23c0.85-.18,1.69-0.4,2.53-0.6a2.57,2.57,0,0,0-2-1.31,4.73,4.73,0,0,1-1-.22H67a7.71,7.71,0,0,1-1.8.21c-2,.22-4.1.41-6.15,0.59s-3.89.36-5.83,0.5S49.09,16.86,47,16.88Z"/><path class="cls-5" d="M34.62,75.09c-1.74.15-3.26,0-4.34-1.39a29.19,29.19,0,0,1-1.68-2.62,30.71,30.71,0,0,0-2.21-3.38,8.39,8.39,0,0,0-5.9-2.8,13,13,0,0,0-7.61,1.49,14.46,14.46,0,0,0-1.43,1A17,17,0,0,1,13.2,68a9,9,0,0,1,3.22,3c1,1.23,1.87,2.49,2.91,3.65a8.45,8.45,0,0,0,7.35,2.64,22.23,22.23,0,0,0,2.41-.42,2,2,0,0,0,.34-0.14c-0.84-.17-1.63-0.31-2.41-0.48a10.93,10.93,0,0,1-6.11-3.68c-0.71-.82-1.43-1.63-2.15-2.45a9.7,9.7,0,0,0-3.38-2.59l0.05-.12c0.38,0.13.77,0.22,1.14,0.38a9,9,0,0,1,2.81,2c0.58,0.59,1.19,1.17,1.74,1.79a12,12,0,0,0,7,3.73,24.52,24.52,0,0,0,6.39.25c0.28,0,.55,0,0.57-0.42"/><path class="cls-6" d="M48.15,54.71c-0.66-1.39-1-2.7-.17-4a25.65,25.65,0,0,1,1.65-2.18,27,27,0,0,0,2.12-2.85A7.37,7.37,0,0,0,52.27,40a11.46,11.46,0,0,0-3.54-5.82,12.71,12.71,0,0,0-1.26-.87,14.94,14.94,0,0,1,.06,1.6A7.87,7.87,0,0,1,46,38.44c-0.72,1.16-1.48,2.3-2.13,3.51A7.43,7.43,0,0,0,44,48.81a19.54,19.54,0,0,0,1.08,1.86,1.77,1.77,0,0,0,.21.24c-0.12-.75-0.24-1.44-0.34-2.13a9.6,9.6,0,0,1,1.18-6.15c0.46-.83.91-1.68,1.36-2.51a8.52,8.52,0,0,0,1.11-3.57H48.7c0,0.35,0,.7,0,1.05a7.89,7.89,0,0,1-.82,2.94c-0.31.66-.6,1.34-1,2a10.57,10.57,0,0,0-1,6.89,21.55,21.55,0,0,0,1.74,5.34c0.1,0.22.21,0.44,0.52,0.34"/></svg>