<svg id="Capa_1" data-name="Capa 1" xmlns="http://www.w3.org/2000/svg" viewBox="0 0 93.68 92.23"><defs><style>.cls-1,.cls-5{fill:#c0d24c;}.cls-2{fill:#a9abae;}.cls-3{fill:#aab541;}.cls-4{fill:#a5ab8e;}.cls-5{stroke:#fff;stroke-miterlimit:10;stroke-width:0.25px;}</style></defs><title>iconos terminados</title><path class="cls-1" d="M25.1,78.62c4.88,0.43,9.15-.12,12.17-3.91A81.93,81.93,0,0,0,42,67.37c2-3.19,3.77-6.63,6.19-9.5,4.25-5,10.07-7.25,16.55-7.87a36.61,36.61,0,0,1,21.37,4.19,40.6,40.6,0,0,1,4,2.83,47.7,47.7,0,0,0-4.86,1.59c-3.93,1.77-6.47,5.08-9,8.37C73.52,70.41,70.94,74,68,77.2c-5.49,6.16-12.7,8-20.64,7.41a62.41,62.41,0,0,1-6.76-1.17,5.65,5.65,0,0,1-.94-0.38c2.36-.47,4.57-0.86,6.76-1.34A30.67,30.67,0,0,0,63.59,71.38c2-2.31,4-4.57,6-6.86a27.22,27.22,0,0,1,9.48-7.28L79,56.91c-1.07.35-2.16,0.63-3.19,1.07a25.2,25.2,0,0,0-7.9,5.7c-1.64,1.67-3.34,3.28-4.89,5-5.24,5.92-12,9-19.59,10.46a68.82,68.82,0,0,1-17.93.7c-0.77-.05-1.54-0.14-1.59-1.18"/><path class="cls-2" d="M47,0l3.19,0.15c0.52,0,1.1,0,1.74.11L54,0.57C54.78,0.7,55.6.78,56.44,1l2.68,0.68A45.4,45.4,0,0,1,71.91,7.32,47.16,47.16,0,0,1,85,20,46.87,46.87,0,0,1,92.69,40.1c0.17,1,.16,1.94.24,2.92L93,44.49l0,0.74c0,0.32,0,.51,0,0.77a47.51,47.51,0,0,1-3.67,18.07L88,67c-0.46,1-1.07,1.87-1.6,2.82l-0.83,1.41c-0.31.45-.63,0.89-1,1.33-0.65.88-1.26,1.8-2,2.64a49.57,49.57,0,0,1-9.85,9A48.2,48.2,0,0,1,60.59,90l-3.32.87-0.83.21-0.85.13-1.7.27a23.86,23.86,0,0,1-3.41.39L47,92.1A51.42,51.42,0,0,1,33.48,90a48.25,48.25,0,0,1-12.25-5.86,49.84,49.84,0,0,1-9.86-9c-0.7-.85-1.31-1.77-2-2.65-0.32-.44-0.65-0.88-1-1.33L7.63,69.81C7.1,68.86,6.49,68,6,67L4.68,64.07A45.11,45.11,0,0,1,1.42,52,45.09,45.09,0,0,1,1,46c0-.27,0-0.46,0-0.78l0-.73L1.13,43c0.09-1,.08-1.92.24-2.89A46.83,46.83,0,0,1,9.1,19.95,47.19,47.19,0,0,1,22.16,7.32,45.42,45.42,0,0,1,35,1.64L37.63,1C38.47,0.78,39.29.7,40,.57l2.07-.31c0.63-.09,1.22-0.07,1.74-0.11Zm0,0-3.19.17c-0.52,0-1.1,0-1.74.12L40,0.62C39.3,0.75,38.49.83,37.64,1L35,1.72A42.72,42.72,0,0,0,22.29,7.52,44.8,44.8,0,0,0,9.65,20.32,45.9,45.9,0,0,0,2.72,40.22c-0.13.92-.09,1.91-0.15,2.87L2.52,44.54l0,0.73,0,0.68a43.45,43.45,0,0,0,.58,5.81A43.21,43.21,0,0,0,6.6,63.22L8,66C8.44,66.87,9,67.71,9.58,68.59l0.82,1.31c0.3,0.42.63,0.82,0.95,1.23,0.65,0.81,1.24,1.67,1.93,2.45a48,48,0,0,0,9.47,8.3,48.9,48.9,0,0,0,11.57,5.37A48.51,48.51,0,0,0,47.11,89.1l3.15-.16a21.63,21.63,0,0,0,3.2-.35l1.59-.24,0.8-.12,0.78-.2,3.12-.79c1-.3,2-0.71,3-1.06,0.5-.19,1-0.35,1.5-0.56l1.44-.69,1.45-.68a10.15,10.15,0,0,0,1.41-.74l2.74-1.63a48.32,48.32,0,0,0,9.47-8.3c0.69-.78,1.29-1.64,1.93-2.45,0.31-.41.64-0.82,0.95-1.23L84.5,68.6c0.53-.88,1.14-1.72,1.61-2.63l1.37-2.74A43.29,43.29,0,0,0,91,51.79a43.35,43.35,0,0,0,.59-5.86c0-.23,0-0.53,0-0.69l0-.72,0-1.43c-0.06-1,0-1.91-.15-2.84a45.88,45.88,0,0,0-6.94-19.93A44.83,44.83,0,0,0,71.78,7.52,42.75,42.75,0,0,0,59.1,1.71L56.43,1C55.59,0.83,54.78.75,54,.62L52,0.3C51.33,0.2,50.75.21,50.23,0.17Z"/><path class="cls-3" d="M19,56a0.6,0.6,0,0,1-.09-0.5c0-2.73,0-5.47,0-8.2,0-.45.05-0.67,0.6-0.66,11.36,0,26.59,0,37.95,0a0.48,0.48,0,0,1,.59.6q0,5,0,10.05a0.49,0.49,0,0,1-.6.6c-4.78,0-13.42,0-18.2,0a0.65,0.65,0,0,1-.72-0.57A10.09,10.09,0,0,0,30.2,50a10.19,10.19,0,0,0-10.68,5.17A2.51,2.51,0,0,1,19,56Z"/><path class="cls-3" d="M59.15,42.72c4.82,0,9.65,0,14.47-.05a8.32,8.32,0,0,1,4.72,1.13,32,32,0,0,0,3,1.49,1.52,1.52,0,0,1,.94,1.52c0,3.19,0,6.37,0,9.56a1.33,1.33,0,0,1-1.5,1.56,4.91,4.91,0,0,1-1.84-.06c-0.57-.22-0.47-1-0.7-1.54a10.34,10.34,0,0,0-9.58-6.41,10.1,10.1,0,0,0-9.2,5.53c0,0.08-.11.16-0.16,0.23a1,1,0,0,1-.13-0.81Q59.14,48.79,59.15,42.72Z"/><path class="cls-3" d="M44.67,46.18c-2.9,0-5.8,0-8.69,0a0.66,0.66,0,0,1-.83-0.82q0-6.92,0-13.83A0.72,0.72,0,0,1,36,30.65c5.76,0,15.4,0,21.16,0,0.7,0,.87.21,0.87,0.89q0,6.92,0,13.83a0.66,0.66,0,0,1-.82.82C54.33,46.16,47.56,46.18,44.67,46.18Z"/><path class="cls-3" d="M59,41.69Q59,34.32,59,27a0.13,0.13,0,0,0,0,0,0.9,0.9,0,0,0,0-.13,0.61,0.61,0,0,1,.67-0.14q3.21,0,6.41,0c3.14,0,5,2,5.72,6.13,0.27,1.52.57,3,.85,4.55l0.84,4.54H59.14Z"/><path class="cls-3" d="M19.83,30.72c2.09,0,4.17,0,6.26-.06,2.56,0,5.13,0,7.69,0a0.67,0.67,0,0,1,.83.81c0,4.66,0,9.31,0,14,0,0.5,0,.78-0.64.78-4.71,0-9.43,0-14.14,0V30.72Z"/><path class="cls-3" d="M68.61,51.27a8.92,8.92,0,0,1,9,9,8.77,8.77,0,0,1-9.05,9,8.88,8.88,0,0,1-9-9A9.05,9.05,0,0,1,68.61,51.27Z"/><path class="cls-3" d="M29.06,69.27a9,9,0,1,1,8.51-9.43A8.92,8.92,0,0,1,29.06,69.27Z"/><path class="cls-4" d="M56.06,31.5a0.45,0.45,0,0,1,0,.09l0,0A0.09,0.09,0,0,1,56.06,31.5Z"/><path class="cls-4" d="M56,41.25l0.1,0.1A0.08,0.08,0,0,1,56,41.25Z"/><path class="cls-3" d="M36.63,22.24c1.59,0,3.18,0,4.77,0a0.52,0.52,0,0,1,.65.64c0,1.9,0,3.8,0,5.7,0,0.47-.1.67-0.63,0.67q-4.88,0-9.76,0a0.5,0.5,0,0,1-.62-0.61c0-1.92,0-3.85,0-5.77,0-.52.19-0.64,0.66-0.63C33.35,22.26,35,22.24,36.63,22.24Z"/><path class="cls-3" d="M50.62,22.24c1.59,0,3.18,0,4.77,0a0.52,0.52,0,0,1,.65.64c0,1.9,0,3.8,0,5.7,0,0.47-.1.67-0.63,0.67q-4.88,0-9.76,0A0.5,0.5,0,0,1,45,28.63c0-1.92,0-3.85,0-5.77,0-.52.19-0.64,0.66-0.63C47.34,22.26,49,22.24,50.62,22.24Z"/><path class="cls-5" d="M34.62,75.09c-1.74.15-3.26,0-4.34-1.39a29.19,29.19,0,0,1-1.68-2.62,30.71,30.71,0,0,0-2.21-3.38,8.39,8.39,0,0,0-5.9-2.8,13,13,0,0,0-7.61,1.49,14.46,14.46,0,0,0-1.43,1A17,17,0,0,1,13.2,68a9,9,0,0,1,3.22,3c1,1.23,1.87,2.49,2.91,3.65a8.45,8.45,0,0,0,7.35,2.64,22.23,22.23,0,0,0,2.41-.42,2,2,0,0,0,.34-0.14c-0.84-.17-1.63-0.31-2.41-0.48a10.93,10.93,0,0,1-6.11-3.68c-0.71-.82-1.43-1.63-2.15-2.45a9.7,9.7,0,0,0-3.38-2.59l0.05-.12c0.38,0.13.77,0.22,1.14,0.38a9,9,0,0,1,2.81,2c0.58,0.59,1.19,1.17,1.74,1.79a12,12,0,0,0,7,3.73,24.52,24.52,0,0,0,6.39.25c0.28,0,.55,0,0.57-0.42"/></svg>