<?xml version="1.0" encoding="UTF-8" standalone="no"?>
<svg width="16px" height="17px" viewBox="0 0 16 17" version="1.1" xmlns="http://www.w3.org/2000/svg" xmlns:xlink="http://www.w3.org/1999/xlink" xmlns:sketch="http://www.bohemiancoding.com/sketch/ns">
    <!-- Generator: Sketch 3.5.2 (25235) - http://www.bohemiancoding.com/sketch -->
    <title>Shape</title>
    <desc>Created with Sketch.</desc>
    <defs></defs>
    <g id="Page-1" stroke="none" stroke-width="1" fill="none" fill-rule="evenodd" sketch:type="MSPage">
        <g id="Dashboard" sketch:type="MSArtboardGroup" transform="translate(-90.000000, -213.000000)" fill="#27383F">
            <g id="menu" sketch:type="MSLayerGroup" transform="translate(0.000000, 68.000000)">
                <g id="proveedores" transform="translate(0.000000, 130.000000)" sketch:type="MSShapeGroup">
                    <g id="noun_106900_cc" transform="translate(58.000000, 15.000000)">
                        <path d="M41.9313915,9.21046001 L40.9588638,15.3656937 L40.3026533,10.8029405 L40.7243498,9.93275602 C40.7557851,9.82469739 40.6782686,9.72414036 40.5736036,9.66644955 C40.9829761,9.59393418 41.4127101,9.42622005 41.8404793,9.10883132 L41.8404793,8.18792177 C41.8404793,8.18792177 42.57117,7.29844746 42.5742063,6.32216903 C42.5742063,6.32216903 42.6881591,6.4214758 42.8421203,6.28073168 C42.8421203,6.28073168 43.1732619,6.18196073 43.1509358,4.59448128 C43.1509358,4.59448128 43.0916375,4.37604211 42.944642,4.3201374 C42.944642,4.3201374 43.2329174,3.50978701 42.8762347,2.4724242 C42.8765919,2.4724242 42.8603384,2.28149086 42.8603384,2.28149086 C42.8603384,2.28149086 43.0037617,1.26288202 41.7054507,0.521653429 C41.7054507,0.521653429 40.6264719,-0.454089173 38.6330135,0.263384382 C38.6330135,0.263384382 37.9655506,0.678293785 37.5735032,0.361798106 C37.5735032,0.361798106 37.2720107,1.30735574 37.4949151,1.46238861 C37.4949151,1.46238861 37.2091402,1.5600879 37.0605373,2.6529982 C37.0605373,2.6529982 37.0505352,2.86447161 37.0498207,2.86554326 C36.889251,3.69679094 37.0553576,4.32031601 37.0553576,4.32031601 C36.9087194,4.37622072 36.8492425,4.59465989 36.8492425,4.59465989 C36.8270949,6.18213934 37.158058,6.28091029 37.158058,6.28091029 C37.3121978,6.42165441 37.4259719,6.32234764 37.4259719,6.32234764 C37.4288297,7.29880468 38.1595203,8.18810038 38.1595203,8.18810038 L38.1595203,9.12687086 C38.3851038,9.27208022 38.8553821,9.52963483 39.4512227,9.64894584 C39.3349481,9.69931367 39.2467151,9.80790812 39.2736851,9.93311324 L39.6977036,10.8032977 L39.0334556,15.4421385 L38.0407451,9.23082147 C37.3936436,9.68627519 35.0195688,10.9213585 35.0195688,10.9213585 C32.0659068,12.1114323 32,16.0083299 32,16.0083299 L47.9999996,16.0083299 C48.0001783,16.0083299 47.9346286,12.1114323 44.9804308,10.9213585 C44.9804308,10.9213585 42.5354481,9.64948167 41.9313915,9.21046001 Z" id="Shape"></path>
                    </g>
                </g>
            </g>
        </g>
    </g>
</svg>