<?xml version="1.0" encoding="UTF-8" standalone="no"?>
<svg width="12px" height="17px" viewBox="0 0 12 17" version="1.1" xmlns="http://www.w3.org/2000/svg" xmlns:xlink="http://www.w3.org/1999/xlink">
    <!-- Generator: Sketch 3.7.1 (28215) - http://www.bohemiancoding.com/sketch -->
    <title>question</title>
    <desc>Created with Sketch.</desc>
    <defs></defs>
    <g id="Page-1" stroke="none" stroke-width="1" fill="none" fill-rule="evenodd">
        <g id="question" fill="#27383F">
            <g id="Page-1">
                <g id="Group">
                    <polygon id="Shape" points="4.31607693 13.6342361 7.51476923 13.6342361 7.51476923 16.844875 4.31607693 16.844875"></polygon>
                    <path d="M0.200769231,6.11268056 C0.271615384,2.66356944 2.46392307,0.155361111 5.92915384,0.155361111 C10.3610769,0.155361111 11.7992307,2.97736111 11.7992307,4.81052777 C11.7992307,9.41752774 7.90984616,8.78994443 7.50876923,11.7085139 L7.50876923,12.6253333 L4.32623077,12.6253333 L4.32623077,11.5396944 C4.65646154,7.36713889 8.16876923,7.75318056 8.09815384,5.14816667 C8.09815384,3.67695833 7.34353846,2.97759723 6.09438461,2.97759723 C4.39707693,2.97759723 3.66623077,4.40040277 3.66623077,6.11291667 L0.200769231,6.11291667 L0.200769231,6.11268056 L0.200769231,6.11268056 Z" id="Shape"></path>
                </g>
            </g>
        </g>
    </g>
</svg>