<svg xmlns="http://www.w3.org/2000/svg" viewBox="0 0 92.86 92.77"><defs><style>.cls-1{isolation:isolate;}.cls-13,.cls-2{fill:#c0d24c;}.cls-3{fill:#7b7f2a;}.cls-4{fill:#aab541;}.cls-5{opacity:0.5;}.cls-11,.cls-5{mix-blend-mode:multiply;}.cls-6{fill:#666;}.cls-7{fill:#e5d1a9;}.cls-8{fill:#cebc98;}.cls-9{fill:#f7e5bd;}.cls-10{fill:#e0cea9;}.cls-11{opacity:0.4;}.cls-12{fill:#a9abae;}.cls-13{stroke:#fff;stroke-miterlimit:10;stroke-width:0.25px;}</style></defs><title>iconos terminados</title><g class="cls-1"><g id="Capa_1" data-name="Capa 1"><path class="cls-2" d="M24.51,78.62c4.88,0.43,9.15-.12,12.17-3.91a81.93,81.93,0,0,0,4.7-7.34c2-3.19,3.77-6.63,6.19-9.5,4.25-5,10.07-7.25,16.55-7.87A36.61,36.61,0,0,1,85.5,54.18a40.6,40.6,0,0,1,4,2.83,47.7,47.7,0,0,0-4.86,1.59c-3.93,1.77-6.47,5.08-9,8.37-2.68,3.44-5.26,7-8.16,10.24-5.49,6.16-12.7,8-20.64,7.41a62.41,62.41,0,0,1-6.76-1.17,5.65,5.65,0,0,1-.94-0.38c2.36-.47,4.57-0.86,6.76-1.34A30.67,30.67,0,0,0,63,71.38c2-2.31,4-4.57,6-6.86a27.22,27.22,0,0,1,9.48-7.28l-0.14-.32c-1.07.35-2.16,0.63-3.19,1.07a25.2,25.2,0,0,0-7.9,5.7c-1.64,1.67-3.34,3.28-4.89,5-5.24,5.92-12,9-19.59,10.46a68.82,68.82,0,0,1-17.93.7c-0.77-.05-1.54-0.14-1.59-1.18"/><path class="cls-3" d="M66.14,62.43H26.78a10,10,0,0,0-6.06,2,28.82,28.82,0,0,1,3,4.53c0,0.09.08,0.19,0.12,0.28a24.85,24.85,0,0,1,2.1,3.87,39.62,39.62,0,0,1,1.64,3.84H65.4a4.08,4.08,0,0,1,.23-0.46v0a12.86,12.86,0,0,1,1-1.75c1.83-3.44,3.3-7.08,5.56-10.28A9.9,9.9,0,0,0,66.14,62.43Z"/><polygon class="cls-4" points="46.57 61.83 46.38 65.39 46.35 61.83 31.55 61.83 41.57 77.02 45.75 77.02 46.46 77.02 51.35 77.02 61.37 61.83 46.57 61.83"/><g class="cls-5"><path class="cls-3" d="M65.63,76.46v0a12.86,12.86,0,0,1,1-1.75c1.83-3.44,3.3-7.08,5.56-10.28a9.9,9.9,0,0,0-6-2H61l-9.56,14.5h14A4.08,4.08,0,0,1,65.63,76.46Z"/><polygon class="cls-6" points="46.42 62.43 46.42 64.61 46.52 62.43 46.42 62.43"/><polygon class="cls-6" points="61.37 61.83 46.57 61.83 46.53 62.43 46.42 64.61 46.42 76.93 46.42 77.02 51.35 77.02 51.41 76.93 60.98 62.43 61.37 61.83"/></g><polygon class="cls-7" points="38.42 49.87 38.42 63.75 46.46 75.71 46.46 49.87 38.42 49.87"/><polygon class="cls-8" points="46.46 49.87 46.46 75.71 54.33 63.75 54.33 49.87 46.46 49.87"/><path class="cls-9" d="M46.46,23.82V59.88S44,60,41,56.65,34.31,48,34.31,41.85,33.06,23.82,46.46,23.82Z"/><path class="cls-10" d="M46.46,23.82V59.88S48.9,60,51.91,56.65,58.6,48,58.6,41.85,59.86,23.82,46.46,23.82Z"/><circle class="cls-4" cx="46.43" cy="17.64" r="6.14"/><path class="cls-4" d="M54.33,32.48A14.71,14.71,0,0,1,58,46l-1.46,3.9s3,0,5.08-5.82,4-25.65-15.2-25.65S29.19,38.21,31.22,44s5.08,5.82,5.08,5.82L34.85,46c-0.61-1.94,1.6-3.43,1.6-3.43C39.39,39.72,51.7,31.94,51.7,31.94c-4.47,8.77-14.62,9.9-14.62,9.9C49.67,42.38,54.33,32.48,54.33,32.48Z"/><g class="cls-11"><path d="M52.37,19.16a6.14,6.14,0,0,0-5.95-7.66h0v6.89h0A21.35,21.35,0,0,1,52.37,19.16Z"/><path d="M52.37,19.16a21.35,21.35,0,0,0-5.95-.77h0v17c2.92-1.93,5.3-3.43,5.3-3.43a17.14,17.14,0,0,1-5.3,6.13v2a17.8,17.8,0,0,0,7.93-7.56A14.71,14.71,0,0,1,58,46l-1.46,3.9s3,0,5.08-5.82C63.42,38.9,65.19,22.87,52.37,19.16Z"/></g><path class="cls-3" d="M60.67,45.18a2.15,2.15,0,0,1-2.15,2.15h0a2.15,2.15,0,0,1-2.15-2.15v-4a2.15,2.15,0,0,1,2.15-2.15h0a2.15,2.15,0,0,1,2.15,2.15v4Z"/><path class="cls-3" d="M53.23,54.29a1.6,1.6,0,0,1-1.6,1.6H50.19a1.6,1.6,0,0,1-1.6-1.6h0a1.6,1.6,0,0,1,1.6-1.6h1.45a1.6,1.6,0,0,1,1.6,1.6h0Z"/><path class="cls-12" d="M46.45,0l3.19,0.15c0.52,0,1.1,0,1.74.11l2.07,0.31C54.2,0.7,55,.78,55.86,1l2.68,0.68A45.4,45.4,0,0,1,71.32,7.32,47.16,47.16,0,0,1,84.39,20,46.87,46.87,0,0,1,92.1,40.1c0.17,1,.16,1.94.24,2.92l0.1,1.48,0,0.74c0,0.32,0,.51,0,0.77A47.51,47.51,0,0,1,88.8,64.07L87.45,67c-0.46,1-1.07,1.87-1.6,2.82L85,71.21c-0.31.45-.63,0.89-1,1.33-0.65.88-1.26,1.8-2,2.64a49.57,49.57,0,0,1-9.85,9A48.2,48.2,0,0,1,60,90l-3.32.87-0.83.21L55,91.26l-1.7.27a23.86,23.86,0,0,1-3.41.39l-3.51.18A51.42,51.42,0,0,1,32.89,90a48.25,48.25,0,0,1-12.25-5.86,49.84,49.84,0,0,1-9.86-9c-0.7-.85-1.31-1.77-2-2.65-0.32-.44-0.65-0.88-1-1.33L7,69.81C6.51,68.86,5.91,68,5.44,67L4.09,64.07A45.11,45.11,0,0,1,.83,52a45.09,45.09,0,0,1-.41-6c0-.27,0-0.46,0-0.78l0-.73L0.55,43c0.09-1,.08-1.92.24-2.89A46.83,46.83,0,0,1,8.51,19.95,47.19,47.19,0,0,1,21.57,7.32,45.42,45.42,0,0,1,34.37,1.64L37,1c0.85-.18,1.66-0.26,2.4-0.39l2.07-.31c0.63-.09,1.22-0.07,1.74-0.11Zm0,0-3.19.17c-0.52,0-1.1,0-1.74.12l-2.07.32C38.71,0.75,37.9.83,37.05,1l-2.67.7A42.72,42.72,0,0,0,21.71,7.52,44.8,44.8,0,0,0,9.06,20.32,45.9,45.9,0,0,0,2.13,40.22C2,41.14,2,42.12,2,43.08L1.93,44.54l0,0.73,0,0.68a43.45,43.45,0,0,0,.58,5.81A43.21,43.21,0,0,0,6,63.22L7.39,66C7.86,66.87,8.46,67.71,9,68.59L9.82,69.9c0.3,0.42.63,0.82,0.95,1.23,0.65,0.81,1.24,1.67,1.93,2.45a48,48,0,0,0,9.47,8.3,48.9,48.9,0,0,0,11.57,5.37A48.51,48.51,0,0,0,46.53,89.1l3.15-.16a21.63,21.63,0,0,0,3.2-.35l1.59-.24,0.8-.12L56,88l3.12-.79c1-.3,2-0.71,3-1.06,0.5-.19,1-0.35,1.5-0.56l1.44-.69,1.45-.68A10.15,10.15,0,0,0,68,83.52l2.74-1.63a48.32,48.32,0,0,0,9.47-8.3c0.69-.78,1.29-1.64,1.93-2.45,0.31-.41.64-0.82,0.95-1.23l0.82-1.31c0.53-.88,1.14-1.72,1.61-2.63l1.37-2.74a43.29,43.29,0,0,0,3.48-11.44A43.35,43.35,0,0,0,91,45.93c0-.23,0-0.53,0-0.69l0-.72,0-1.43c-0.06-1,0-1.91-.15-2.84a45.88,45.88,0,0,0-6.94-19.93A44.83,44.83,0,0,0,71.19,7.52,42.75,42.75,0,0,0,58.51,1.71L55.84,1C55,0.83,54.19.75,53.45,0.62L51.38,0.3C50.74,0.2,50.16.21,49.64,0.17Z"/><path class="cls-13" d="M34,75.09c-1.74.15-3.26,0-4.34-1.39A29.19,29.19,0,0,1,28,71.08a30.71,30.71,0,0,0-2.21-3.38,8.39,8.39,0,0,0-5.9-2.8,13,13,0,0,0-7.61,1.49,14.46,14.46,0,0,0-1.43,1,17,17,0,0,1,1.73.57,9,9,0,0,1,3.22,3c1,1.23,1.87,2.49,2.91,3.65a8.45,8.45,0,0,0,7.35,2.64,22.23,22.23,0,0,0,2.41-.42,2,2,0,0,0,.34-0.14c-0.84-.17-1.63-0.31-2.41-0.48a10.93,10.93,0,0,1-6.11-3.68c-0.71-.82-1.43-1.63-2.15-2.45a9.7,9.7,0,0,0-3.38-2.59l0.05-.12c0.38,0.13.77,0.22,1.14,0.38a9,9,0,0,1,2.81,2c0.58,0.59,1.19,1.17,1.74,1.79a12,12,0,0,0,7,3.73,24.52,24.52,0,0,0,6.39.25c0.28,0,.55,0,0.57-0.42"/></g></g></svg>