<svg id="Capa_1" data-name="Capa 1" xmlns="http://www.w3.org/2000/svg" viewBox="0 0 93.32 92.61"><defs><style>.cls-1,.cls-5{fill:#c0d24c;}.cls-2{fill:#a9abae;}.cls-3{fill:#7b7f2a;}.cls-4{fill:#aab541;}.cls-5{stroke:#fff;stroke-miterlimit:10;stroke-width:0.25px;}</style></defs><title>iconos terminados</title><path class="cls-1" d="M25.05,78.62c4.88,0.43,9.15-.12,12.17-3.91a81.93,81.93,0,0,0,4.7-7.34c2-3.19,3.77-6.63,6.19-9.5,4.25-5,10.07-7.25,16.55-7.87A36.61,36.61,0,0,1,86,54.18,40.6,40.6,0,0,1,90,57a47.7,47.7,0,0,0-4.86,1.59c-3.93,1.77-6.47,5.08-9,8.37C73.47,70.41,70.89,74,68,77.2c-5.49,6.16-12.7,8-20.64,7.41a62.41,62.41,0,0,1-6.76-1.17,5.65,5.65,0,0,1-.94-0.38c2.36-.47,4.57-0.86,6.76-1.34A30.67,30.67,0,0,0,63.54,71.38c2-2.31,4-4.57,6-6.86a27.22,27.22,0,0,1,9.48-7.28l-0.14-.32c-1.07.35-2.16,0.63-3.19,1.07a25.2,25.2,0,0,0-7.9,5.7c-1.64,1.67-3.34,3.28-4.89,5-5.24,5.92-12,9-19.59,10.46a68.82,68.82,0,0,1-17.93.7c-0.77-.05-1.54-0.14-1.59-1.18"/><path class="cls-2" d="M47,0l3.19,0.15c0.52,0,1.1,0,1.74.11L54,0.57c0.75,0.12,1.56.2,2.4,0.39l2.68,0.68A45.4,45.4,0,0,1,71.86,7.32,47.16,47.16,0,0,1,84.92,20,46.87,46.87,0,0,1,92.64,40.1c0.17,1,.16,1.94.24,2.92L93,44.49l0,0.74c0,0.32,0,.51,0,0.77a47.51,47.51,0,0,1-3.67,18.07L88,67c-0.46,1-1.07,1.87-1.6,2.82l-0.83,1.41c-0.31.45-.63,0.89-1,1.33-0.65.88-1.26,1.8-2,2.64a49.57,49.57,0,0,1-9.85,9A48.2,48.2,0,0,1,60.54,90l-3.32.87-0.83.21-0.85.13-1.7.27a23.86,23.86,0,0,1-3.41.39l-3.51.18A51.42,51.42,0,0,1,33.43,90a48.25,48.25,0,0,1-12.25-5.86,49.84,49.84,0,0,1-9.86-9c-0.7-.85-1.31-1.77-2-2.65-0.32-.44-0.65-0.88-1-1.33L7.58,69.81C7,68.86,6.45,68,6,67L4.63,64.07A45.11,45.11,0,0,1,1.37,52,45.09,45.09,0,0,1,1,46c0-.27,0-0.46,0-0.78l0-.73L1.08,43c0.09-1,.08-1.92.24-2.89A46.83,46.83,0,0,1,9,19.95,47.19,47.19,0,0,1,22.11,7.32,45.42,45.42,0,0,1,34.9,1.64L37.58,1C38.43,0.78,39.24.7,40,.57l2.07-.31c0.63-.09,1.22-0.07,1.74-0.11Zm0,0-3.19.17c-0.52,0-1.1,0-1.74.12L40,0.62c-0.74.13-1.55,0.21-2.4,0.4l-2.67.7A42.72,42.72,0,0,0,22.25,7.52,44.8,44.8,0,0,0,9.6,20.32,45.9,45.9,0,0,0,2.67,40.22c-0.13.92-.09,1.91-0.15,2.87L2.47,44.54l0,0.73,0,0.68a43.45,43.45,0,0,0,.58,5.81A43.21,43.21,0,0,0,6.55,63.22L7.93,66C8.4,66.87,9,67.71,9.53,68.59l0.82,1.31c0.3,0.42.63,0.82,0.95,1.23,0.65,0.81,1.24,1.67,1.93,2.45a48,48,0,0,0,9.47,8.3,48.9,48.9,0,0,0,11.57,5.37A48.51,48.51,0,0,0,47.06,89.1l3.15-.16a21.63,21.63,0,0,0,3.2-.35L55,88.36l0.8-.12,0.78-.2,3.12-.79c1-.3,2-0.71,3-1.06,0.5-.19,1-0.35,1.5-0.56l1.44-.69,1.45-.68a10.15,10.15,0,0,0,1.41-.74l2.74-1.63a48.32,48.32,0,0,0,9.47-8.3c0.69-.78,1.29-1.64,1.93-2.45,0.31-.41.64-0.82,0.95-1.23l0.82-1.31c0.53-.88,1.14-1.72,1.61-2.63l1.37-2.74a43.29,43.29,0,0,0,3.48-11.44,43.35,43.35,0,0,0,.59-5.86c0-.23,0-0.53,0-0.69l0-.72,0-1.43c-0.06-1,0-1.91-.15-2.84a45.88,45.88,0,0,0-6.94-19.93A44.83,44.83,0,0,0,71.73,7.52,42.75,42.75,0,0,0,59,1.71L56.38,1C55.54,0.83,54.73.75,54,.62L51.92,0.3C51.28,0.2,50.7.21,50.18,0.17Z"/><path class="cls-3" d="M60.21,77.91H30.28C28,77,27.56,76.31,27.56,73.8q0-4,0-8.06c0-.22,0-0.44,0-0.69h-0.7c-1.86,0-3.71,0-5.57,0a4.47,4.47,0,0,1-2.68-1,5,5,0,0,1-2-4.29q0-10.64,0-21.28c0-.31,0-0.62,0-0.93A4.89,4.89,0,0,1,21,33.28c1.95-.08,3.9,0,5.85-0.07l0.73,0c0-.29,0-0.52,0-0.74,0-3.44,0-6.88,0-10.32a3.28,3.28,0,0,1,1.37-3,8.92,8.92,0,0,1,1.35-.62H60.21c2.26,0.91,2.72,1.6,2.72,4.11q0,4.93,0,9.85v0.73h0.72c1.62,0,3.25,0,4.87,0a6.73,6.73,0,0,1,1.61.16,4.91,4.91,0,0,1,3.8,5.14q0,10.61,0,21.21a6.11,6.11,0,0,1-.14,1.49A4.87,4.87,0,0,1,68.93,65c-1.78,0-3.55,0-5.33,0H62.93c0,0.31,0,.54,0,0.77,0,2.84,0,5.68,0,8.52a3.28,3.28,0,0,1-1.42,3A8.74,8.74,0,0,1,60.21,77.91Zm2.72-15.22c2.12,0,4.13.06,6.13,0a2.57,2.57,0,0,0,2.52-2.83q0-10.7,0-21.4a2.65,2.65,0,0,0-2.9-2.87H21.82a2.66,2.66,0,0,0-2.91,2.93q0,10.64,0,21.28a2.67,2.67,0,0,0,2.92,2.93h5.73c0-.33,0-0.57,0-0.82q0-6.09,0-12.18a4.87,4.87,0,0,1,.06-0.81,1,1,0,0,1,.93-0.9,4.5,4.5,0,0,1,.75,0H61.19a4.57,4.57,0,0,1,.75,0,1,1,0,0,1,.93.9,4.79,4.79,0,0,1,.06.81q0,6.09,0,12.18v0.81ZM30,50.35c0,0.2,0,.37,0,0.54q0,11.74,0,23.49a0.93,0.93,0,0,0,1.14,1.15H59.42a0.92,0.92,0,0,0,1.14-1.13q0-11.71,0-23.43c0-.2,0-0.41,0-0.61H30ZM60.57,33.17v-0.6q0-5.22,0-10.43c0-1-.24-1.23-1.23-1.23H31.16c-1,0-1.24.23-1.24,1.22q0,5.22,0,10.43v0.6H60.57Z"/><path class="cls-4" d="M62.93,62.69V61.88q0-6.09,0-12.18a4.79,4.79,0,0,0-.06-0.81,1,1,0,0,0-.93-0.9,4.57,4.57,0,0,0-.75,0H29.3a4.5,4.5,0,0,0-.75,0,1,1,0,0,0-.93.9,4.87,4.87,0,0,0-.06.81q0,6.09,0,12.18c0,0.25,0,.49,0,0.82H21.83a2.67,2.67,0,0,1-2.92-2.93q0-10.64,0-21.28a2.66,2.66,0,0,1,2.91-2.93H68.67a2.65,2.65,0,0,1,2.9,2.87q0,10.7,0,21.4a2.57,2.57,0,0,1-2.52,2.83C67.05,62.75,65,62.69,62.93,62.69ZM26.23,41.77a1.15,1.15,0,0,0-1.14-1.2,1.17,1.17,0,0,0-1.17,1.12,1.15,1.15,0,0,0,1.15,1.19A1.14,1.14,0,0,0,26.23,41.77Z"/><path class="cls-1" d="M30,50.35H60.53c0,0.21,0,.41,0,0.61q0,11.71,0,23.43a0.92,0.92,0,0,1-1.14,1.13H31.06a0.93,0.93,0,0,1-1.14-1.15q0-11.74,0-23.49C29.93,50.72,29.95,50.55,30,50.35Z"/><path class="cls-1" d="M60.57,33.17H29.93v-0.6q0-5.22,0-10.43c0-1,.24-1.22,1.24-1.22H59.34c1,0,1.23.24,1.23,1.23q0,5.22,0,10.43v0.6Z"/><path class="cls-3" d="M26.23,41.77a1.14,1.14,0,0,1-1.16,1.12,1.15,1.15,0,0,1-1.15-1.19,1.17,1.17,0,0,1,1.17-1.12A1.15,1.15,0,0,1,26.23,41.77Z"/><path class="cls-5" d="M34.58,75.09c-1.74.15-3.26,0-4.34-1.39a29.19,29.19,0,0,1-1.68-2.62,30.71,30.71,0,0,0-2.21-3.38,8.39,8.39,0,0,0-5.9-2.8,13,13,0,0,0-7.61,1.49,14.46,14.46,0,0,0-1.43,1,17,17,0,0,1,1.73.57,9,9,0,0,1,3.22,3c1,1.23,1.87,2.49,2.91,3.65a8.45,8.45,0,0,0,7.35,2.64A22.23,22.23,0,0,0,29,76.81a2,2,0,0,0,.34-0.14c-0.84-.17-1.63-0.31-2.41-0.48a10.93,10.93,0,0,1-6.11-3.68c-0.71-.82-1.43-1.63-2.15-2.45a9.7,9.7,0,0,0-3.38-2.59l0.05-.12c0.38,0.13.77,0.22,1.14,0.38a9,9,0,0,1,2.81,2c0.58,0.59,1.19,1.17,1.74,1.79a12,12,0,0,0,7,3.73,24.52,24.52,0,0,0,6.39.25c0.28,0,.55,0,0.57-0.42"/><path class="cls-3" d="M43.05,72.9a3.36,3.36,0,0,1,.39-3.35A21.62,21.62,0,0,1,45.1,68a22.75,22.75,0,0,0,2.14-2.09,6.21,6.21,0,0,0,1.19-4.69,9.66,9.66,0,0,0-2.18-5.32A10.72,10.72,0,0,0,45.31,55a12.59,12.59,0,0,1-.16,1.34,6.64,6.64,0,0,1-1.7,2.77c-0.75.87-1.54,1.72-2.23,2.64a6.26,6.26,0,0,0-.86,5.72A16.47,16.47,0,0,0,41,69.12a1.49,1.49,0,0,0,.15.22c0-.64,0-1.23,0-1.82a8.1,8.1,0,0,1,1.8-5c0.5-.63,1-1.28,1.47-1.91a7.18,7.18,0,0,0,1.4-2.83l0.09,0c0,0.29-.05.59-0.11,0.88a6.65,6.65,0,0,1-1.07,2.34c-0.35.51-.68,1-1.05,1.52A8.91,8.91,0,0,0,42,68.19a18.16,18.16,0,0,0,.74,4.68c0.05,0.2.11,0.39,0.39,0.35"/></svg>