<?xml version="1.0" encoding="UTF-8" standalone="no"?>
<svg width="16px" height="16px" viewBox="0 0 16 16" version="1.1" xmlns="http://www.w3.org/2000/svg" xmlns:xlink="http://www.w3.org/1999/xlink" xmlns:sketch="http://www.bohemiancoding.com/sketch/ns">
    <!-- Generator: Sketch 3.5.2 (25235) - http://www.bohemiancoding.com/sketch -->
    <title>Group</title>
    <desc>Created with Sketch.</desc>
    <defs></defs>
    <g id="Page-1" stroke="none" stroke-width="1" fill="none" fill-rule="evenodd" sketch:type="MSPage">
        <g id="Dashboard" sketch:type="MSArtboardGroup" transform="translate(-90.000000, -343.000000)" fill="#27383F">
            <g id="menu" sketch:type="MSLayerGroup" transform="translate(0.000000, 68.000000)">
                <g id="Reportes" transform="translate(0.000000, 260.000000)" sketch:type="MSShapeGroup">
                    <g id="noun_106900_cc" transform="translate(69.000000, 15.000000)">
                        <g id="Group" transform="translate(21.000000, 0.000000)">
                            <path d="M8,0.333333333 L8,7.66666667 C8,7.85066667 8.13688889,8 8.30555556,8 L15.0277778,8 C15.1964444,8 15.3333333,7.85066667 15.3333333,7.66666667 C15.3333333,3.43933333 12.1806111,0 8.30555556,0 C8.13688889,0 8,0.149333333 8,0.333333333 Z" id="Shape"></path>
                            <path d="M11.93,14.1286667 L7.33333333,8.21933333 L7.33333333,1 C7.33333333,0.816 7.184,0.666666667 7,0.666666667 C3.14,0.666666667 0,4.106 0,8.33333333 C0,12.5606667 3.43933333,16 7.66666667,16 C9.558,16 10.5813333,15.6573333 11.878,14.5906667 C12.0173333,14.476 12.0406667,14.2713333 11.93,14.1286667 L11.93,14.1286667 Z" id="Shape"></path>
                            <path d="M15.6666667,8.66666667 L9,8.66666667 C8.872,8.66666667 8.75466667,8.74066667 8.69933333,8.85666667 C8.644,8.97266667 8.66,9.11 8.74133333,9.20933333 L13.0746667,14.574 C13.1326667,14.646 13.218,14.6906667 13.3106667,14.6973333 C13.3186667,14.698 13.326,14.698 13.334,14.698 C13.418,14.698 13.4993333,14.666 13.5613333,14.6086667 C15.1106667,13.1626667 16,11.1186667 16,9 C16,8.816 15.8506667,8.66666667 15.6666667,8.66666667 L15.6666667,8.66666667 Z" id="Shape"></path>
                        </g>
                    </g>
                </g>
            </g>
        </g>
    </g>
</svg>