<?xml version="1.0" encoding="UTF-8" standalone="no"?>
<svg width="22px" height="13px" viewBox="0 0 22 13" version="1.1" xmlns="http://www.w3.org/2000/svg" xmlns:xlink="http://www.w3.org/1999/xlink" xmlns:sketch="http://www.bohemiancoding.com/sketch/ns">
    <!-- Generator: Sketch 3.5.2 (25235) - http://www.bohemiancoding.com/sketch -->
    <title>noun_2727_cc</title>
    <desc>Created with Sketch.</desc>
    <defs></defs>
    <g id="Page-1" stroke="none" stroke-width="1" fill="none" fill-rule="evenodd" sketch:type="MSPage">
        <g id="Dashboard" sketch:type="MSArtboardGroup" transform="translate(-60.000000, -435.000000)" fill="#27383F">
            <g id="noun_2727_cc" sketch:type="MSLayerGroup" transform="translate(60.000000, 435.000000)">
                <g id="Group" sketch:type="MSShapeGroup">
                    <path d="M21.99648,11.7095 C21.99538,11.6941 21.9923,11.67848 21.98812,11.66352 C21.19326,8.94938 20.207,5.6727 20.02462,5.47624 C19.88426,5.32488 19.61366,5.14954 19.44294,5.04658 C20.064,1.78002 19.96302,0.32868 19.96302,0.32868 L19.39014,0.20988 L17.347,10.0749 L17.91988,10.1937 C17.91988,10.1937 18.64984,8.9947 19.34922,5.52772 C19.4788,5.61198 19.60772,5.70438 19.67812,5.775 C19.85676,6.116 20.90858,9.60498 21.54218,11.76714 C21.5468,11.8866 21.52964,12.16886 21.40072,12.34442 C21.25992,12.5356 20.9451,12.5158 20.94334,12.5158 C20.93718,12.51536 20.9308,12.51492 20.92464,12.51492 L16.6881,12.51492 C16.23798,12.12354 15.48008,11.60852 14.60096,11.59818 C13.96956,11.59092 13.60832,12.01442 13.60832,12.01442 C13.60832,12.01442 12.98484,11.91256 12.57212,12.09494 C12.3585,12.1891 12.12442,12.35476 11.92378,12.51492 L9.82344,12.51492 C9.78054,12.31626 9.72928,12.16226 9.73698,11.89958 C9.74402,11.65208 9.8219,11.04466 9.82718,10.56462 C9.83444,9.85226 9.57594,8.37078 9.57594,8.37078 C9.57594,8.37078 9.85688,8.1191 9.9583,7.9541 C10.05422,7.79768 9.98712,7.45316 10.28456,7.43644 C10.48718,7.425 11.08338,7.96532 11.5819,7.81924 C12.02256,7.68988 11.79222,7.21138 11.84832,7.05386 C11.90464,6.89634 12.15192,6.91878 12.21242,6.81362 C12.27204,6.70868 12.15192,6.54346 12.15192,6.54346 C12.15192,6.54346 12.35498,6.54764 12.40734,6.46888 C12.45948,6.39012 12.37324,6.14614 12.43352,6.06364 C12.55188,5.90106 12.9624,6.1259 13.06734,5.91338 C13.10364,5.83968 13.11244,5.77104 13.05964,5.621 C12.92148,5.22544 12.62272,4.6013 12.73734,4.3384 C12.7919,4.21278 12.9921,4.18088 13.02224,3.971 C13.04094,3.84054 12.94436,2.62944 12.94436,2.62944 C12.94436,2.62944 13.27788,2.51262 13.2022,2.20792 C13.09396,1.76946 12.27974,1.38446 11.781,1.04566 C11.49984,0.85404 10.51732,0.2277 9.18214,0.75306 C8.87546,0.87362 8.58726,1.18382 8.43194,1.3079 C8.16926,1.51822 7.75698,1.5928 7.42676,2.28294 C7.0598,3.0503 7.10402,4.03832 7.0818,4.30826 C7.05914,4.5782 6.88666,4.96826 6.88666,4.96826 C6.88666,4.96826 7.17552,5.27582 7.1456,5.50088 C7.12162,5.68172 6.95442,5.73716 6.95442,5.73716 C6.95442,5.73716 6.76676,5.67336 6.4031,5.7596 C6.03746,5.8465 5.35062,6.36086 4.50164,6.87324 C4.06648,7.13592 3.79434,7.2446 3.08374,7.84102 C1.26104,9.372 0.09108,12.98 0.09108,12.98 L0.41734,12.97274 L20.91738,12.97274 C20.92772,12.97318 20.94422,12.97384 20.96556,12.97384 C21.1189,12.97384 21.5292,12.94172 21.769,12.61568 C22.03278,12.2573 22.00088,11.76472 21.99648,11.7095 L21.99648,11.7095 Z" id="Shape"></path>
                </g>
            </g>
        </g>
    </g>
</svg>