<?xml version="1.0" encoding="utf-8"?>
<!-- Generator: Adobe Illustrator 16.0.0, SVG Export Plug-In . SVG Version: 6.00 Build 0)  -->
<!DOCTYPE svg PUBLIC "-//W3C//DTD SVG 1.1//EN" "http://www.w3.org/Graphics/SVG/1.1/DTD/svg11.dtd">
<svg version="1.1" id="Capa_1" xmlns="http://www.w3.org/2000/svg" xmlns:xlink="http://www.w3.org/1999/xlink" x="0px" y="0px"
	 width="798.08px" height="1176.409px" viewBox="589.394 0 798.08 1176.409" enable-background="new 589.394 0 798.08 1176.409"
	 xml:space="preserve">
<g id="svg_contend">
	<path fill-rule="evenodd" clip-rule="evenodd" fill="#454458" d="M929.776,785.268c31.045,2.555,48.129,15.896,48.209,45.716
		c0.014,5.129,4.078,6.354,7.271,8.004c20.236,10.457,30.026,26.033,29.864,49.675c-0.196,28.77,3.098,57.547,3.632,86.344
		c0.173,9.25,0.099,16.612,6.249,25.021c10.022,13.706,1.53,31.332-15.486,34.682c-6.609,1.302-8.225,3.732-8.077,9.98
		c0.293,12.406,4.211,24.514,2.713,37.043c-0.454,3.782,0.39,7.817-4.913,9.121c-2.803,0.688-8.816-1.916-6.101,5.796
		c1.765,5.013,1.868,9.735,9.362,9.01c9.747-0.947,19.46,0.692,29.133,2.243c10.158,1.632,17.289,7.084,22.032,15.98
		c10.094,18.938,6.196,25.695-14.812,25.697c-26.243,0.003-52.493-0.274-78.731,0.165c-7.966,0.134-10.731-2.631-10.554-10.334
		c0.323-13.731-0.847-27.555,4.441-40.755c0.859-2.146,2.88-5.734-0.456-6.672c-20.141-5.655-10.85-21.665-8.716-31.544
		c2.712-12.551,0.853-24.649,2.194-36.842c0.656-5.987-35.379-5.525-39.363-5.525c-27.535,0.019,11.605,0.207-15.925-0.217
		c-7.521-0.114-43.314,3.258-43.036,9.253c0.789,17.132,1.354,34.273,1.91,51.416c0.203,6.168,0.581,12.286-8.54,12.681
		c-6.957,0.301-3.858,5.232-2.683,8.4c4.768,12.85,4.052,26.195,4.198,39.509c0.078,7.273-2.078,10.75-10.384,10.625
		c-29.682-0.459-59.374-0.399-89.056-0.019c-7.63,0.101-9.522-2.724-9.306-9.797c0.636-20.672,15.529-33.169,41.607-34.226
		c4.688-0.189,9.39-0.26,14.076-0.129c4.665,0.131,7.898-0.378,8.753-6.373c0.707-4.95,1.419-8.111-4.985-8.646
		c-5.537-0.461-4.147-5.254-4.968-8.896c-2.961-13.12,5.016-24.66,5.005-37.356c-0.004-5.346-0.854-8.264-6.881-9.993
		c-16.234-4.663-22.554-21.87-13.069-36.247c3.905-5.92,4.864-10.826,4.785-18.02c-0.397-36.988,1.198-73.985,5.39-110.767
		c1.705-14.956,14.262-22.009,25.652-28.753c6.859-4.062,10.271-8.043,11.214-16.551c2.501-22.545,14.036-32.543,40.396-37.946
		c1.549-0.318,3.052-0.855,4.575-1.289c-0.836-3.9-3.835-3.52-6.163-4.262c-79.186-25.255-134.818-75.152-161.74-154.916
		c-1.853-5.495-3.883-7.897-10.441-8.028c-16.943-0.346-25.317-6.731-29.577-23.309c-4.23-16.469-11.388-31.316-19.812-45.892
		c-14.651-25.348-9.913-50.55,13.286-68.143c6.626-5.025,7.161-9.354,5.6-16.854c-10.376-49.893-15.728-100.396-11.34-151.264
		c6.292-72.886,48.347-115.951,120.662-125.095c7.172-0.908,10.062-2.853,11.938-9.817c5.438-20.178,19.498-33.977,36.298-45.238
		c64.044-42.941,137.128-41.926,204.378,2.761c34.403,22.862,63.281,51.616,88.106,84.38c6.07,8.009,11.838,16.978,16.835,22.314
		c22.683,24.205,25.95,52.827,22.847,84.827c-4.353,44.905-6.203,90.075-11.867,134.889c-0.958,7.585,1.163,11.043,7.855,14.84
		c27.71,15.732,35.379,45.05,19.23,72.482c-8.749,14.861-16.927,29.812-21.563,46.565c-4.029,14.555-11.867,25.033-29.104,23.078
		c-4.521-0.513-5.846,1.773-7.073,5.478c-27.676,83.379-85.632,134.578-168.968,158.757
		C934.628,782.623,933.583,783.359,929.776,785.268z"/>
	<g id="shoes_i">
		<g id="svg_1212">
			<path id="shoes_b_i" fill="#69C4A0" d="M712.265,1140.73c0.03-4.394,0.061-8.781,0.083-13.169
				c26.795-11.845,53.505-24.107,80.298-35.948c25.862,12.746,32.159,8.916,52.286,8.359v40.55L712.265,1140.73L712.265,1140.73
				L712.265,1140.73L712.265,1140.73L712.265,1140.73L712.265,1140.73L712.265,1140.73L712.265,1140.73L712.265,1140.73
				L712.265,1140.73L712.265,1140.73L712.265,1140.73L712.265,1140.73L712.265,1140.73z"/>
			<ellipse id="h1_i" fill="#3F8262" cx="777.167" cy="1104.675" rx="3.031" ry="3.76"/>
			<ellipse id="h3_i" fill="#3F8262" cx="756.762" cy="1114.69" rx="3.033" ry="3.761"/>
			<path id="h5_i" fill="#3F8262" d="M735.192,1120.662c1.675,0,3.036,1.688,3.036,3.766c0,2.077-1.361,3.762-3.036,3.762
				c-1.674,0-3.033-1.685-3.033-3.762C732.159,1122.35,733.518,1120.662,735.192,1120.662z"/>
			<path id="end_i" fill="#F7F7F7" d="M678.064,1140.354h34.254v-12.706C687.778,1127.871,680.686,1133.192,678.064,1140.354z"/>
			<rect id="sole_i" x="678.046" y="1140.311" fill="#D2D2D2" width="166.886" height="16.72"/>
			<rect id="sole_c_i" x="745.473" y="1146.167" fill="#69C4A0" width="99.459" height="5.013"/>
			<path id="svg_13" fill="#EA1717" d="M732.962,1117.637l3.67,6.02c0.64,1.043-1.952,3.465-2.573,2.453l-3.731-6.085
				C729.693,1118.986,732.297,1116.554,732.962,1117.637L732.962,1117.637L732.962,1117.637L732.962,1117.637L732.962,1117.637
				L732.962,1117.637L732.962,1117.637L732.962,1117.637L732.962,1117.637L732.962,1117.637L732.962,1117.637z"/>
			<path id="h4_i" fill="#3F8262" d="M746.227,1115.424c1.675,0,3.033,1.681,3.033,3.764c0,2.074-1.358,3.758-3.033,3.758
				c-1.677,0-3.033-1.684-3.033-3.758C743.194,1117.104,744.55,1115.424,746.227,1115.424z"/>
			<path id="h2_i" fill="#3F8262" d="M767.053,1105.615c1.675,0,3.031,1.682,3.031,3.765c0,2.076-1.356,3.763-3.031,3.763
				c-1.68,0-3.036-1.687-3.036-3.763C764.017,1107.297,765.375,1105.615,767.053,1105.615z"/>
			<path id="c5_i" fill="#FFFFFF" d="M732.965,1117.623l3.671,6.018c0.641,1.051-1.952,3.47-2.571,2.457l-3.731-6.086
				C729.695,1118.976,732.302,1116.545,732.965,1117.623L732.965,1117.623L732.965,1117.623L732.965,1117.623L732.965,1117.623
				L732.965,1117.623L732.965,1117.623L732.965,1117.623L732.965,1117.623L732.965,1117.623z"/>
			<path id="c4_i" fill="#FFFFFF" d="M743.946,1112.263l3.668,6.022c0.644,1.046-1.949,3.462-2.571,2.447l-3.73-6.082
				C740.674,1113.615,743.283,1111.183,743.946,1112.263L743.946,1112.263L743.946,1112.263L743.946,1112.263L743.946,1112.263
				L743.946,1112.263L743.946,1112.263L743.946,1112.263L743.946,1112.263L743.946,1112.263L743.946,1112.263z"/>
			<path id="c3_i" fill="#FFFFFF" d="M754.228,1107.454l3.669,6.02c0.644,1.049-1.949,3.468-2.569,2.45l-3.732-6.077
				C750.958,1108.806,753.564,1106.377,754.228,1107.454L754.228,1107.454L754.228,1107.454L754.228,1107.454z"/>
			<path id="c2_i" fill="#FFFFFF" d="M765.014,1102.647l3.674,6.02c0.641,1.049-1.952,3.468-2.572,2.453l-3.732-6.082
				C761.743,1104,764.351,1101.568,765.014,1102.647L765.014,1102.647L765.014,1102.647L765.014,1102.647L765.014,1102.647z"/>
			<path id="c1_i" fill="#FFFFFF" d="M775.48,1104.895c0.011-0.805,3.557-0.873,3.538-0.126v67.102h-3.538V1104.895L775.48,1104.895
				L775.48,1104.895L775.48,1104.895L775.48,1104.895z"/>
		</g>
		<path id="top_i" fill="#59AA87" d="M844.932,1100.779v-5.097c-0.58-1.278-4.48-0.974-5.646,0.22
			c-1.705,1.581-4.976,3.089-9.105,4.812C835.042,1100.601,840.071,1100.891,844.932,1100.779L844.932,1100.779L844.932,1100.779z"
			/>
		<path id="svg_35" fill="#F2F0F0" d="M792.759,1091.822l9.021-10.033c8.455,5.504,10.087,8.081,8.344,16.826L792.759,1091.822
			L792.759,1091.822z"/>
		<rect id="pc_i" x="776.071" y="1171.87" fill="#BFBFBF" width="2.36" height="7.524"/>
		<path id="svg_37" opacity="0.5" fill="#29394B" enable-background="new    " d="M844.764,1099.765"/>
		<ellipse id="circle_i" fill="#FFFFFF" cx="822.343" cy="1121.082" rx="10.398" ry="10.398"/>
		<path id="start_i" fill="#69C4A0" d="M820.326,1118.188l2.001-6.208l2.05,6.259l6.15,0.108l-4.749,3.843l1.646,6.161l-5.098-3.528
			l-5.053,3.634l1.65-6.16l-4.749-3.899L820.326,1118.188L820.326,1118.188L820.326,1118.188L820.326,1118.188L820.326,1118.188
			L820.326,1118.188L820.326,1118.188L820.326,1118.188L820.326,1118.188z"/>
	</g>
	<g id="shoes_d">
		<path id="top_d" fill="#AA6363" d="M947.184,1099.045v-5.541c0.58-1.389,4.173-0.951,5.341,0.352
			c1.697,1.714,5.271,3.254,9.393,5.118C957.063,1098.854,952.037,1099.159,947.184,1099.045L947.184,1099.045L947.184,1099.045z"/>
		<path id="svg_50" fill="#F2F0F0" d="M999.206,1089.771l-9.01-10.161c-8.453,5.572-10.077,8.18-8.337,17.043L999.206,1089.771
			L999.206,1089.771L999.206,1089.771L999.206,1089.771L999.206,1089.771L999.206,1089.771L999.206,1089.771z"/>
		<g id="svg_51">
			<path id="shoes_b_d" fill="#E39180" d="M1079.62,1139.308c-0.026-4.442-0.054-8.892-0.084-13.335
				c-26.768-11.998-53.449-24.417-80.22-36.412c-23.816,10.868-32.125,9.03-52.235,8.467v41.071L1079.62,1139.308L1079.62,1139.308
				L1079.62,1139.308L1079.62,1139.308L1079.62,1139.308L1079.62,1139.308L1079.62,1139.308L1079.62,1139.308z"/>
			<path id="h1_d" fill="#AA6363" d="M1014.782,1098.984c1.674,0,3.031,1.698,3.031,3.805c0,2.105-1.357,3.81-3.031,3.81
				c-1.675,0-3.03-1.704-3.03-3.81C1011.751,1100.683,1013.107,1098.984,1014.782,1098.984z"/>
			<path id="h3_d" fill="#AA6363" d="M1035.167,1109.128c1.675,0,3.032,1.702,3.032,3.809c0,2.103-1.357,3.807-3.032,3.807
				c-1.672,0-3.027-1.704-3.027-3.807C1032.139,1110.83,1033.495,1109.128,1035.167,1109.128z"/>
			<path id="h5_d" fill="#AA6363" d="M1056.717,1118.983c1.674,0,3.031,1.709,3.031,3.812c0,2.1-1.357,3.81-3.031,3.81
				c-1.675,0-3.033-1.71-3.033-3.81C1053.684,1120.69,1055.042,1118.983,1056.717,1118.983z"/>
			<path id="end_d" fill="#F7F7F7" d="M1113.79,1138.928h-34.222v-12.871C1104.082,1126.285,1111.169,1131.675,1113.79,1138.928z"/>
			<rect id="sole_d" x="947.081" y="1138.884" fill="#D2D2D2" width="166.728" height="16.936"/>
			<rect id="sole_c_d" x="947.081" y="1144.812" fill="#E39180" width="99.363" height="5.083"/>
			<path id="svg_59" fill="#EA1717" d="M1058.946,1115.915l-3.672,6.099c-0.641,1.06,1.952,3.511,2.573,2.484l3.729-6.16
				C1062.211,1117.286,1059.607,1114.821,1058.946,1115.915L1058.946,1115.915L1058.946,1115.915L1058.946,1115.915
				L1058.946,1115.915L1058.946,1115.915L1058.946,1115.915L1058.946,1115.915L1058.946,1115.915L1058.946,1115.915z"/>
			<path id="h4_d" fill="#AA6363" d="M1045.691,1113.678c1.676,0,3.033,1.705,3.033,3.807c0,2.106-1.357,3.811-3.033,3.811
				c-1.67,0-3.032-1.704-3.032-3.811C1042.659,1115.383,1044.021,1113.678,1045.691,1113.678z"/>
			<path id="h2_d" fill="#AA6363" d="M1024.889,1103.739c1.669,0,3.03,1.708,3.03,3.812c0,2.102-1.361,3.808-3.03,3.808
				c-1.678,0-3.031-1.706-3.031-3.808C1021.858,1105.447,1023.211,1103.739,1024.889,1103.739z"/>
			<path id="c5_d" fill="#FFFFFF" d="M1058.942,1115.907l-3.668,6.094c-0.643,1.064,1.947,3.513,2.568,2.489l3.729-6.163
				C1062.207,1117.273,1059.602,1114.812,1058.942,1115.907L1058.942,1115.907L1058.942,1115.907L1058.942,1115.907
				L1058.942,1115.907L1058.942,1115.907L1058.942,1115.907L1058.942,1115.907L1058.942,1115.907L1058.942,1115.907z"/>
			<path id="c4_d" fill="#FFFFFF" d="M1047.972,1110.475l-3.665,6.095c-0.645,1.06,1.948,3.511,2.57,2.484l3.724-6.158
				C1051.24,1111.845,1048.637,1109.377,1047.972,1110.475L1047.972,1110.475L1047.972,1110.475L1047.972,1110.475z"/>
			<path id="c3_d" fill="#FFFFFF" d="M1037.7,1105.607l-3.665,6.091c-0.642,1.064,1.946,3.517,2.565,2.49l3.729-6.159
				C1040.969,1106.975,1038.365,1104.511,1037.7,1105.607L1037.7,1105.607L1037.7,1105.607z"/>
			<path id="c2_d" fill="#FFFFFF" d="M1026.923,1100.736l-3.669,6.097c-0.644,1.061,1.949,3.511,2.57,2.484l3.727-6.161
				C1030.189,1102.105,1027.584,1099.64,1026.923,1100.736z"/>
			<path id="c1_d" fill="#FFFFFF" d="M1016.466,1103.012c-0.011-0.813-3.556-0.885-3.538-0.127v67.964h3.538V1103.012
				L1016.466,1103.012L1016.466,1103.012L1016.466,1103.012L1016.466,1103.012z"/>
		</g>
		<rect id="pc_d" x="1013.519" y="1170.849" fill="#BFBFBF" width="2.357" height="7.626"/>
		<path id="svg_68" opacity="0.5" fill="#29394B" enable-background="new    " d="M947.25,1097.815"/>
		<path id="circle_d" fill="#FFFFFF" d="M969.649,1108.879c5.736,0,10.389,4.71,10.389,10.53c0,5.814-4.652,10.53-10.389,10.53
			c-5.738,0-10.395-4.716-10.395-10.53C959.254,1113.589,963.911,1108.879,969.649,1108.879z"/>
		<path id="start_d" fill="#E39180" d="M971.667,1116.477l-2.002-6.294l-2.048,6.349l-6.146,0.106l4.749,3.894l-1.647,6.236
			l5.092-3.57l5.048,3.681l-1.651-6.238l4.749-3.948L971.667,1116.477L971.667,1116.477L971.667,1116.477L971.667,1116.477
			L971.667,1116.477L971.667,1116.477L971.667,1116.477L971.667,1116.477L971.667,1116.477L971.667,1116.477z"/>
	</g>
	<path id="head" fill="#353547" d="M698.602,641.653l-32.044,82.481l-8.437-43.463l-18.551,11.536l7.587-125.057l-21.08,23.062
		l6.745-109.974l-21.926,32.817l8.433-61.198l-16.869,10.645l32.049-85.14l-22.773,10.642l16.868-67.402l-16.868,8.869
		l70.847-131.26l-46.389-11.531l122.29-86.915l-52.289-13.304l150.962-27.494l-34.579-33.702L973.54,85.573l-48.072-50.554
		l74.218,28.384l-41.322-53.215l86.022,79.818l-15.185-78.93l42.173,102.879l67.469-52.327l-49.76,82.479l118.914,47.004
		l-87.707,1.775l92.771,60.309l-26.991,5.32l31.208,124.165l-32.052-31.928l21.087,159.639l-16.864,7.1l21.926,81.594l-37.107,3.545
		l-21.925,101.996l-15.184-23.953l-12.648,29.274l-10.97-36.368l-16.019,35.478l-9.283-45.227l-32.048,38.137l-0.845-56.767
		l-14.335,35.479l28.674-212.853l-30.358,77.161l-41.329-227.934l-0.839,141.017L972.7,345.437l-4.216,62.081l-16.024-38.138
		l-25.304,220.837l-4.215-156.98l-16.023,50.555l2.529-114.411l-67.47,141.017l-20.239-139.241l0.842,226.155l-71.686-64.741
		l34.577,83.369l-39.636-15.083l-5.905,115.299l-25.302-53.215l-10.125,29.269L698.602,641.653L698.602,641.653z"/>
	<g>
		<path fill="#515166" d="M902.089,523.557c-20.718,0.682-21.534,38.864-35.952,59.988c-19.855,29.09-50.234,33.493-69.666,34.936
			c-18.65,1.382-48.336,0.405-71.696-21.326c-13.465-12.529-19.295-22.546-29.855-67.229c-4.031-17.062-14.218-23.561-14.218-23.561
			s-2.442-19.296,2.572-33.715c18.953,0,79.361,1.021,108.326,2.843c58.092,3.655,93.296,17.061,110.49,17.197 M703.933,514.567
			c-2.909,29.42,14.597,65.782,29.265,78.277c10.969,9.343,55.787,29.564,95.467,10.606c36.56-17.471,50.999-71.376,45.721-89.249
			c-2.37-8.031-23.764-25.447-76.447-29.627C772.348,482.542,707.592,477.597,703.933,514.567z"/>
		<g>
			<path fill="#515166" d="M900.306,492.689c17.198-0.137,52.403-13.542,110.491-17.197c28.967-1.821,89.373-2.843,108.325-2.843
				c5.013,14.419,2.573,33.715,2.573,33.715s-10.185,6.498-14.215,23.561c-10.564,44.684-16.393,54.7-29.859,67.229
				c-23.358,21.731-53.043,22.708-71.693,21.326c-19.435-1.442-49.811-5.846-69.666-34.936
				c-14.421-21.124-15.235-59.307-35.953-59.988 M1004.458,484.575c-52.681,4.18-74.074,21.596-76.447,29.627
				c-5.275,17.873,9.164,71.778,45.724,89.249c39.677,18.958,84.498-1.264,95.467-10.606c14.67-12.495,32.174-48.857,29.265-78.277
				C1094.807,477.597,1030.048,482.542,1004.458,484.575z"/>
		</g>
	</g>
	<g id="svg_contend_1_">
		<path fill-rule="evenodd" clip-rule="evenodd" fill="#454458" d="M1252.565,983.912c14.585,1.2,22.611,7.467,22.649,21.475
			c0.005,2.411,1.917,2.985,3.415,3.762c9.507,4.914,14.106,12.231,14.03,23.336c-0.094,13.517,1.454,27.035,1.705,40.563
			c0.082,4.345,0.047,7.805,2.934,11.755c4.711,6.438,0.722,14.718-7.271,16.292c-3.106,0.611-3.865,1.755-3.795,4.689
			c0.137,5.827,1.978,11.514,1.273,17.402c-0.212,1.775,0.184,3.672-2.308,4.285c-1.316,0.322-4.143-0.901-2.867,2.723
			c0.829,2.353,0.878,4.571,4.401,4.231c4.576-0.443,9.141,0.325,13.684,1.054c4.772,0.767,8.122,3.329,10.35,7.508
			c4.744,8.896,2.912,12.07-6.958,12.073c-12.328,0-24.658-0.129-36.985,0.075c-3.742,0.062-5.043-1.235-4.957-4.854
			c0.15-6.449-0.398-12.942,2.086-19.144c0.402-1.01,1.352-2.696-0.215-3.137c-9.461-2.655-5.097-10.176-4.095-14.817
			c1.273-5.896,0.4-11.58,1.03-17.31c0.309-2.812-16.619-2.594-18.49-2.594c-12.936,0.008,5.452,0.098-7.482-0.101
			c-3.533-0.054-20.35,1.529-20.219,4.344c0.371,8.049,0.636,16.104,0.898,24.156c0.096,2.896,0.271,5.771-4.013,5.958
			c-3.268,0.141-1.813,2.458-1.261,3.945c2.24,6.038,1.904,12.306,1.972,18.56c0.038,3.418-0.975,5.052-4.877,4.99
			c-13.943-0.214-27.892-0.187-41.837-0.008c-3.585,0.049-4.473-1.277-4.372-4.601c0.301-9.712,7.295-15.585,19.548-16.079
			c2.201-0.09,4.41-0.123,6.611-0.061c2.191,0.061,3.71-0.179,4.113-2.995c0.33-2.324,0.666-3.81-2.343-4.06
			c-2.602-0.217-1.949-2.469-2.332-4.182c-1.392-6.163,2.355-11.584,2.351-17.549c-0.003-2.511-0.401-3.883-3.233-4.694
			c-7.625-2.191-10.596-10.273-6.14-17.028c1.835-2.782,2.284-5.084,2.249-8.466c-0.19-17.374,0.562-34.757,2.532-52.035
			c0.799-7.027,6.699-10.341,12.05-13.509c3.224-1.908,4.824-3.776,5.269-7.773c1.174-10.591,6.594-15.288,18.978-17.829
			c0.726-0.147,1.432-0.399,2.148-0.604c-0.391-1.835-1.803-1.655-2.895-2.003c-37.2-11.864-63.336-35.306-75.983-72.775
			c-0.869-2.582-1.822-3.712-4.904-3.773c-7.961-0.16-11.896-3.161-13.895-10.948c-1.989-7.736-5.352-14.714-9.311-21.56
			c-6.881-11.907-4.654-23.746,6.245-32.014c3.111-2.36,3.362-4.392,2.629-7.915c-4.874-23.441-7.389-47.166-5.328-71.063
			c2.958-34.238,22.714-54.471,56.687-58.767c3.369-0.426,4.727-1.339,5.609-4.612c2.555-9.479,9.158-15.962,17.052-21.253
			c30.085-20.173,64.419-19.694,96.012,1.3c16.162,10.739,29.729,24.248,41.391,39.64c2.852,3.763,5.561,7.977,7.91,10.482
			c10.654,11.37,12.189,24.816,10.733,39.851c-2.045,21.096-2.916,42.316-5.575,63.366c-0.453,3.565,0.547,5.189,3.688,6.973
			c13.02,7.391,16.623,21.164,9.036,34.053c-4.111,6.979-7.953,14.003-10.131,21.875c-1.893,6.837-5.575,11.758-13.672,10.841
			c-2.126-0.239-2.747,0.832-3.324,2.572c-13.002,39.172-40.229,63.223-79.377,74.583
			C1254.845,982.67,1254.355,983.015,1252.565,983.912z"/>
		<g id="shoes_i_1_">
			<g id="svg_1212_1_">
				<path id="shoes_b_i_1_" fill="#69C4A0" d="M1150.381,1150.902c0.016-2.065,0.03-4.125,0.041-6.186
					c12.588-5.566,25.136-11.325,37.722-16.89c12.148,5.988,15.107,4.19,24.563,3.928v19.05L1150.381,1150.902L1150.381,1150.902
					L1150.381,1150.902L1150.381,1150.902L1150.381,1150.902L1150.381,1150.902L1150.381,1150.902L1150.381,1150.902
					L1150.381,1150.902L1150.381,1150.902L1150.381,1150.902L1150.381,1150.902L1150.381,1150.902L1150.381,1150.902z"/>
				<path id="h1_i_1_" fill="#3F8262" d="M1180.875,1132.196c0.784,0,1.423,0.792,1.423,1.768s-0.639,1.766-1.423,1.766
					c-0.79,0-1.428-0.79-1.428-1.766S1180.084,1132.196,1180.875,1132.196z"/>
				<ellipse id="h3_i_1_" fill="#3F8262" cx="1171.287" cy="1138.668" rx="1.427" ry="1.766"/>
				<path id="h5_i_1_" fill="#3F8262" d="M1161.155,1141.475c0.786,0,1.424,0.793,1.424,1.77c0,0.976-0.638,1.768-1.424,1.768
					c-0.787,0-1.425-0.792-1.425-1.768C1159.73,1142.268,1160.368,1141.475,1161.155,1141.475z"/>
				<path id="end_i_1_" fill="#F7F7F7" d="M1134.317,1150.726h16.091v-5.969C1138.878,1144.86,1135.547,1147.361,1134.317,1150.726z
					"/>
				<rect id="sole_i_1_" x="1134.309" y="1150.705" fill="#D2D2D2" width="78.398" height="7.853"/>
				<rect id="sole_c_i_1_" x="1165.984" y="1153.457" fill="#69C4A0" width="46.724" height="2.354"/>
				<path id="svg_13_1_" fill="#EA1717" d="M1160.105,1140.055l1.725,2.826c0.301,0.489-0.918,1.627-1.208,1.152l-1.752-2.859
					C1158.569,1140.688,1159.792,1139.545,1160.105,1140.055L1160.105,1140.055L1160.105,1140.055L1160.105,1140.055
					L1160.105,1140.055L1160.105,1140.055L1160.105,1140.055L1160.105,1140.055L1160.105,1140.055L1160.105,1140.055
					L1160.105,1140.055z"/>
				<path id="h4_i_1_" fill="#3F8262" d="M1166.339,1139.015c0.786,0,1.424,0.787,1.424,1.766c0,0.977-0.638,1.765-1.424,1.765
					c-0.79,0-1.428-0.788-1.428-1.765C1164.912,1139.802,1165.549,1139.015,1166.339,1139.015z"/>
				<path id="h2_i_1_" fill="#3F8262" d="M1176.124,1134.406c0.784,0,1.422,0.788,1.422,1.768c0,0.976-0.638,1.768-1.422,1.768
					c-0.79,0-1.428-0.792-1.428-1.768C1174.696,1135.194,1175.333,1134.406,1176.124,1134.406z"/>
				<path id="c5_i_1_" fill="#FFFFFF" d="M1160.108,1140.047l1.725,2.826c0.301,0.494-0.918,1.629-1.208,1.154l-1.755-2.859
					C1158.572,1140.682,1159.795,1139.539,1160.108,1140.047L1160.108,1140.047L1160.108,1140.047L1160.108,1140.047
					L1160.108,1140.047L1160.108,1140.047L1160.108,1140.047L1160.108,1140.047L1160.108,1140.047L1160.108,1140.047z"/>
				<path id="c4_i_1_" fill="#FFFFFF" d="M1165.264,1137.527l1.725,2.829c0.304,0.491-0.915,1.626-1.208,1.15l-1.752-2.856
					C1163.73,1138.162,1164.955,1137.021,1165.264,1137.527L1165.264,1137.527L1165.264,1137.527L1165.264,1137.527
					L1165.264,1137.527L1165.264,1137.527L1165.264,1137.527L1165.264,1137.527L1165.264,1137.527L1165.264,1137.527
					L1165.264,1137.527z"/>
				<path id="c3_i_1_" fill="#FFFFFF" d="M1170.095,1135.271l1.727,2.826c0.302,0.492-0.918,1.63-1.208,1.152l-1.752-2.856
					C1168.561,1135.903,1169.786,1134.763,1170.095,1135.271L1170.095,1135.271L1170.095,1135.271L1170.095,1135.271z"/>
				<path id="c2_i_1_" fill="#FFFFFF" d="M1175.162,1133.011l1.728,2.829c0.301,0.492-0.918,1.627-1.208,1.152l-1.752-2.859
					C1173.627,1133.646,1174.852,1132.504,1175.162,1133.011L1175.162,1133.011L1175.162,1133.011L1175.162,1133.011
					L1175.162,1133.011z"/>
				<path id="c1_i_1_" fill="#FFFFFF" d="M1180.083,1134.067c0.002-0.378,1.669-0.41,1.661-0.06v31.522h-1.661V1134.067
					L1180.083,1134.067L1180.083,1134.067L1180.083,1134.067L1180.083,1134.067z"/>
			</g>
			<path id="top_i_1_" fill="#59AA87" d="M1212.708,1132.134v-2.393c-0.272-0.603-2.103-0.46-2.653,0.101
				c-0.799,0.744-2.335,1.452-4.276,2.262C1208.063,1132.05,1210.423,1132.186,1212.708,1132.134L1212.708,1132.134
				L1212.708,1132.134z"/>
			<path id="svg_35_1_" fill="#F2F0F0" d="M1188.196,1127.925l4.24-4.713c3.971,2.587,4.738,3.798,3.919,7.906L1188.196,1127.925
				L1188.196,1127.925z"/>
			<rect id="pc_i_1_" x="1180.357" y="1165.53" fill="#BFBFBF" width="1.109" height="3.535"/>
			<path id="svg_37_1_" opacity="0.5" fill="#29394B" enable-background="new    " d="M1212.63,1131.656"/>
			<ellipse id="circle_i_1_" fill="#FFFFFF" cx="1202.097" cy="1141.671" rx="4.886" ry="4.886"/>
			<path id="start_i_1_" fill="#69C4A0" d="M1201.148,1140.311l0.941-2.914l0.96,2.94l2.891,0.05l-2.229,1.806l0.771,2.895
				l-2.393-1.659l-2.373,1.707l0.774-2.892l-2.232-1.833L1201.148,1140.311L1201.148,1140.311L1201.148,1140.311L1201.148,1140.311
				L1201.148,1140.311L1201.148,1140.311L1201.148,1140.311L1201.148,1140.311L1201.148,1140.311z"/>
		</g>
		<g id="shoes_d_1_">
			<path id="top_d_1_" fill="#AA6363" d="M1260.745,1131.319v-2.604c0.273-0.652,1.96-0.445,2.508,0.165
				c0.799,0.804,2.477,1.529,4.412,2.405C1265.385,1131.23,1263.025,1131.371,1260.745,1131.319L1260.745,1131.319
				L1260.745,1131.319z"/>
			<path id="svg_50_1_" fill="#F2F0F0" d="M1285.182,1126.961l-4.233-4.773c-3.97,2.618-4.733,3.843-3.913,8.007L1285.182,1126.961
				L1285.182,1126.961L1285.182,1126.961L1285.182,1126.961L1285.182,1126.961L1285.182,1126.961L1285.182,1126.961z"/>
			<g id="svg_51_1_">
				<path id="shoes_b_d_1_" fill="#E39180" d="M1322.96,1150.234c-0.014-2.088-0.025-4.179-0.041-6.265
					c-12.572-5.639-25.108-11.472-37.684-17.106c-11.189,5.105-15.092,4.241-24.541,3.977v19.296L1322.96,1150.234L1322.96,1150.234
					L1322.96,1150.234L1322.96,1150.234L1322.96,1150.234L1322.96,1150.234L1322.96,1150.234L1322.96,1150.234z"/>
				<path id="h1_d_1_" fill="#AA6363" d="M1292.5,1131.292c0.787,0,1.425,0.796,1.425,1.784c0,0.991-0.638,1.79-1.425,1.79
					s-1.426-0.799-1.426-1.79C1291.075,1132.088,1291.713,1131.292,1292.5,1131.292z"/>
				<ellipse id="h3_d_1_" fill="#AA6363" cx="1302.078" cy="1137.844" rx="1.422" ry="1.789"/>
				<path id="h5_d_1_" fill="#AA6363" d="M1312.203,1140.685c0.784,0,1.422,0.804,1.422,1.792c0,0.986-0.638,1.792-1.422,1.792
					c-0.787,0-1.428-0.806-1.428-1.792C1310.775,1141.486,1311.416,1140.685,1312.203,1140.685z"/>
				<path id="end_d_1_" fill="#F7F7F7" d="M1339.012,1150.055h-16.075v-6.047
					C1334.452,1144.116,1337.783,1146.647,1339.012,1150.055z"/>
				<rect id="sole_d_1_" x="1260.695" y="1150.034" fill="#D2D2D2" width="78.325" height="7.956"/>
				<rect id="sole_c_d_1_" x="1260.695" y="1152.819" fill="#E39180" width="46.682" height="2.39"/>
				<path id="svg_59_1_" fill="#EA1717" d="M1313.249,1139.245l-1.725,2.864c-0.302,0.497,0.915,1.649,1.208,1.168l1.752-2.896
					C1314.782,1139.887,1313.558,1138.729,1313.249,1139.245L1313.249,1139.245L1313.249,1139.245L1313.249,1139.245
					L1313.249,1139.245L1313.249,1139.245L1313.249,1139.245L1313.249,1139.245L1313.249,1139.245L1313.249,1139.245z"/>
				<path id="h4_d_1_" fill="#AA6363" d="M1307.021,1138.192c0.788,0,1.424,0.803,1.424,1.789c0,0.991-0.636,1.79-1.424,1.79
					c-0.784,0-1.425-0.799-1.425-1.79C1305.596,1138.995,1306.237,1138.192,1307.021,1138.192z"/>
				<path id="h2_d_1_" fill="#AA6363" d="M1297.249,1133.524c0.785,0,1.423,0.804,1.423,1.792c0,0.985-0.638,1.787-1.423,1.787
					c-0.787,0-1.425-0.802-1.425-1.787C1295.824,1134.328,1296.461,1133.524,1297.249,1133.524z"/>
				<path id="c5_d_1_" fill="#FFFFFF" d="M1313.247,1139.24l-1.723,2.864c-0.302,0.499,0.912,1.648,1.205,1.167l1.752-2.895
					C1314.78,1139.883,1313.557,1138.725,1313.247,1139.24L1313.247,1139.24L1313.247,1139.24L1313.247,1139.24L1313.247,1139.24
					L1313.247,1139.24L1313.247,1139.24L1313.247,1139.24L1313.247,1139.24L1313.247,1139.24z"/>
				<path id="c4_d_1_" fill="#FFFFFF" d="M1308.091,1136.688l-1.719,2.865c-0.306,0.496,0.912,1.648,1.205,1.167l1.75-2.895
					C1309.628,1137.331,1308.404,1136.174,1308.091,1136.688L1308.091,1136.688L1308.091,1136.688L1308.091,1136.688z"/>
				<path id="c3_d_1_" fill="#FFFFFF" d="M1303.266,1134.403l-1.721,2.859c-0.302,0.5,0.912,1.654,1.205,1.17l1.751-2.893
					C1304.803,1135.044,1303.579,1133.886,1303.266,1134.403L1303.266,1134.403L1303.266,1134.403z"/>
				<path id="c2_d_1_" fill="#FFFFFF" d="M1298.205,1132.113l-1.722,2.864c-0.304,0.497,0.912,1.649,1.205,1.167l1.75-2.895
					C1299.739,1132.756,1298.514,1131.599,1298.205,1132.113z"/>
				<path id="c1_d_1_" fill="#FFFFFF" d="M1293.292,1133.183c-0.005-0.381-1.672-0.416-1.662-0.061v31.93h1.662V1133.183
					L1293.292,1133.183L1293.292,1133.183L1293.292,1133.183L1293.292,1133.183z"/>
			</g>
			<rect id="pc_d_1_" x="1291.908" y="1165.052" fill="#BFBFBF" width="1.107" height="3.582"/>
			<path id="svg_68_1_" opacity="0.5" fill="#29394B" enable-background="new    " d="M1260.776,1130.741"/>
			<path id="circle_d_1_" fill="#FFFFFF" d="M1271.298,1135.938c2.696,0,4.88,2.215,4.88,4.947c0,2.731-2.184,4.947-4.88,4.947
				s-4.885-2.216-4.885-4.947C1266.414,1138.153,1268.602,1135.938,1271.298,1135.938z"/>
			<path id="start_d_1_" fill="#E39180" d="M1272.247,1139.507l-0.94-2.955l-0.964,2.982l-2.887,0.051l2.232,1.828l-0.774,2.93
				l2.393-1.679l2.37,1.729l-0.776-2.93l2.232-1.856L1272.247,1139.507L1272.247,1139.507L1272.247,1139.507L1272.247,1139.507
				L1272.247,1139.507L1272.247,1139.507L1272.247,1139.507L1272.247,1139.507L1272.247,1139.507L1272.247,1139.507z"/>
		</g>
	</g>
</g>
</svg>
